<svg width="61" height="62" viewBox="0 0 61 62" fill="none" xmlns="http://www.w3.org/2000/svg">
<circle cx="30.273" cy="30.9019" r="30.1362" fill="#219653"/>
<path fill-rule="evenodd" clip-rule="evenodd" d="M20.8633 23.875C20.8633 22.839 21.7033 22 22.7383 22H27.2383C28.2743 22 29.1133 22.84 29.1133 23.875V28.375C29.1133 29.411 28.2733 30.25 27.2383 30.25H22.7383C22.241 30.25 21.7641 30.0525 21.4125 29.7008C21.0608 29.3492 20.8633 28.8723 20.8633 28.375V23.875ZM22.7383 23.5C22.6388 23.5 22.5434 23.5395 22.4731 23.6098C22.4028 23.6802 22.3633 23.7755 22.3633 23.875V28.375C22.3633 28.582 22.5313 28.75 22.7383 28.75H27.2383C27.3377 28.75 27.4331 28.7105 27.5034 28.6402C27.5738 28.5698 27.6133 28.4745 27.6133 28.375V23.875C27.6133 23.7755 27.5738 23.6802 27.5034 23.6098C27.4331 23.5395 27.3377 23.5 27.2383 23.5H22.7383ZM30.6133 23.875C30.6133 22.839 31.4533 22 32.4883 22H36.9883C38.0233 22 38.8633 22.84 38.8633 23.875V28.375C38.8633 29.411 38.0233 30.25 36.9883 30.25H32.4883C31.991 30.25 31.5141 30.0525 31.1625 29.7008C30.8108 29.3492 30.6133 28.8723 30.6133 28.375V23.875ZM32.4883 23.5C32.3888 23.5 32.2934 23.5395 32.2231 23.6098C32.1528 23.6802 32.1133 23.7755 32.1133 23.875V28.375C32.1133 28.582 32.2813 28.75 32.4883 28.75H36.9883C37.0877 28.75 37.1831 28.7105 37.2534 28.6402C37.3238 28.5698 37.3633 28.4745 37.3633 28.375V23.875C37.3633 23.7755 37.3238 23.6802 37.2534 23.6098C37.1831 23.5395 37.0877 23.5 36.9883 23.5H32.4883ZM23.8633 25.75C23.8633 25.5511 23.9423 25.3603 24.083 25.2197C24.2236 25.079 24.4144 25 24.6133 25H25.3633C25.5622 25 25.753 25.079 25.8936 25.2197C26.0343 25.3603 26.1133 25.5511 26.1133 25.75V26.5C26.1133 26.6989 26.0343 26.8897 25.8936 27.0303C25.753 27.171 25.5622 27.25 25.3633 27.25H24.6133C24.4144 27.25 24.2236 27.171 24.083 27.0303C23.9423 26.8897 23.8633 26.6989 23.8633 26.5V25.75ZM33.6133 25.75C33.6133 25.5511 33.6923 25.3603 33.833 25.2197C33.9736 25.079 34.1644 25 34.3633 25H35.1133C35.3122 25 35.503 25.079 35.6436 25.2197C35.7843 25.3603 35.8633 25.5511 35.8633 25.75V26.5C35.8633 26.6989 35.7843 26.8897 35.6436 27.0303C35.503 27.171 35.3122 27.25 35.1133 27.25H34.3633C34.1644 27.25 33.9736 27.171 33.833 27.0303C33.6923 26.8897 33.6133 26.6989 33.6133 26.5V25.75ZM20.8633 33.625C20.8633 32.589 21.7033 31.75 22.7383 31.75H27.2383C28.2743 31.75 29.1133 32.59 29.1133 33.625V38.125C29.1133 39.16 28.2733 40 27.2383 40H22.7383C22.241 40 21.7641 39.8025 21.4125 39.4508C21.0608 39.0992 20.8633 38.6223 20.8633 38.125V33.625ZM22.7383 33.25C22.6388 33.25 22.5434 33.2895 22.4731 33.3598C22.4028 33.4302 22.3633 33.5255 22.3633 33.625V38.125C22.3633 38.332 22.5313 38.5 22.7383 38.5H27.2383C27.3377 38.5 27.4331 38.4605 27.5034 38.3902C27.5738 38.3198 27.6133 38.2245 27.6133 38.125V33.625C27.6133 33.5255 27.5738 33.4302 27.5034 33.3598C27.4331 33.2895 27.3377 33.25 27.2383 33.25H22.7383ZM30.6133 32.5C30.6133 32.3011 30.6923 32.1103 30.833 31.9697C30.9736 31.829 31.1644 31.75 31.3633 31.75H32.1133C32.3122 31.75 32.503 31.829 32.6436 31.9697C32.7843 32.1103 32.8633 32.3011 32.8633 32.5V33.25C32.8633 33.4489 32.7843 33.6397 32.6436 33.7803C32.503 33.921 32.3122 34 32.1133 34H31.3633C31.1644 34 30.9736 33.921 30.833 33.7803C30.6923 33.6397 30.6133 33.4489 30.6133 33.25V32.5ZM36.6133 32.5C36.6133 32.3011 36.6923 32.1103 36.833 31.9697C36.9736 31.829 37.1644 31.75 37.3633 31.75H38.1133C38.3122 31.75 38.503 31.829 38.6436 31.9697C38.7843 32.1103 38.8633 32.3011 38.8633 32.5V33.25C38.8633 33.4489 38.7843 33.6397 38.6436 33.7803C38.503 33.921 38.3122 34 38.1133 34H37.3633C37.1644 34 36.9736 33.921 36.833 33.7803C36.6923 33.6397 36.6133 33.4489 36.6133 33.25V32.5ZM23.8633 35.5C23.8633 35.3011 23.9423 35.1103 24.083 34.9697C24.2236 34.829 24.4144 34.75 24.6133 34.75H25.3633C25.5622 34.75 25.753 34.829 25.8936 34.9697C26.0343 35.1103 26.1133 35.3011 26.1133 35.5V36.25C26.1133 36.4489 26.0343 36.6397 25.8936 36.7803C25.753 36.921 25.5622 37 25.3633 37H24.6133C24.4144 37 24.2236 36.921 24.083 36.7803C23.9423 36.6397 23.8633 36.4489 23.8633 36.25V35.5ZM33.6133 35.5C33.6133 35.3011 33.6923 35.1103 33.833 34.9697C33.9736 34.829 34.1644 34.75 34.3633 34.75H35.1133C35.3122 34.75 35.503 34.829 35.6436 34.9697C35.7843 35.1103 35.8633 35.3011 35.8633 35.5V36.25C35.8633 36.4489 35.7843 36.6397 35.6436 36.7803C35.503 36.921 35.3122 37 35.1133 37H34.3633C34.1644 37 33.9736 36.921 33.833 36.7803C33.6923 36.6397 33.6133 36.4489 33.6133 36.25V35.5ZM30.6133 38.5C30.6133 38.3011 30.6923 38.1103 30.833 37.9697C30.9736 37.829 31.1644 37.75 31.3633 37.75H32.1133C32.3122 37.75 32.503 37.829 32.6436 37.9697C32.7843 38.1103 32.8633 38.3011 32.8633 38.5V39.25C32.8633 39.4489 32.7843 39.6397 32.6436 39.7803C32.503 39.921 32.3122 40 32.1133 40H31.3633C31.1644 40 30.9736 39.921 30.833 39.7803C30.6923 39.6397 30.6133 39.4489 30.6133 39.25V38.5ZM36.6133 38.5C36.6133 38.3011 36.6923 38.1103 36.833 37.9697C36.9736 37.829 37.1644 37.75 37.3633 37.75H38.1133C38.3122 37.75 38.503 37.829 38.6436 37.9697C38.7843 38.1103 38.8633 38.3011 38.8633 38.5V39.25C38.8633 39.4489 38.7843 39.6397 38.6436 39.7803C38.503 39.921 38.3122 40 38.1133 40H37.3633C37.1644 40 36.9736 39.921 36.833 39.7803C36.6923 39.6397 36.6133 39.4489 36.6133 39.25V38.5Z" fill="white"/>
</svg>
