<svg width="368" height="461" viewBox="0 0 368 461" fill="none" xmlns="http://www.w3.org/2000/svg">
<rect x="64.5" y="0.5" width="238.999" height="239" rx="4.5" fill="#3D4080" fill-opacity="0.1"/>
<path d="M276.099 115.899V107.999H268.099V123.899H260.199V115.999H252.099V131.999H275.999V139.999H268.099V148.099H275.999V163.998H252.099V139.999H243.999V131.999H235.899V115.999H251.999V99.9988H236.199V91.8988H251.999V84.0989H227.999V99.9988H220.099V107.999H212.299V124.099H220.199V131.999H235.999V139.999H228.099V147.899H220.099V139.999H203.999V131.999H195.999V107.999H203.999V83.9989H188V67.999H180V83.5989H164V75.9989H156.2V67.8989H164V59.999H156V51.999H148V83.6989H132V91.5988H139.9V99.9988H132C132 97.2988 132 94.5988 132 91.9988H115.8V84.0989H107.9V91.9988H99.8999V99.9988H91.8V107.999H84V115.999H91.9V131.999H107.9V139.999H115.9V131.999H131.9V139.999H115.9V155.799H139.9V147.999H132V139.999H139.9C139.9 142.599 139.9 145.299 139.9 147.899H147.5V156.199V171.998H155.4V164.098H164V156.299H172V163.998H195.999V156.099H188.2V148.199H211.999V155.899H203.999V171.998H212.099V188.098H220.099V195.998H228.099V188.298H243.999V204.198H235.999V212.098H228.199V219.998H252.099V203.998H259.999V188.098H252.199V172.198H260.099V179.998H268.099V172.198H276.099V179.998H283.999V115.899H276.099ZM116.1 123.899H99.9999V115.999H107.9V99.9988H115.8L116.1 123.899ZM124 99.9988H131.8V107.999H139.9V99.9988H147.5V123.999H140V115.999H131.9V123.999H124V99.9988ZM139.8 131.999H132V123.999H139.9L139.8 131.999ZM139.8 139.999V131.999H147.4V139.999H139.8ZM195.699 99.9988H184V91.8988H195.899L195.699 99.9988ZM219.899 115.999V107.999H235.999V115.999H219.899ZM243.999 179.998H220.099V156.199H243.999V179.998Z" fill="#0C1F40"/>
<path d="M164.1 196H164V196.1L164.1 196Z" fill="#0C1F40"/>
<path d="M203.999 172.099H196.099V179.999H188.1V172.199H172V179.999H164V172.099H156V188.199H148V195.999H164V188.199H180V196.099H195.899V204.199H188.1V219.999H196.099V212.199H203.999V219.999H219.799V204.099H211.999V188.099H203.999V172.099ZM84 219.999H139.8V164.199H84V219.999ZM92 172.199H132V212.199H92V172.199ZM283.999 20H228.099V75.7997H283.999V20ZM275.999 67.7998H235.999V27.8H275.999V67.7998ZM139.8 20H84V75.7997H139.8V20ZM131.8 67.7998H91.8V27.8H131.8V67.7998Z" fill="#0C1F40"/>
<path d="M180.101 43.7999H187.901V20H180.001V28H171.901V35.7999H155.902V27.9H148.102V43.9999H156.002V51.8998H180.101V43.7999Z" fill="#0C1F40"/>
<path d="M131.998 91.8984H131.898V91.9984H131.998V91.8984Z" fill="#0C1F40"/>
<path d="M195.9 75.8995H204V68.0995H212.1V75.8995H219.9V52.0996H188V67.8995H195.9V75.8995Z" fill="#0C1F40"/>
<path d="M212.1 76.0004V75.9004H212L212.1 76.0004Z" fill="#0C1F40"/>
<path d="M204.002 43.7999H212.001V35.7999H219.801V27.8H212.001V20H196.102V35.9999H204.002V43.7999Z" fill="#0C1F40"/>
<path d="M268.002 99.9986H276.101V108.099H284.001V91.8986H276.101V84.0986H260.102V91.8986H268.002V99.9986Z" fill="#0C1F40"/>
<path d="M139.898 148.1H139.998V148H139.898V148.1Z" fill="#0C1F40"/>
<path d="M91.9 148.099H84V155.899H99.8999V147.999H107.9V139.999H91.9V148.099Z" fill="#0C1F40"/>
<path d="M155.902 204.198H148.102V219.998H164.001V212.198H156.002L155.902 204.198Z" fill="#0C1F40"/>
<path d="M164.1 196L164 196.1H164.1V196Z" fill="#0C1F40"/>
<path d="M179.8 212.1V204H171.9V196H164C164 201.4 164 206.7 164 212.1H179.8ZM276.199 212.2H268.2V220H283.999V204.2H276.199V212.2Z" fill="#0C1F40"/>
<path d="M84 84.0986V91.8986H99.8999V84.0986H84Z" fill="#0C1F40"/>
<path d="M220 99.8994V99.9994H220.1V99.8994H220Z" fill="#0C1F40"/>
<path d="M212.102 83.999V99.999H220.002V83.999H212.102Z" fill="#0C1F40"/>
<path d="M212 83.9984H212.1V83.8984L212 83.9984Z" fill="#0C1F40"/>
<path d="M260.102 99.999V91.999H252.102V99.999H260.102Z" fill="#0C1F40"/>
<path d="M84 131.999V139.999H91.9V131.999H84Z" fill="#0C1F40"/>
<path d="M219.898 76.0004H219.998V75.9004L219.898 76.0004Z" fill="#0C1F40"/>
<path d="M227.998 83.8984H227.898V83.9984L227.998 83.8984Z" fill="#0C1F40"/>
<path d="M228 83.9009V76.001H220V83.9009H228Z" fill="#0C1F40"/>
<path d="M219.998 83.9984V83.8984H219.898L219.998 83.9984Z" fill="#0C1F40"/>
<path d="M227.898 75.9004V76.0004H227.998L227.898 75.9004Z" fill="#0C1F40"/>
<path d="M164.006 68.0004V67.9004H163.906V68.0004H164.006Z" fill="#0C1F40"/>
<path d="M172 75.9V68H164V75.9H172ZM268.1 187.899H276.099V179.999H268.1V187.899Z" fill="#0C1F40"/>
<path d="M180 60H172V67.8H180V60Z" fill="#0C1F40"/>
<path d="M164 20H156V27.9H164V20Z" fill="#0C1F40"/>
<path d="M260.199 155.9H268.099V148.1H260.199V155.9ZM235.999 164.2H228.199V171.9H235.999V164.2ZM100 203.9H124V180H100V203.9ZM268.099 36.001H243.999V60.0009H267.899L268.099 36.001ZM124 36.101H100V60.0009H124V36.101Z" fill="#0C1F40"/>
<rect x="64.5" y="0.5" width="238.999" height="239" rx="4.5" stroke="#3D4080"/>
<rect width="368" height="160" transform="translate(0 301)" fill="#3D4080" fill-opacity="0.05"/>
<path d="M131.75 358L128.438 348.461H128.375C128.464 349.878 128.508 351.206 128.508 352.445V358H126.812V346.578H129.445L132.617 355.664H132.664L135.93 346.578H138.57V358H136.773V352.352C136.773 351.784 136.786 351.044 136.812 350.133C136.844 349.221 136.87 348.669 136.891 348.477H136.828L133.398 358H131.75ZM143.219 358H141.383V349.359H143.219V358ZM141.273 347.07C141.273 346.742 141.362 346.49 141.539 346.312C141.721 346.135 141.979 346.047 142.312 346.047C142.635 346.047 142.885 346.135 143.062 346.312C143.245 346.49 143.336 346.742 143.336 347.07C143.336 347.383 143.245 347.63 143.062 347.812C142.885 347.99 142.635 348.078 142.312 348.078C141.979 348.078 141.721 347.99 141.539 347.812C141.362 347.63 141.273 347.383 141.273 347.07ZM149.336 358.156C148.029 358.156 147.034 357.776 146.352 357.016C145.674 356.25 145.336 355.154 145.336 353.727C145.336 352.273 145.69 351.156 146.398 350.375C147.112 349.594 148.141 349.203 149.484 349.203C150.396 349.203 151.216 349.372 151.945 349.711L151.391 351.188C150.615 350.885 149.974 350.734 149.469 350.734C147.974 350.734 147.227 351.727 147.227 353.711C147.227 354.68 147.411 355.409 147.781 355.898C148.156 356.383 148.703 356.625 149.422 356.625C150.24 356.625 151.013 356.422 151.742 356.016V357.617C151.414 357.81 151.062 357.948 150.688 358.031C150.318 358.115 149.867 358.156 149.336 358.156ZM161.375 358H159.531V352.688C159.531 352.021 159.396 351.523 159.125 351.195C158.859 350.867 158.435 350.703 157.852 350.703C157.081 350.703 156.513 350.935 156.148 351.398C155.789 351.857 155.609 352.628 155.609 353.711V358H153.773V345.844H155.609V348.93C155.609 349.424 155.578 349.953 155.516 350.516H155.633C155.883 350.099 156.229 349.776 156.672 349.547C157.12 349.318 157.641 349.203 158.234 349.203C160.328 349.203 161.375 350.258 161.375 352.367V358ZM169.336 358L168.969 356.797H168.906C168.49 357.323 168.07 357.682 167.648 357.875C167.227 358.062 166.685 358.156 166.023 358.156C165.174 358.156 164.51 357.927 164.031 357.469C163.557 357.01 163.32 356.362 163.32 355.523C163.32 354.633 163.651 353.961 164.312 353.508C164.974 353.055 165.982 352.807 167.336 352.766L168.828 352.719V352.258C168.828 351.706 168.698 351.294 168.438 351.023C168.182 350.747 167.784 350.609 167.242 350.609C166.799 350.609 166.375 350.674 165.969 350.805C165.562 350.935 165.172 351.089 164.797 351.266L164.203 349.953C164.672 349.708 165.185 349.523 165.742 349.398C166.299 349.268 166.826 349.203 167.32 349.203C168.419 349.203 169.247 349.443 169.805 349.922C170.367 350.401 170.648 351.154 170.648 352.18V358H169.336ZM166.602 356.75C167.268 356.75 167.802 356.565 168.203 356.195C168.609 355.82 168.812 355.297 168.812 354.625V353.875L167.703 353.922C166.839 353.953 166.208 354.099 165.812 354.359C165.422 354.615 165.227 355.008 165.227 355.539C165.227 355.924 165.341 356.224 165.57 356.438C165.799 356.646 166.143 356.75 166.602 356.75ZM176.984 358.156C175.641 358.156 174.589 357.766 173.828 356.984C173.073 356.198 172.695 355.117 172.695 353.742C172.695 352.331 173.047 351.221 173.75 350.414C174.453 349.607 175.419 349.203 176.648 349.203C177.789 349.203 178.69 349.549 179.352 350.242C180.013 350.935 180.344 351.888 180.344 353.102V354.094H174.586C174.612 354.932 174.839 355.578 175.266 356.031C175.693 356.479 176.294 356.703 177.07 356.703C177.581 356.703 178.055 356.656 178.492 356.562C178.935 356.464 179.409 356.302 179.914 356.078V357.57C179.466 357.784 179.013 357.935 178.555 358.023C178.096 358.112 177.573 358.156 176.984 358.156ZM176.648 350.594C176.065 350.594 175.596 350.779 175.242 351.148C174.893 351.518 174.685 352.057 174.617 352.766H178.539C178.529 352.052 178.357 351.513 178.023 351.148C177.69 350.779 177.232 350.594 176.648 350.594ZM184.266 358H182.43V345.844H184.266V358ZM200.766 358H198.477L192.859 348.898H192.797L192.836 349.406C192.909 350.375 192.945 351.26 192.945 352.062V358H191.25V346.578H193.516L199.117 355.633H199.164C199.154 355.513 199.133 355.078 199.102 354.328C199.07 353.573 199.055 352.984 199.055 352.562V346.578H200.766V358ZM207.359 358.156C206.016 358.156 204.964 357.766 204.203 356.984C203.448 356.198 203.07 355.117 203.07 353.742C203.07 352.331 203.422 351.221 204.125 350.414C204.828 349.607 205.794 349.203 207.023 349.203C208.164 349.203 209.065 349.549 209.727 350.242C210.388 350.935 210.719 351.888 210.719 353.102V354.094H204.961C204.987 354.932 205.214 355.578 205.641 356.031C206.068 356.479 206.669 356.703 207.445 356.703C207.956 356.703 208.43 356.656 208.867 356.562C209.31 356.464 209.784 356.302 210.289 356.078V357.57C209.841 357.784 209.388 357.935 208.93 358.023C208.471 358.112 207.948 358.156 207.359 358.156ZM207.023 350.594C206.44 350.594 205.971 350.779 205.617 351.148C205.268 351.518 205.06 352.057 204.992 352.766H208.914C208.904 352.052 208.732 351.513 208.398 351.148C208.065 350.779 207.607 350.594 207.023 350.594ZM214.641 358H212.805V345.844H214.641V358ZM223.078 355.539C223.078 356.383 222.771 357.031 222.156 357.484C221.542 357.932 220.661 358.156 219.516 358.156C218.365 358.156 217.44 357.982 216.742 357.633V356.047C217.758 356.516 218.703 356.75 219.578 356.75C220.708 356.75 221.273 356.409 221.273 355.727C221.273 355.508 221.211 355.326 221.086 355.18C220.961 355.034 220.755 354.883 220.469 354.727C220.182 354.57 219.784 354.393 219.273 354.195C218.279 353.81 217.604 353.424 217.25 353.039C216.901 352.654 216.727 352.154 216.727 351.539C216.727 350.799 217.023 350.227 217.617 349.82C218.216 349.409 219.029 349.203 220.055 349.203C221.07 349.203 222.031 349.409 222.938 349.82L222.344 351.203C221.411 350.818 220.628 350.625 219.992 350.625C219.023 350.625 218.539 350.901 218.539 351.453C218.539 351.724 218.664 351.953 218.914 352.141C219.169 352.328 219.721 352.586 220.57 352.914C221.284 353.19 221.802 353.443 222.125 353.672C222.448 353.901 222.688 354.167 222.844 354.469C223 354.766 223.078 355.122 223.078 355.539ZM232.734 353.664C232.734 355.076 232.372 356.177 231.648 356.969C230.924 357.76 229.917 358.156 228.625 358.156C227.818 358.156 227.104 357.974 226.484 357.609C225.865 357.245 225.388 356.721 225.055 356.039C224.721 355.357 224.555 354.565 224.555 353.664C224.555 352.263 224.914 351.169 225.633 350.383C226.352 349.596 227.365 349.203 228.672 349.203C229.922 349.203 230.911 349.607 231.641 350.414C232.37 351.216 232.734 352.299 232.734 353.664ZM226.445 353.664C226.445 355.659 227.182 356.656 228.656 356.656C230.115 356.656 230.844 355.659 230.844 353.664C230.844 351.69 230.109 350.703 228.641 350.703C227.87 350.703 227.31 350.958 226.961 351.469C226.617 351.979 226.445 352.711 226.445 353.664ZM242.453 358H240.609V352.688C240.609 352.021 240.474 351.523 240.203 351.195C239.938 350.867 239.513 350.703 238.93 350.703C238.154 350.703 237.586 350.932 237.227 351.391C236.867 351.849 236.688 352.617 236.688 353.695V358H234.852V349.359H236.289L236.547 350.492H236.641C236.901 350.081 237.271 349.763 237.75 349.539C238.229 349.315 238.76 349.203 239.344 349.203C241.417 349.203 242.453 350.258 242.453 352.367V358Z" fill="#3D4080"/>
<path d="M159.836 390.789C159.389 390.789 159.016 390.732 158.715 390.618V389.244C159.098 389.34 159.43 389.388 159.713 389.388C160.606 389.388 161.053 388.823 161.053 387.692V378.006H162.693V387.638C162.693 388.659 162.45 389.438 161.962 389.976C161.479 390.518 160.77 390.789 159.836 390.789ZM170.192 385.847C170.192 386.585 169.924 387.152 169.386 387.549C168.848 387.941 168.078 388.137 167.075 388.137C166.068 388.137 165.259 387.984 164.648 387.679V386.291C165.537 386.701 166.364 386.906 167.13 386.906C168.119 386.906 168.613 386.608 168.613 386.011C168.613 385.819 168.559 385.66 168.449 385.532C168.34 385.405 168.16 385.272 167.909 385.136C167.659 384.999 167.31 384.844 166.863 384.671C165.993 384.334 165.403 383.996 165.093 383.659C164.787 383.322 164.635 382.884 164.635 382.347C164.635 381.7 164.895 381.198 165.414 380.843C165.938 380.483 166.649 380.303 167.547 380.303C168.436 380.303 169.276 380.483 170.069 380.843L169.55 382.053C168.734 381.715 168.048 381.547 167.492 381.547C166.645 381.547 166.221 381.788 166.221 382.271C166.221 382.508 166.33 382.709 166.549 382.873C166.772 383.037 167.255 383.263 167.998 383.55C168.622 383.791 169.076 384.012 169.358 384.213C169.641 384.413 169.851 384.646 169.987 384.91C170.124 385.17 170.192 385.482 170.192 385.847ZM177.015 385.847C177.015 386.585 176.746 387.152 176.208 387.549C175.67 387.941 174.9 388.137 173.897 388.137C172.89 388.137 172.081 387.984 171.471 387.679V386.291C172.359 386.701 173.187 386.906 173.952 386.906C174.941 386.906 175.436 386.608 175.436 386.011C175.436 385.819 175.381 385.66 175.271 385.532C175.162 385.405 174.982 385.272 174.731 385.136C174.481 384.999 174.132 384.844 173.686 384.671C172.815 384.334 172.225 383.996 171.915 383.659C171.61 383.322 171.457 382.884 171.457 382.347C171.457 381.7 171.717 381.198 172.236 380.843C172.76 380.483 173.471 380.303 174.369 380.303C175.258 380.303 176.099 380.483 176.892 380.843L176.372 382.053C175.556 381.715 174.87 381.547 174.314 381.547C173.467 381.547 173.043 381.788 173.043 382.271C173.043 382.508 173.152 382.709 173.371 382.873C173.594 383.037 174.077 383.263 174.82 383.55C175.445 383.791 175.898 384.012 176.181 384.213C176.463 384.413 176.673 384.646 176.81 384.91C176.946 385.17 177.015 385.482 177.015 385.847ZM191.438 382.989C191.438 384.616 191.031 385.881 190.215 386.783C189.404 387.686 188.253 388.137 186.763 388.137C185.254 388.137 184.094 387.69 183.283 386.797C182.477 385.899 182.073 384.625 182.073 382.976C182.073 381.326 182.479 380.059 183.29 379.175C184.106 378.291 185.268 377.849 186.776 377.849C188.262 377.849 189.41 378.298 190.222 379.195C191.033 380.093 191.438 381.358 191.438 382.989ZM183.81 382.989C183.81 384.22 184.058 385.154 184.555 385.792C185.051 386.425 185.787 386.742 186.763 386.742C187.733 386.742 188.465 386.428 188.957 385.799C189.454 385.17 189.702 384.233 189.702 382.989C189.702 381.763 189.456 380.834 188.964 380.2C188.476 379.567 187.747 379.25 186.776 379.25C185.797 379.25 185.056 379.567 184.555 380.2C184.058 380.834 183.81 381.763 183.81 382.989ZM200.065 388H198.452V383.352C198.452 382.768 198.334 382.333 198.097 382.046C197.864 381.759 197.493 381.615 196.982 381.615C196.303 381.615 195.807 381.816 195.492 382.217C195.178 382.618 195.021 383.29 195.021 384.233V388H193.414V380.439H194.672L194.897 381.431H194.979C195.207 381.071 195.531 380.793 195.95 380.597C196.369 380.401 196.834 380.303 197.345 380.303C199.159 380.303 200.065 381.226 200.065 383.071V388ZM205.603 388.137C204.427 388.137 203.506 387.795 202.841 387.111C202.18 386.423 201.85 385.478 201.85 384.274C201.85 383.039 202.157 382.069 202.772 381.362C203.388 380.656 204.233 380.303 205.309 380.303C206.307 380.303 207.095 380.606 207.674 381.212C208.253 381.818 208.542 382.652 208.542 383.714V384.582H203.504C203.527 385.316 203.725 385.881 204.099 386.277C204.472 386.669 204.999 386.865 205.678 386.865C206.124 386.865 206.539 386.824 206.922 386.742C207.309 386.656 207.724 386.514 208.166 386.318V387.624C207.774 387.811 207.378 387.943 206.977 388.021C206.576 388.098 206.118 388.137 205.603 388.137ZM205.309 381.52C204.798 381.52 204.388 381.681 204.078 382.005C203.773 382.328 203.59 382.8 203.531 383.42H206.963C206.954 382.796 206.803 382.324 206.512 382.005C206.22 381.681 205.819 381.52 205.309 381.52Z" fill="#3D4080"/>
<path d="M149.985 417V407.006H151.619V417H149.985ZM162.393 411.907C162.393 413.557 161.935 414.819 161.019 415.694C160.103 416.565 158.783 417 157.061 417H154.265V407.006H157.354C158.945 407.006 160.182 407.434 161.066 408.291C161.951 409.148 162.393 410.353 162.393 411.907ZM160.67 411.962C160.67 409.569 159.551 408.373 157.313 408.373H155.898V415.626H157.061C159.467 415.626 160.67 414.405 160.67 411.962ZM164.136 416.146C164.136 415.813 164.222 415.558 164.396 415.38C164.569 415.202 164.819 415.113 165.147 415.113C165.48 415.113 165.733 415.207 165.906 415.394C166.079 415.576 166.166 415.826 166.166 416.146C166.166 416.469 166.077 416.727 165.899 416.918C165.726 417.105 165.476 417.198 165.147 417.198C164.819 417.198 164.569 417.105 164.396 416.918C164.222 416.731 164.136 416.474 164.136 416.146ZM164.136 410.308C164.136 409.619 164.473 409.275 165.147 409.275C165.489 409.275 165.744 409.367 165.913 409.549C166.082 409.731 166.166 409.984 166.166 410.308C166.166 410.631 166.077 410.889 165.899 411.08C165.726 411.267 165.476 411.36 165.147 411.36C164.819 411.36 164.569 411.267 164.396 411.08C164.222 410.893 164.136 410.636 164.136 410.308ZM178.108 417H171.334V415.783L173.911 413.192C174.672 412.413 175.176 411.862 175.422 411.538C175.673 411.21 175.855 410.902 175.969 410.615C176.083 410.328 176.14 410.021 176.14 409.692C176.14 409.241 176.003 408.886 175.729 408.626C175.461 408.366 175.087 408.236 174.608 408.236C174.226 408.236 173.854 408.307 173.494 408.448C173.139 408.59 172.726 408.845 172.257 409.214L171.389 408.154C171.945 407.685 172.485 407.352 173.009 407.156C173.533 406.96 174.091 406.862 174.684 406.862C175.613 406.862 176.358 407.106 176.919 407.594C177.479 408.077 177.76 408.729 177.76 409.549C177.76 410 177.678 410.428 177.514 410.834C177.354 411.24 177.106 411.659 176.769 412.092C176.436 412.52 175.88 413.101 175.101 413.835L173.364 415.517V415.585H178.108V417ZM185.73 409.303C185.73 409.936 185.546 410.465 185.177 410.889C184.808 411.308 184.288 411.59 183.618 411.736V411.791C184.42 411.891 185.022 412.142 185.423 412.543C185.824 412.939 186.024 413.468 186.024 414.129C186.024 415.09 185.685 415.833 185.006 416.357C184.327 416.877 183.361 417.137 182.107 417.137C181 417.137 180.066 416.957 179.305 416.597V415.168C179.729 415.378 180.177 415.539 180.651 415.653C181.125 415.767 181.581 415.824 182.019 415.824C182.793 415.824 183.372 415.681 183.755 415.394C184.138 415.106 184.329 414.662 184.329 414.061C184.329 413.527 184.117 413.135 183.693 412.885C183.27 412.634 182.604 412.509 181.697 412.509H180.829V411.203H181.711C183.306 411.203 184.104 410.652 184.104 409.549C184.104 409.12 183.965 408.79 183.687 408.558C183.409 408.325 182.998 408.209 182.456 408.209C182.078 408.209 181.713 408.264 181.362 408.373C181.011 408.478 180.597 408.685 180.118 408.995L179.332 407.874C180.248 407.2 181.312 406.862 182.524 406.862C183.532 406.862 184.318 407.079 184.883 407.512C185.448 407.945 185.73 408.542 185.73 409.303ZM190.721 410.759C191.728 410.759 192.525 411.025 193.113 411.559C193.701 412.092 193.995 412.819 193.995 413.739C193.995 414.806 193.66 415.64 192.99 416.241C192.325 416.838 191.377 417.137 190.146 417.137C189.03 417.137 188.153 416.957 187.515 416.597V415.141C187.884 415.35 188.308 415.512 188.786 415.626C189.265 415.74 189.709 415.797 190.119 415.797C190.844 415.797 191.395 415.635 191.773 415.312C192.152 414.988 192.341 414.514 192.341 413.89C192.341 412.696 191.58 412.099 190.058 412.099C189.843 412.099 189.579 412.121 189.265 412.167C188.95 412.208 188.674 412.256 188.438 412.311L187.72 411.887L188.103 407.006H193.298V408.435H189.518L189.292 410.909C189.451 410.882 189.645 410.85 189.873 410.813C190.105 410.777 190.388 410.759 190.721 410.759ZM195.355 412.741C195.355 408.831 196.948 406.876 200.134 406.876C200.635 406.876 201.059 406.915 201.405 406.992V408.332C201.059 408.232 200.658 408.182 200.202 408.182C199.131 408.182 198.327 408.469 197.789 409.043C197.251 409.617 196.96 410.538 196.914 411.805H196.996C197.21 411.436 197.511 411.151 197.898 410.95C198.286 410.745 198.742 410.643 199.266 410.643C200.173 410.643 200.879 410.921 201.385 411.477C201.891 412.033 202.144 412.787 202.144 413.739C202.144 414.787 201.85 415.617 201.262 416.228C200.678 416.834 199.881 417.137 198.869 417.137C198.154 417.137 197.532 416.966 197.003 416.624C196.474 416.278 196.066 415.776 195.779 415.12C195.497 414.459 195.355 413.666 195.355 412.741ZM198.842 415.811C199.393 415.811 199.817 415.633 200.113 415.277C200.414 414.922 200.564 414.414 200.564 413.753C200.564 413.179 200.423 412.728 200.141 412.399C199.863 412.071 199.443 411.907 198.883 411.907C198.536 411.907 198.217 411.982 197.926 412.133C197.634 412.279 197.404 412.481 197.235 412.741C197.067 412.996 196.982 413.258 196.982 413.527C196.982 414.17 197.156 414.712 197.502 415.154C197.853 415.592 198.299 415.811 198.842 415.811ZM205.65 417H204.03V407.006H209.67V408.387H205.65V411.511H209.417V412.898H205.65V417ZM215.569 411.579H219.247V416.597C218.646 416.793 218.067 416.932 217.511 417.014C216.959 417.096 216.362 417.137 215.72 417.137C214.207 417.137 213.04 416.69 212.22 415.797C211.399 414.899 210.989 413.634 210.989 412.003C210.989 410.394 211.452 409.136 212.377 408.229C213.302 407.318 214.576 406.862 216.198 406.862C217.242 406.862 218.231 407.063 219.165 407.464L218.591 408.824C217.78 408.451 216.968 408.264 216.157 408.264C215.091 408.264 214.248 408.599 213.628 409.269C213.008 409.938 212.698 410.854 212.698 412.017C212.698 413.238 212.976 414.168 213.532 414.806C214.093 415.439 214.897 415.756 215.945 415.756C216.474 415.756 217.039 415.69 217.641 415.558V412.98H215.569V411.579Z" fill="#3D4080"/>
</svg>
