<svg width="57" height="57" viewBox="0 0 57 57" fill="none" xmlns="http://www.w3.org/2000/svg">
<circle cx="28.5" cy="28.5" r="28.087" fill="#3D4080" fill-opacity="0.05" stroke="#3D4080" stroke-width="0.826087"/>
<g clip-path="url(#clip0_1991_816)">
<path d="M23.3543 28.5253C21.8327 28.5723 20.5883 29.1734 19.6209 30.3286H17.7331C16.9629 30.3286 16.3149 30.1384 15.7889 29.758C15.263 29.3776 15 28.8212 15 28.0886C15 24.7732 15.5823 23.1155 16.7469 23.1155C16.8033 23.1155 17.0076 23.2141 17.3598 23.4113C17.712 23.6085 18.1698 23.8081 18.7333 24.0101C19.2969 24.212 19.8557 24.3129 20.4098 24.3129C21.0391 24.3129 21.6637 24.2049 22.2836 23.9889C22.2366 24.3364 22.2131 24.6464 22.2131 24.9187C22.2131 26.2242 22.5935 27.4264 23.3543 28.5253ZM38.4426 37.4994C38.4426 38.6265 38.0998 39.5164 37.4142 40.1691C36.7286 40.8219 35.8175 41.1482 34.6811 41.1482H22.3681C21.2316 41.1482 20.3206 40.8219 19.635 40.1691C18.9494 39.5164 18.6066 38.6265 18.6066 37.4994C18.6066 37.0016 18.623 36.5156 18.6559 36.0413C18.6887 35.567 18.7545 35.0551 18.8531 34.5057C18.9517 33.9563 19.0762 33.4467 19.2264 32.9771C19.3767 32.5075 19.5786 32.0497 19.8322 31.6035C20.0858 31.1574 20.377 30.777 20.7057 30.4624C21.0344 30.1478 21.4359 29.8965 21.9102 29.7087C22.3845 29.5209 22.9081 29.4269 23.4811 29.4269C23.575 29.4269 23.7769 29.5279 24.0868 29.7298C24.3968 29.9318 24.7396 30.1572 25.1153 30.4061C25.491 30.6549 25.9934 30.8804 26.6227 31.0823C27.252 31.2842 27.8859 31.3852 28.5246 31.3852C29.1633 31.3852 29.7972 31.2842 30.4265 31.0823C31.0558 30.8804 31.5582 30.6549 31.9339 30.4061C32.3096 30.1572 32.6524 29.9318 32.9623 29.7298C33.2723 29.5279 33.4742 29.4269 33.5681 29.4269C34.1411 29.4269 34.6647 29.5209 35.139 29.7087C35.6133 29.8965 36.0148 30.1478 36.3435 30.4624C36.6722 30.777 36.9634 31.1574 37.217 31.6035C37.4705 32.0497 37.6725 32.5075 37.8227 32.9771C37.973 33.4467 38.0975 33.9563 38.1961 34.5057C38.2947 35.0551 38.3604 35.567 38.3933 36.0413C38.4262 36.5156 38.4426 37.0016 38.4426 37.4994ZM24.0164 19.5089C24.0164 20.5045 23.6642 21.3544 22.9598 22.0589C22.2554 22.7633 21.4054 23.1155 20.4098 23.1155C19.4143 23.1155 18.5643 22.7633 17.8599 22.0589C17.1555 21.3544 16.8033 20.5045 16.8033 19.5089C16.8033 18.5133 17.1555 17.6634 17.8599 16.959C18.5643 16.2545 19.4143 15.9023 20.4098 15.9023C21.4054 15.9023 22.2554 16.2545 22.9598 16.959C23.6642 17.6634 24.0164 18.5133 24.0164 19.5089ZM33.9344 24.9187C33.9344 26.4121 33.4061 27.6871 32.3495 28.7437C31.2929 29.8003 30.0179 30.3286 28.5246 30.3286C27.0312 30.3286 25.7563 29.8003 24.6997 28.7437C23.6431 27.6871 23.1148 26.4121 23.1148 24.9187C23.1148 23.4254 23.6431 22.1504 24.6997 21.0938C25.7563 20.0372 27.0312 19.5089 28.5246 19.5089C30.0179 19.5089 31.2929 20.0372 32.3495 21.0938C33.4061 22.1504 33.9344 23.4254 33.9344 24.9187ZM42.0492 28.0886C42.0492 28.8212 41.7862 29.3776 41.2602 29.758C40.7343 30.1384 40.0862 30.3286 39.3161 30.3286H37.4283C36.4609 29.1734 35.2164 28.5723 33.6949 28.5253C34.4557 27.4264 34.8361 26.2242 34.8361 24.9187C34.8361 24.6464 34.8126 24.3364 34.7656 23.9889C35.3855 24.2049 36.0101 24.3129 36.6393 24.3129C37.1935 24.3129 37.7523 24.212 38.3158 24.0101C38.8794 23.8081 39.3372 23.6085 39.6894 23.4113C40.0416 23.2141 40.2459 23.1155 40.3023 23.1155C41.4669 23.1155 42.0492 24.7732 42.0492 28.0886ZM40.2459 19.5089C40.2459 20.5045 39.8937 21.3544 39.1893 22.0589C38.4849 22.7633 37.6349 23.1155 36.6393 23.1155C35.6438 23.1155 34.7938 22.7633 34.0894 22.0589C33.385 21.3544 33.0328 20.5045 33.0328 19.5089C33.0328 18.5133 33.385 17.6634 34.0894 16.959C34.7938 16.2545 35.6438 15.9023 36.6393 15.9023C37.6349 15.9023 38.4849 16.2545 39.1893 16.959C39.8937 17.6634 40.2459 18.5133 40.2459 19.5089Z" fill="#3D4080"/>
</g>
<defs>
<clipPath id="clip0_1991_816">
<rect width="27.0492" height="27.0492" fill="white" transform="translate(15 15.001)"/>
</clipPath>
</defs>
</svg>
