<svg width="58" height="58" viewBox="0 0 58 58" fill="none" xmlns="http://www.w3.org/2000/svg">
<circle cx="29" cy="29" r="29" fill="#3D4080" fill-opacity="0.1"/>
<g clip-path="url(#clip0_1443_477)">
<path d="M23.104 29.1059C21.3392 29.1604 19.8958 29.8576 18.7737 31.1975H16.5841C15.6908 31.1975 14.9392 30.9769 14.3291 30.5357C13.7191 30.0945 13.4141 29.449 13.4141 28.5993C13.4141 24.7539 14.0895 22.8312 15.4403 22.8312C15.5056 22.8312 15.7426 22.9455 16.1511 23.1743C16.5596 23.4031 17.0907 23.6346 17.7443 23.8688C18.3979 24.103 19.0461 24.2201 19.6888 24.2201C20.4187 24.2201 21.1431 24.0948 21.8621 23.8443C21.8076 24.2473 21.7804 24.6068 21.7804 24.9227C21.7804 26.437 22.2216 27.8313 23.104 29.1059ZM40.6046 39.5148C40.6046 40.822 40.207 41.8542 39.4117 42.6113C38.6165 43.3684 37.5598 43.7469 36.2417 43.7469H21.9601C20.642 43.7469 19.5853 43.3684 18.7901 42.6113C17.9948 41.8542 17.5972 40.822 17.5972 39.5148C17.5972 38.9374 17.6163 38.3737 17.6544 37.8235C17.6925 37.2734 17.7688 36.6797 17.8832 36.0424C17.9976 35.4051 18.1419 34.8142 18.3162 34.2695C18.4905 33.7248 18.7247 33.1937 19.0188 32.6763C19.313 32.1588 19.6507 31.7176 20.0319 31.3527C20.4132 30.9878 20.8789 30.6964 21.4291 30.4785C21.9792 30.2606 22.5865 30.1517 23.251 30.1517C23.36 30.1517 23.5942 30.2688 23.9537 30.503C24.3131 30.7372 24.7108 30.9987 25.1465 31.2873C25.5823 31.576 26.1651 31.8375 26.8949 32.0717C27.6248 32.3059 28.3601 32.423 29.1009 32.423C29.8417 32.423 30.577 32.3059 31.3069 32.0717C32.0367 31.8375 32.6195 31.576 33.0553 31.2873C33.491 30.9987 33.8886 30.7372 34.2481 30.503C34.6076 30.2688 34.8418 30.1517 34.9508 30.1517C35.6153 30.1517 36.2226 30.2606 36.7727 30.4785C37.3229 30.6964 37.7886 30.9878 38.1698 31.3527C38.5511 31.7176 38.8888 32.1588 39.183 32.6763C39.4771 33.1937 39.7113 33.7248 39.8856 34.2695C40.0599 34.8142 40.2042 35.4051 40.3186 36.0424C40.433 36.6797 40.5093 37.2734 40.5474 37.8235C40.5855 38.3737 40.6046 38.9374 40.6046 39.5148ZM23.8719 18.648C23.8719 19.8027 23.4634 20.7886 22.6464 21.6056C21.8294 22.4226 20.8435 22.8312 19.6888 22.8312C18.5341 22.8312 17.5482 22.4226 16.7312 21.6056C15.9142 20.7886 15.5056 19.8027 15.5056 18.648C15.5056 17.4933 15.9142 16.5074 16.7312 15.6904C17.5482 14.8734 18.5341 14.4648 19.6888 14.4648C20.8435 14.4648 21.8294 14.8734 22.6464 15.6904C23.4634 16.5074 23.8719 17.4933 23.8719 18.648ZM35.3756 24.9227C35.3756 26.6548 34.7629 28.1336 33.5373 29.3592C32.3118 30.5847 30.833 31.1975 29.1009 31.1975C27.3688 31.1975 25.89 30.5847 24.6645 29.3592C23.4389 28.1336 22.8262 26.6548 22.8262 24.9227C22.8262 23.1907 23.4389 21.7118 24.6645 20.4863C25.89 19.2608 27.3688 18.648 29.1009 18.648C30.833 18.648 32.3118 19.2608 33.5373 20.4863C34.7629 21.7118 35.3756 23.1907 35.3756 24.9227ZM44.7877 28.5993C44.7877 29.449 44.4827 30.0945 43.8727 30.5357C43.2626 30.9769 42.511 31.1975 41.6177 31.1975H39.4281C38.306 29.8576 36.8626 29.1604 35.0978 29.1059C35.9802 27.8313 36.4214 26.437 36.4214 24.9227C36.4214 24.6068 36.3942 24.2473 36.3397 23.8443C37.0587 24.0948 37.7831 24.2201 38.513 24.2201C39.1557 24.2201 39.8039 24.103 40.4575 23.8688C41.1111 23.6346 41.6422 23.4031 42.0507 23.1743C42.4592 22.9455 42.6962 22.8312 42.7615 22.8312C44.1123 22.8312 44.7877 24.7539 44.7877 28.5993ZM42.6961 18.648C42.6961 19.8027 42.2876 20.7886 41.4706 21.6056C40.6536 22.4226 39.6677 22.8312 38.513 22.8312C37.3583 22.8312 36.3724 22.4226 35.5554 21.6056C34.7384 20.7886 34.3298 19.8027 34.3298 18.648C34.3298 17.4933 34.7384 16.5074 35.5554 15.6904C36.3724 14.8734 37.3583 14.4648 38.513 14.4648C39.6677 14.4648 40.6536 14.8734 41.4706 15.6904C42.2876 16.5074 42.6961 17.4933 42.6961 18.648Z" fill="#3D4080"/>
</g>
<defs>
<clipPath id="clip0_1443_477">
<rect width="31.3737" height="31.3737" fill="white" transform="translate(13.4141 13.418)"/>
</clipPath>
</defs>
</svg>
