<svg width="55" height="55" viewBox="0 0 55 55" fill="none" xmlns="http://www.w3.org/2000/svg">
<circle cx="27.5" cy="27.5" r="27.5" fill="#3D4080" fill-opacity="0.1"/>
<path fill-rule="evenodd" clip-rule="evenodd" d="M27.5218 14.5859C24.2823 14.5859 21.3304 15.656 19.5841 16.5302C19.4263 16.6091 19.2793 16.6865 19.1423 16.7611C18.8712 16.9089 18.6403 17.0466 18.4567 17.1678L20.4433 20.0924L21.3785 20.4646C25.0332 22.3085 29.9344 22.3085 33.5898 20.4646L34.6513 19.9138L36.5303 17.1678C36.141 16.9139 35.7362 16.6847 35.3182 16.4814C33.5812 15.6165 30.7003 14.5859 27.5218 14.5859ZM22.901 17.8964C22.1976 17.7648 21.5028 17.5904 20.8205 17.3743C22.4564 16.6478 24.8948 15.8769 27.5211 15.8769C29.3406 15.8769 31.0611 16.2469 32.484 16.716C30.8165 16.9505 29.0372 17.3485 27.3418 17.8383C26.0079 18.2242 24.4487 18.1826 22.901 17.8964ZM34.3472 21.5282L34.1715 21.6171C30.1503 23.6453 24.8173 23.6453 20.7961 21.6171L20.6297 21.5325C14.5897 28.1599 9.97824 40.4021 27.5218 40.4021C45.064 40.4021 40.3399 27.9312 34.3472 21.5282ZM26.7759 27.4951C26.3955 27.4951 26.0307 27.6462 25.7617 27.9152C25.4927 28.1842 25.3416 28.549 25.3416 28.9295C25.3416 29.3099 25.4927 29.6747 25.7617 29.9437C26.0307 30.2127 26.3955 30.3638 26.7759 30.3638V27.4951ZM28.2103 26.0608V25.3436H26.7759V26.0608C26.0151 26.0608 25.2855 26.363 24.7475 26.901C24.2095 27.439 23.9072 28.1686 23.9072 28.9295C23.9072 29.6903 24.2095 30.42 24.7475 30.9579C25.2855 31.4959 26.0151 31.7982 26.7759 31.7982V34.6669C26.4793 34.6669 26.19 34.575 25.9477 34.4038C25.7055 34.2326 25.5223 33.9905 25.4234 33.7109C25.36 33.5315 25.228 33.3846 25.0564 33.3026C24.8848 33.2206 24.6876 33.2101 24.5082 33.2734C24.3289 33.3367 24.182 33.4687 24.1 33.6403C24.0179 33.812 24.0074 34.0091 24.0708 34.1885C24.2686 34.7479 24.635 35.2322 25.1194 35.5747C25.6039 35.9173 26.1826 36.1012 26.7759 36.1012V36.8184H28.2103V36.1012C28.9711 36.1012 29.7008 35.799 30.2388 35.261C30.7768 34.723 31.079 33.9933 31.079 33.2325C31.079 32.4717 30.7768 31.742 30.2388 31.204C29.7008 30.666 28.9711 30.3638 28.2103 30.3638V27.4951C28.8342 27.4951 29.3657 27.8931 29.5636 28.4511C29.593 28.5424 29.6404 28.6269 29.7029 28.6995C29.7655 28.7722 29.842 28.8315 29.928 28.8741C30.0139 28.9167 30.1075 28.9416 30.2032 28.9473C30.2989 28.9531 30.3948 28.9396 30.4852 28.9077C30.5757 28.8757 30.6588 28.826 30.7296 28.7614C30.8005 28.6967 30.8576 28.6186 30.8977 28.5315C30.9379 28.4444 30.9601 28.3501 30.9631 28.2543C30.9662 28.1584 30.95 28.0629 30.9155 27.9735C30.7177 27.4141 30.3513 26.9298 29.8668 26.5872C29.3824 26.2447 28.8036 26.0608 28.2103 26.0608ZM28.2103 31.7982V34.6669C28.5907 34.6669 28.9556 34.5158 29.2245 34.2468C29.4935 33.9778 29.6447 33.6129 29.6447 33.2325C29.6447 32.8521 29.4935 32.4873 29.2245 32.2183C28.9556 31.9493 28.5907 31.7982 28.2103 31.7982Z" fill="#3D4080"/>
</svg>
