<svg width="61" height="62" viewBox="0 0 61 62" fill="none" xmlns="http://www.w3.org/2000/svg">
<circle cx="30.8179" cy="30.9019" r="30.1362" fill="#222222"/>
<g clip-path="url(#clip0_3605_2959)">
<path d="M25.1726 31.2899C23.6511 31.3369 22.4066 31.938 21.4393 33.0932H19.5515C18.7813 33.0932 18.1332 32.903 17.6073 32.5227C17.0813 32.1423 16.8184 31.5858 16.8184 30.8532C16.8184 27.5378 17.4007 25.8801 18.5653 25.8801C18.6216 25.8801 18.8259 25.9787 19.1781 26.176C19.5303 26.3732 19.9882 26.5728 20.5517 26.7747C21.1152 26.9766 21.6741 27.0776 22.2282 27.0776C22.8575 27.0776 23.482 26.9696 24.1019 26.7536C24.055 27.1011 24.0315 27.411 24.0315 27.6834C24.0315 28.9889 24.4119 30.1911 25.1726 31.2899ZM40.261 40.2641C40.261 41.3911 39.9182 42.281 39.2325 42.9338C38.5469 43.5865 37.6359 43.9129 36.4995 43.9129H24.1864C23.05 43.9129 22.139 43.5865 21.4534 42.9338C20.7677 42.281 20.4249 41.3911 20.4249 40.2641C20.4249 39.7663 20.4413 39.2803 20.4742 38.8059C20.5071 38.3316 20.5728 37.8198 20.6715 37.2703C20.7701 36.7209 20.8945 36.2114 21.0448 35.7418C21.1951 35.2722 21.397 34.8143 21.6506 34.3682C21.9042 33.9221 22.1953 33.5417 22.524 33.2271C22.8528 32.9124 23.2543 32.6612 23.7286 32.4733C24.2029 32.2855 24.7265 32.1916 25.2994 32.1916C25.3933 32.1916 25.5953 32.2925 25.9052 32.4945C26.2151 32.6964 26.5579 32.9218 26.9336 33.1707C27.3093 33.4196 27.8118 33.645 28.4411 33.8469C29.0703 34.0489 29.7043 34.1498 30.3429 34.1498C30.9816 34.1498 31.6156 34.0489 32.2448 33.8469C32.8741 33.645 33.3766 33.4196 33.7523 33.1707C34.128 32.9218 34.4708 32.6964 34.7807 32.4945C35.0906 32.2925 35.2926 32.1916 35.3865 32.1916C35.9594 32.1916 36.483 32.2855 36.9573 32.4733C37.4316 32.6612 37.8331 32.9124 38.1619 33.2271C38.4906 33.5417 38.7817 33.9221 39.0353 34.3682C39.2889 34.8143 39.4908 35.2722 39.6411 35.7418C39.7914 36.2114 39.9158 36.7209 40.0144 37.2703C40.1131 37.8198 40.1788 38.3316 40.2117 38.8059C40.2446 39.2803 40.261 39.7663 40.261 40.2641ZM25.8347 22.2736C25.8347 23.2691 25.4825 24.1191 24.7781 24.8235C24.0737 25.5279 23.2238 25.8801 22.2282 25.8801C21.2326 25.8801 20.3827 25.5279 19.6783 24.8235C18.9738 24.1191 18.6216 23.2691 18.6216 22.2736C18.6216 21.278 18.9738 20.428 19.6783 19.7236C20.3827 19.0192 21.2326 18.667 22.2282 18.667C23.2238 18.667 24.0737 19.0192 24.7781 19.7236C25.4825 20.428 25.8347 21.278 25.8347 22.2736ZM35.7528 27.6834C35.7528 29.1767 35.2245 30.4517 34.1679 31.5083C33.1113 32.5649 31.8363 33.0932 30.3429 33.0932C28.8496 33.0932 27.5746 32.5649 26.518 31.5083C25.4614 30.4517 24.9331 29.1767 24.9331 27.6834C24.9331 26.1901 25.4614 24.9151 26.518 23.8585C27.5746 22.8019 28.8496 22.2736 30.3429 22.2736C31.8363 22.2736 33.1113 22.8019 34.1679 23.8585C35.2245 24.9151 35.7528 26.1901 35.7528 27.6834ZM43.8675 30.8532C43.8675 31.5858 43.6046 32.1423 43.0786 32.5227C42.5527 32.903 41.9046 33.0932 41.1344 33.0932H39.2466C38.2793 31.938 37.0348 31.3369 35.5133 31.2899C36.274 30.1911 36.6544 28.9889 36.6544 27.6834C36.6544 27.411 36.6309 27.1011 36.584 26.7536C37.2039 26.9696 37.8284 27.0776 38.4577 27.0776C39.0118 27.0776 39.5707 26.9766 40.1342 26.7747C40.6977 26.5728 41.1556 26.3732 41.5078 26.176C41.86 25.9787 42.0643 25.8801 42.1206 25.8801C43.2852 25.8801 43.8675 27.5378 43.8675 30.8532ZM42.0643 22.2736C42.0643 23.2691 41.7121 24.1191 41.0076 24.8235C40.3032 25.5279 39.4533 25.8801 38.4577 25.8801C37.4621 25.8801 36.6122 25.5279 35.9078 24.8235C35.2034 24.1191 34.8512 23.2691 34.8512 22.2736C34.8512 21.278 35.2034 20.428 35.9078 19.7236C36.6122 19.0192 37.4621 18.667 38.4577 18.667C39.4533 18.667 40.3032 19.0192 41.0076 19.7236C41.7121 20.428 42.0643 21.278 42.0643 22.2736Z" fill="white"/>
</g>
<defs>
<clipPath id="clip0_3605_2959">
<rect width="27.0492" height="27.0492" fill="white" transform="translate(16.8184 17.7656)"/>
</clipPath>
</defs>
</svg>
