<svg width="78" height="77" viewBox="0 0 78 77" fill="none" xmlns="http://www.w3.org/2000/svg">
<circle cx="39" cy="38.5" r="38.5" fill="#219653" fill-opacity="0.1"/>
<g clip-path="url(#clip0_1484_2284)">
<path fill-rule="evenodd" clip-rule="evenodd" d="M35.163 32.3511C39.6652 35.0965 45.5183 35.2452 50.2814 32.2414C51.1154 31.7156 51.8766 31.118 52.562 30.4616C52.5839 30.0341 52.5869 29.6052 52.5704 29.1757C52.4772 26.7425 51.7629 24.2998 50.3702 22.0916C46.1488 15.3966 37.2989 13.3914 30.6034 17.6128C29.7699 18.139 29.0087 18.7366 28.3228 19.3925C23.5053 24.0055 22.4289 31.5186 26.1246 37.3796C27.5172 39.5878 29.4127 41.2858 31.5686 42.4181C31.4289 38.7688 32.6894 35.1394 35.163 32.3506V32.3511Z" fill="#219653"/>
<path fill-rule="evenodd" clip-rule="evenodd" d="M42.4727 44.6544C37.9705 41.9085 32.1169 41.7603 27.3543 44.7636C26.5203 45.2889 25.7591 45.887 25.0737 46.5434C25.0518 46.9709 25.0488 47.3998 25.0648 47.8293C25.1575 50.2625 25.8723 52.7052 27.265 54.9129C31.4864 61.6084 40.3363 63.6131 47.0318 59.3917C47.8658 58.8655 48.6265 58.2679 49.3119 57.612C54.1294 52.999 55.2063 45.4864 51.5101 39.6249C50.1175 37.4172 48.222 35.7187 46.0661 34.5859C46.2053 38.2357 44.9453 41.8651 42.4717 44.6544H42.4727Z" fill="#219653"/>
</g>
<defs>
<clipPath id="clip0_1484_2284">
<rect width="29.8088" height="46.2" fill="white" transform="translate(23.9062 15.3984)"/>
</clipPath>
</defs>
</svg>
