<svg width="25" height="24" viewBox="0 0 25 24" fill="none" xmlns="http://www.w3.org/2000/svg">
<path d="M4.8846 19C4.50032 19 4.17347 18.8653 3.90407 18.5959C3.63469 18.3265 3.5 17.9997 3.5 17.6154V6.3846C3.5 6.00032 3.63469 5.67347 3.90407 5.40407C4.17347 5.13469 4.50032 5 4.8846 5H20.1154C20.4997 5 20.8265 5.13469 21.0959 5.40407C21.3653 5.67347 21.5 6.00032 21.5 6.3846V17.6154C21.5 17.9997 21.3653 18.3265 21.0959 18.5959C20.8265 18.8653 20.4997 19 20.1154 19H4.8846ZM4.26922 10.9308H20.7308V8.9173H4.26922V10.9308Z" fill="#219653"/>
</svg>
