<svg width="240" height="240" viewBox="0 0 240 240" fill="none" xmlns="http://www.w3.org/2000/svg">
<rect x="0.5" y="0.5" width="238.999" height="239" rx="4.5" fill="#3D4080" fill-opacity="0.1"/>
<path d="M212.099 115.899V107.999H204.099V123.899H196.199V115.999H188.099V131.999H211.999V139.999H204.099V148.099H211.999V163.998H188.099V139.999H179.999V131.999H171.899V115.999H187.999V99.9988H172.199V91.8988H187.999V84.0989H163.999V99.9988H156.099V107.999H148.299V124.099H156.199V131.999H171.999V139.999H164.099V147.899H156.099V139.999H139.999V131.999H131.999V107.999H139.999V83.9989H124V67.999H116V83.5989H99.9996V75.9989H92.1997V67.8989H99.9996V59.999H91.9997V51.999H83.9997V83.6989H67.9998V91.5988H75.8997V99.9988H67.9998C67.9998 97.2988 67.9998 94.5988 67.9998 91.9988H51.7999V84.0989H43.8999V91.9988H35.8999V99.9988H27.8V107.999H20V115.999H27.9V131.999H43.8999V139.999H51.8998V131.999H67.8998V139.999H51.8998V155.799H75.8997V147.999H67.9998V139.999H75.8997C75.8997 142.599 75.8997 145.299 75.8997 147.899H83.4997V156.199V171.998H91.3997V164.098H99.9996V156.299H108V163.998H131.999V156.099H124.2V148.199H147.999V155.899H139.999V171.998H148.099V188.098H156.099V195.998H164.099V188.298H179.999V204.198H171.999V212.098H164.199V219.998H188.099V203.998H195.999V188.098H188.199V172.198H196.099V179.998H204.099V172.198H212.099V179.998H219.999V115.899H212.099ZM52.0998 123.899H35.9999V115.999H43.8999V99.9988H51.7999L52.0998 123.899ZM59.9998 99.9988H67.7998V107.999H75.8997V99.9988H83.4997V123.999H75.9997V115.999H67.8998V123.999H59.9998V99.9988ZM75.7997 131.999H67.9998V123.999H75.8997L75.7997 131.999ZM75.7997 139.999V131.999H83.3997V139.999H75.7997ZM131.699 99.9988H120V91.8988H131.899L131.699 99.9988ZM155.899 115.999V107.999H171.999V115.999H155.899ZM179.999 179.998H156.099V156.199H179.999V179.998Z" fill="#0C1F40"/>
<path d="M100.1 196H100V196.1L100.1 196Z" fill="#0C1F40"/>
<path d="M139.999 172.099H132.099V179.999H124.1V172.199H108V179.999H99.9996V172.099H91.9997V188.199H83.9997V195.999H99.9996V188.199H116V196.099H131.899V204.199H124.1V219.999H132.099V212.199H139.999V219.999H155.799V204.099H147.999V188.099H139.999V172.099ZM20 219.999H75.7997V164.199H20V219.999ZM28 172.199H67.9998V212.199H28V172.199ZM219.999 20H164.099V75.7997H219.999V20ZM211.999 67.7998H171.999V27.8H211.999V67.7998ZM75.7997 20H20V75.7997H75.7997V20ZM67.7998 67.7998H27.8V27.8H67.7998V67.7998Z" fill="#0C1F40"/>
<path d="M116.101 43.7999H123.901V20H116.001V28H107.901V35.7999H91.9015V27.9H84.1016V43.9999H92.0015V51.8998H116.101V43.7999Z" fill="#0C1F40"/>
<path d="M67.9984 91.8984H67.8984V91.9984H67.9984V91.8984Z" fill="#0C1F40"/>
<path d="M131.9 75.8995H140V68.0995H148.1V75.8995H155.9V52.0996H124V67.8995H131.9V75.8995Z" fill="#0C1F40"/>
<path d="M148.1 76.0004V75.9004H148L148.1 76.0004Z" fill="#0C1F40"/>
<path d="M140.002 43.7999H148.001V35.7999H155.801V27.8H148.001V20H132.102V35.9999H140.002V43.7999Z" fill="#0C1F40"/>
<path d="M204.002 99.9986H212.101V108.099H220.001V91.8986H212.101V84.0986H196.102V91.8986H204.002V99.9986Z" fill="#0C1F40"/>
<path d="M75.8984 148.1H75.9984V148H75.8984V148.1Z" fill="#0C1F40"/>
<path d="M27.9 148.099H20V155.899H35.8999V147.999H43.8999V139.999H27.9V148.099Z" fill="#0C1F40"/>
<path d="M91.9015 204.198H84.1016V219.998H100.001V212.198H92.0015L91.9015 204.198Z" fill="#0C1F40"/>
<path d="M100.1 196L100 196.1H100.1V196Z" fill="#0C1F40"/>
<path d="M115.8 212.1V204H107.9V196H100C100 201.4 100 206.7 100 212.1H115.8ZM212.199 212.2H204.2V220H219.999V204.2H212.199V212.2Z" fill="#0C1F40"/>
<path d="M20 84.0986V91.8986H35.8999V84.0986H20Z" fill="#0C1F40"/>
<path d="M156 99.8994V99.9994H156.1V99.8994H156Z" fill="#0C1F40"/>
<path d="M148.102 83.999V99.999H156.002V83.999H148.102Z" fill="#0C1F40"/>
<path d="M148 83.9984H148.1V83.8984L148 83.9984Z" fill="#0C1F40"/>
<path d="M196.102 99.999V91.999H188.102V99.999H196.102Z" fill="#0C1F40"/>
<path d="M20 131.999V139.999H27.9V131.999H20Z" fill="#0C1F40"/>
<path d="M155.898 76.0004H155.998V75.9004L155.898 76.0004Z" fill="#0C1F40"/>
<path d="M163.998 83.8984H163.898V83.9984L163.998 83.8984Z" fill="#0C1F40"/>
<path d="M164 83.9009V76.001H156V83.9009H164Z" fill="#0C1F40"/>
<path d="M155.998 83.9984V83.8984H155.898L155.998 83.9984Z" fill="#0C1F40"/>
<path d="M163.898 75.9004V76.0004H163.998L163.898 75.9004Z" fill="#0C1F40"/>
<path d="M100.006 68.0004V67.9004H99.9062V68.0004H100.006Z" fill="#0C1F40"/>
<path d="M108 75.9V68H100V75.9H108ZM204.1 187.899H212.099V179.999H204.1V187.899Z" fill="#0C1F40"/>
<path d="M116 60H108V67.8H116V60Z" fill="#0C1F40"/>
<path d="M100 20H92V27.9H100V20Z" fill="#0C1F40"/>
<path d="M196.199 155.9H204.099V148.1H196.199V155.9ZM171.999 164.2H164.199V171.9H171.999V164.2ZM36 203.9H59.9999V180H36V203.9ZM204.099 36.001H179.999V60.0009H203.899L204.099 36.001ZM59.9999 36.101H36V60.0009H59.9999V36.101Z" fill="#0C1F40"/>
<rect x="0.5" y="0.5" width="238.999" height="239" rx="4.5" stroke="#3D4080"/>
</svg>
