<svg width="343" height="189" viewBox="0 0 343 189" fill="none" xmlns="http://www.w3.org/2000/svg">
<g clip-path="url(#clip0_1162_1636)">
<rect width="343" height="189" rx="20" fill="#F2994A"/>
<circle cx="309" cy="159" r="95" fill="white" fill-opacity="0.1"/>
<circle cx="289" cy="140" r="95" fill="white" fill-opacity="0.05"/>
<circle cx="334" cy="181" r="95" fill="white" fill-opacity="0.2"/>
<circle cx="47.5" cy="79.5" r="27.5" fill="white"/>
<g clip-path="url(#clip1_1162_1636)">
<path d="M42.78 79.9511C41.2585 79.998 40.0141 80.5991 39.0467 81.7544H37.1589C36.3887 81.7544 35.7407 81.5642 35.2147 81.1838C34.6888 80.8034 34.4258 80.2469 34.4258 79.5143C34.4258 76.1989 35.0081 74.5412 36.1727 74.5412C36.2291 74.5412 36.4333 74.6399 36.7855 74.8371C37.1377 75.0343 37.5956 75.2339 38.1591 75.4358C38.7227 75.6378 39.2815 75.7387 39.8356 75.7387C40.4649 75.7387 41.0895 75.6307 41.7093 75.4147C41.6624 75.7622 41.6389 76.0722 41.6389 76.3445C41.6389 77.65 42.0193 78.8522 42.78 79.9511ZM57.8684 88.9252C57.8684 90.0522 57.5256 90.9421 56.84 91.5949C56.1543 92.2477 55.2433 92.574 54.1069 92.574H41.7939C40.6574 92.574 39.7464 92.2477 39.0608 91.5949C38.3751 90.9421 38.0323 90.0522 38.0323 88.9252C38.0323 88.4274 38.0488 87.9414 38.0816 87.4671C38.1145 86.9928 38.1803 86.4809 38.2789 85.9315C38.3775 85.382 38.5019 84.8725 38.6522 84.4029C38.8025 83.9333 39.0044 83.4755 39.258 83.0293C39.5116 82.5832 39.8027 82.2028 40.1315 81.8882C40.4602 81.5736 40.8617 81.3223 41.336 81.1345C41.8103 80.9466 42.3339 80.8527 42.9068 80.8527C43.0007 80.8527 43.2027 80.9537 43.5126 81.1556C43.8226 81.3575 44.1654 81.583 44.541 81.8318C44.9167 82.0807 45.4192 82.3061 46.0485 82.5081C46.6777 82.71 47.3117 82.811 47.9504 82.811C48.589 82.811 49.223 82.71 49.8523 82.5081C50.4815 82.3061 50.984 82.0807 51.3597 81.8318C51.7354 81.583 52.0782 81.3575 52.3881 81.1556C52.6981 80.9537 52.9 80.8527 52.9939 80.8527C53.5668 80.8527 54.0904 80.9466 54.5647 81.1345C55.039 81.3223 55.4405 81.5736 55.7693 81.8882C56.098 82.2028 56.3892 82.5832 56.6427 83.0293C56.8963 83.4755 57.0983 83.9333 57.2485 84.4029C57.3988 84.8725 57.5232 85.382 57.6219 85.9315C57.7205 86.4809 57.7862 86.9928 57.8191 87.4671C57.852 87.9414 57.8684 88.4274 57.8684 88.9252ZM43.4422 70.9347C43.4422 71.9302 43.09 72.7802 42.3856 73.4846C41.6812 74.189 40.8312 74.5412 39.8356 74.5412C38.8401 74.5412 37.9901 74.189 37.2857 73.4846C36.5813 72.7802 36.2291 71.9302 36.2291 70.9347C36.2291 69.9391 36.5813 69.0891 37.2857 68.3847C37.9901 67.6803 38.8401 67.3281 39.8356 67.3281C40.8312 67.3281 41.6812 67.6803 42.3856 68.3847C43.09 69.0891 43.4422 69.9391 43.4422 70.9347ZM53.3602 76.3445C53.3602 77.8379 52.8319 79.1128 51.7753 80.1694C50.7187 81.2261 49.4437 81.7544 47.9504 81.7544C46.457 81.7544 45.1821 81.2261 44.1254 80.1694C43.0688 79.1128 42.5405 77.8379 42.5405 76.3445C42.5405 74.8512 43.0688 73.5762 44.1254 72.5196C45.1821 71.463 46.457 70.9347 47.9504 70.9347C49.4437 70.9347 50.7187 71.463 51.7753 72.5196C52.8319 73.5762 53.3602 74.8512 53.3602 76.3445ZM61.475 79.5143C61.475 80.2469 61.212 80.8034 60.686 81.1838C60.1601 81.5642 59.512 81.7544 58.7419 81.7544H56.8541C55.8867 80.5991 54.6422 79.998 53.1207 79.9511C53.8815 78.8522 54.2618 77.65 54.2618 76.3445C54.2618 76.0722 54.2384 75.7622 54.1914 75.4147C54.8113 75.6307 55.4359 75.7387 56.0651 75.7387C56.6193 75.7387 57.1781 75.6378 57.7416 75.4358C58.3051 75.2339 58.763 75.0343 59.1152 74.8371C59.4674 74.6399 59.6717 74.5412 59.728 74.5412C60.8927 74.5412 61.475 76.1989 61.475 79.5143ZM59.6717 70.9347C59.6717 71.9302 59.3195 72.7802 58.6151 73.4846C57.9107 74.189 57.0607 74.5412 56.0651 74.5412C55.0696 74.5412 54.2196 74.189 53.5152 73.4846C52.8108 72.7802 52.4586 71.9302 52.4586 70.9347C52.4586 69.9391 52.8108 69.0891 53.5152 68.3847C54.2196 67.6803 55.0696 67.3281 56.0651 67.3281C57.0607 67.3281 57.9107 67.6803 58.6151 68.3847C59.3195 69.0891 59.6717 69.9391 59.6717 70.9347Z" fill="#F2994A"/>
</g>
<path d="M31.1445 133H28.2588L23.6006 124.899H23.5347C23.6274 126.33 23.6738 127.351 23.6738 127.961V133H21.645V122.292H24.5088L29.1597 130.312H29.2109C29.1377 128.92 29.1011 127.937 29.1011 127.36V122.292H31.1445V133ZM35.4512 128.891C35.4512 129.702 35.583 130.314 35.8467 130.729C36.1152 131.145 36.5498 131.352 37.1504 131.352C37.7461 131.352 38.1733 131.147 38.4321 130.737C38.6958 130.322 38.8276 129.707 38.8276 128.891C38.8276 128.081 38.6958 127.473 38.4321 127.067C38.1685 126.662 37.7363 126.459 37.1357 126.459C36.54 126.459 36.1104 126.662 35.8467 127.067C35.583 127.468 35.4512 128.076 35.4512 128.891ZM41.1128 128.891C41.1128 130.224 40.7612 131.267 40.0581 132.019C39.355 132.771 38.376 133.146 37.1211 133.146C36.335 133.146 35.6416 132.976 35.041 132.634C34.4404 132.287 33.979 131.792 33.6567 131.147C33.3345 130.502 33.1733 129.75 33.1733 128.891C33.1733 127.553 33.5225 126.513 34.2207 125.771C34.9189 125.029 35.9004 124.658 37.165 124.658C37.9512 124.658 38.6445 124.829 39.2451 125.17C39.8457 125.512 40.3071 126.003 40.6294 126.643C40.9517 127.282 41.1128 128.032 41.1128 128.891ZM48.6348 128.891C48.6348 129.702 48.7666 130.314 49.0303 130.729C49.2988 131.145 49.7334 131.352 50.334 131.352C50.9297 131.352 51.3569 131.147 51.6157 130.737C51.8794 130.322 52.0112 129.707 52.0112 128.891C52.0112 128.081 51.8794 127.473 51.6157 127.067C51.3521 126.662 50.9199 126.459 50.3193 126.459C49.7236 126.459 49.2939 126.662 49.0303 127.067C48.7666 127.468 48.6348 128.076 48.6348 128.891ZM54.2964 128.891C54.2964 130.224 53.9448 131.267 53.2417 132.019C52.5386 132.771 51.5596 133.146 50.3047 133.146C49.5186 133.146 48.8252 132.976 48.2246 132.634C47.624 132.287 47.1626 131.792 46.8403 131.147C46.5181 130.502 46.3569 129.75 46.3569 128.891C46.3569 127.553 46.7061 126.513 47.4043 125.771C48.1025 125.029 49.084 124.658 50.3486 124.658C51.1348 124.658 51.8281 124.829 52.4287 125.17C53.0293 125.512 53.4907 126.003 53.813 126.643C54.1353 127.282 54.2964 128.032 54.2964 128.891ZM60.6685 126.489H58.7349V133H56.501V126.489H55.2705V125.412L56.501 124.812V124.211C56.501 123.278 56.7305 122.597 57.1895 122.167C57.6484 121.738 58.3833 121.523 59.394 121.523C60.1655 121.523 60.8516 121.638 61.4521 121.867L60.8809 123.508C60.4316 123.366 60.0166 123.295 59.6357 123.295C59.3184 123.295 59.0889 123.391 58.9473 123.581C58.8057 123.767 58.7349 124.006 58.7349 124.299V124.812H60.6685V126.489ZM71.5669 130.568C71.5669 131.408 71.2739 132.048 70.688 132.487C70.1069 132.927 69.2354 133.146 68.0732 133.146C67.4775 133.146 66.9697 133.105 66.5498 133.022C66.1299 132.944 65.7368 132.827 65.3706 132.67V130.825C65.7856 131.02 66.252 131.184 66.7695 131.315C67.292 131.447 67.751 131.513 68.1465 131.513C68.957 131.513 69.3623 131.279 69.3623 130.81C69.3623 130.634 69.3086 130.493 69.2012 130.385C69.0938 130.273 68.9082 130.148 68.6445 130.012C68.3809 129.87 68.0293 129.707 67.5898 129.521C66.96 129.257 66.4961 129.013 66.1982 128.789C65.9053 128.564 65.6904 128.308 65.5537 128.02C65.4219 127.727 65.356 127.368 65.356 126.943C65.356 126.215 65.6367 125.654 66.1982 125.258C66.7646 124.858 67.5654 124.658 68.6006 124.658C69.5869 124.658 70.5464 124.873 71.479 125.302L70.8052 126.914C70.395 126.738 70.0117 126.594 69.6553 126.481C69.2988 126.369 68.9351 126.313 68.564 126.313C67.9048 126.313 67.5752 126.491 67.5752 126.848C67.5752 127.048 67.6802 127.221 67.8901 127.368C68.105 127.514 68.5713 127.731 69.2891 128.02C69.9287 128.278 70.3975 128.52 70.6953 128.745C70.9932 128.969 71.2129 129.228 71.3545 129.521C71.4961 129.814 71.5669 130.163 71.5669 130.568ZM76.7598 131.367C77.1504 131.367 77.6191 131.281 78.166 131.11V132.773C77.6094 133.022 76.9258 133.146 76.1152 133.146C75.2217 133.146 74.5698 132.922 74.1597 132.473C73.7544 132.019 73.5518 131.34 73.5518 130.437V126.489H72.4824V125.544L73.7129 124.797L74.3574 123.068H75.7856V124.812H78.0781V126.489H75.7856V130.437C75.7856 130.754 75.8735 130.988 76.0493 131.14C76.23 131.291 76.4668 131.367 76.7598 131.367ZM85.6294 133L85.3291 131.953H85.2119C84.9727 132.333 84.6333 132.629 84.1938 132.839C83.7544 133.044 83.2539 133.146 82.6924 133.146C81.7305 133.146 81.0054 132.89 80.5171 132.377C80.0288 131.86 79.7847 131.118 79.7847 130.151V124.812H82.0186V129.594C82.0186 130.185 82.1235 130.629 82.3335 130.927C82.5435 131.22 82.8779 131.367 83.3369 131.367C83.9619 131.367 84.4136 131.159 84.6919 130.744C84.9702 130.324 85.1094 129.631 85.1094 128.664V124.812H87.3433V133H85.6294ZM92.2798 133.146C91.3179 133.146 90.561 132.773 90.0093 132.026C89.4624 131.279 89.189 130.244 89.189 128.92C89.189 127.578 89.4673 126.533 90.0239 125.786C90.5854 125.034 91.3569 124.658 92.3384 124.658C93.3687 124.658 94.1548 125.058 94.6968 125.859H94.77C94.6577 125.249 94.6016 124.704 94.6016 124.226V121.604H96.8428V133H95.1289L94.6968 131.938H94.6016C94.0938 132.744 93.3198 133.146 92.2798 133.146ZM93.0635 131.367C93.6348 131.367 94.0522 131.201 94.3159 130.869C94.5845 130.537 94.731 129.973 94.7554 129.177V128.935C94.7554 128.056 94.6187 127.426 94.3452 127.045C94.0767 126.665 93.6372 126.474 93.0269 126.474C92.5288 126.474 92.1406 126.687 91.8623 127.111C91.5889 127.531 91.4521 128.144 91.4521 128.95C91.4521 129.755 91.5913 130.361 91.8696 130.766C92.1479 131.167 92.5459 131.367 93.0635 131.367ZM102.57 126.247C102.097 126.247 101.726 126.398 101.457 126.701C101.188 126.999 101.035 127.424 100.996 127.976H104.13C104.121 127.424 103.977 126.999 103.698 126.701C103.42 126.398 103.044 126.247 102.57 126.247ZM102.885 133.146C101.567 133.146 100.537 132.783 99.7944 132.055C99.0522 131.328 98.6812 130.297 98.6812 128.964C98.6812 127.592 99.0229 126.533 99.7065 125.786C100.395 125.034 101.345 124.658 102.556 124.658C103.713 124.658 104.614 124.987 105.258 125.646C105.903 126.306 106.225 127.216 106.225 128.378V129.462H100.944C100.969 130.097 101.157 130.593 101.508 130.949C101.86 131.306 102.353 131.484 102.988 131.484C103.481 131.484 103.947 131.433 104.387 131.33C104.826 131.228 105.285 131.064 105.764 130.839V132.568C105.373 132.763 104.956 132.907 104.511 133C104.067 133.098 103.525 133.146 102.885 133.146ZM115.6 133H113.366V128.217C113.366 127.626 113.261 127.185 113.051 126.892C112.841 126.594 112.507 126.445 112.048 126.445C111.423 126.445 110.971 126.655 110.693 127.075C110.415 127.49 110.275 128.181 110.275 129.147V133H108.042V124.812H109.748L110.048 125.859H110.173C110.422 125.463 110.764 125.166 111.198 124.965C111.638 124.76 112.136 124.658 112.692 124.658C113.645 124.658 114.367 124.917 114.86 125.434C115.354 125.947 115.6 126.689 115.6 127.661V133ZM121.35 131.367C121.74 131.367 122.209 131.281 122.756 131.11V132.773C122.199 133.022 121.516 133.146 120.705 133.146C119.812 133.146 119.16 132.922 118.75 132.473C118.344 132.019 118.142 131.34 118.142 130.437V126.489H117.072V125.544L118.303 124.797L118.947 123.068H120.375V124.812H122.668V126.489H120.375V130.437C120.375 130.754 120.463 130.988 120.639 131.14C120.82 131.291 121.057 131.367 121.35 131.367ZM130.131 130.568C130.131 131.408 129.838 132.048 129.252 132.487C128.671 132.927 127.8 133.146 126.638 133.146C126.042 133.146 125.534 133.105 125.114 133.022C124.694 132.944 124.301 132.827 123.935 132.67V130.825C124.35 131.02 124.816 131.184 125.334 131.315C125.856 131.447 126.315 131.513 126.711 131.513C127.521 131.513 127.927 131.279 127.927 130.81C127.927 130.634 127.873 130.493 127.766 130.385C127.658 130.273 127.473 130.148 127.209 130.012C126.945 129.87 126.594 129.707 126.154 129.521C125.524 129.257 125.061 129.013 124.763 128.789C124.47 128.564 124.255 128.308 124.118 128.02C123.986 127.727 123.92 127.368 123.92 126.943C123.92 126.215 124.201 125.654 124.763 125.258C125.329 124.858 126.13 124.658 127.165 124.658C128.151 124.658 129.111 124.873 130.043 125.302L129.37 126.914C128.959 126.738 128.576 126.594 128.22 126.481C127.863 126.369 127.5 126.313 127.128 126.313C126.469 126.313 126.14 126.491 126.14 126.848C126.14 127.048 126.245 127.221 126.455 127.368C126.669 127.514 127.136 127.731 127.854 128.02C128.493 128.278 128.962 128.52 129.26 128.745C129.558 128.969 129.777 129.228 129.919 129.521C130.061 129.814 130.131 130.163 130.131 130.568Z" fill="white"/>
<path d="M258.629 98.3711C258.629 92.7201 259.82 88.5143 262.203 85.7539C264.599 82.9935 268.18 81.6133 272.945 81.6133C274.573 81.6133 275.849 81.7109 276.773 81.9062V86.7305C275.615 86.4701 274.469 86.3398 273.336 86.3398C271.266 86.3398 269.573 86.6523 268.258 87.2773C266.956 87.9023 265.979 88.8268 265.328 90.0508C264.677 91.2747 264.293 93.013 264.176 95.2656H264.43C265.719 93.0521 267.783 91.9453 270.621 91.9453C273.173 91.9453 275.172 92.7461 276.617 94.3477C278.062 95.9492 278.785 98.1628 278.785 100.988C278.785 104.035 277.926 106.451 276.207 108.234C274.488 110.005 272.105 110.891 269.059 110.891C266.949 110.891 265.107 110.402 263.531 109.426C261.969 108.449 260.758 107.023 259.898 105.148C259.052 103.273 258.629 101.014 258.629 98.3711ZM268.941 106.066C270.23 106.066 271.22 105.637 271.91 104.777C272.6 103.905 272.945 102.668 272.945 101.066C272.945 99.6732 272.62 98.5794 271.969 97.7852C271.331 96.9779 270.361 96.5742 269.059 96.5742C267.835 96.5742 266.786 96.9714 265.914 97.7656C265.055 98.5599 264.625 99.4844 264.625 100.539C264.625 102.089 265.029 103.397 265.836 104.465C266.656 105.533 267.691 106.066 268.941 106.066ZM284.508 110.5L295.23 87.0625H281.148V81.9844H301.637V85.7734L290.836 110.5H284.508ZM314.371 81.5742C317.105 81.5742 319.306 82.1992 320.973 83.4492C322.652 84.6862 323.492 86.3594 323.492 88.4688C323.492 89.9271 323.089 91.2292 322.281 92.375C321.474 93.5078 320.172 94.5234 318.375 95.4219C320.51 96.5677 322.04 97.7656 322.965 99.0156C323.902 100.253 324.371 101.613 324.371 103.098C324.371 105.441 323.453 107.329 321.617 108.762C319.781 110.181 317.366 110.891 314.371 110.891C311.246 110.891 308.792 110.227 307.008 108.898C305.224 107.57 304.332 105.689 304.332 103.254C304.332 101.626 304.762 100.181 305.621 98.918C306.493 97.6549 307.887 96.5417 309.801 95.5781C308.173 94.5495 307.001 93.4492 306.285 92.2773C305.569 91.1055 305.211 89.8229 305.211 88.4297C305.211 86.3854 306.057 84.7318 307.75 83.4688C309.443 82.2057 311.65 81.5742 314.371 81.5742ZM309.918 102.902C309.918 104.022 310.309 104.895 311.09 105.52C311.871 106.145 312.939 106.457 314.293 106.457C315.79 106.457 316.91 106.138 317.652 105.5C318.395 104.849 318.766 103.996 318.766 102.941C318.766 102.069 318.395 101.255 317.652 100.5C316.923 99.7318 315.732 98.918 314.078 98.0586C311.305 99.3346 309.918 100.949 309.918 102.902ZM314.332 85.9883C313.303 85.9883 312.47 86.2552 311.832 86.7891C311.207 87.3099 310.895 88.013 310.895 88.8984C310.895 89.6797 311.142 90.3828 311.637 91.0078C312.145 91.6198 313.056 92.2513 314.371 92.9023C315.647 92.3034 316.539 91.6914 317.047 91.0664C317.555 90.4414 317.809 89.7188 317.809 88.8984C317.809 88 317.483 87.2904 316.832 86.7695C316.181 86.2487 315.348 85.9883 314.332 85.9883Z" fill="white"/>
</g>
<defs>
<clipPath id="clip0_1162_1636">
<rect width="343" height="189" rx="20" fill="white"/>
</clipPath>
<clipPath id="clip1_1162_1636">
<rect width="27.0492" height="27.0492" fill="white" transform="translate(34.4258 66.4268)"/>
</clipPath>
</defs>
</svg>
