<svg width="368" height="173" viewBox="0 0 368 173" fill="none" xmlns="http://www.w3.org/2000/svg">
<g clip-path="url(#clip0_1419_1069)">
<rect width="368" height="173" rx="10" fill="#3D4080"/>
<rect width="368" height="173" rx="10" fill="white" fill-opacity="0.1"/>
<circle cx="164" cy="39" r="23" fill="#3D4080"/>
<circle cx="228.5" cy="106.5" r="7.5" fill="#3D4080"/>
<circle cx="274.5" cy="65.5" r="7.5" fill="#3D4080"/>
<circle cx="330.5" cy="84.5" r="7.5" fill="#3D4080"/>
<circle cx="345.5" cy="39.5" r="7.5" fill="#3D4080"/>
<circle cx="58.5" cy="69.5" r="7.5" fill="#3D4080"/>
<circle cx="99" cy="144" r="2" fill="#F2994A"/>
<circle cx="152" cy="114" r="2" fill="#F2994A"/>
<circle cx="53" cy="104" r="2" fill="#F2994A"/>
<circle cx="20" cy="49" r="2" fill="#F2994A"/>
<circle cx="126.5" cy="25.5" r="4.5" fill="#F2994A"/>
<circle cx="43" cy="146" r="2" fill="#F2994A"/>
<circle cx="204" cy="151" r="7" fill="#3D4080"/>
<circle cx="153.5" cy="102.5" r="3.5" fill="#3D4080"/>
<circle cx="253.5" cy="134.5" r="3.5" fill="#3D4080"/>
<circle cx="225.5" cy="28.5" r="3.5" fill="#3D4080"/>
<circle cx="82.5" cy="24.5" r="3.5" fill="#3D4080"/>
<circle cx="42.5" cy="31.5" r="3.5" fill="#3D4080"/>
<circle cx="102.5" cy="93.5" r="3.5" fill="#3D4080"/>
<circle cx="162.5" cy="155.5" r="3.5" fill="#3D4080"/>
<circle cx="200" cy="72" r="2" fill="#F2994A"/>
<circle cx="252" cy="92" r="2" fill="#F2994A"/>
<circle cx="316" cy="99" r="2" fill="#F2994A"/>
<circle cx="308" cy="128" r="2" fill="#F2994A"/>
<circle cx="364" cy="164" r="2" fill="#F2994A"/>
<circle cx="299" cy="60" r="2" fill="#F2994A"/>
<g clip-path="url(#clip1_1419_1069)">
<path fill-rule="evenodd" clip-rule="evenodd" d="M38.7654 44.2068C42.2736 46.3461 46.8344 46.462 50.546 44.1213C51.1959 43.7116 51.789 43.246 52.323 42.7345C52.3401 42.4014 52.3425 42.0671 52.3296 41.7325C52.257 39.8365 51.7004 37.9331 50.6152 36.2124C47.3257 30.9955 40.4297 29.433 35.2125 32.7224C34.563 33.1325 33.9698 33.5981 33.4354 34.1092C29.6815 37.7038 28.8427 43.5581 31.7225 48.1251C32.8077 49.8458 34.2847 51.1689 35.9646 52.0512C35.8557 49.2076 36.8379 46.3796 38.7654 44.2064V44.2068Z" fill="white"/>
<path fill-rule="evenodd" clip-rule="evenodd" d="M44.4631 53.7948C40.9549 51.6551 36.3937 51.5396 32.6825 53.8799C32.0327 54.2892 31.4395 54.7552 30.9055 55.2667C30.8884 55.5998 30.886 55.9341 30.8985 56.2687C30.9708 58.1647 31.5278 60.0681 32.613 61.7884C35.9024 67.0057 42.7984 68.5678 48.0157 65.2784C48.6655 64.8683 49.2583 64.4027 49.7923 63.8916C53.5462 60.297 54.3854 54.4431 51.5053 49.8757C50.4201 48.1554 48.9431 46.8319 47.2632 45.9492C47.3716 48.7932 46.3898 51.6213 44.4623 53.7948H44.4631Z" fill="white"/>
</g>
<path d="M35.4844 104H33.6172V94.1797H30.2578V92.5781H38.8438V94.1797H35.4844V104ZM48.0703 99.6641C48.0703 101.076 47.7083 102.177 46.9844 102.969C46.2604 103.76 45.2526 104.156 43.9609 104.156C43.1536 104.156 42.4401 103.974 41.8203 103.609C41.2005 103.245 40.724 102.721 40.3906 102.039C40.0573 101.357 39.8906 100.565 39.8906 99.6641C39.8906 98.263 40.25 97.1693 40.9688 96.3828C41.6875 95.5964 42.7005 95.2031 44.0078 95.2031C45.2578 95.2031 46.2474 95.6068 46.9766 96.4141C47.7057 97.2161 48.0703 98.2995 48.0703 99.6641ZM41.7812 99.6641C41.7812 101.659 42.5182 102.656 43.9922 102.656C45.4505 102.656 46.1797 101.659 46.1797 99.6641C46.1797 97.6901 45.4453 96.7031 43.9766 96.7031C43.2057 96.7031 42.6458 96.9583 42.2969 97.4688C41.9531 97.9792 41.7812 98.7109 41.7812 99.6641ZM53.4062 102.672C53.8542 102.672 54.3021 102.602 54.75 102.461V103.844C54.5469 103.932 54.2839 104.005 53.9609 104.062C53.6432 104.125 53.3125 104.156 52.9688 104.156C51.2292 104.156 50.3594 103.24 50.3594 101.406V96.75H49.1797V95.9375L50.4453 95.2656L51.0703 93.4375H52.2031V95.3594H54.6641V96.75H52.2031V101.375C52.2031 101.818 52.3125 102.146 52.5312 102.359C52.7552 102.568 53.0469 102.672 53.4062 102.672ZM61.8906 104L61.5234 102.797H61.4609C61.0443 103.323 60.625 103.682 60.2031 103.875C59.7812 104.062 59.2396 104.156 58.5781 104.156C57.7292 104.156 57.0651 103.927 56.5859 103.469C56.112 103.01 55.875 102.362 55.875 101.523C55.875 100.633 56.2057 99.9609 56.8672 99.5078C57.5286 99.0547 58.5365 98.8073 59.8906 98.7656L61.3828 98.7188V98.2578C61.3828 97.7057 61.2526 97.2943 60.9922 97.0234C60.737 96.7474 60.3385 96.6094 59.7969 96.6094C59.3542 96.6094 58.9297 96.6745 58.5234 96.8047C58.1172 96.9349 57.7266 97.0885 57.3516 97.2656L56.7578 95.9531C57.2266 95.7083 57.7396 95.5234 58.2969 95.3984C58.8542 95.2682 59.3802 95.2031 59.875 95.2031C60.974 95.2031 61.8021 95.4427 62.3594 95.9219C62.9219 96.401 63.2031 97.1536 63.2031 98.1797V104H61.8906ZM59.1562 102.75C59.8229 102.75 60.3568 102.565 60.7578 102.195C61.1641 101.82 61.3672 101.297 61.3672 100.625V99.875L60.2578 99.9219C59.3932 99.9531 58.763 100.099 58.3672 100.359C57.9766 100.615 57.7812 101.008 57.7812 101.539C57.7812 101.924 57.8958 102.224 58.125 102.438C58.3542 102.646 58.6979 102.75 59.1562 102.75ZM67.6016 104H65.7656V91.8438H67.6016V104ZM74.5859 92.5781H77.9766C79.5495 92.5781 80.6849 92.8073 81.3828 93.2656C82.0859 93.724 82.4375 94.4479 82.4375 95.4375C82.4375 96.1042 82.2656 96.6589 81.9219 97.1016C81.5781 97.5443 81.0833 97.8229 80.4375 97.9375V98.0156C81.2396 98.1667 81.8281 98.4661 82.2031 98.9141C82.5833 99.3568 82.7734 99.9583 82.7734 100.719C82.7734 101.745 82.4141 102.549 81.6953 103.133C80.9818 103.711 79.987 104 78.7109 104H74.5859V92.5781ZM76.4531 97.2969H78.25C79.0312 97.2969 79.6016 97.1745 79.9609 96.9297C80.3203 96.6797 80.5 96.2578 80.5 95.6641C80.5 95.1276 80.3047 94.7396 79.9141 94.5C79.5286 94.2604 78.9141 94.1406 78.0703 94.1406H76.4531V97.2969ZM76.4531 98.8125V102.43H78.4375C79.2188 102.43 79.8073 102.281 80.2031 101.984C80.6042 101.682 80.8047 101.208 80.8047 100.562C80.8047 99.9688 80.6016 99.5286 80.1953 99.2422C79.7891 98.9557 79.1719 98.8125 78.3438 98.8125H76.4531ZM90.3594 104L89.9922 102.797H89.9297C89.513 103.323 89.0938 103.682 88.6719 103.875C88.25 104.062 87.7083 104.156 87.0469 104.156C86.1979 104.156 85.5339 103.927 85.0547 103.469C84.5807 103.01 84.3438 102.362 84.3438 101.523C84.3438 100.633 84.6745 99.9609 85.3359 99.5078C85.9974 99.0547 87.0052 98.8073 88.3594 98.7656L89.8516 98.7188V98.2578C89.8516 97.7057 89.7214 97.2943 89.4609 97.0234C89.2057 96.7474 88.8073 96.6094 88.2656 96.6094C87.8229 96.6094 87.3984 96.6745 86.9922 96.8047C86.5859 96.9349 86.1953 97.0885 85.8203 97.2656L85.2266 95.9531C85.6953 95.7083 86.2083 95.5234 86.7656 95.3984C87.3229 95.2682 87.849 95.2031 88.3438 95.2031C89.4427 95.2031 90.2708 95.4427 90.8281 95.9219C91.3906 96.401 91.6719 97.1536 91.6719 98.1797V104H90.3594ZM87.625 102.75C88.2917 102.75 88.8255 102.565 89.2266 102.195C89.6328 101.82 89.8359 101.297 89.8359 100.625V99.875L88.7266 99.9219C87.862 99.9531 87.2318 100.099 86.8359 100.359C86.4453 100.615 86.25 101.008 86.25 101.539C86.25 101.924 86.3646 102.224 86.5938 102.438C86.8229 102.646 87.1667 102.75 87.625 102.75ZM96.0703 104H94.2344V91.8438H96.0703V104ZM104.109 104L103.742 102.797H103.68C103.263 103.323 102.844 103.682 102.422 103.875C102 104.062 101.458 104.156 100.797 104.156C99.9479 104.156 99.2839 103.927 98.8047 103.469C98.3307 103.01 98.0938 102.362 98.0938 101.523C98.0938 100.633 98.4245 99.9609 99.0859 99.5078C99.7474 99.0547 100.755 98.8073 102.109 98.7656L103.602 98.7188V98.2578C103.602 97.7057 103.471 97.2943 103.211 97.0234C102.956 96.7474 102.557 96.6094 102.016 96.6094C101.573 96.6094 101.148 96.6745 100.742 96.8047C100.336 96.9349 99.9453 97.0885 99.5703 97.2656L98.9766 95.9531C99.4453 95.7083 99.9583 95.5234 100.516 95.3984C101.073 95.2682 101.599 95.2031 102.094 95.2031C103.193 95.2031 104.021 95.4427 104.578 95.9219C105.141 96.401 105.422 97.1536 105.422 98.1797V104H104.109ZM101.375 102.75C102.042 102.75 102.576 102.565 102.977 102.195C103.383 101.82 103.586 101.297 103.586 100.625V99.875L102.477 99.9219C101.612 99.9531 100.982 100.099 100.586 100.359C100.195 100.615 100 101.008 100 101.539C100 101.924 100.115 102.224 100.344 102.438C100.573 102.646 100.917 102.75 101.375 102.75ZM115.586 104H113.742V98.6875C113.742 98.0208 113.607 97.5234 113.336 97.1953C113.07 96.8672 112.646 96.7031 112.062 96.7031C111.286 96.7031 110.719 96.9323 110.359 97.3906C110 97.849 109.82 98.6172 109.82 99.6953V104H107.984V95.3594H109.422L109.68 96.4922H109.773C110.034 96.0807 110.404 95.763 110.883 95.5391C111.362 95.3151 111.893 95.2031 112.477 95.2031C114.549 95.2031 115.586 96.2578 115.586 98.3672V104ZM121.625 104.156C120.318 104.156 119.323 103.776 118.641 103.016C117.964 102.25 117.625 101.154 117.625 99.7266C117.625 98.2734 117.979 97.1562 118.688 96.375C119.401 95.5938 120.43 95.2031 121.773 95.2031C122.685 95.2031 123.505 95.3724 124.234 95.7109L123.68 97.1875C122.904 96.8854 122.263 96.7344 121.758 96.7344C120.263 96.7344 119.516 97.7266 119.516 99.7109C119.516 100.68 119.701 101.409 120.07 101.898C120.445 102.383 120.992 102.625 121.711 102.625C122.529 102.625 123.302 102.422 124.031 102.016V103.617C123.703 103.81 123.352 103.948 122.977 104.031C122.607 104.115 122.156 104.156 121.625 104.156ZM129.836 104.156C128.492 104.156 127.44 103.766 126.68 102.984C125.924 102.198 125.547 101.117 125.547 99.7422C125.547 98.3307 125.898 97.2214 126.602 96.4141C127.305 95.6068 128.271 95.2031 129.5 95.2031C130.641 95.2031 131.542 95.5495 132.203 96.2422C132.865 96.9349 133.195 97.888 133.195 99.1016V100.094H127.438C127.464 100.932 127.69 101.578 128.117 102.031C128.544 102.479 129.146 102.703 129.922 102.703C130.432 102.703 130.906 102.656 131.344 102.562C131.786 102.464 132.26 102.302 132.766 102.078V103.57C132.318 103.784 131.865 103.935 131.406 104.023C130.948 104.112 130.424 104.156 129.836 104.156ZM129.5 96.5938C128.917 96.5938 128.448 96.7786 128.094 97.1484C127.745 97.5182 127.536 98.0573 127.469 98.7656H131.391C131.38 98.0521 131.208 97.513 130.875 97.1484C130.542 96.7786 130.083 96.5938 129.5 96.5938Z" fill="white"/>
<path d="M32.1668 136V129.825H30.7168V127.975H32.1668V126.175H30.7168V124.325H32.1668V118.15H36.0918L38.0418 124.325H40.3168V118.15H43.0918V124.325H44.5168V126.175H43.0918V127.975H44.5168V129.825H43.0918V136H39.1418L37.1418 129.825H34.9418V136H32.1668ZM34.9418 127.975H36.5918L36.0418 126.175H34.8918L34.9418 127.975ZM40.3918 132.1H40.5168L40.4168 129.825H39.7418L40.3918 132.1ZM34.8418 124.325H35.5418L34.8168 121.925H34.7168L34.8418 124.325ZM39.2168 127.975H40.3668L40.3168 126.175H38.6418L39.2168 127.975ZM52.2686 124.599C53.9938 124.599 55.3651 125.083 56.3823 126.051C57.4077 127.02 57.9204 128.346 57.9204 130.031C57.9204 132.025 57.306 133.559 56.0771 134.633C54.8483 135.707 53.0905 136.244 50.8037 136.244C48.818 136.244 47.2148 135.923 45.9941 135.28V132.021C46.637 132.362 47.3857 132.643 48.2402 132.863C49.0947 133.074 49.9045 133.18 50.6694 133.18C52.9725 133.18 54.124 132.236 54.124 130.348C54.124 128.55 52.9318 127.65 50.5474 127.65C50.116 127.65 49.64 127.695 49.1191 127.785C48.5983 127.866 48.1751 127.956 47.8496 128.053L46.3481 127.248L47.0195 118.153H56.6997V121.352H50.3276L49.998 124.855L50.4253 124.77C50.9217 124.656 51.5361 124.599 52.2686 124.599ZM72.4346 127.077C72.4346 130.194 71.9219 132.501 70.8965 133.998C69.8792 135.495 68.3086 136.244 66.1846 136.244C64.1257 136.244 62.5713 135.471 61.5215 133.925C60.4798 132.379 59.959 130.096 59.959 127.077C59.959 123.927 60.4676 121.608 61.4849 120.119C62.5021 118.621 64.0687 117.873 66.1846 117.873C68.2435 117.873 69.7979 118.654 70.8477 120.216C71.9056 121.779 72.4346 124.066 72.4346 127.077ZM63.7065 127.077C63.7065 129.266 63.8937 130.836 64.2681 131.789C64.6506 132.733 65.2894 133.205 66.1846 133.205C67.0635 133.205 67.6982 132.724 68.0889 131.764C68.4795 130.804 68.6748 129.241 68.6748 127.077C68.6748 124.888 68.4754 123.317 68.0767 122.365C67.686 121.404 67.0553 120.924 66.1846 120.924C65.2975 120.924 64.6628 121.404 64.2803 122.365C63.8978 123.317 63.7065 124.888 63.7065 127.077ZM78.9409 133.375C78.5177 135.019 77.8016 136.968 76.7925 139.223H74.1069C74.6359 137.058 75.0469 135.015 75.3398 133.095H78.7578L78.9409 133.375ZM93.9678 127.077C93.9678 130.194 93.4551 132.501 92.4297 133.998C91.4124 135.495 89.8418 136.244 87.7178 136.244C85.6589 136.244 84.1045 135.471 83.0547 133.925C82.013 132.379 81.4922 130.096 81.4922 127.077C81.4922 123.927 82.0008 121.608 83.0181 120.119C84.0353 118.621 85.6019 117.873 87.7178 117.873C89.7767 117.873 91.3311 118.654 92.3809 120.216C93.4388 121.779 93.9678 124.066 93.9678 127.077ZM85.2397 127.077C85.2397 129.266 85.4269 130.836 85.8013 131.789C86.1838 132.733 86.8226 133.205 87.7178 133.205C88.5967 133.205 89.2314 132.724 89.6221 131.764C90.0127 130.804 90.208 129.241 90.208 127.077C90.208 124.888 90.0086 123.317 89.6099 122.365C89.2192 121.404 88.5885 120.924 87.7178 120.924C86.8307 120.924 86.196 121.404 85.8135 122.365C85.431 123.317 85.2397 124.888 85.2397 127.077ZM108.25 127.077C108.25 130.194 107.737 132.501 106.712 133.998C105.695 135.495 104.124 136.244 102 136.244C99.9411 136.244 98.3867 135.471 97.3369 133.925C96.2952 132.379 95.7744 130.096 95.7744 127.077C95.7744 123.927 96.283 121.608 97.3003 120.119C98.3175 118.621 99.8841 117.873 102 117.873C104.059 117.873 105.613 118.654 106.663 120.216C107.721 121.779 108.25 124.066 108.25 127.077ZM99.522 127.077C99.522 129.266 99.7091 130.836 100.083 131.789C100.466 132.733 101.105 133.205 102 133.205C102.879 133.205 103.514 132.724 103.904 131.764C104.295 130.804 104.49 129.241 104.49 127.077C104.49 124.888 104.291 123.317 103.892 122.365C103.501 121.404 102.871 120.924 102 120.924C101.113 120.924 100.478 121.404 100.096 122.365C99.7132 123.317 99.522 124.888 99.522 127.077ZM122.532 127.077C122.532 130.194 122.02 132.501 120.994 133.998C119.977 135.495 118.406 136.244 116.282 136.244C114.223 136.244 112.669 135.471 111.619 133.925C110.577 132.379 110.057 130.096 110.057 127.077C110.057 123.927 110.565 121.608 111.583 120.119C112.6 118.621 114.166 117.873 116.282 117.873C118.341 117.873 119.896 118.654 120.945 120.216C122.003 121.779 122.532 124.066 122.532 127.077ZM113.804 127.077C113.804 129.266 113.991 130.836 114.366 131.789C114.748 132.733 115.387 133.205 116.282 133.205C117.161 133.205 117.796 132.724 118.187 131.764C118.577 130.804 118.772 129.241 118.772 127.077C118.772 124.888 118.573 123.317 118.174 122.365C117.784 121.404 117.153 120.924 116.282 120.924C115.395 120.924 114.76 121.404 114.378 122.365C113.995 123.317 113.804 124.888 113.804 127.077ZM129.039 133.375C128.615 135.019 127.899 136.968 126.89 139.223H124.205C124.734 137.058 125.145 135.015 125.438 133.095H128.855L129.039 133.375ZM144.065 127.077C144.065 130.194 143.553 132.501 142.527 133.998C141.51 135.495 139.939 136.244 137.815 136.244C135.757 136.244 134.202 135.471 133.152 133.925C132.111 132.379 131.59 130.096 131.59 127.077C131.59 123.927 132.098 121.608 133.116 120.119C134.133 118.621 135.7 117.873 137.815 117.873C139.874 117.873 141.429 118.654 142.479 120.216C143.536 121.779 144.065 124.066 144.065 127.077ZM135.337 127.077C135.337 129.266 135.525 130.836 135.899 131.789C136.281 132.733 136.92 133.205 137.815 133.205C138.694 133.205 139.329 132.724 139.72 131.764C140.11 130.804 140.306 129.241 140.306 127.077C140.306 124.888 140.106 123.317 139.708 122.365C139.317 121.404 138.686 120.924 137.815 120.924C136.928 120.924 136.294 121.404 135.911 122.365C135.529 123.317 135.337 124.888 135.337 127.077ZM158.348 127.077C158.348 130.194 157.835 132.501 156.81 133.998C155.792 135.495 154.222 136.244 152.098 136.244C150.039 136.244 148.484 135.471 147.435 133.925C146.393 132.379 145.872 130.096 145.872 127.077C145.872 123.927 146.381 121.608 147.398 120.119C148.415 118.621 149.982 117.873 152.098 117.873C154.157 117.873 155.711 118.654 156.761 120.216C157.819 121.779 158.348 124.066 158.348 127.077ZM149.62 127.077C149.62 129.266 149.807 130.836 150.181 131.789C150.564 132.733 151.202 133.205 152.098 133.205C152.977 133.205 153.611 132.724 154.002 131.764C154.393 130.804 154.588 129.241 154.588 127.077C154.588 124.888 154.389 123.317 153.99 122.365C153.599 121.404 152.968 120.924 152.098 120.924C151.211 120.924 150.576 121.404 150.193 122.365C149.811 123.317 149.62 124.888 149.62 127.077ZM172.63 127.077C172.63 130.194 172.117 132.501 171.092 133.998C170.075 135.495 168.504 136.244 166.38 136.244C164.321 136.244 162.767 135.471 161.717 133.925C160.675 132.379 160.154 130.096 160.154 127.077C160.154 123.927 160.663 121.608 161.68 120.119C162.697 118.621 164.264 117.873 166.38 117.873C168.439 117.873 169.993 118.654 171.043 120.216C172.101 121.779 172.63 124.066 172.63 127.077ZM163.902 127.077C163.902 129.266 164.089 130.836 164.463 131.789C164.846 132.733 165.485 133.205 166.38 133.205C167.259 133.205 167.894 132.724 168.284 131.764C168.675 130.804 168.87 129.241 168.87 127.077C168.87 124.888 168.671 123.317 168.272 122.365C167.881 121.404 167.251 120.924 166.38 120.924C165.493 120.924 164.858 121.404 164.476 122.365C164.093 123.317 163.902 124.888 163.902 127.077Z" fill="white"/>
<path d="M327 116.5C327.828 116.5 328.5 115.828 328.5 115C328.5 114.172 327.828 113.5 327 113.5C326.172 113.5 325.5 114.172 325.5 115C325.5 115.828 326.172 116.5 327 116.5Z" fill="white"/>
<path d="M330.286 121.12L328.996 119.78L328.926 119.71L327.656 118.44C327.455 118.475 327.251 118.496 327.046 118.5C326.582 118.507 326.122 118.421 325.691 118.248C325.261 118.075 324.869 117.819 324.539 117.493C324.209 117.167 323.946 116.779 323.767 116.351C323.588 115.923 323.496 115.464 323.496 115C323.501 114.796 323.521 114.592 323.556 114.39L321.556 112.39L319.996 110.87C318.867 111.934 317.901 113.157 317.126 114.5C317.038 114.652 316.992 114.825 316.992 115C316.992 115.176 317.038 115.348 317.126 115.5C317.756 116.59 321.126 122 327.016 122H327.266C328.374 121.967 329.467 121.741 330.496 121.33L330.286 121.12ZM323.586 108.76L326.386 111.56C326.588 111.525 326.792 111.505 326.996 111.5C327.924 111.5 328.815 111.869 329.471 112.525C330.127 113.182 330.496 114.072 330.496 115C330.492 115.205 330.471 115.409 330.436 115.61L333.116 118.29L333.956 119.13C335.099 118.07 336.08 116.846 336.866 115.5C336.954 115.348 337 115.176 337 115C337 114.825 336.954 114.652 336.866 114.5C336.226 113.39 332.706 107.82 326.726 108C325.619 108.033 324.525 108.26 323.496 108.67L323.586 108.76ZM335.706 122.29L334.406 121L332.406 119L322.886 109.47L321.416 108L319.706 106.29C319.613 106.197 319.502 106.123 319.38 106.073C319.259 106.022 319.128 105.996 318.996 105.996C318.864 105.996 318.734 106.022 318.612 106.073C318.49 106.123 318.379 106.197 318.286 106.29C318.098 106.478 317.992 106.734 317.992 107C317.992 107.266 318.098 107.522 318.286 107.71L320.526 110L322.276 111.7L329.586 119L329.656 119.07L330.996 120.41L331.586 121L334.286 123.71C334.379 123.804 334.49 123.878 334.612 123.929C334.733 123.98 334.864 124.006 334.996 124.006C335.128 124.006 335.259 123.98 335.381 123.929C335.503 123.878 335.613 123.804 335.706 123.71C335.8 123.617 335.874 123.507 335.925 123.385C335.976 123.263 336.002 123.132 336.002 123C336.002 122.868 335.976 122.737 335.925 122.616C335.874 122.494 335.8 122.383 335.706 122.29Z" fill="white"/>
</g>
<defs>
<clipPath id="clip0_1419_1069">
<rect width="368" height="173" rx="10" fill="white"/>
</clipPath>
<clipPath id="clip1_1419_1069">
<rect width="23.2277" height="36" fill="white" transform="translate(30 31)"/>
</clipPath>
</defs>
</svg>
