<svg width="28" height="28" viewBox="0 0 28 28" fill="none" xmlns="http://www.w3.org/2000/svg">
<g clip-path="url(#clip0_1247_5807)">
<path d="M8.35426 13.5253C6.83274 13.5723 5.58829 14.1734 4.6209 15.3286H2.7331C1.96294 15.3286 1.31489 15.1384 0.788939 14.758C0.26298 14.3776 0 13.8212 0 13.0886C0 9.77316 0.582307 8.11546 1.74692 8.11546C1.80327 8.11546 2.00755 8.21408 2.35975 8.41131C2.71196 8.60855 3.16982 8.80813 3.73335 9.01006C4.29687 9.21198 4.8557 9.31294 5.40984 9.31294C6.0391 9.31294 6.66367 9.20494 7.28355 8.98893C7.2366 9.33643 7.21312 9.64637 7.21312 9.91874C7.21312 11.2242 7.5935 12.4264 8.35426 13.5253ZM23.4426 22.4994C23.4426 23.6265 23.0998 24.5164 22.4142 25.1691C21.7286 25.8219 20.8175 26.1482 19.6811 26.1482H7.36808C6.23164 26.1482 5.32061 25.8219 4.63499 25.1691C3.94937 24.5164 3.60655 23.6265 3.60655 22.4994C3.60655 22.0016 3.62299 21.5156 3.65587 21.0413C3.68874 20.567 3.75449 20.0551 3.8531 19.5057C3.95172 18.9563 4.07616 18.4467 4.22643 17.9771C4.3767 17.5075 4.57863 17.0497 4.83222 16.6035C5.0858 16.1574 5.37696 15.777 5.70569 15.4624C6.03441 15.1478 6.43592 14.8965 6.91022 14.7087C7.38452 14.5209 7.90813 14.4269 8.48105 14.4269C8.57497 14.4269 8.7769 14.5279 9.08683 14.7298C9.39677 14.9318 9.73958 15.1572 10.1153 15.4061C10.491 15.6549 10.9934 15.8804 11.6227 16.0823C12.252 16.2842 12.8859 16.3852 13.5246 16.3852C14.1633 16.3852 14.7972 16.2842 15.4265 16.0823C16.0558 15.8804 16.5582 15.6549 16.9339 15.4061C17.3096 15.1572 17.6524 14.9318 17.9623 14.7298C18.2723 14.5279 18.4742 14.4269 18.5681 14.4269C19.1411 14.4269 19.6647 14.5209 20.139 14.7087C20.6133 14.8965 21.0148 15.1478 21.3435 15.4624C21.6722 15.777 21.9634 16.1574 22.217 16.6035C22.4705 17.0497 22.6725 17.5075 22.8227 17.9771C22.973 18.4467 23.0975 18.9563 23.1961 19.5057C23.2947 20.0551 23.3604 20.567 23.3933 21.0413C23.4262 21.5156 23.4426 22.0016 23.4426 22.4994ZM9.01639 4.50891C9.01639 5.50447 8.66419 6.35445 7.95978 7.05885C7.25537 7.76326 6.40539 8.11546 5.40984 8.11546C4.41428 8.11546 3.5643 7.76326 2.85989 7.05885C2.15549 6.35445 1.80328 5.50447 1.80328 4.50891C1.80328 3.51334 2.15549 2.66336 2.85989 1.95895C3.5643 1.25455 4.41428 0.902344 5.40984 0.902344C6.40539 0.902344 7.25537 1.25455 7.95978 1.95895C8.66419 2.66336 9.01639 3.51334 9.01639 4.50891ZM18.9344 9.91874C18.9344 11.4121 18.4061 12.6871 17.3495 13.7437C16.2929 14.8003 15.0179 15.3286 13.5246 15.3286C12.0313 15.3286 10.7563 14.8003 9.69967 13.7437C8.64306 12.6871 8.11475 11.4121 8.11475 9.91874C8.11475 8.4254 8.64306 7.15043 9.69967 6.09382C10.7563 5.03721 12.0313 4.50891 13.5246 4.50891C15.0179 4.50891 16.2929 5.03721 17.3495 6.09382C18.4061 7.15043 18.9344 8.4254 18.9344 9.91874ZM27.0492 13.0886C27.0492 13.8212 26.7862 14.3776 26.2602 14.758C25.7343 15.1384 25.0862 15.3286 24.3161 15.3286H22.4283C21.4609 14.1734 20.2164 13.5723 18.6949 13.5253C19.4557 12.4264 19.8361 11.2242 19.8361 9.91874C19.8361 9.64637 19.8126 9.33643 19.7656 8.98893C20.3855 9.20494 21.0101 9.31294 21.6393 9.31294C22.1935 9.31294 22.7523 9.21198 23.3158 9.01006C23.8794 8.80813 24.3372 8.60855 24.6894 8.41131C25.0416 8.21408 25.2459 8.11546 25.3023 8.11546C26.4669 8.11546 27.0492 9.77316 27.0492 13.0886ZM25.2459 4.50891C25.2459 5.50447 24.8937 6.35445 24.1893 7.05885C23.4849 7.76326 22.6349 8.11546 21.6393 8.11546C20.6438 8.11546 19.7938 7.76326 19.0894 7.05885C18.385 6.35445 18.0328 5.50447 18.0328 4.50891C18.0328 3.51334 18.385 2.66336 19.0894 1.95895C19.7938 1.25455 20.6438 0.902344 21.6393 0.902344C22.6349 0.902344 23.4849 1.25455 24.1893 1.95895C24.8937 2.66336 25.2459 3.51334 25.2459 4.50891Z" fill="#3D4080"/>
</g>
<defs>
<clipPath id="clip0_1247_5807">
<rect width="27.0492" height="27.0492" fill="white" transform="translate(0 0.000976562)"/>
</clipPath>
</defs>
</svg>
