<svg width="61" height="61" viewBox="0 0 61 61" fill="none" xmlns="http://www.w3.org/2000/svg">
<circle cx="30.5464" cy="30.1362" r="30.1362" fill="#222222"/>
<path d="M39.999 25.6841C37.8171 20.6067 34.3072 16.7441 32.5316 17.4646C29.5163 18.6919 34.3279 24.578 19.5184 30.5963C18.2387 31.1184 17.915 33.197 18.4508 34.4423C18.9853 35.6848 20.7347 36.9231 22.0144 36.4038C22.2362 36.3129 23.0489 36.0512 23.0489 36.0512C23.9622 37.2785 24.9182 36.5512 25.2584 37.3295L26.8536 40.9937C27.1552 41.6852 27.8385 42.3257 28.3344 42.137L31.1582 41.0639C31.8029 40.8187 31.9558 40.2429 31.7588 39.7911C31.5467 39.3021 30.6761 39.1588 30.4268 38.5885C30.1788 38.021 29.3675 36.1944 29.1347 35.6186C28.8179 34.8362 29.4915 34.1984 30.4709 34.0979C37.2124 33.3926 38.4728 37.5582 40.7677 36.6242C42.5405 35.901 42.1796 30.7575 39.999 25.6841ZM39.24 33.9161C38.8447 34.0745 36.1916 31.9848 34.4973 28.0383C32.8016 24.0945 33.0151 20.4896 33.4091 20.3284C33.8031 20.17 36.3914 22.6936 38.0857 26.6374C39.7814 30.5811 39.634 33.7549 39.24 33.9161Z" fill="white"/>
</svg>
