<svg width="25" height="25" viewBox="0 0 25 25" fill="none" xmlns="http://www.w3.org/2000/svg">
<path d="M12.5 1.11328L3.5 5.11328V11.1133C3.5 16.6633 7.34 21.8533 12.5 23.1133C17.66 21.8533 21.5 16.6633 21.5 11.1133V5.11328L12.5 1.11328ZM12.5 5.01328C13.0933 5.01328 13.6734 5.18923 14.1667 5.51887C14.6601 5.84852 15.0446 6.31705 15.2716 6.86523C15.4987 7.41341 15.5581 8.01661 15.4424 8.59855C15.3266 9.18049 15.0409 9.71504 14.6213 10.1346C14.2018 10.5542 13.6672 10.8399 13.0853 10.9556C12.5033 11.0714 11.9001 11.012 11.3519 10.7849C10.8038 10.5579 10.3352 10.1733 10.0056 9.67999C9.67595 9.18664 9.5 8.60663 9.5 8.01328C9.5 7.21763 9.81607 6.45457 10.3787 5.89196C10.9413 5.32935 11.7044 5.01328 12.5 5.01328ZM12.5 12.9133C14.5 12.9133 18.5 14.0033 18.5 15.9933C17.8432 16.9834 16.9516 17.7956 15.9047 18.3574C14.8578 18.9193 13.6881 19.2133 12.5 19.2133C11.3119 19.2133 10.1422 18.9193 9.09527 18.3574C8.04836 17.7956 7.15677 16.9834 6.5 15.9933C6.5 14.0033 10.5 12.9133 12.5 12.9133Z" fill="#3D4080"/>
</svg>
