<svg width="61" height="62" viewBox="0 0 61 62" fill="none" xmlns="http://www.w3.org/2000/svg">
<circle cx="30.1362" cy="30.9019" r="30.1362" fill="#3D4080"/>
<path d="M40.3032 18H37.7755C37.6965 18 37.6571 18 37.5781 18H22.6492C21.0299 18 19.7266 19.3033 19.7266 20.9226V40.0774C19.7266 41.6967 21.0299 43 22.6492 43H37.4201C39.0394 43 40.3427 41.6967 40.3427 40.0774V21.91C40.3427 21.831 40.2637 21.7915 40.2242 21.7915H28.3364C28.2574 21.7915 28.2179 21.8705 28.2179 21.91V22.8578V27.5182C28.2179 27.5577 28.2179 27.5577 28.2179 27.5972C28.1784 27.6761 28.0599 27.6761 27.9809 27.5972L26.1247 25.1485C26.0852 25.0695 25.9667 25.0695 25.8877 25.1485L24.071 27.5972C23.992 27.7156 23.834 27.6367 23.834 27.5182V23.4897V21.8705C23.834 21.831 23.834 21.831 23.7945 21.7915C23.755 21.752 23.7155 21.7125 23.676 21.7125H22.5702C21.8593 21.7125 21.3063 21.1201 21.3063 20.4487C21.3063 19.7378 21.8988 19.1848 22.5702 19.1848H35.3664H40.2637C40.3427 19.1848 40.3822 19.1058 40.3822 19.0664V18.1185C40.4217 18.0395 40.3822 18 40.3032 18Z" fill="white"/>
</svg>
