<svg width="61" height="62" viewBox="0 0 61 62" fill="none" xmlns="http://www.w3.org/2000/svg">
<circle cx="30.5444" cy="30.9019" r="30.1362" fill="#EB5757"/>
<g clip-path="url(#clip0_3541_2450)">
<path d="M24.8992 31.2899C23.3777 31.3369 22.1332 31.938 21.1658 33.0932H19.278C18.5079 33.0932 17.8598 32.903 17.3339 32.5227C16.8079 32.1423 16.5449 31.5858 16.5449 30.8532C16.5449 27.5378 17.1272 25.8801 18.2918 25.8801C18.3482 25.8801 18.5525 25.9787 18.9047 26.176C19.2569 26.3732 19.7147 26.5728 20.2783 26.7747C20.8418 26.9766 21.4006 27.0776 21.9548 27.0776C22.584 27.0776 23.2086 26.9696 23.8285 26.7536C23.7815 27.1011 23.758 27.411 23.758 27.6834C23.758 28.9889 24.1384 30.1911 24.8992 31.2899ZM39.9876 40.2641C39.9876 41.3911 39.6447 42.281 38.9591 42.9338C38.2735 43.5865 37.3625 43.9129 36.226 43.9129H23.913C22.7766 43.9129 21.8655 43.5865 21.1799 42.9338C20.4943 42.281 20.1515 41.3911 20.1515 40.2641C20.1515 39.7663 20.1679 39.2803 20.2008 38.8059C20.2337 38.3316 20.2994 37.8198 20.398 37.2703C20.4966 36.7209 20.6211 36.2114 20.7714 35.7418C20.9216 35.2722 21.1236 34.8143 21.3771 34.3682C21.6307 33.9221 21.9219 33.5417 22.2506 33.2271C22.5793 32.9124 22.9808 32.6612 23.4551 32.4733C23.9294 32.2855 24.453 32.1916 25.026 32.1916C25.1199 32.1916 25.3218 32.2925 25.6318 32.4945C25.9417 32.6964 26.2845 32.9218 26.6602 33.1707C27.0359 33.4196 27.5384 33.645 28.1676 33.8469C28.7969 34.0489 29.4308 34.1498 30.0695 34.1498C30.7082 34.1498 31.3421 34.0489 31.9714 33.8469C32.6007 33.645 33.1031 33.4196 33.4788 33.1707C33.8545 32.9218 34.1973 32.6964 34.5073 32.4945C34.8172 32.2925 35.0191 32.1916 35.1131 32.1916C35.686 32.1916 36.2096 32.2855 36.6839 32.4733C37.1582 32.6612 37.5597 32.9124 37.8884 33.2271C38.2171 33.5417 38.5083 33.9221 38.7619 34.3682C39.0155 34.8143 39.2174 35.2722 39.3677 35.7418C39.5179 36.2114 39.6424 36.7209 39.741 37.2703C39.8396 37.8198 39.9054 38.3316 39.9382 38.8059C39.9711 39.2803 39.9876 39.7663 39.9876 40.2641ZM25.5613 22.2736C25.5613 23.2691 25.2091 24.1191 24.5047 24.8235C23.8003 25.5279 22.9503 25.8801 21.9548 25.8801C20.9592 25.8801 20.1092 25.5279 19.4048 24.8235C18.7004 24.1191 18.3482 23.2691 18.3482 22.2736C18.3482 21.278 18.7004 20.428 19.4048 19.7236C20.1092 19.0192 20.9592 18.667 21.9548 18.667C22.9503 18.667 23.8003 19.0192 24.5047 19.7236C25.2091 20.428 25.5613 21.278 25.5613 22.2736ZM35.4793 27.6834C35.4793 29.1767 34.951 30.4517 33.8944 31.5083C32.8378 32.5649 31.5629 33.0932 30.0695 33.0932C28.5762 33.0932 27.3012 32.5649 26.2446 31.5083C25.188 30.4517 24.6597 29.1767 24.6597 27.6834C24.6597 26.1901 25.188 24.9151 26.2446 23.8585C27.3012 22.8019 28.5762 22.2736 30.0695 22.2736C31.5629 22.2736 32.8378 22.8019 33.8944 23.8585C34.951 24.9151 35.4793 26.1901 35.4793 27.6834ZM43.5941 30.8532C43.5941 31.5858 43.3311 32.1423 42.8052 32.5227C42.2792 32.903 41.6312 33.0932 40.861 33.0932H38.9732C38.0058 31.938 36.7614 31.3369 35.2398 31.2899C36.0006 30.1911 36.381 28.9889 36.381 27.6834C36.381 27.411 36.3575 27.1011 36.3106 26.7536C36.9304 26.9696 37.555 27.0776 38.1843 27.0776C38.7384 27.0776 39.2972 26.9766 39.8608 26.7747C40.4243 26.5728 40.8821 26.3732 41.2343 26.176C41.5866 25.9787 41.7908 25.8801 41.8472 25.8801C43.0118 25.8801 43.5941 27.5378 43.5941 30.8532ZM41.7908 22.2736C41.7908 23.2691 41.4386 24.1191 40.7342 24.8235C40.0298 25.5279 39.1798 25.8801 38.1843 25.8801C37.1887 25.8801 36.3387 25.5279 35.6343 24.8235C34.9299 24.1191 34.5777 23.2691 34.5777 22.2736C34.5777 21.278 34.9299 20.428 35.6343 19.7236C36.3387 19.0192 37.1887 18.667 38.1843 18.667C39.1798 18.667 40.0298 19.0192 40.7342 19.7236C41.4386 20.428 41.7908 21.278 41.7908 22.2736Z" fill="white"/>
</g>
<defs>
<clipPath id="clip0_3541_2450">
<rect width="27.0492" height="27.0492" fill="white" transform="translate(16.5449 17.7656)"/>
</clipPath>
</defs>
</svg>
