<svg width="19" height="18" viewBox="0 0 19 18" fill="none" xmlns="http://www.w3.org/2000/svg">
<path fill-rule="evenodd" clip-rule="evenodd" d="M9.51991 0C7.26166 0 5.20376 0.745855 3.98651 1.35554C3.87681 1.41047 3.77396 1.46431 3.67841 1.51639C3.48931 1.61945 3.32876 1.71566 3.20041 1.8L4.58541 3.8388L5.23726 4.09835C7.78541 5.384 11.2026 5.384 13.7507 4.09835L14.4909 3.7143L15.8004 1.8C15.6085 1.67207 15.3432 1.51686 15.0166 1.35181C14.9967 1.34176 14.9766 1.33165 14.9562 1.32153C13.7442 0.718485 11.7363 0 9.51991 0ZM6.29876 2.3081C5.80036 2.2161 5.31061 2.0893 4.84831 1.94377C5.98896 1.43727 7.68886 0.9 9.51991 0.9C10.7886 0.9 11.9881 1.15796 12.9803 1.48459C11.8176 1.64873 10.5768 1.9258 9.39486 2.2677C8.46481 2.53675 7.37776 2.50715 6.29876 2.3081ZM14.2787 4.84L14.1562 4.90185C11.353 6.3162 7.63501 6.3162 4.83181 4.90185L4.71531 4.84305C0.504509 9.4637 -2.71061 17.9986 9.51991 17.9986C21.7504 17.9986 18.4569 9.30425 14.2787 4.84ZM9.00041 9C8.44816 9 8.00041 9.4477 8.00041 10C8.00041 10.5523 8.44816 11 9.00041 11V9ZM10.0004 8V7.5H9.00041V8C7.89586 8 7.00041 8.89545 7.00041 10C7.00041 11.1046 7.89586 12 9.00041 12V14C8.56581 14 8.19471 13.7225 8.05721 13.3334C7.96516 13.073 7.67951 12.9366 7.41916 13.0286C7.15881 13.1206 7.02231 13.4062 7.11436 13.6666C7.38866 14.4427 8.12881 15 9.00041 15V15.5H10.0004V15C11.105 15 12.0004 14.1046 12.0004 13C12.0004 11.8954 11.105 11 10.0004 11V9C10.4351 9 10.8061 9.27755 10.9437 9.6666C11.0357 9.927 11.3213 10.0634 11.5817 9.9714C11.8421 9.8794 11.9785 9.59375 11.8865 9.3334C11.6122 8.55725 10.872 8 10.0004 8ZM10.0004 12V14C10.5527 14 11.0004 13.5523 11.0004 13C11.0004 12.4477 10.5527 12 10.0004 12Z" fill="white"/>
</svg>
