<svg width="90" height="90" viewBox="0 0 90 90" fill="none" xmlns="http://www.w3.org/2000/svg">
<circle cx="45" cy="45" r="44.5" fill="#EB5757" fill-opacity="0.1" stroke="#EB5757"/>
<g clip-path="url(#clip0_1991_511)">
<mask id="mask0_1991_511" style="mask-type:luminance" maskUnits="userSpaceOnUse" x="21" y="21" width="48" height="48">
<path d="M21 21H68.5V68.5H21V21Z" fill="white"/>
</mask>
<g mask="url(#mask0_1991_511)">
<path d="M48.5 61C48.5 61.9946 48.1049 62.9484 47.4017 63.6517C46.6984 64.3549 45.7446 64.75 44.75 64.75C43.7554 64.75 42.8016 64.3549 42.0983 63.6517C41.3951 62.9484 41 61.9946 41 61C41 60.0054 41.3951 59.0516 42.0983 58.3483C42.8016 57.6451 43.7554 57.25 44.75 57.25C45.7446 57.25 46.6984 57.6451 47.4017 58.3483C48.1049 59.0516 48.5 60.0054 48.5 61ZM48.5 51C48.5 51.9946 48.1049 52.9484 47.4017 53.6517C46.6984 54.3549 45.7446 54.75 44.75 54.75C43.7554 54.75 42.8016 54.3549 42.0983 53.6517C41.3951 52.9484 41 51.9946 41 51V27.25C41 26.2554 41.3951 25.3016 42.0983 24.5984C42.8016 23.8951 43.7554 23.5 44.75 23.5C45.7446 23.5 46.6984 23.8951 47.4017 24.5984C48.1049 25.3016 48.5 26.2554 48.5 27.25V51Z" fill="#EB5757"/>
</g>
</g>
<defs>
<clipPath id="clip0_1991_511">
<rect width="47.5" height="47.5" fill="white" transform="translate(21 21)"/>
</clipPath>
</defs>
</svg>
