<svg width="24" height="24" viewBox="0 0 24 24" fill="none" xmlns="http://www.w3.org/2000/svg">
<g clip-path="url(#clip0_1463_1380)">
<path d="M12 15C13.6569 15 15 13.6569 15 12C15 10.3431 13.6569 9 12 9C10.3431 9 9 10.3431 9 12C9 13.6569 10.3431 15 12 15Z" fill="white"/>
<path d="M19.5 3.75H4.5C4.30109 3.75 4.11032 3.82902 3.96967 3.96967C3.82902 4.11032 3.75 4.30109 3.75 4.5V20.355C3.75 21.1228 4.05501 21.8592 4.59793 22.4021C5.14084 22.945 5.8772 23.25 6.645 23.25H17.355C18.1228 23.25 18.8592 22.945 19.4021 22.4021C19.945 21.8592 20.25 21.1228 20.25 20.355V4.5C20.25 4.30109 20.171 4.11032 20.0303 3.96967C19.8897 3.82902 19.6989 3.75 19.5 3.75ZM12 16.5C11.11 16.5 10.24 16.2361 9.49993 15.7416C8.75991 15.2471 8.18314 14.5443 7.84254 13.7221C7.50195 12.8998 7.41283 11.995 7.58647 11.1221C7.7601 10.2492 8.18868 9.44736 8.81802 8.81802C9.44736 8.18868 10.2492 7.7601 11.1221 7.58647C11.995 7.41283 12.8998 7.50195 13.7221 7.84254C14.5443 8.18314 15.2471 8.75991 15.7416 9.49993C16.2361 10.24 16.5 11.11 16.5 12C16.5 13.1935 16.0259 14.3381 15.182 15.182C14.3381 16.0259 13.1935 16.5 12 16.5Z" fill="white"/>
<path d="M21 0.75H3C2.40326 0.75 1.83097 0.987053 1.40901 1.40901C0.987053 1.83097 0.75 2.40326 0.75 3V7.5C0.751305 7.96421 0.896159 8.41665 1.1647 8.7953C1.43325 9.17395 1.81234 9.46027 2.25 9.615V4.5C2.25 3.90326 2.48705 3.33097 2.90901 2.90901C3.33097 2.48705 3.90326 2.25 4.5 2.25H19.5C20.0967 2.25 20.669 2.48705 21.091 2.90901C21.5129 3.33097 21.75 3.90326 21.75 4.5V9.615C22.1877 9.46027 22.5668 9.17395 22.8353 8.7953C23.1038 8.41665 23.2487 7.96421 23.25 7.5V3C23.25 2.40326 23.0129 1.83097 22.591 1.40901C22.169 0.987053 21.5967 0.75 21 0.75Z" fill="white"/>
</g>
<defs>
<clipPath id="clip0_1463_1380">
<rect width="24" height="24" fill="white"/>
</clipPath>
</defs>
</svg>
