<svg width="61" height="62" viewBox="0 0 61 62" fill="none" xmlns="http://www.w3.org/2000/svg">
<circle cx="30.272" cy="31.0191" r="30.1362" fill="#1059BC"/>
<g clip-path="url(#clip0_611_4498)">
<path d="M20.5329 30.3652H25.1405C25.2007 30.3652 25.2604 30.3771 25.316 30.4002C25.3717 30.4232 25.4223 30.457 25.4649 30.4996C25.5075 30.5422 25.5412 30.5928 25.5643 30.6484C25.5874 30.7041 25.5992 30.7637 25.5992 30.8239V31.4733C25.5992 31.5335 25.5874 31.5932 25.5643 31.6488C25.5412 31.7045 25.5075 31.7551 25.4649 31.7977C25.4223 31.8403 25.3717 31.874 25.316 31.8971C25.2604 31.9202 25.2007 31.932 25.1405 31.932H20.5329C20.4727 31.932 20.413 31.9202 20.3574 31.8971C20.3017 31.874 20.2512 31.8403 20.2086 31.7977C20.166 31.7551 20.1322 31.7045 20.1091 31.6489C20.0861 31.5932 20.0742 31.5336 20.0742 31.4733V30.8239C20.0742 30.7023 20.1225 30.5856 20.2086 30.4996C20.2946 30.4136 20.4112 30.3652 20.5329 30.3652ZM27.3567 30.3652H31.9643C32.0245 30.3652 32.0842 30.3771 32.1398 30.4002C32.1955 30.4232 32.246 30.457 32.2886 30.4996C32.3312 30.5422 32.365 30.5928 32.3881 30.6484C32.4111 30.7041 32.423 30.7637 32.423 30.8239V31.4733C32.423 31.5949 32.3747 31.7116 32.2886 31.7977C32.2026 31.8837 32.0859 31.932 31.9642 31.932H27.3568C27.2351 31.932 27.1184 31.8837 27.0324 31.7977C26.9463 31.7116 26.898 31.5949 26.898 31.4733V30.8239C26.898 30.7023 26.9463 30.5856 27.0323 30.4996C27.1183 30.4136 27.235 30.3652 27.3567 30.3652ZM34.1805 30.3652H38.788C38.9097 30.3652 39.0264 30.4136 39.1124 30.4996C39.1985 30.5856 39.2468 30.7023 39.2468 30.824V31.4733C39.2468 31.595 39.1985 31.7116 39.1124 31.7977C39.0264 31.8837 38.9097 31.932 38.7881 31.932H34.1804C34.0588 31.932 33.9421 31.8837 33.8561 31.7977C33.7701 31.7117 33.7218 31.595 33.7218 31.4734V30.8239C33.7218 30.7637 33.7336 30.704 33.7567 30.6484C33.7797 30.5927 33.8135 30.5422 33.8561 30.4996C33.8987 30.457 33.9493 30.4232 34.0049 30.4002C34.0606 30.3771 34.1202 30.3652 34.1805 30.3652ZM20.5329 34.5827H25.1405C25.2007 34.5827 25.2604 34.5945 25.316 34.6176C25.3717 34.6406 25.4223 34.6744 25.4649 34.717C25.5075 34.7596 25.5412 34.8102 25.5643 34.8658C25.5874 34.9215 25.5992 34.9811 25.5992 35.0414V35.6907C25.5992 35.8124 25.5509 35.9291 25.4648 36.0151C25.3788 36.1011 25.2621 36.1495 25.1405 36.1495H20.5329C20.4113 36.1495 20.2946 36.1011 20.2086 36.0151C20.1225 35.9291 20.0742 35.8124 20.0742 35.6908V35.0413C20.0742 34.9811 20.0861 34.9215 20.1091 34.8658C20.1322 34.8102 20.166 34.7596 20.2086 34.717C20.2511 34.6744 20.3017 34.6406 20.3574 34.6176C20.413 34.5945 20.4727 34.5827 20.5329 34.5827ZM27.3567 34.5827H31.9643C32.0245 34.5827 32.0842 34.5945 32.1398 34.6176C32.1955 34.6406 32.246 34.6744 32.2886 34.717C32.3312 34.7596 32.365 34.8102 32.3881 34.8658C32.4111 34.9215 32.423 34.9811 32.423 35.0414V35.6907C32.423 35.8124 32.3747 35.9291 32.2886 36.0151C32.2026 36.1011 32.0859 36.1495 31.9642 36.1495H27.3568C27.2351 36.1495 27.1184 36.1011 27.0324 36.0151C26.9463 35.9291 26.898 35.8124 26.898 35.6907V35.0413C26.898 34.9197 26.9463 34.803 27.0323 34.717C27.1183 34.631 27.235 34.5827 27.3567 34.5827ZM39.2463 35.1723V35.0419C39.2463 34.9816 39.2345 34.922 39.2114 34.8663C39.1884 34.8106 39.1546 34.7601 39.112 34.7175C39.0694 34.6749 39.0188 34.6411 38.9631 34.618C38.9075 34.595 38.8478 34.5832 38.7876 34.5832H34.1801C34.1198 34.5832 34.0602 34.595 34.0045 34.618C33.9488 34.6411 33.8983 34.6749 33.8557 34.7175C33.8131 34.7601 33.7793 34.8106 33.7562 34.8663C33.7332 34.922 33.7214 34.9816 33.7214 35.0419V35.6911C33.7214 35.7513 33.7332 35.811 33.7562 35.8667C33.7793 35.9223 33.8131 35.9729 33.8557 36.0155C33.8983 36.0581 33.9488 36.0919 34.0045 36.1149C34.0602 36.138 34.1198 36.1498 34.1801 36.1498H37.0129C37.7015 35.7089 38.4552 35.3791 39.2463 35.1723ZM20.5329 38.8001H25.1405C25.2007 38.8001 25.2604 38.812 25.316 38.835C25.3717 38.8581 25.4223 38.8919 25.4649 38.9345C25.5075 38.9771 25.5412 39.0276 25.5643 39.0833C25.5874 39.1389 25.5992 39.1986 25.5992 39.2588V39.9081C25.5992 40.0298 25.5509 40.1465 25.4648 40.2325C25.3788 40.3186 25.2621 40.3669 25.1405 40.3669H20.533C20.4113 40.3669 20.2946 40.3186 20.2086 40.2325C20.1226 40.1465 20.0742 40.0298 20.0742 39.9081V39.2588C20.0742 39.1371 20.1225 39.0205 20.2086 38.9345C20.2946 38.8484 20.4112 38.8001 20.5329 38.8001ZM27.3567 38.8001H31.9643C32.0245 38.8001 32.0842 38.812 32.1398 38.835C32.1955 38.8581 32.246 38.8919 32.2886 38.9345C32.3312 38.9771 32.365 39.0276 32.3881 39.0833C32.4111 39.1389 32.423 39.1986 32.423 39.2588V39.9081C32.423 40.0298 32.3747 40.1465 32.2886 40.2325C32.2026 40.3186 32.0859 40.3669 31.9642 40.3669H27.3567C27.235 40.3669 27.1184 40.3186 27.0323 40.2326C26.9463 40.1465 26.898 40.0299 26.898 39.9082V39.2588C26.898 39.1371 26.9463 39.0205 27.0323 38.9345C27.1184 38.8484 27.235 38.8001 27.3567 38.8001Z" fill="white"/>
<path d="M42.1205 36.0694C41.5984 36.0028 41.0703 35.9959 40.5466 36.0488C39.601 36.1464 38.6865 36.4417 37.8625 36.9156C37.0384 37.3895 36.3232 38.0313 35.7633 38.7996C34.9149 39.9603 34.458 41.3611 34.459 42.7989C34.459 42.8252 34.459 42.8531 34.4605 42.8795C34.476 44.1806 34.8654 45.4498 35.5822 46.5358C36.299 47.6218 37.3129 48.4789 38.5031 49.0047C39.6933 49.5306 41.0097 49.7032 42.2952 49.5019C43.5808 49.3005 44.7813 48.7338 45.7538 47.8693C46.7263 47.0047 47.4297 45.8787 47.7801 44.6256C48.1306 43.3724 48.1133 42.045 47.7304 40.8014C47.3475 39.5577 46.615 38.4505 45.6204 37.6115C44.6258 36.7725 43.4109 36.2372 42.1205 36.0694ZM41.4816 45.639C41.0263 45.9731 40.4737 46.1482 39.9091 46.1372C39.1427 46.1372 38.5638 45.9247 38.1901 45.5071C37.9286 45.2068 37.7551 44.8402 37.6889 44.4475C37.6485 44.2345 37.6288 44.0181 37.6303 43.8013V43.665H38.7206L38.7235 43.7969C38.7266 44.0197 38.7698 44.2401 38.851 44.4475C38.9022 44.5774 38.9784 44.6959 39.0753 44.7963C39.1906 44.911 39.3287 45.0002 39.4807 45.0583C39.6326 45.1163 39.795 45.1419 39.9575 45.1334C40.0995 45.1425 40.2419 45.123 40.3763 45.0762C40.5107 45.0294 40.6344 44.9562 40.74 44.8608C40.8671 44.7402 40.9544 44.5838 40.9906 44.4124C41.0087 44.335 41.0175 44.2558 41.017 44.1764C41.0207 44.0408 40.9931 43.9062 40.9365 43.783C40.8798 43.6597 40.7956 43.5512 40.6902 43.4657C40.3648 43.2456 39.9736 43.1442 39.5823 43.1784C39.5134 43.1784 39.4314 43.1799 39.3376 43.1828L39.1969 43.1872V42.1438H39.3332C39.6397 42.1536 39.9464 42.1295 40.2476 42.072C40.3587 42.0459 40.4614 41.9925 40.5466 41.9166C40.5791 41.889 40.6081 41.8575 40.6331 41.8228C40.7308 41.6789 40.7797 41.5073 40.7723 41.3334C40.7784 41.1054 40.7025 40.8829 40.5583 40.7062C40.5539 40.7017 40.551 40.6974 40.5466 40.693C40.4705 40.6107 40.3768 40.5468 40.2725 40.506C40.1682 40.4651 40.056 40.4484 39.9443 40.457C39.8215 40.445 39.6977 40.4624 39.583 40.5077C39.4683 40.5531 39.3661 40.6251 39.2848 40.7179C39.1217 40.9749 39.0399 41.2753 39.0503 41.5796L39.0459 41.7115H37.9161V41.5752C37.8999 41.1587 37.9844 40.7445 38.1623 40.3676C38.2443 40.2076 38.3562 40.0649 38.492 39.947C38.7107 39.759 38.9685 39.6218 39.2467 39.5455C39.4519 39.4887 39.664 39.4606 39.8769 39.462C40.102 39.4602 40.3266 39.4833 40.5466 39.5308C40.9369 39.6068 41.2872 39.82 41.534 40.1318C41.7807 40.4436 41.9077 40.8335 41.8919 41.2308C41.9023 41.5781 41.7977 41.9191 41.5944 42.2009C41.483 42.354 41.3491 42.4894 41.1973 42.6025C41.3879 42.6756 41.5617 42.7865 41.7083 42.9285C41.8549 43.0706 41.9712 43.2408 42.0502 43.429C42.1907 43.8116 42.2115 44.2278 42.1099 44.6225C42.0084 45.0172 41.7892 45.3717 41.4816 45.639ZM44.8595 45.9057H43.8102V40.797L42.8064 41.3392L42.5822 40.4541L44.0037 39.6935H44.8595L44.8595 45.9057Z" fill="white"/>
<path d="M18.8591 42.8793V27.7057H40.5468V34.9467C40.7769 34.9247 41.0099 34.9144 41.2458 34.9144C41.5386 34.9142 41.8312 34.9304 42.1222 34.9628L42.1295 27.0477H42.1354V21.2693C42.1352 20.8877 41.9835 20.5218 41.7137 20.2519C41.4438 19.9821 41.0779 19.8304 40.6963 19.8302H38.5713V16.9725C38.5708 16.7624 38.4869 16.5611 38.3382 16.4127C38.1894 16.2643 37.9879 16.181 37.7778 16.181C37.5677 16.181 37.3661 16.2643 37.2174 16.4127C37.0686 16.5611 36.9848 16.7624 36.9842 16.9725V19.8302H30.495V16.9725C30.495 16.7622 30.4115 16.5606 30.2628 16.4119C30.1141 16.2632 29.9125 16.1797 29.7022 16.1797C29.4919 16.1797 29.2903 16.2632 29.1416 16.4119C28.9929 16.5606 28.9094 16.7622 28.9094 16.9725V19.8302H22.4188V16.9725C22.4188 16.7622 22.3352 16.5606 22.1865 16.4119C22.0379 16.2632 21.8362 16.1797 21.6259 16.1797C21.4157 16.1797 21.214 16.2632 21.0653 16.4119C20.9166 16.5606 20.8331 16.7622 20.8331 16.9725V19.8302H18.7096C18.328 19.8304 17.962 19.9821 17.6922 20.2519C17.4224 20.5218 17.2707 20.8877 17.2705 21.2693V27.0477H17.2749L17.2925 43.0098C17.2926 43.3908 17.4438 43.7562 17.7131 44.0258C17.9824 44.2953 18.3477 44.447 18.7287 44.4474H33.5345C33.4238 43.9319 33.3659 43.4066 33.3615 42.8794L18.8591 42.8793ZM39.3861 23.0191C39.3861 23.3874 39.2598 23.7446 39.0281 24.031C38.7965 24.3174 38.4736 24.5156 38.1135 24.5926C37.7533 24.6696 37.3776 24.6207 37.0491 24.4541C36.7206 24.2875 36.4592 24.0132 36.3086 23.6771C36.1377 23.2956 36.1219 22.8625 36.2646 22.4695C36.3967 22.1102 36.6516 21.8091 36.9842 21.6196V23.318C36.9842 23.4222 37.0046 23.5253 37.0444 23.6215C37.0843 23.7177 37.1427 23.8052 37.2163 23.8788C37.2899 23.9524 37.3773 24.0108 37.4736 24.0506C37.5698 24.0905 37.6729 24.1109 37.777 24.1109C37.9863 24.1074 38.1861 24.0227 38.3343 23.8748C38.4824 23.727 38.5674 23.5273 38.5713 23.318V21.621C38.9071 21.8105 39.1632 22.115 39.2923 22.4783C39.3548 22.6517 39.3866 22.8348 39.3861 23.0191ZM28.1884 22.4739C28.3185 22.1119 28.5744 21.8087 28.9094 21.6196V23.3181C28.9094 23.5283 28.9929 23.73 29.1416 23.8787C29.2903 24.0274 29.4919 24.1109 29.7022 24.1109C29.9125 24.1109 30.1141 24.0274 30.2628 23.8787C30.4115 23.73 30.495 23.5283 30.495 23.3181V21.6196C30.8307 21.8104 31.0869 22.115 31.2175 22.4783C31.28 22.6518 31.3118 22.8348 31.3113 23.0191C31.3114 23.2539 31.26 23.4858 31.1609 23.6986C31.0618 23.9114 30.9174 24.1 30.7377 24.251C30.558 24.4021 30.3474 24.512 30.1207 24.5731C29.8941 24.6341 29.6568 24.6448 29.4255 24.6045C29.1942 24.5641 28.9746 24.4736 28.782 24.3394C28.5895 24.2051 28.4286 24.0304 28.3107 23.8274C28.1928 23.6243 28.1208 23.398 28.0996 23.1642C28.0785 22.9304 28.1088 22.6948 28.1884 22.4739ZM20.1136 22.4696C20.2456 22.1102 20.5005 21.8091 20.8331 21.6196V23.3181C20.8331 23.4222 20.8536 23.5253 20.8935 23.6215C20.9333 23.7177 20.9917 23.8051 21.0653 23.8787C21.1389 23.9523 21.2263 24.0107 21.3225 24.0505C21.4187 24.0904 21.5218 24.1109 21.6259 24.1109C21.7301 24.1109 21.8331 24.0904 21.9293 24.0505C22.0255 24.0107 22.1129 23.9523 22.1865 23.8787C22.2602 23.8051 22.3186 23.7177 22.3584 23.6215C22.3983 23.5253 22.4188 23.4222 22.4188 23.3181V21.6196C22.7544 21.8104 23.0107 22.115 23.1412 22.4783C23.2038 22.6518 23.2355 22.8348 23.235 23.0191C23.235 23.3874 23.1087 23.7446 22.877 24.031C22.6454 24.3174 22.3226 24.5156 21.9624 24.5926C21.6022 24.6696 21.2265 24.6208 20.898 24.4541C20.5695 24.2875 20.3081 24.0132 20.1575 23.6771C19.9866 23.2956 19.9708 22.8625 20.1136 22.4696Z" fill="white"/>
</g>
<defs>
<clipPath id="clip0_611_4498">
<rect width="34" height="34" fill="white" transform="translate(15.6504 15.8828)"/>
</clipPath>
</defs>
</svg>
