<svg width="61" height="61" viewBox="0 0 61 61" fill="none" xmlns="http://www.w3.org/2000/svg">
<circle cx="30.1362" cy="30.1362" r="30.1362" fill="#F2994A"/>
<path d="M30.5366 20.0391C28.2734 20.0353 25.438 20.7505 22.6407 22.2063C19.8479 23.6622 17.6342 25.5694 16.3348 27.4321C15.0347 29.2885 14.6831 31.0177 15.3227 32.251C15.9629 33.478 17.5815 34.1837 19.8504 34.1837C22.1194 34.1901 24.9548 33.4717 27.7457 32.0222C30.543 30.5663 32.7554 28.6527 34.0523 26.7964C35.3556 24.94 35.6989 23.2108 35.0631 21.9775C34.421 20.7505 32.8062 20.0391 30.5366 20.0391ZM36.3791 24.5077C36.1566 25.4804 35.6734 26.4785 34.9932 27.4512C33.5564 29.5046 31.2105 31.5072 28.2734 33.033C25.3363 34.5652 22.3546 35.3344 19.8498 35.3344C18.6673 35.3344 17.5713 35.1564 16.6476 34.7813L17.3208 36.0782C17.9617 37.3116 19.5758 38.0172 21.846 38.0172C24.1156 38.0172 26.951 37.3052 29.742 35.8493C32.5392 34.3999 34.7516 32.4863 36.0485 30.6235C37.3454 28.7672 37.7014 27.038 37.0593 25.811L36.3791 24.5077ZM38.21 25.5758C38.9221 27.2732 38.3499 29.3393 36.9894 31.2784C35.7879 33.0012 33.9506 34.6732 31.6746 36.0719C32.3803 36.1481 33.1177 36.1863 33.8679 36.1863C37.0148 36.1863 39.863 35.5124 41.8719 34.4634C43.8872 33.4145 44.9934 32.0413 44.9934 30.6553C44.9934 29.2694 43.8872 27.8962 41.8719 26.8472C40.8484 26.3132 39.6023 25.8746 38.21 25.5758ZM44.9934 33.5098C44.345 34.2664 43.4549 34.9339 42.4059 35.4806C40.1808 36.6377 37.1801 37.3306 33.8679 37.3306C32.5201 37.3306 31.2232 37.2162 30.009 37C28.534 37.7439 27.0528 38.297 25.6287 38.6593C25.705 38.7038 25.7813 38.742 25.8639 38.7865C27.8729 39.8355 30.721 40.5093 33.8679 40.5093C37.0148 40.5093 39.863 39.8355 41.8719 38.7865C43.8872 37.7375 44.9934 36.3643 44.9934 34.9784V33.5098Z" fill="white"/>
</svg>
