<svg width="61" height="62" viewBox="0 0 61 62" fill="none" xmlns="http://www.w3.org/2000/svg">
<circle cx="30.272" cy="31.0191" r="30.1362" fill="#219653"/>
<path d="M40.5879 26.566C38.406 21.4885 34.8961 17.626 33.1205 18.3464C30.1051 19.5738 34.9167 25.4598 20.1072 31.4781C18.8275 32.0002 18.5038 34.0788 19.0397 35.3241C19.5742 36.5666 21.3236 37.805 22.6033 37.2857C22.8251 37.1947 23.6378 36.933 23.6378 36.933C24.5511 38.1604 25.507 37.4331 25.8473 38.2113L27.4424 41.8755C27.7441 42.567 28.4273 43.2075 28.9232 43.0188L31.7471 41.9457C32.3918 41.7005 32.5447 41.1248 32.3477 40.6729C32.1356 40.1839 31.265 40.0407 31.0157 39.4704C30.7677 38.9028 29.9564 37.0763 29.7236 36.5005C29.4067 35.7181 30.0803 35.0803 31.0597 34.9797C37.8012 34.2744 39.0616 38.44 41.3566 37.5061C43.1294 36.7829 42.7685 31.6393 40.5879 26.566ZM39.8289 34.7979C39.4336 34.9563 36.7805 32.8666 35.0862 28.9201C33.3905 24.9763 33.604 21.3714 33.998 21.2102C34.3919 21.0518 36.9802 23.5754 38.6746 27.5192C40.3703 31.463 40.2229 34.6367 39.8289 34.7979Z" fill="white"/>
</svg>
