<svg width="61" height="62" viewBox="0 0 61 62" fill="none" xmlns="http://www.w3.org/2000/svg">
<circle cx="30.1362" cy="31.0191" r="30.1362" fill="#E81B42"/>
<path d="M24.2578 32.4663V30.9874H36.7464V32.4663H24.2578ZM24.2578 38.2176V36.7387H32.7697V38.2176H24.2578ZM21.2343 43.1473C20.7084 43.1473 20.2593 42.961 19.8868 42.5886C19.5144 42.2161 19.3281 41.767 19.3281 41.2411V22.2125C19.3281 21.7086 19.5144 21.2649 19.8868 20.8815C20.2593 20.4981 20.7084 20.3064 21.2343 20.3064H23.6663V18.0059H25.3095V20.3064H35.7604V18.0059H37.3708V20.3064H39.7699C40.2957 20.3064 40.7449 20.4981 41.1173 20.8815C41.4898 21.2649 41.676 21.7086 41.676 22.2125V41.2411C41.676 41.767 41.4898 42.2161 41.1173 42.5886C40.7449 42.961 40.2957 43.1473 39.7699 43.1473H21.2343ZM21.2343 41.6684H39.7699C39.8794 41.6684 39.978 41.6245 40.0657 41.5369C40.1533 41.4493 40.1971 41.3507 40.1971 41.2411V28.1939H20.807V41.2411C20.807 41.3507 20.8509 41.4493 20.9385 41.5369C21.0261 41.6245 21.1247 41.6684 21.2343 41.6684Z" fill="white"/>
</svg>
