<svg width="61" height="61" viewBox="0 0 61 61" fill="none" xmlns="http://www.w3.org/2000/svg">
<circle cx="30.4097" cy="30.1362" r="30.1362" fill="#219653"/>
<path d="M26.7188 31.875H24.8438V33.75H26.7188V31.875Z" fill="white"/>
<path d="M26.7188 25.3125H24.8438V27.1875H26.7188V25.3125Z" fill="white"/>
<path d="M26.7188 38.4375H24.8438V40.3125H26.7188V38.4375Z" fill="white"/>
<path d="M38.4375 17.8125H36.5625V18.75C36.5625 20.3006 35.3006 21.5625 33.75 21.5625H26.25C24.6994 21.5625 23.4375 20.3006 23.4375 18.75V17.8125H21.5625C20.5284 17.8125 19.6875 18.6534 19.6875 19.6875V42.1875C19.6875 43.2216 20.5284 44.0625 21.5625 44.0625H38.4375C39.4716 44.0625 40.3125 43.2216 40.3125 42.1875V19.6875C40.3125 18.6534 39.4716 17.8125 38.4375 17.8125ZM27.6562 40.7812C27.6562 41.04 27.4462 41.25 27.1875 41.25H24.375C24.1163 41.25 23.9062 41.04 23.9062 40.7812V37.9688C23.9062 37.71 24.1163 37.5 24.375 37.5H27.1875C27.4462 37.5 27.6562 37.71 27.6562 37.9688V40.7812ZM27.6562 34.2188C27.6562 34.4775 27.4462 34.6875 27.1875 34.6875H24.375C24.1163 34.6875 23.9062 34.4775 23.9062 34.2188V31.4062C23.9062 31.1475 24.1163 30.9375 24.375 30.9375H27.1875C27.4462 30.9375 27.6562 31.1475 27.6562 31.4062V34.2188ZM27.6562 27.6562C27.6562 27.915 27.4462 28.125 27.1875 28.125H24.375C24.1163 28.125 23.9062 27.915 23.9062 27.6562V24.8438C23.9062 24.585 24.1163 24.375 24.375 24.375H27.1875C27.4462 24.375 27.6562 24.585 27.6562 24.8438V27.6562ZM35.625 41.25H30C29.7413 41.25 29.5312 41.04 29.5312 40.7812C29.5312 40.5225 29.7413 40.3125 30 40.3125H35.625C35.8838 40.3125 36.0938 40.5225 36.0938 40.7812C36.0938 41.04 35.8838 41.25 35.625 41.25ZM35.625 38.4375H30C29.7413 38.4375 29.5312 38.2275 29.5312 37.9688C29.5312 37.71 29.7413 37.5 30 37.5H35.625C35.8838 37.5 36.0938 37.71 36.0938 37.9688C36.0938 38.2275 35.8838 38.4375 35.625 38.4375ZM35.625 34.6875H30C29.7413 34.6875 29.5312 34.4775 29.5312 34.2188C29.5312 33.96 29.7413 33.75 30 33.75H35.625C35.8838 33.75 36.0938 33.96 36.0938 34.2188C36.0938 34.4775 35.8838 34.6875 35.625 34.6875ZM35.625 31.875H30C29.7413 31.875 29.5312 31.665 29.5312 31.4062C29.5312 31.1475 29.7413 30.9375 30 30.9375H35.625C35.8838 30.9375 36.0938 31.1475 36.0938 31.4062C36.0938 31.665 35.8838 31.875 35.625 31.875ZM35.625 28.125H30C29.7413 28.125 29.5312 27.915 29.5312 27.6562C29.5312 27.3975 29.7413 27.1875 30 27.1875H35.625C35.8838 27.1875 36.0938 27.3975 36.0938 27.6562C36.0938 27.915 35.8838 28.125 35.625 28.125ZM35.625 25.3125H30C29.7413 25.3125 29.5312 25.1025 29.5312 24.8438C29.5312 24.585 29.7413 24.375 30 24.375H35.625C35.8838 24.375 36.0938 24.585 36.0938 24.8438C36.0938 25.1025 35.8838 25.3125 35.625 25.3125Z" fill="white"/>
<path d="M26.25 20.625H33.75C34.7841 20.625 35.625 19.7841 35.625 18.75V17.8125C35.625 16.7784 34.7841 15.9375 33.75 15.9375H26.25C25.2159 15.9375 24.375 16.7784 24.375 17.8125V18.75C24.375 19.7841 25.2159 20.625 26.25 20.625Z" fill="white"/>
</svg>
