<svg width="61" height="61" viewBox="0 0 61 61" fill="none" xmlns="http://www.w3.org/2000/svg">
<circle cx="30.6812" cy="30.1362" r="30.1362" fill="#3D4080"/>
<path d="M25.2656 30C23.5781 30.0521 22.1979 30.7188 21.125 32H19.0313C18.1771 32 17.4583 31.7891 16.875 31.3672C16.2917 30.9453 16 30.3281 16 29.5156C16 25.8385 16.6458 24 17.9375 24C18 24 18.2266 24.1094 18.6172 24.3281C19.0078 24.5469 19.5156 24.7682 20.1406 24.9922C20.7656 25.2162 21.3854 25.3281 22 25.3281C22.6979 25.3281 23.3906 25.2083 24.0781 24.9688C24.026 25.3542 24 25.6979 24 26C24 27.4479 24.4219 28.7813 25.2656 30ZM42 39.9531C42 41.2031 41.6198 42.1901 40.8594 42.9141C40.099 43.638 39.0885 44 37.8281 44H24.1719C22.9115 44 21.901 43.638 21.1406 42.9141C20.3802 42.1901 20 41.2031 20 39.9531C20 39.401 20.0182 38.862 20.0547 38.3359C20.0911 37.8099 20.1641 37.2422 20.2734 36.6328C20.3828 36.0234 20.5208 35.4583 20.6875 34.9375C20.8542 34.4167 21.0781 33.9089 21.3594 33.4141C21.6406 32.9193 21.9635 32.4974 22.3281 32.1484C22.6927 31.7995 23.138 31.5208 23.6641 31.3125C24.1901 31.1042 24.7708 31 25.4063 31C25.5104 31 25.7344 31.112 26.0781 31.3359C26.4219 31.5599 26.8021 31.8099 27.2187 32.0859C27.6354 32.362 28.1927 32.612 28.8906 32.8359C29.5885 33.0599 30.2917 33.1719 31 33.1719C31.7083 33.1719 32.4115 33.0599 33.1094 32.8359C33.8073 32.612 34.3646 32.362 34.7813 32.0859C35.1979 31.8099 35.5781 31.5599 35.9219 31.3359C36.2656 31.112 36.4896 31 36.5937 31C37.2292 31 37.8099 31.1042 38.3359 31.3125C38.862 31.5208 39.3073 31.7995 39.6719 32.1484C40.0365 32.4974 40.3594 32.9193 40.6406 33.4141C40.9219 33.9089 41.1458 34.4167 41.3125 34.9375C41.4792 35.4583 41.6172 36.0234 41.7266 36.6328C41.8359 37.2422 41.9088 37.8099 41.9453 38.3359C41.9818 38.862 42 39.401 42 39.9531ZM26 20C26 21.1042 25.6094 22.0469 24.8281 22.8281C24.0469 23.6094 23.1042 24 22 24C20.8958 24 19.9531 23.6094 19.1719 22.8281C18.3906 22.0469 18 21.1042 18 20C18 18.8958 18.3906 17.9531 19.1719 17.1719C19.9531 16.3906 20.8958 16 22 16C23.1042 16 24.0469 16.3906 24.8281 17.1719C25.6094 17.9531 26 18.8958 26 20ZM37 26C37 27.6563 36.4141 29.0703 35.2422 30.2422C34.0703 31.4141 32.6562 32 31 32C29.3438 32 27.9297 31.4141 26.7578 30.2422C25.5859 29.0703 25 27.6563 25 26C25 24.3438 25.5859 22.9297 26.7578 21.7578C27.9297 20.5859 29.3438 20 31 20C32.6562 20 34.0703 20.5859 35.2422 21.7578C36.4141 22.9297 37 24.3438 37 26ZM46 29.5156C46 30.3281 45.7083 30.9453 45.125 31.3672C44.5417 31.7891 43.8229 32 42.9687 32H40.875C39.8021 30.7188 38.4219 30.0521 36.7344 30C37.5781 28.7813 38 27.4479 38 26C38 25.6979 37.974 25.3542 37.9219 24.9688C38.6094 25.2083 39.3021 25.3281 40 25.3281C40.6146 25.3281 41.2344 25.2162 41.8594 24.9922C42.4844 24.7682 42.9922 24.5469 43.3828 24.3281C43.7734 24.1094 44 24 44.0625 24C45.3542 24 46 25.8385 46 29.5156ZM44 20C44 21.1042 43.6094 22.0469 42.8281 22.8281C42.0469 23.6094 41.1042 24 40 24C38.8958 24 37.9531 23.6094 37.1719 22.8281C36.3906 22.0469 36 21.1042 36 20C36 18.8958 36.3906 17.9531 37.1719 17.1719C37.9531 16.3906 38.8958 16 40 16C41.1042 16 42.0469 16.3906 42.8281 17.1719C43.6094 17.9531 44 18.8958 44 20Z" fill="white"/>
</svg>
