<svg width="61" height="61" viewBox="0 0 61 61" fill="none" xmlns="http://www.w3.org/2000/svg">
<circle cx="30.4995" cy="30.1362" r="30.1362" fill="#3D4080"/>
<g clip-path="url(#clip0_897_1164)">
<path d="M30.6153 23.1797H23.9531V25.3185H30.6153V23.1797Z" fill="white"/>
<path d="M23.9532 41.3827H30.6184L30.6186 26.2422H23.9533L23.9532 41.3827ZM27.2821 32.6162C28.4934 32.6162 29.4787 33.6018 29.4787 34.8131C29.4787 36.0213 28.4934 37.0041 27.2821 37.0041C26.0739 37.0041 25.0911 36.0213 25.0911 34.8131C25.0911 33.6018 26.0739 32.6162 27.2821 32.6162ZM19.6949 36.0823C20.398 36.0823 20.9699 35.5129 20.9699 34.8131C20.9699 34.11 20.398 33.5381 19.6949 33.5381C18.9952 33.5381 18.4258 34.11 18.4258 34.8131C18.4258 35.5129 18.9952 36.0823 19.6949 36.0823Z" fill="white"/>
<path d="M27.2808 36.0832C27.9837 36.0832 28.5556 35.5138 28.5556 34.8141C28.5556 34.1109 27.9837 33.5391 27.2808 33.5391C26.5811 33.5391 26.0117 34.1109 26.0117 34.8141C26.0117 35.5138 26.5811 36.0832 27.2808 36.0832Z" fill="white"/>
<path d="M30.6184 18.168H23.9531V22.2603H30.6184V18.168Z" fill="white"/>
<path d="M23.0286 18.168H16.3633V22.2603H23.0286V18.168Z" fill="white"/>
<path d="M23.0293 23.1797H16.3672V25.3185H23.0293V23.1797Z" fill="white"/>
<path d="M16.3633 41.3827H23.0286L23.0287 26.2422H16.3634L16.3633 41.3827ZM19.6933 32.6162C20.9046 32.6162 21.8902 33.6018 21.8902 34.8131C21.8902 36.0213 20.9046 37.0041 19.6933 37.0041C18.4852 37.0041 17.5023 36.0213 17.5023 34.8131C17.5024 33.6018 18.4852 32.6162 19.6933 32.6162Z" fill="white"/>
<path d="M39.318 22.8873L33.2266 24.5625L33.7568 26.4906L39.8482 24.8153L39.318 22.8873Z" fill="white"/>
<path d="M38.0525 18.2739L31.957 19.9492L32.9812 23.6754L39.0767 22.0001L38.0525 18.2739Z" fill="white"/>
<path d="M40.0942 25.7031L33.9961 27.3809L37.8172 41.278L43.9108 39.6002L40.0942 25.7031ZM39.2 36.5258C38.0385 36.5258 37.0936 35.5763 37.0936 34.4147C37.0936 33.244 38.0385 32.2945 39.2 32.2945C40.3708 32.2945 41.3204 33.244 41.3204 34.4147C41.3203 35.5763 40.3708 36.5258 39.2 36.5258Z" fill="white"/>
<path d="M39.2066 35.6808C39.9095 35.6808 40.4814 35.1114 40.4814 34.4117C40.4814 33.7086 39.9095 33.1367 39.2066 33.1367C38.5069 33.1367 37.9375 33.7086 37.9375 34.4117C37.9375 35.1114 38.5069 35.6808 39.2066 35.6808Z" fill="white"/>
</g>
<defs>
<clipPath id="clip0_897_1164">
<rect width="27.55" height="27.55" fill="white" transform="translate(16.3633 16)"/>
</clipPath>
</defs>
</svg>
