<svg width="61" height="61" viewBox="0 0 61 61" fill="none" xmlns="http://www.w3.org/2000/svg">
<circle cx="30.273" cy="30.1362" r="30.1362" fill="#222222"/>
<path d="M20.5329 29.4844H25.1405C25.2007 29.4844 25.2604 29.4962 25.316 29.5193C25.3717 29.5423 25.4223 29.5761 25.4649 29.6187C25.5075 29.6613 25.5412 29.7119 25.5643 29.7675C25.5874 29.8232 25.5992 29.8829 25.5992 29.9431V30.5924C25.5992 30.6527 25.5874 30.7123 25.5643 30.768C25.5412 30.8236 25.5075 30.8742 25.4649 30.9168C25.4223 30.9594 25.3717 30.9932 25.316 31.0162C25.2604 31.0393 25.2007 31.0512 25.1405 31.0512H20.5329C20.4727 31.0512 20.413 31.0393 20.3574 31.0162C20.3017 30.9932 20.2512 30.9594 20.2086 30.9168C20.166 30.8742 20.1322 30.8236 20.1091 30.768C20.0861 30.7123 20.0742 30.6527 20.0742 30.5925V29.943C20.0742 29.8214 20.1225 29.7047 20.2086 29.6187C20.2946 29.5327 20.4112 29.4844 20.5329 29.4844ZM27.3567 29.4844H31.9643C32.0245 29.4844 32.0842 29.4962 32.1398 29.5193C32.1955 29.5423 32.246 29.5761 32.2886 29.6187C32.3312 29.6613 32.365 29.7119 32.3881 29.7675C32.4111 29.8232 32.423 29.8829 32.423 29.9431V30.5924C32.423 30.7141 32.3747 30.8308 32.2886 30.9168C32.2026 31.0028 32.0859 31.0512 31.9642 31.0512H27.3568C27.2351 31.0512 27.1184 31.0028 27.0324 30.9168C26.9463 30.8308 26.898 30.7141 26.898 30.5924V29.943C26.898 29.8214 26.9463 29.7047 27.0323 29.6187C27.1183 29.5327 27.235 29.4844 27.3567 29.4844ZM34.1805 29.4844H38.788C38.9097 29.4844 39.0264 29.5327 39.1124 29.6187C39.1985 29.7048 39.2468 29.8215 39.2468 29.9431V30.5925C39.2468 30.7141 39.1985 30.8308 39.1124 30.9168C39.0264 31.0028 38.9097 31.0512 38.7881 31.0512H34.1804C34.0588 31.0512 33.9421 31.0028 33.8561 30.9168C33.7701 30.8308 33.7218 30.7141 33.7218 30.5925V29.9431C33.7218 29.8828 33.7336 29.8232 33.7567 29.7675C33.7797 29.7119 33.8135 29.6613 33.8561 29.6187C33.8987 29.5761 33.9493 29.5423 34.0049 29.5193C34.0606 29.4962 34.1202 29.4844 34.1805 29.4844ZM20.5329 33.7018H25.1405C25.2007 33.7018 25.2604 33.7137 25.316 33.7367C25.3717 33.7598 25.4223 33.7936 25.4649 33.8362C25.5075 33.8788 25.5412 33.9293 25.5643 33.985C25.5874 34.0406 25.5992 34.1003 25.5992 34.1605V34.8098C25.5992 34.9315 25.5509 35.0482 25.4648 35.1342C25.3788 35.2203 25.2621 35.2686 25.1405 35.2686H20.5329C20.4113 35.2686 20.2946 35.2203 20.2086 35.1342C20.1225 35.0482 20.0742 34.9315 20.0742 34.8099V34.1605C20.0742 34.1002 20.0861 34.0406 20.1091 33.985C20.1322 33.9293 20.166 33.8787 20.2086 33.8362C20.2511 33.7936 20.3017 33.7598 20.3574 33.7367C20.413 33.7137 20.4727 33.7018 20.5329 33.7018ZM27.3567 33.7018H31.9643C32.0245 33.7018 32.0842 33.7137 32.1398 33.7367C32.1955 33.7598 32.246 33.7936 32.2886 33.8362C32.3312 33.8788 32.365 33.9293 32.3881 33.985C32.4111 34.0406 32.423 34.1003 32.423 34.1605V34.8098C32.423 34.9315 32.3747 35.0482 32.2886 35.1342C32.2026 35.2203 32.0859 35.2686 31.9642 35.2686H27.3568C27.2351 35.2686 27.1184 35.2203 27.0324 35.1342C26.9463 35.0482 26.898 34.9315 26.898 34.8098V34.1605C26.898 34.0388 26.9463 33.9222 27.0323 33.8362C27.1183 33.7501 27.235 33.7018 27.3567 33.7018ZM39.2463 34.2914V34.161C39.2463 34.1008 39.2345 34.0411 39.2114 33.9855C39.1884 33.9298 39.1546 33.8792 39.112 33.8366C39.0694 33.794 39.0188 33.7602 38.9631 33.7372C38.9075 33.7141 38.8478 33.7023 38.7876 33.7023H34.1801C34.1198 33.7023 34.0602 33.7141 34.0045 33.7372C33.9488 33.7602 33.8983 33.794 33.8557 33.8366C33.8131 33.8792 33.7793 33.9298 33.7562 33.9855C33.7332 34.0411 33.7214 34.1008 33.7214 34.161V34.8102C33.7214 34.8705 33.7332 34.9301 33.7562 34.9858C33.7793 35.0415 33.8131 35.0921 33.8557 35.1347C33.8983 35.1773 33.9488 35.211 34.0045 35.2341C34.0602 35.2571 34.1198 35.269 34.1801 35.2689H37.0129C37.7015 34.8281 38.4552 34.4982 39.2463 34.2914ZM20.5329 37.9193H25.1405C25.2007 37.9193 25.2604 37.9311 25.316 37.9542C25.3717 37.9772 25.4223 38.011 25.4649 38.0536C25.5075 38.0962 25.5412 38.1468 25.5643 38.2024C25.5874 38.2581 25.5992 38.3177 25.5992 38.378V39.0273C25.5992 39.149 25.5509 39.2656 25.4648 39.3517C25.3788 39.4377 25.2621 39.486 25.1405 39.486H20.533C20.4113 39.486 20.2946 39.4377 20.2086 39.3517C20.1226 39.2656 20.0742 39.149 20.0742 39.0273V38.3779C20.0742 38.2563 20.1225 38.1396 20.2086 38.0536C20.2946 37.9676 20.4112 37.9193 20.5329 37.9193ZM27.3567 37.9193H31.9643C32.0245 37.9193 32.0842 37.9311 32.1398 37.9542C32.1955 37.9772 32.246 38.011 32.2886 38.0536C32.3312 38.0962 32.365 38.1468 32.3881 38.2024C32.4111 38.2581 32.423 38.3177 32.423 38.378V39.0273C32.423 39.149 32.3747 39.2656 32.2886 39.3517C32.2026 39.4377 32.0859 39.486 31.9642 39.486H27.3567C27.235 39.486 27.1184 39.4377 27.0323 39.3517C26.9463 39.2657 26.898 39.149 26.898 39.0274V38.3779C26.898 38.2563 26.9463 38.1396 27.0323 38.0536C27.1184 37.9676 27.235 37.9193 27.3567 37.9193Z" fill="white"/>
<path d="M42.1225 35.1885C41.6003 35.1219 41.0723 35.115 40.5486 35.168C39.603 35.2655 38.6885 35.5608 37.8644 36.0347C37.0403 36.5086 36.3251 37.1505 35.7652 37.9187C34.9168 39.0795 34.46 40.4802 34.4609 41.918C34.4609 41.9444 34.4609 41.9722 34.4624 41.9986C34.478 43.2997 34.8674 44.5689 35.5842 45.655C36.3009 46.741 37.3148 47.598 38.5051 48.1239C39.6953 48.6498 41.0116 48.8223 42.2972 48.621C43.5827 48.4197 44.7833 47.853 45.7558 46.9884C46.7282 46.1238 47.4316 44.9979 47.7821 43.7447C48.1325 42.4916 48.1153 41.1641 47.7323 39.9205C47.3494 38.6769 46.617 37.5696 45.6224 36.7306C44.6277 35.8916 43.4129 35.3563 42.1225 35.1885ZM41.4835 44.7581C41.0282 45.0922 40.4757 45.2673 39.9111 45.2564C39.1446 45.2564 38.5658 45.0439 38.1921 44.6262C37.9305 44.326 37.7571 43.9593 37.6909 43.5667C37.6504 43.3537 37.6308 43.1372 37.6322 42.9204V42.7841H38.7226L38.7255 42.916C38.7285 43.1388 38.7717 43.3592 38.853 43.5667C38.9042 43.6965 38.9804 43.815 39.0772 43.9155C39.1926 44.0301 39.3307 44.1194 39.4826 44.1774C39.6346 44.2355 39.797 44.2611 39.9594 44.2525C40.1015 44.2616 40.2439 44.2421 40.3783 44.1953C40.5127 44.1485 40.6363 44.0753 40.742 43.98C40.869 43.8593 40.9564 43.7029 40.9926 43.5315C41.0106 43.4542 41.0195 43.375 41.019 43.2956C41.0227 43.16 40.9951 43.0253 40.9384 42.9021C40.8818 42.7789 40.7975 42.6703 40.6922 42.5848C40.3668 42.3647 39.9756 42.2633 39.5843 42.2976C39.5154 42.2976 39.4333 42.299 39.3395 42.302L39.1988 42.3064V41.2629H39.3351C39.6417 41.2727 39.9483 41.2486 40.2496 41.1911C40.3606 41.165 40.4634 41.1116 40.5486 41.0358C40.581 41.0081 40.6101 40.9766 40.635 40.942C40.7328 40.798 40.7816 40.6264 40.7742 40.4525C40.7803 40.2246 40.7044 40.002 40.5603 39.8253C40.5559 39.8209 40.5529 39.8165 40.5486 39.8121C40.4725 39.7299 40.3787 39.666 40.2744 39.6251C40.1701 39.5842 40.0579 39.5675 39.9462 39.5762C39.8235 39.5641 39.6996 39.5815 39.585 39.6269C39.4703 39.6722 39.3681 39.7443 39.2868 39.837C39.1236 40.0941 39.0419 40.3944 39.0523 40.6987L39.0479 40.8306H37.918V40.6943C37.9019 40.2779 37.9863 39.8637 38.1642 39.4868C38.2462 39.3268 38.3582 39.184 38.4939 39.0662C38.7127 38.8781 38.9705 38.741 39.2487 38.6646C39.4539 38.6078 39.6659 38.5797 39.8788 38.5811C40.1039 38.5793 40.3285 38.6024 40.5486 38.65C40.9389 38.7259 41.2891 38.9391 41.5359 39.2509C41.7827 39.5627 41.9097 39.9526 41.8939 40.3499C41.9042 40.6973 41.7997 41.0383 41.5964 41.3201C41.485 41.4732 41.3511 41.6086 41.1992 41.7216C41.3898 41.7947 41.5636 41.9056 41.7102 42.0477C41.8568 42.1897 41.9731 42.36 42.0522 42.5482C42.1926 42.9307 42.2134 43.347 42.1119 43.7416C42.0103 44.1363 41.7912 44.4908 41.4835 44.7581ZM44.8615 45.0248H43.8122V39.9161L42.8083 40.4584L42.5841 39.5732L44.0056 38.8126H44.8615L44.8615 45.0248Z" fill="white"/>
<path d="M18.862 41.9965V26.8229H40.5497V34.0639C40.7798 34.0419 41.0128 34.0316 41.2488 34.0316C41.5416 34.0314 41.8341 34.0476 42.1251 34.08L42.1325 26.1649H42.1383V20.3865C42.1381 20.0049 41.9865 19.6389 41.7166 19.3691C41.4468 19.0992 41.0808 18.9476 40.6992 18.9474H38.5742V16.0897C38.5737 15.8796 38.4899 15.6783 38.3411 15.5299C38.1923 15.3815 37.9908 15.2982 37.7807 15.2982C37.5706 15.2982 37.3691 15.3815 37.2203 15.5299C37.0715 15.6783 36.9877 15.8796 36.9871 16.0897V18.9474H30.498V16.0897C30.498 15.8794 30.4144 15.6778 30.2658 15.5291C30.1171 15.3804 29.9154 15.2969 29.7051 15.2969C29.4949 15.2969 29.2932 15.3804 29.1445 15.5291C28.9958 15.6778 28.9123 15.8794 28.9123 16.0897V18.9474H22.4217V16.0897C22.4217 15.8794 22.3382 15.6778 22.1895 15.5291C22.0408 15.3804 21.8391 15.2969 21.6289 15.2969C21.4186 15.2969 21.2169 15.3804 21.0682 15.5291C20.9196 15.6778 20.836 15.8794 20.836 16.0897V18.9474H18.7125C18.3309 18.9476 17.965 19.0992 17.6951 19.3691C17.4253 19.6389 17.2736 20.0049 17.2734 20.3865V26.1649H17.2778L17.2954 42.127C17.2955 42.508 17.4468 42.8734 17.716 43.1429C17.9853 43.4125 18.3506 43.5642 18.7316 43.5646H33.5374C33.4267 43.0491 33.3688 42.5237 33.3645 41.9965L18.862 41.9965ZM39.3891 22.1363C39.3891 22.5046 39.2627 22.8618 39.0311 23.1482C38.7994 23.4346 38.4766 23.6328 38.1164 23.7098C37.7562 23.7868 37.3805 23.7379 37.052 23.5713C36.7235 23.4047 36.4622 23.1304 36.3115 22.7943C36.1406 22.4128 36.1248 21.9797 36.2676 21.5867C36.3997 21.2274 36.6545 20.9263 36.9871 20.7367V22.4352C36.9871 22.5394 37.0076 22.6425 37.0474 22.7387C37.0872 22.8349 37.1456 22.9223 37.2192 22.996C37.2929 23.0696 37.3803 23.128 37.4765 23.1678C37.5727 23.2077 37.6758 23.2281 37.78 23.2281C37.9893 23.2245 38.189 23.1399 38.3372 22.992C38.4853 22.8441 38.5703 22.6445 38.5742 22.4352V20.7382C38.9101 20.9277 39.1661 21.2322 39.2953 21.5955C39.3578 21.7689 39.3895 21.9519 39.3891 22.1363ZM28.1913 21.5911C28.3215 21.2291 28.5773 20.9259 28.9123 20.7368V22.4352C28.9123 22.6455 28.9958 22.8472 29.1445 22.9959C29.2932 23.1445 29.4949 23.2281 29.7051 23.2281C29.9154 23.2281 30.1171 23.1445 30.2658 22.9959C30.4144 22.8472 30.498 22.6455 30.498 22.4352V20.7368C30.8336 20.9276 31.0899 21.2322 31.2205 21.5955C31.283 21.7689 31.3147 21.9519 31.3142 22.1363C31.3143 22.371 31.2629 22.603 31.1639 22.8158C31.0648 23.0286 30.9203 23.2171 30.7406 23.3682C30.5609 23.5193 30.3503 23.6292 30.1237 23.6903C29.897 23.7513 29.6597 23.762 29.4284 23.7217C29.1972 23.6813 28.9775 23.5908 28.785 23.4566C28.5924 23.3223 28.4315 23.1476 28.3136 22.9445C28.1957 22.7415 28.1237 22.5152 28.1026 22.2814C28.0814 22.0476 28.1117 21.812 28.1913 21.5911ZM20.1165 21.5867C20.2486 21.2274 20.5034 20.9263 20.836 20.7368V22.4352C20.836 22.5394 20.8565 22.6425 20.8964 22.7387C20.9362 22.8348 20.9946 22.9222 21.0683 22.9959C21.1419 23.0695 21.2293 23.1279 21.3255 23.1677C21.4217 23.2076 21.5247 23.2281 21.6289 23.2281C21.733 23.2281 21.8361 23.2076 21.9323 23.1677C22.0285 23.1279 22.1159 23.0695 22.1895 22.9959C22.2631 22.9222 22.3215 22.8348 22.3613 22.7387C22.4012 22.6425 22.4217 22.5394 22.4217 22.4352V20.7368C22.7573 20.9276 23.0136 21.2322 23.1442 21.5955C23.2067 21.7689 23.2384 21.9519 23.238 22.1363C23.238 22.5046 23.1116 22.8618 22.88 23.1482C22.6484 23.4346 22.3255 23.6328 21.9653 23.7098C21.6051 23.7868 21.2294 23.7379 20.9009 23.5713C20.5724 23.4047 20.3111 23.1304 20.1605 22.7943C19.9895 22.4128 19.9737 21.9797 20.1165 21.5867Z" fill="white"/>
</svg>
