<svg width="82" height="82" viewBox="0 0 82 82" fill="none" xmlns="http://www.w3.org/2000/svg">
<circle cx="41" cy="41" r="41" fill="#EB5757"/>
<path d="M59.1558 55.0856V57.1216H22.5068V55.0856L26.5789 51.0135V38.7971C26.5789 32.4854 30.7121 26.9269 36.7592 25.1352V24.5448C36.7592 23.4648 37.1882 22.429 37.9519 21.6653C38.7156 20.9017 39.7513 20.4727 40.8313 20.4727C41.9113 20.4727 42.9471 20.9017 43.7107 21.6653C44.4744 22.429 44.9034 23.4648 44.9034 24.5448V25.1352C50.9505 26.9269 55.0837 32.4854 55.0837 38.7971V51.0135L59.1558 55.0856ZM44.9034 59.1577C44.9034 60.2377 44.4744 61.2734 43.7107 62.0371C42.9471 62.8008 41.9113 63.2298 40.8313 63.2298C39.7513 63.2298 38.7156 62.8008 37.9519 62.0371C37.1882 61.2734 36.7592 60.2377 36.7592 59.1577" fill="white"/>
</svg>
