<svg width="368" height="95" viewBox="0 0 368 95" fill="none" xmlns="http://www.w3.org/2000/svg">
<rect x="0.5" y="0.5" width="367" height="94" rx="9.5" fill="white"/>
<path d="M46 40H58L46 28V40ZM30.375 25H47.875L61 38.2V64.6C61 67.03 59.0412 69 56.625 69H30.375C27.9469 69 26 67.02 26 64.6V29.4C26 26.9699 27.9588 25 30.375 25ZM41.5014 48C42.4522 50.093 43.658 51.8139 45.0493 53L46 53.7442C43.9826 54.1163 41.2 54.7674 38.2551 55.907L38 56L39.1594 53.5814C40.2029 51.5581 40.9681 49.7209 41.5014 48ZM55.3714 56.4879C55.7634 56.096 55.9594 55.5952 55.9812 55.0508C56.0465 54.6153 55.9376 54.2016 55.7199 53.8532C55.0884 52.8298 53.4552 52.3508 50.755 52.3508L47.9459 52.5032L46.0514 51.2403C44.6795 50.1081 43.4383 48.1266 42.5672 45.6661L42.6543 45.3613C43.3729 42.4653 44.048 38.9597 42.6108 37.5226C42.2624 37.1742 41.7833 37 41.2824 37H40.7598C39.9541 37 39.2355 37.8492 39.0395 38.6766C38.2338 41.5726 38.7129 43.1621 39.5186 45.7968V45.8185C38.9742 47.7347 38.2774 49.9556 37.1668 52.1984L35.0763 56.1177L33.1383 57.1847C30.5252 58.8177 29.2839 60.6468 29.0444 61.8008C28.9573 62.2145 29.0008 62.5847 29.1533 62.9766L29.2186 63.0855L30.2638 63.7605L31.222 64C32.9858 64 34.9892 61.9314 37.6894 57.3153L38.0814 57.1629C40.3243 56.4443 43.1116 55.9435 46.8571 55.5298C49.1 56.6403 51.7349 57.1411 53.3898 57.1411C54.348 57.1411 55.0013 56.9016 55.3714 56.4879ZM54.7973 54.7L55 54.92C54.9775 55.12 54.9099 55.14 54.7973 55.18H54.7072L54.2793 55.22C53.2432 55.22 51.6441 54.84 50 54.2C50.2027 54 50.2928 54 50.518 54C53.6712 54 54.5721 54.5 54.7973 54.7ZM35 58C33.4615 60.38 32.0651 61.7 31 62C31.1183 61.24 32.1834 59.92 33.8639 58.62L35 58ZM41.373 43C40.913 40.9263 40.893 39.2442 41.233 38.2765L41.373 38L41.673 38.1152C42.013 38.6682 42.053 39.4055 41.853 40.6498L41.793 41.0184L41.473 42.9078L41.373 43Z" fill="#F44336"/>
<path d="M73.9453 31.0781H77.3438C78.8177 31.0781 79.9297 31.2917 80.6797 31.7188C81.4297 32.1458 81.8047 32.8828 81.8047 33.9297C81.8047 34.3672 81.7266 34.763 81.5703 35.1172C81.4193 35.4661 81.1979 35.7552 80.9062 35.9844C80.6146 36.2083 80.2552 36.3594 79.8281 36.4375V36.5156C80.2708 36.5938 80.6641 36.7318 81.0078 36.9297C81.3568 37.1276 81.6302 37.4115 81.8281 37.7812C82.0312 38.151 82.1328 38.6302 82.1328 39.2188C82.1328 39.9167 81.9661 40.5104 81.6328 41C81.3047 41.4896 80.8333 41.862 80.2188 42.1172C79.6094 42.3724 78.8854 42.5 78.0469 42.5H73.9453V31.0781ZM75.8203 35.7891H77.6172C78.4661 35.7891 79.0547 35.651 79.3828 35.375C79.7109 35.099 79.875 34.6953 79.875 34.1641C79.875 33.6224 79.6797 33.2318 79.2891 32.9922C78.9036 32.7526 78.2891 32.6328 77.4453 32.6328H75.8203V35.7891ZM75.8203 37.3047V40.9297H77.7969C78.6719 40.9297 79.2865 40.7604 79.6406 40.4219C79.9948 40.0833 80.1719 39.625 80.1719 39.0469C80.1719 38.6927 80.0911 38.3854 79.9297 38.125C79.7734 37.8646 79.5156 37.6641 79.1562 37.5234C78.7969 37.3776 78.3125 37.3047 77.7031 37.3047H75.8203ZM86.1406 33.8516V42.5H84.3047V33.8516H86.1406ZM85.2344 30.5391C85.5156 30.5391 85.7578 30.6146 85.9609 30.7656C86.1693 30.9167 86.2734 31.1771 86.2734 31.5469C86.2734 31.9115 86.1693 32.1719 85.9609 32.3281C85.7578 32.4792 85.5156 32.5547 85.2344 32.5547C84.9427 32.5547 84.6953 32.4792 84.4922 32.3281C84.2943 32.1719 84.1953 31.9115 84.1953 31.5469C84.1953 31.1771 84.2943 30.9167 84.4922 30.7656C84.6953 30.6146 84.9427 30.5391 85.2344 30.5391ZM96.4297 38.1562C96.4297 38.875 96.3359 39.513 96.1484 40.0703C95.9609 40.6276 95.6875 41.099 95.3281 41.4844C94.9688 41.8646 94.5365 42.1562 94.0312 42.3594C93.526 42.5573 92.9557 42.6562 92.3203 42.6562C91.7266 42.6562 91.1823 42.5573 90.6875 42.3594C90.1927 42.1562 89.763 41.8646 89.3984 41.4844C89.0391 41.099 88.7604 40.6276 88.5625 40.0703C88.3646 39.513 88.2656 38.875 88.2656 38.1562C88.2656 37.2031 88.4297 36.3958 88.7578 35.7344C89.0911 35.0677 89.5651 34.5599 90.1797 34.2109C90.7943 33.862 91.526 33.6875 92.375 33.6875C93.1719 33.6875 93.875 33.862 94.4844 34.2109C95.0938 34.5599 95.5703 35.0677 95.9141 35.7344C96.2578 36.401 96.4297 37.2083 96.4297 38.1562ZM90.1562 38.1562C90.1562 38.7865 90.2318 39.3255 90.3828 39.7734C90.5391 40.2214 90.7786 40.5651 91.1016 40.8047C91.4245 41.0391 91.8411 41.1562 92.3516 41.1562C92.862 41.1562 93.2786 41.0391 93.6016 40.8047C93.9245 40.5651 94.1615 40.2214 94.3125 39.7734C94.4635 39.3255 94.5391 38.7865 94.5391 38.1562C94.5391 37.526 94.4635 36.9922 94.3125 36.5547C94.1615 36.112 93.9245 35.776 93.6016 35.5469C93.2786 35.3125 92.8594 35.1953 92.3438 35.1953C91.5833 35.1953 91.0286 35.4505 90.6797 35.9609C90.3307 36.4714 90.1562 37.2031 90.1562 38.1562ZM100.383 42.5H98.5391V30.3438H100.383V42.5ZM110.664 38.1562C110.664 38.875 110.57 39.513 110.383 40.0703C110.195 40.6276 109.922 41.099 109.562 41.4844C109.203 41.8646 108.771 42.1562 108.266 42.3594C107.76 42.5573 107.19 42.6562 106.555 42.6562C105.961 42.6562 105.417 42.5573 104.922 42.3594C104.427 42.1562 103.997 41.8646 103.633 41.4844C103.273 41.099 102.995 40.6276 102.797 40.0703C102.599 39.513 102.5 38.875 102.5 38.1562C102.5 37.2031 102.664 36.3958 102.992 35.7344C103.326 35.0677 103.799 34.5599 104.414 34.2109C105.029 33.862 105.76 33.6875 106.609 33.6875C107.406 33.6875 108.109 33.862 108.719 34.2109C109.328 34.5599 109.805 35.0677 110.148 35.7344C110.492 36.401 110.664 37.2083 110.664 38.1562ZM104.391 38.1562C104.391 38.7865 104.466 39.3255 104.617 39.7734C104.773 40.2214 105.013 40.5651 105.336 40.8047C105.659 41.0391 106.076 41.1562 106.586 41.1562C107.096 41.1562 107.513 41.0391 107.836 40.8047C108.159 40.5651 108.396 40.2214 108.547 39.7734C108.698 39.3255 108.773 38.7865 108.773 38.1562C108.773 37.526 108.698 36.9922 108.547 36.5547C108.396 36.112 108.159 35.776 107.836 35.5469C107.513 35.3125 107.094 35.1953 106.578 35.1953C105.818 35.1953 105.263 35.4505 104.914 35.9609C104.565 36.4714 104.391 37.2031 104.391 38.1562ZM115.242 46.3438C114.07 46.3438 113.172 46.1328 112.547 45.7109C111.922 45.2891 111.609 44.6979 111.609 43.9375C111.609 43.4062 111.776 42.9557 112.109 42.5859C112.443 42.2214 112.919 41.9688 113.539 41.8281C113.305 41.724 113.102 41.5625 112.93 41.3438C112.763 41.1198 112.68 40.8724 112.68 40.6016C112.68 40.2786 112.771 40.0026 112.953 39.7734C113.135 39.5443 113.409 39.3229 113.773 39.1094C113.32 38.9167 112.956 38.6042 112.68 38.1719C112.409 37.7344 112.273 37.2214 112.273 36.6328C112.273 36.0078 112.406 35.4766 112.672 35.0391C112.938 34.5964 113.326 34.2604 113.836 34.0312C114.346 33.7969 114.964 33.6797 115.688 33.6797C115.844 33.6797 116.013 33.6901 116.195 33.7109C116.383 33.7266 116.555 33.7474 116.711 33.7734C116.872 33.7943 116.995 33.8177 117.078 33.8438H120.07V34.8672L118.602 35.1406C118.742 35.3385 118.854 35.5651 118.938 35.8203C119.021 36.0703 119.062 36.3438 119.062 36.6406C119.062 37.5365 118.753 38.2422 118.133 38.7578C117.518 39.2682 116.669 39.5234 115.586 39.5234C115.326 39.513 115.073 39.4922 114.828 39.4609C114.641 39.5755 114.497 39.7031 114.398 39.8438C114.299 39.9792 114.25 40.1328 114.25 40.3047C114.25 40.4453 114.299 40.5599 114.398 40.6484C114.497 40.7318 114.643 40.7943 114.836 40.8359C115.034 40.8776 115.273 40.8984 115.555 40.8984H117.047C117.995 40.8984 118.719 41.099 119.219 41.5C119.719 41.901 119.969 42.4896 119.969 43.2656C119.969 44.25 119.562 45.0078 118.75 45.5391C117.938 46.0755 116.768 46.3438 115.242 46.3438ZM115.312 45.0547C115.953 45.0547 116.492 44.9922 116.93 44.8672C117.367 44.7422 117.698 44.5625 117.922 44.3281C118.146 44.099 118.258 43.8255 118.258 43.5078C118.258 43.2266 118.188 43.0104 118.047 42.8594C117.906 42.7083 117.695 42.6042 117.414 42.5469C117.133 42.4896 116.784 42.4609 116.367 42.4609H115.008C114.669 42.4609 114.37 42.513 114.109 42.6172C113.849 42.7266 113.646 42.8828 113.5 43.0859C113.359 43.2891 113.289 43.5339 113.289 43.8203C113.289 44.2161 113.464 44.5208 113.812 44.7344C114.167 44.9479 114.667 45.0547 115.312 45.0547ZM115.672 38.3203C116.208 38.3203 116.607 38.1745 116.867 37.8828C117.128 37.5859 117.258 37.1693 117.258 36.6328C117.258 36.0495 117.122 35.612 116.852 35.3203C116.586 35.0286 116.19 34.8828 115.664 34.8828C115.148 34.8828 114.755 35.0312 114.484 35.3281C114.219 35.625 114.086 36.0651 114.086 36.6484C114.086 37.1745 114.219 37.5859 114.484 37.8828C114.755 38.1745 115.151 38.3203 115.672 38.3203ZM120.344 33.8516H122.344L124.117 38.7891C124.195 39.013 124.266 39.2344 124.328 39.4531C124.396 39.6667 124.453 39.8776 124.5 40.0859C124.552 40.2943 124.594 40.5026 124.625 40.7109H124.672C124.724 40.4401 124.797 40.138 124.891 39.8047C124.99 39.4661 125.099 39.1276 125.219 38.7891L126.922 33.8516H128.898L125.188 43.6875C124.974 44.25 124.711 44.7292 124.398 45.125C124.091 45.526 123.727 45.8281 123.305 46.0312C122.883 46.2396 122.401 46.3438 121.859 46.3438C121.599 46.3438 121.372 46.3281 121.18 46.2969C120.987 46.2708 120.823 46.2422 120.688 46.2109V44.7422C120.797 44.7682 120.935 44.7917 121.102 44.8125C121.268 44.8333 121.44 44.8438 121.617 44.8438C121.945 44.8438 122.229 44.7786 122.469 44.6484C122.708 44.5182 122.911 44.3333 123.078 44.0938C123.245 43.8594 123.383 43.5911 123.492 43.2891L123.797 42.4766L120.344 33.8516ZM137.758 33.6875C138.852 33.6875 139.677 33.9297 140.234 34.4141C140.797 34.8984 141.078 35.6536 141.078 36.6797V42.5H139.773L139.422 41.2734H139.359C139.115 41.5859 138.862 41.8438 138.602 42.0469C138.341 42.25 138.039 42.401 137.695 42.5C137.357 42.6042 136.943 42.6562 136.453 42.6562C135.938 42.6562 135.477 42.5625 135.07 42.375C134.664 42.1823 134.344 41.8906 134.109 41.5C133.875 41.1094 133.758 40.6146 133.758 40.0156C133.758 39.125 134.089 38.4557 134.75 38.0078C135.417 37.5599 136.422 37.3125 137.766 37.2656L139.266 37.2109V36.7578C139.266 36.1589 139.125 35.7318 138.844 35.4766C138.568 35.2214 138.177 35.0938 137.672 35.0938C137.24 35.0938 136.82 35.1562 136.414 35.2812C136.008 35.4062 135.612 35.5599 135.227 35.7422L134.633 34.4453C135.055 34.2214 135.534 34.0391 136.07 33.8984C136.612 33.7578 137.174 33.6875 137.758 33.6875ZM139.258 38.3672L138.141 38.4062C137.224 38.4375 136.581 38.5938 136.211 38.875C135.841 39.1562 135.656 39.5417 135.656 40.0312C135.656 40.4583 135.784 40.7708 136.039 40.9688C136.294 41.1615 136.63 41.2578 137.047 41.2578C137.682 41.2578 138.208 41.0781 138.625 40.7188C139.047 40.3542 139.258 39.8203 139.258 39.1172V38.3672ZM149.461 40.0312C149.461 40.599 149.323 41.0781 149.047 41.4688C148.771 41.8594 148.367 42.1562 147.836 42.3594C147.31 42.5573 146.664 42.6562 145.898 42.6562C145.294 42.6562 144.773 42.612 144.336 42.5234C143.904 42.4401 143.495 42.3099 143.109 42.1328V40.5469C143.521 40.7396 143.982 40.9062 144.492 41.0469C145.008 41.1875 145.495 41.2578 145.953 41.2578C146.557 41.2578 146.992 41.1641 147.258 40.9766C147.523 40.7839 147.656 40.5286 147.656 40.2109C147.656 40.0234 147.602 39.8568 147.492 39.7109C147.388 39.5599 147.19 39.4062 146.898 39.25C146.612 39.0885 146.19 38.8958 145.633 38.6719C145.086 38.4531 144.625 38.2344 144.25 38.0156C143.875 37.7969 143.591 37.5339 143.398 37.2266C143.206 36.9141 143.109 36.5156 143.109 36.0312C143.109 35.2656 143.411 34.6849 144.016 34.2891C144.625 33.888 145.43 33.6875 146.43 33.6875C146.961 33.6875 147.461 33.7422 147.93 33.8516C148.404 33.9557 148.867 34.1094 149.32 34.3125L148.742 35.6953C148.352 35.5234 147.958 35.3828 147.562 35.2734C147.172 35.1589 146.773 35.1016 146.367 35.1016C145.893 35.1016 145.531 35.1745 145.281 35.3203C145.036 35.4661 144.914 35.6745 144.914 35.9453C144.914 36.1484 144.974 36.3203 145.094 36.4609C145.214 36.6016 145.419 36.7422 145.711 36.8828C146.008 37.0234 146.419 37.1979 146.945 37.4062C147.461 37.6042 147.906 37.8125 148.281 38.0312C148.661 38.2448 148.953 38.5078 149.156 38.8203C149.359 39.1328 149.461 39.5365 149.461 40.0312ZM157.258 40.0312C157.258 40.599 157.12 41.0781 156.844 41.4688C156.568 41.8594 156.164 42.1562 155.633 42.3594C155.107 42.5573 154.461 42.6562 153.695 42.6562C153.091 42.6562 152.57 42.612 152.133 42.5234C151.701 42.4401 151.292 42.3099 150.906 42.1328V40.5469C151.318 40.7396 151.779 40.9062 152.289 41.0469C152.805 41.1875 153.292 41.2578 153.75 41.2578C154.354 41.2578 154.789 41.1641 155.055 40.9766C155.32 40.7839 155.453 40.5286 155.453 40.2109C155.453 40.0234 155.398 39.8568 155.289 39.7109C155.185 39.5599 154.987 39.4062 154.695 39.25C154.409 39.0885 153.987 38.8958 153.43 38.6719C152.883 38.4531 152.422 38.2344 152.047 38.0156C151.672 37.7969 151.388 37.5339 151.195 37.2266C151.003 36.9141 150.906 36.5156 150.906 36.0312C150.906 35.2656 151.208 34.6849 151.812 34.2891C152.422 33.888 153.227 33.6875 154.227 33.6875C154.758 33.6875 155.258 33.7422 155.727 33.8516C156.201 33.9557 156.664 34.1094 157.117 34.3125L156.539 35.6953C156.148 35.5234 155.755 35.3828 155.359 35.2734C154.969 35.1589 154.57 35.1016 154.164 35.1016C153.69 35.1016 153.328 35.1745 153.078 35.3203C152.833 35.4661 152.711 35.6745 152.711 35.9453C152.711 36.1484 152.771 36.3203 152.891 36.4609C153.01 36.6016 153.216 36.7422 153.508 36.8828C153.805 37.0234 154.216 37.1979 154.742 37.4062C155.258 37.6042 155.703 37.8125 156.078 38.0312C156.458 38.2448 156.75 38.5078 156.953 38.8203C157.156 39.1328 157.258 39.5365 157.258 40.0312ZM161.078 33.8516V42.5H159.242V33.8516H161.078ZM160.172 30.5391C160.453 30.5391 160.695 30.6146 160.898 30.7656C161.107 30.9167 161.211 31.1771 161.211 31.5469C161.211 31.9115 161.107 32.1719 160.898 32.3281C160.695 32.4792 160.453 32.5547 160.172 32.5547C159.88 32.5547 159.633 32.4792 159.43 32.3281C159.232 32.1719 159.133 31.9115 159.133 31.5469C159.133 31.1771 159.232 30.9167 159.43 30.7656C159.633 30.6146 159.88 30.5391 160.172 30.5391ZM166.18 46.3438C165.008 46.3438 164.109 46.1328 163.484 45.7109C162.859 45.2891 162.547 44.6979 162.547 43.9375C162.547 43.4062 162.714 42.9557 163.047 42.5859C163.38 42.2214 163.857 41.9688 164.477 41.8281C164.242 41.724 164.039 41.5625 163.867 41.3438C163.701 41.1198 163.617 40.8724 163.617 40.6016C163.617 40.2786 163.708 40.0026 163.891 39.7734C164.073 39.5443 164.346 39.3229 164.711 39.1094C164.258 38.9167 163.893 38.6042 163.617 38.1719C163.346 37.7344 163.211 37.2214 163.211 36.6328C163.211 36.0078 163.344 35.4766 163.609 35.0391C163.875 34.5964 164.263 34.2604 164.773 34.0312C165.284 33.7969 165.901 33.6797 166.625 33.6797C166.781 33.6797 166.951 33.6901 167.133 33.7109C167.32 33.7266 167.492 33.7474 167.648 33.7734C167.81 33.7943 167.932 33.8177 168.016 33.8438H171.008V34.8672L169.539 35.1406C169.68 35.3385 169.792 35.5651 169.875 35.8203C169.958 36.0703 170 36.3438 170 36.6406C170 37.5365 169.69 38.2422 169.07 38.7578C168.456 39.2682 167.607 39.5234 166.523 39.5234C166.263 39.513 166.01 39.4922 165.766 39.4609C165.578 39.5755 165.435 39.7031 165.336 39.8438C165.237 39.9792 165.188 40.1328 165.188 40.3047C165.188 40.4453 165.237 40.5599 165.336 40.6484C165.435 40.7318 165.581 40.7943 165.773 40.8359C165.971 40.8776 166.211 40.8984 166.492 40.8984H167.984C168.932 40.8984 169.656 41.099 170.156 41.5C170.656 41.901 170.906 42.4896 170.906 43.2656C170.906 44.25 170.5 45.0078 169.688 45.5391C168.875 46.0755 167.706 46.3438 166.18 46.3438ZM166.25 45.0547C166.891 45.0547 167.43 44.9922 167.867 44.8672C168.305 44.7422 168.635 44.5625 168.859 44.3281C169.083 44.099 169.195 43.8255 169.195 43.5078C169.195 43.2266 169.125 43.0104 168.984 42.8594C168.844 42.7083 168.633 42.6042 168.352 42.5469C168.07 42.4896 167.721 42.4609 167.305 42.4609H165.945C165.607 42.4609 165.307 42.513 165.047 42.6172C164.786 42.7266 164.583 42.8828 164.438 43.0859C164.297 43.2891 164.227 43.5339 164.227 43.8203C164.227 44.2161 164.401 44.5208 164.75 44.7344C165.104 44.9479 165.604 45.0547 166.25 45.0547ZM166.609 38.3203C167.146 38.3203 167.544 38.1745 167.805 37.8828C168.065 37.5859 168.195 37.1693 168.195 36.6328C168.195 36.0495 168.06 35.612 167.789 35.3203C167.523 35.0286 167.128 34.8828 166.602 34.8828C166.086 34.8828 165.693 35.0312 165.422 35.3281C165.156 35.625 165.023 36.0651 165.023 36.6484C165.023 37.1745 165.156 37.5859 165.422 37.8828C165.693 38.1745 166.089 38.3203 166.609 38.3203ZM177.094 33.6875C178.068 33.6875 178.826 33.9401 179.367 34.4453C179.914 34.9453 180.188 35.75 180.188 36.8594V42.5H178.352V37.2031C178.352 36.5312 178.214 36.0286 177.938 35.6953C177.661 35.3568 177.234 35.1875 176.656 35.1875C175.818 35.1875 175.234 35.4453 174.906 35.9609C174.583 36.4766 174.422 37.224 174.422 38.2031V42.5H172.586V33.8516H174.016L174.273 35.0234H174.375C174.562 34.7214 174.794 34.474 175.07 34.2812C175.352 34.0833 175.664 33.9349 176.008 33.8359C176.357 33.737 176.719 33.6875 177.094 33.6875ZM192.531 33.6875C193.5 33.6875 194.229 33.9375 194.719 34.4375C195.214 34.9375 195.461 35.7396 195.461 36.8438V42.5H193.625V37.1719C193.625 36.5156 193.497 36.0208 193.242 35.6875C192.987 35.3542 192.599 35.1875 192.078 35.1875C191.349 35.1875 190.823 35.4219 190.5 35.8906C190.182 36.3542 190.023 37.0286 190.023 37.9141V42.5H188.188V37.1719C188.188 36.7344 188.13 36.3698 188.016 36.0781C187.906 35.7812 187.737 35.5599 187.508 35.4141C187.279 35.263 186.99 35.1875 186.641 35.1875C186.135 35.1875 185.732 35.3021 185.43 35.5312C185.133 35.7604 184.919 36.099 184.789 36.5469C184.659 36.9896 184.594 37.5339 184.594 38.1797V42.5H182.758V33.8516H184.188L184.445 35.0156H184.547C184.724 34.7135 184.943 34.4661 185.203 34.2734C185.469 34.0755 185.763 33.9297 186.086 33.8359C186.409 33.737 186.745 33.6875 187.094 33.6875C187.74 33.6875 188.284 33.8021 188.727 34.0312C189.169 34.2552 189.5 34.599 189.719 35.0625H189.859C190.13 34.5938 190.508 34.2474 190.992 34.0234C191.477 33.7995 191.99 33.6875 192.531 33.6875ZM201.469 33.6875C202.24 33.6875 202.901 33.8464 203.453 34.1641C204.005 34.4818 204.43 34.9323 204.727 35.5156C205.023 36.099 205.172 36.7969 205.172 37.6094V38.5938H199.398C199.419 39.4323 199.643 40.0781 200.07 40.5312C200.503 40.9844 201.107 41.2109 201.883 41.2109C202.435 41.2109 202.93 41.1589 203.367 41.0547C203.81 40.9453 204.266 40.7865 204.734 40.5781V42.0703C204.302 42.2734 203.862 42.4219 203.414 42.5156C202.966 42.6094 202.43 42.6562 201.805 42.6562C200.956 42.6562 200.208 42.4922 199.562 42.1641C198.922 41.8307 198.419 41.3359 198.055 40.6797C197.695 40.0234 197.516 39.2083 197.516 38.2344C197.516 37.2656 197.68 36.4427 198.008 35.7656C198.336 35.0885 198.797 34.5729 199.391 34.2188C199.984 33.8646 200.677 33.6875 201.469 33.6875ZM201.469 35.0703C200.891 35.0703 200.422 35.2578 200.062 35.6328C199.708 36.0078 199.5 36.5573 199.438 37.2812H203.375C203.37 36.849 203.297 36.4661 203.156 36.1328C203.021 35.7995 202.812 35.5391 202.531 35.3516C202.255 35.1641 201.901 35.0703 201.469 35.0703ZM211.75 33.6875C212.724 33.6875 213.482 33.9401 214.023 34.4453C214.57 34.9453 214.844 35.75 214.844 36.8594V42.5H213.008V37.2031C213.008 36.5312 212.87 36.0286 212.594 35.6953C212.318 35.3568 211.891 35.1875 211.312 35.1875C210.474 35.1875 209.891 35.4453 209.562 35.9609C209.24 36.4766 209.078 37.224 209.078 38.2031V42.5H207.242V33.8516H208.672L208.93 35.0234H209.031C209.219 34.7214 209.451 34.474 209.727 34.2812C210.008 34.0833 210.32 33.9349 210.664 33.8359C211.013 33.737 211.375 33.6875 211.75 33.6875ZM220.633 41.1719C220.872 41.1719 221.109 41.151 221.344 41.1094C221.578 41.0625 221.792 41.0078 221.984 40.9453V42.3359C221.781 42.4245 221.518 42.5 221.195 42.5625C220.872 42.625 220.536 42.6562 220.188 42.6562C219.698 42.6562 219.258 42.5755 218.867 42.4141C218.477 42.2474 218.167 41.9635 217.938 41.5625C217.708 41.1615 217.594 40.6068 217.594 39.8984V35.25H216.414V34.4297L217.68 33.7812L218.281 31.9297H219.438V33.8516H221.914V35.25H219.438V39.875C219.438 40.3125 219.547 40.638 219.766 40.8516C219.984 41.0651 220.273 41.1719 220.633 41.1719ZM223.477 41.5312C223.477 41.1042 223.586 40.8047 223.805 40.6328C224.029 40.4557 224.299 40.3672 224.617 40.3672C224.935 40.3672 225.206 40.4557 225.43 40.6328C225.659 40.8047 225.773 41.1042 225.773 41.5312C225.773 41.9479 225.659 42.25 225.43 42.4375C225.206 42.6198 224.935 42.7109 224.617 42.7109C224.299 42.7109 224.029 42.6198 223.805 42.4375C223.586 42.25 223.477 41.9479 223.477 41.5312ZM232.57 33.6875C233.596 33.6875 234.419 34.0625 235.039 34.8125C235.664 35.5625 235.977 36.6771 235.977 38.1562C235.977 39.1354 235.831 39.9609 235.539 40.6328C235.253 41.2995 234.849 41.8047 234.328 42.1484C233.812 42.487 233.211 42.6562 232.523 42.6562C232.086 42.6562 231.706 42.599 231.383 42.4844C231.06 42.3698 230.784 42.2214 230.555 42.0391C230.326 41.8516 230.133 41.6484 229.977 41.4297H229.867C229.893 41.638 229.917 41.8698 229.938 42.125C229.964 42.375 229.977 42.6042 229.977 42.8125V46.3359H228.133V33.8516H229.633L229.891 35.0469H229.977C230.138 34.8021 230.333 34.5755 230.562 34.3672C230.797 34.1589 231.078 33.9948 231.406 33.875C231.74 33.75 232.128 33.6875 232.57 33.6875ZM232.078 35.1875C231.573 35.1875 231.167 35.2891 230.859 35.4922C230.557 35.6901 230.336 35.9896 230.195 36.3906C230.06 36.7917 229.987 37.2943 229.977 37.8984V38.1562C229.977 38.7969 230.042 39.3411 230.172 39.7891C230.307 40.2318 230.529 40.5703 230.836 40.8047C231.148 41.0339 231.57 41.1484 232.102 41.1484C232.549 41.1484 232.919 41.026 233.211 40.7812C233.508 40.5365 233.729 40.1875 233.875 39.7344C234.021 39.2812 234.094 38.7474 234.094 38.1328C234.094 37.2005 233.927 36.4766 233.594 35.9609C233.266 35.4453 232.76 35.1875 232.078 35.1875ZM241.008 42.6562C239.977 42.6562 239.148 42.2812 238.523 41.5312C237.904 40.776 237.594 39.6641 237.594 38.1953C237.594 36.7109 237.909 35.5885 238.539 34.8281C239.174 34.0677 240.01 33.6875 241.047 33.6875C241.484 33.6875 241.867 33.7474 242.195 33.8672C242.523 33.9818 242.805 34.138 243.039 34.3359C243.279 34.5339 243.482 34.7552 243.648 35H243.734C243.708 34.8385 243.677 34.6068 243.641 34.3047C243.609 33.9974 243.594 33.7135 243.594 33.4531V30.3438H245.438V42.5H244L243.672 41.3203H243.594C243.438 41.5703 243.24 41.7969 243 42C242.766 42.1979 242.484 42.3568 242.156 42.4766C241.833 42.5964 241.451 42.6562 241.008 42.6562ZM241.523 41.1641C242.31 41.1641 242.865 40.9375 243.188 40.4844C243.51 40.0312 243.677 39.3516 243.688 38.4453V38.2031C243.688 37.2344 243.531 36.4922 243.219 35.9766C242.906 35.4557 242.336 35.1953 241.508 35.1953C240.846 35.1953 240.341 35.4635 239.992 36C239.648 36.5312 239.477 37.2734 239.477 38.2266C239.477 39.1797 239.648 39.9089 239.992 40.4141C240.341 40.9141 240.852 41.1641 241.523 41.1641ZM252.391 35.25H250.289V42.5H248.453V35.25H247.039V34.3672L248.453 33.8281V33.2266C248.453 32.4922 248.568 31.9089 248.797 31.4766C249.031 31.0443 249.365 30.7344 249.797 30.5469C250.234 30.3542 250.755 30.2578 251.359 30.2578C251.755 30.2578 252.117 30.2917 252.445 30.3594C252.773 30.4219 253.049 30.4948 253.273 30.5781L252.797 31.9688C252.62 31.9115 252.422 31.8594 252.203 31.8125C251.984 31.7604 251.75 31.7344 251.5 31.7344C251.083 31.7344 250.776 31.8646 250.578 32.125C250.385 32.3854 250.289 32.7656 250.289 33.2656V33.8516H252.391V35.25Z" fill="#3D4080"/>
<path d="M79.0625 63.6191H77.9023V65.5H76.543V63.6191H72.6465V62.5762L76.5605 56.9102H77.9023V62.4766H79.0625V63.6191ZM76.543 62.4766V60.3496C76.543 60.1738 76.5449 59.9961 76.5488 59.8164C76.5566 59.6328 76.5645 59.457 76.5723 59.2891C76.5801 59.1211 76.5879 58.9668 76.5957 58.8262C76.6035 58.6816 76.6094 58.5625 76.6133 58.4688H76.5664C76.4922 58.625 76.4102 58.7852 76.3203 58.9492C76.2305 59.1094 76.1348 59.2656 76.0332 59.418L73.9238 62.4766H76.543ZM85.291 58.8906C85.291 59.2773 85.2129 59.6133 85.0566 59.8984C84.9004 60.1836 84.6855 60.418 84.4121 60.6016C84.1426 60.7812 83.8301 60.9102 83.4746 60.9883V61.0293C84.1582 61.1152 84.6738 61.3301 85.0215 61.6738C85.373 62.0176 85.5488 62.4727 85.5488 63.0391C85.5488 63.5352 85.4297 63.9785 85.1914 64.3691C84.9531 64.7559 84.5879 65.0605 84.0957 65.2832C83.6035 65.5059 82.9707 65.6172 82.1973 65.6172C81.7324 65.6172 81.3008 65.5801 80.9023 65.5059C80.5078 65.4316 80.1328 65.3125 79.7773 65.1484V63.9238C80.1406 64.1035 80.5273 64.2422 80.9375 64.3398C81.3477 64.4375 81.7363 64.4863 82.1035 64.4863C82.8184 64.4863 83.3281 64.3535 83.6328 64.0879C83.9375 63.8184 84.0898 63.4473 84.0898 62.9746C84.0898 62.6699 84.0098 62.4199 83.8496 62.2246C83.6934 62.0293 83.4492 61.8828 83.1172 61.7852C82.7891 61.6875 82.3652 61.6387 81.8457 61.6387H81.0898V60.5312H81.8516C82.3477 60.5312 82.7461 60.4727 83.0469 60.3555C83.3477 60.2344 83.5645 60.0684 83.6973 59.8574C83.834 59.6465 83.9023 59.4004 83.9023 59.1191C83.9023 58.752 83.7832 58.4668 83.5449 58.2637C83.3066 58.0566 82.9531 57.9531 82.4844 57.9531C82.1953 57.9531 81.9316 57.9863 81.6934 58.0527C81.459 58.1191 81.2422 58.2031 81.043 58.3047C80.8438 58.4062 80.6543 58.5156 80.4746 58.6328L79.8125 57.6777C80.1367 57.4355 80.5234 57.2305 80.9727 57.0625C81.4219 56.8945 81.9453 56.8105 82.543 56.8105C83.4219 56.8105 84.0996 57 84.5762 57.3789C85.0527 57.7539 85.291 58.2578 85.291 58.8906ZM92.1582 58.8906C92.1582 59.2773 92.0801 59.6133 91.9238 59.8984C91.7676 60.1836 91.5527 60.418 91.2793 60.6016C91.0098 60.7812 90.6973 60.9102 90.3418 60.9883V61.0293C91.0254 61.1152 91.541 61.3301 91.8887 61.6738C92.2402 62.0176 92.416 62.4727 92.416 63.0391C92.416 63.5352 92.2969 63.9785 92.0586 64.3691C91.8203 64.7559 91.4551 65.0605 90.9629 65.2832C90.4707 65.5059 89.8379 65.6172 89.0645 65.6172C88.5996 65.6172 88.168 65.5801 87.7695 65.5059C87.375 65.4316 87 65.3125 86.6445 65.1484V63.9238C87.0078 64.1035 87.3945 64.2422 87.8047 64.3398C88.2148 64.4375 88.6035 64.4863 88.9707 64.4863C89.6855 64.4863 90.1953 64.3535 90.5 64.0879C90.8047 63.8184 90.957 63.4473 90.957 62.9746C90.957 62.6699 90.877 62.4199 90.7168 62.2246C90.5605 62.0293 90.3164 61.8828 89.9844 61.7852C89.6562 61.6875 89.2324 61.6387 88.7129 61.6387H87.957V60.5312H88.7188C89.2148 60.5312 89.6133 60.4727 89.9141 60.3555C90.2148 60.2344 90.4316 60.0684 90.5645 59.8574C90.7012 59.6465 90.7695 59.4004 90.7695 59.1191C90.7695 58.752 90.6504 58.4668 90.4121 58.2637C90.1738 58.0566 89.8203 57.9531 89.3516 57.9531C89.0625 57.9531 88.7988 57.9863 88.5605 58.0527C88.3262 58.1191 88.1094 58.2031 87.9102 58.3047C87.7109 58.4062 87.5215 58.5156 87.3418 58.6328L86.6797 57.6777C87.0039 57.4355 87.3906 57.2305 87.8398 57.0625C88.2891 56.8945 88.8125 56.8105 89.4102 56.8105C90.2891 56.8105 90.9668 57 91.4434 57.3789C91.9199 57.7539 92.1582 58.2578 92.1582 58.8906ZM100.672 65.5H99.0547L96.3887 61.6094L95.5449 62.2949V65.5H94.1387V56.9336H95.5449V61.0293C95.7168 60.8184 95.8906 60.6074 96.0664 60.3965C96.2422 60.1855 96.418 59.9746 96.5938 59.7637L99.0078 56.9336H100.596L97.3965 60.6836L100.672 65.5ZM101.803 56.9336H104.352C105.457 56.9336 106.291 57.0938 106.854 57.4141C107.416 57.7344 107.697 58.2871 107.697 59.0723C107.697 59.4004 107.639 59.6973 107.521 59.9629C107.408 60.2246 107.242 60.4414 107.023 60.6133C106.805 60.7812 106.535 60.8945 106.215 60.9531V61.0117C106.547 61.0703 106.842 61.1738 107.1 61.3223C107.361 61.4707 107.566 61.6836 107.715 61.9609C107.867 62.2383 107.943 62.5977 107.943 63.0391C107.943 63.5625 107.818 64.0078 107.568 64.375C107.322 64.7422 106.969 65.0215 106.508 65.2129C106.051 65.4043 105.508 65.5 104.879 65.5H101.803V56.9336ZM103.209 60.4668H104.557C105.193 60.4668 105.635 60.3633 105.881 60.1562C106.127 59.9492 106.25 59.6465 106.25 59.248C106.25 58.8418 106.104 58.5488 105.811 58.3691C105.521 58.1895 105.061 58.0996 104.428 58.0996H103.209V60.4668ZM103.209 61.6035V64.3223H104.691C105.348 64.3223 105.809 64.1953 106.074 63.9414C106.34 63.6875 106.473 63.3438 106.473 62.9102C106.473 62.6445 106.412 62.4141 106.291 62.2188C106.174 62.0234 105.98 61.873 105.711 61.7676C105.441 61.6582 105.078 61.6035 104.621 61.6035H103.209Z" fill="#555555"/>
<path d="M346.201 49.2012C345.912 49.2012 345.626 49.1442 345.359 49.0336C345.092 48.923 344.849 48.7609 344.645 48.5565C344.44 48.3521 344.278 48.1095 344.168 47.8425C344.057 47.5754 344 47.2892 344 47.0002C344 46.7111 344.057 46.4249 344.168 46.1579C344.278 45.8908 344.44 45.6482 344.645 45.4438C344.849 45.2394 345.092 45.0773 345.359 44.9667C345.626 44.8561 345.912 44.7992 346.201 44.7992C346.785 44.7993 347.345 45.0313 347.757 45.4442C348.17 45.857 348.402 46.4169 348.401 47.0007C348.401 47.5844 348.169 48.1442 347.756 48.5569C347.344 48.9695 346.784 49.2013 346.2 49.2012H346.201ZM346.201 51.8012C346.49 51.8013 346.776 51.8583 347.043 51.969C347.31 52.0797 347.552 52.2419 347.756 52.4462C347.961 52.6506 348.122 52.8932 348.233 53.1602C348.343 53.4272 348.4 53.7133 348.4 54.0022C348.4 54.2911 348.343 54.5771 348.232 54.844C348.121 55.1109 347.959 55.3533 347.755 55.5575C347.551 55.7617 347.308 55.9237 347.041 56.0341C346.774 56.1445 346.488 56.2013 346.199 56.2012C345.616 56.2009 345.056 55.9689 344.644 55.5561C344.231 55.1433 344 54.5836 344 54.0002C344 53.4167 344.232 52.8572 344.645 52.4448C345.058 52.0324 345.618 51.8009 346.201 51.8012ZM346.201 42.2012C345.617 42.2012 345.057 41.9693 344.645 41.5565C344.232 41.1437 344 40.5839 344 40.0002C344 39.4164 344.232 38.8566 344.645 38.4438C345.057 38.0311 345.617 37.7992 346.201 37.7992C346.785 37.7992 347.345 38.0311 347.757 38.4438C348.17 38.8566 348.402 39.4164 348.402 40.0002C348.402 40.5839 348.17 41.1437 347.757 41.5565C347.345 41.9693 346.785 42.2012 346.201 42.2012Z" fill="#D9D9D9"/>
<rect x="0.5" y="0.5" width="367" height="94" rx="9.5" stroke="#DADADA"/>
</svg>
