<svg width="166" height="166" viewBox="0 0 166 166" fill="none" xmlns="http://www.w3.org/2000/svg">
<circle cx="83" cy="83" r="83" fill="#50B748" fill-opacity="0.05"/>
<circle cx="83.3388" cy="83.3388" r="72.498" fill="#50B748" fill-opacity="0.2"/>
<g clip-path="url(#clip0_1162_766)">
<path d="M83.339 136.188C112.527 136.188 136.188 112.527 136.188 83.3392C136.188 54.1515 112.527 30.4902 83.339 30.4902C54.1513 30.4902 30.49 54.1515 30.49 83.3392C30.49 112.527 54.1513 136.188 83.339 136.188Z" fill="#50B748"/>
<path d="M94.4585 134.942C95.472 134.746 96.4795 134.519 97.4797 134.264C99.1757 133.79 100.847 133.231 102.487 132.59C104.129 131.955 105.739 131.237 107.31 130.441C108.881 129.642 110.411 128.764 111.894 127.812C113.376 126.859 114.809 125.833 116.188 124.738C117.57 123.641 118.896 122.475 120.161 121.245C121.424 120.019 122.625 118.73 123.759 117.383C124.894 116.035 125.961 114.632 126.956 113.177C127.951 111.725 128.873 110.224 129.718 108.681C130.563 107.134 131.33 105.547 132.017 103.924C132.704 102.301 133.309 100.644 133.831 98.9608C134.278 97.4866 134.66 95.9937 134.976 94.4862L103.575 63.0895C100.923 60.4259 97.7707 58.3131 94.2992 56.8725C90.8277 55.4319 87.1056 54.692 83.347 54.6953C79.5851 54.6912 75.8594 55.4307 72.3842 56.8713C68.909 58.3118 65.7528 60.4251 63.097 63.0895C60.4346 65.7461 58.3223 68.9017 56.8811 72.3758C55.4398 75.8498 54.698 79.574 54.698 83.3351C54.698 87.0962 55.4398 90.8204 56.8811 94.2944C58.3223 97.7684 60.4346 100.924 63.097 103.581L94.4585 134.942Z" fill="#10A711"/>
<path d="M83.3428 54.7002C90.6624 54.7002 97.982 57.4968 103.584 63.0944C106.246 65.751 108.359 68.9066 109.8 72.3806C111.241 75.8547 111.983 79.5788 111.983 83.34C111.983 87.1011 111.241 90.8252 109.8 94.2993C108.359 97.7733 106.246 100.929 103.584 103.586C100.927 106.248 97.7718 108.36 94.2978 109.801C90.8237 111.243 87.0996 111.985 83.3384 111.985C79.5773 111.985 75.8531 111.243 72.3791 109.801C68.9051 108.36 65.7495 106.248 63.0929 103.586C60.4304 100.929 58.3182 97.7733 56.8769 94.2993C55.4357 90.8252 54.6938 87.1011 54.6938 83.34C54.6938 79.5788 55.4357 75.8547 56.8769 72.3806C58.3182 68.9066 60.4304 65.751 63.0929 63.0944C65.7486 60.43 68.9048 58.3167 72.38 56.8762C75.8552 55.4356 79.5809 54.6961 83.3428 54.7002ZM96.3789 74.5274C95.962 74.5673 95.565 74.7246 95.2339 74.981L79.1414 87.0482L71.6852 79.5965C70.0689 77.9141 66.8848 81.0939 68.5716 82.7102L77.3797 91.5183C77.7616 91.8794 78.2565 92.0973 78.7807 92.135C79.3049 92.1728 79.826 92.028 80.2556 91.7253L97.8719 78.5131C99.3517 77.4341 98.44 74.5582 96.6079 74.5318C96.5331 74.528 96.4582 74.528 96.3833 74.5318L96.3789 74.5274Z" fill="white"/>
</g>
<defs>
<clipPath id="clip0_1162_766">
<rect width="105.698" height="105.698" fill="white" transform="translate(30.49 30.4902)"/>
</clipPath>
</defs>
</svg>
