<svg width="58" height="89" viewBox="0 0 58 89" fill="none" xmlns="http://www.w3.org/2000/svg">
<path fill-rule="evenodd" clip-rule="evenodd" d="M21.6496 32.6194C30.3146 37.9033 41.5792 38.1893 50.7463 32.4082C52.3514 31.3964 53.8164 30.2463 55.1354 28.9829C55.1777 28.1602 55.1834 27.3346 55.1518 26.508C54.9722 21.8251 53.5975 17.124 50.9172 12.8741C42.7927 -0.0111036 25.7603 -3.87032 12.8742 4.25419C11.27 5.26699 9.80505 6.41708 8.48505 7.67948C-0.786661 16.5576 -2.85835 31.0172 4.25432 42.2972C6.93465 46.5471 10.5827 49.815 14.7318 51.9942C14.463 44.9708 16.8889 37.9858 21.6496 32.6184V32.6194Z" fill="white"/>
<path fill-rule="evenodd" clip-rule="evenodd" d="M35.7198 56.2966C27.0548 51.0118 15.7892 50.7267 6.62308 56.5068C5.01796 57.5177 3.55299 58.6688 2.23395 59.9321C2.19171 60.7549 2.18595 61.5805 2.21667 62.407C2.39523 67.0899 3.77091 71.7911 6.45124 76.04C14.5757 88.9262 31.6081 92.7844 44.4942 84.6599C46.0994 83.6471 47.5634 82.497 48.8824 81.2346C58.1541 72.3565 60.2268 57.8979 53.1132 46.6169C50.4328 42.3679 46.7848 39.0991 42.6357 36.9189C42.9035 43.9433 40.4786 50.9283 35.7179 56.2966H35.7198Z" fill="white"/>
</svg>
