<svg width="312" height="294" viewBox="0 0 312 294" fill="none" xmlns="http://www.w3.org/2000/svg">
<circle cx="156" cy="82" r="82" fill="#F2994A" fill-opacity="0.1"/>
<circle cx="156.5" cy="81.5" r="56.5" fill="#F2994A"/>
<g clip-path="url(#clip0_1034_1533)">
<path d="M141.117 99.8685C141.117 102.652 143.372 104.907 146.156 104.907H166.311C169.095 104.907 171.349 102.652 171.349 99.8685V69.6361H141.117V99.8685ZM173.869 62.078H165.051L162.532 59.5586H149.935L147.415 62.078H138.598V67.1167H173.869V62.078Z" fill="white"/>
</g>
<path d="M91.8091 202.382C91.8091 204.508 91.4131 206.285 90.6213 207.714C89.8294 209.134 88.6804 210.205 87.1742 210.928C85.668 211.643 83.8519 212 81.726 212H76.4843V193.125H82.294C84.2478 193.125 85.9348 193.478 87.3549 194.184C88.7751 194.881 89.8725 195.918 90.6471 197.295C91.4217 198.663 91.8091 200.359 91.8091 202.382ZM88.5814 202.472C88.5814 200.923 88.3361 199.649 87.8455 198.651C87.3635 197.652 86.6492 196.912 85.7024 196.43C84.7642 195.939 83.6066 195.694 82.2295 195.694H79.5828V209.405H81.7776C84.0585 209.405 85.7626 208.824 86.8902 207.662C88.0177 206.5 88.5814 204.77 88.5814 202.472ZM101.26 197.437C102.533 197.437 103.626 197.699 104.539 198.225C105.451 198.75 106.153 199.494 106.643 200.458C107.134 201.422 107.379 202.575 107.379 203.918V205.545H97.8383C97.8727 206.93 98.2428 207.998 98.9486 208.747C99.6629 209.495 100.661 209.87 101.944 209.87C102.856 209.87 103.674 209.784 104.397 209.612C105.128 209.431 105.881 209.168 106.656 208.824V211.29C105.942 211.626 105.214 211.871 104.474 212.026C103.734 212.181 102.848 212.258 101.815 212.258C100.412 212.258 99.1766 211.987 98.1094 211.445C97.0507 210.894 96.2201 210.076 95.6176 208.992C95.0238 207.907 94.7268 206.56 94.7268 204.951C94.7268 203.35 94.9979 201.99 95.5402 200.871C96.0824 199.752 96.8441 198.9 97.8253 198.315C98.8065 197.73 99.9513 197.437 101.26 197.437ZM101.26 199.722C100.304 199.722 99.5295 200.032 98.9356 200.652C98.3504 201.271 98.0061 202.179 97.9028 203.376H104.41C104.401 202.661 104.281 202.029 104.048 201.478C103.824 200.927 103.48 200.497 103.015 200.187C102.559 199.877 101.974 199.722 101.26 199.722ZM113.847 212H110.8V191.911H113.847V212ZM123.879 197.437C125.153 197.437 126.246 197.699 127.158 198.225C128.07 198.75 128.772 199.494 129.262 200.458C129.753 201.422 129.998 202.575 129.998 203.918V205.545H120.457C120.492 206.93 120.862 207.998 121.568 208.747C122.282 209.495 123.281 209.87 124.563 209.87C125.475 209.87 126.293 209.784 127.016 209.612C127.748 209.431 128.501 209.168 129.275 208.824V211.29C128.561 211.626 127.834 211.871 127.093 212.026C126.353 212.181 125.467 212.258 124.434 212.258C123.031 212.258 121.796 211.987 120.729 211.445C119.67 210.894 118.839 210.076 118.237 208.992C117.643 207.907 117.346 206.56 117.346 204.951C117.346 203.35 117.617 201.99 118.159 200.871C118.702 199.752 119.463 198.9 120.445 198.315C121.426 197.73 122.57 197.437 123.879 197.437ZM123.879 199.722C122.923 199.722 122.149 200.032 121.555 200.652C120.97 201.271 120.625 202.179 120.522 203.376H127.029C127.02 202.661 126.9 202.029 126.667 201.478C126.444 200.927 126.099 200.497 125.635 200.187C125.178 199.877 124.593 199.722 123.879 199.722ZM138.739 209.805C139.135 209.805 139.526 209.771 139.914 209.702C140.301 209.624 140.654 209.534 140.972 209.431V211.729C140.637 211.875 140.202 212 139.668 212.103C139.135 212.207 138.579 212.258 138.003 212.258C137.194 212.258 136.466 212.125 135.821 211.858C135.175 211.583 134.663 211.113 134.285 210.451C133.906 209.788 133.716 208.871 133.716 207.701V200.019H131.767V198.663L133.859 197.592L134.853 194.532H136.763V197.708H140.856V200.019H136.763V207.662C136.763 208.385 136.944 208.923 137.306 209.276C137.667 209.629 138.145 209.805 138.739 209.805ZM149.571 197.437C150.844 197.437 151.938 197.699 152.85 198.225C153.762 198.75 154.464 199.494 154.954 200.458C155.445 201.422 155.69 202.575 155.69 203.918V205.545H146.149C146.184 206.93 146.554 207.998 147.26 208.747C147.974 209.495 148.972 209.87 150.255 209.87C151.167 209.87 151.985 209.784 152.708 209.612C153.439 209.431 154.193 209.168 154.967 208.824V211.29C154.253 211.626 153.525 211.871 152.785 212.026C152.045 212.181 151.159 212.258 150.126 212.258C148.723 212.258 147.488 211.987 146.42 211.445C145.362 210.894 144.531 210.076 143.929 208.992C143.335 207.907 143.038 206.56 143.038 204.951C143.038 203.35 143.309 201.99 143.851 200.871C144.393 199.752 145.155 198.9 146.136 198.315C147.118 197.73 148.262 197.437 149.571 197.437ZM149.571 199.722C148.615 199.722 147.841 200.032 147.247 200.652C146.661 201.271 146.317 202.179 146.214 203.376H152.721C152.712 202.661 152.592 202.029 152.359 201.478C152.135 200.927 151.791 200.497 151.326 200.187C150.87 199.877 150.285 199.722 149.571 199.722ZM173.223 197.437C173.464 197.437 173.726 197.45 174.01 197.476C174.294 197.502 174.539 197.536 174.746 197.579L174.462 200.419C174.281 200.368 174.057 200.329 173.791 200.303C173.532 200.277 173.3 200.264 173.093 200.264C172.551 200.264 172.035 200.355 171.544 200.535C171.054 200.708 170.619 200.974 170.24 201.336C169.862 201.689 169.565 202.132 169.349 202.666C169.134 203.199 169.027 203.819 169.027 204.525V212H165.98V197.708H168.355L168.768 200.226H168.91C169.195 199.718 169.547 199.253 169.969 198.831C170.391 198.41 170.873 198.074 171.415 197.824C171.966 197.566 172.568 197.437 173.223 197.437ZM183.086 197.437C184.36 197.437 185.453 197.699 186.365 198.225C187.278 198.75 187.979 199.494 188.47 200.458C188.96 201.422 189.206 202.575 189.206 203.918V205.545H179.665C179.699 206.93 180.069 207.998 180.775 208.747C181.49 209.495 182.488 209.87 183.77 209.87C184.683 209.87 185.5 209.784 186.223 209.612C186.955 209.431 187.708 209.168 188.483 208.824V211.29C187.768 211.626 187.041 211.871 186.301 212.026C185.561 212.181 184.674 212.258 183.641 212.258C182.238 212.258 181.003 211.987 179.936 211.445C178.877 210.894 178.047 210.076 177.444 208.992C176.85 207.907 176.553 206.56 176.553 204.951C176.553 203.35 176.825 201.99 177.367 200.871C177.909 199.752 178.671 198.9 179.652 198.315C180.633 197.73 181.778 197.437 183.086 197.437ZM183.086 199.722C182.131 199.722 181.356 200.032 180.762 200.652C180.177 201.271 179.833 202.179 179.729 203.376H186.236C186.228 202.661 186.107 202.029 185.875 201.478C185.651 200.927 185.307 200.497 184.842 200.187C184.386 199.877 183.801 199.722 183.086 199.722ZM202.232 207.92C202.232 208.858 202.004 209.65 201.548 210.296C201.092 210.941 200.425 211.432 199.547 211.768C198.678 212.095 197.61 212.258 196.345 212.258C195.347 212.258 194.486 212.185 193.763 212.039C193.049 211.901 192.373 211.686 191.736 211.393V208.772C192.416 209.091 193.178 209.366 194.021 209.599C194.873 209.831 195.678 209.947 196.436 209.947C197.434 209.947 198.153 209.792 198.592 209.482C199.031 209.164 199.25 208.742 199.25 208.217C199.25 207.907 199.16 207.632 198.979 207.391C198.807 207.141 198.48 206.887 197.998 206.629C197.524 206.362 196.827 206.044 195.906 205.674C195.003 205.312 194.241 204.951 193.621 204.589C193.001 204.228 192.532 203.793 192.214 203.285C191.895 202.769 191.736 202.111 191.736 201.31C191.736 200.045 192.235 199.085 193.234 198.431C194.241 197.768 195.571 197.437 197.223 197.437C198.101 197.437 198.927 197.527 199.702 197.708C200.485 197.88 201.251 198.134 202 198.47L201.045 200.755C200.399 200.471 199.749 200.239 199.095 200.058C198.45 199.868 197.791 199.774 197.12 199.774C196.337 199.774 195.738 199.894 195.325 200.135C194.921 200.376 194.719 200.721 194.719 201.168C194.719 201.504 194.818 201.788 195.015 202.02C195.213 202.253 195.553 202.485 196.035 202.717C196.526 202.95 197.206 203.238 198.075 203.582C198.927 203.909 199.663 204.254 200.283 204.615C200.911 204.968 201.393 205.403 201.729 205.919C202.065 206.436 202.232 207.103 202.232 207.92ZM217.97 197.708V212H215.582L215.169 210.076H215.001C214.7 210.567 214.317 210.976 213.852 211.303C213.387 211.621 212.871 211.858 212.303 212.013C211.735 212.176 211.136 212.258 210.508 212.258C209.432 212.258 208.511 212.077 207.745 211.716C206.988 211.346 206.407 210.778 206.002 210.012C205.598 209.246 205.396 208.256 205.396 207.042V197.708H208.442V206.474C208.442 207.585 208.666 208.415 209.114 208.966C209.57 209.517 210.276 209.792 211.231 209.792C212.152 209.792 212.884 209.603 213.426 209.224C213.968 208.846 214.351 208.286 214.575 207.546C214.807 206.806 214.923 205.898 214.923 204.822V197.708H217.97ZM225.368 212H222.321V191.911H225.368V212ZM235.025 209.805C235.421 209.805 235.813 209.771 236.2 209.702C236.587 209.624 236.94 209.534 237.259 209.431V211.729C236.923 211.875 236.488 212 235.955 212.103C235.421 212.207 234.866 212.258 234.289 212.258C233.48 212.258 232.753 212.125 232.107 211.858C231.462 211.583 230.95 211.113 230.571 210.451C230.192 209.788 230.003 208.871 230.003 207.701V200.019H228.053V198.663L230.145 197.592L231.139 194.532H233.05V197.708H237.142V200.019H233.05V207.662C233.05 208.385 233.231 208.923 233.592 209.276C233.954 209.629 234.431 209.805 235.025 209.805Z" fill="#555555"/>
<path d="M8.96094 260L7.53906 256.367H2.96094L1.55469 260H0.210938L4.72656 248.531H5.84375L10.3359 260H8.96094ZM7.125 255.172L5.79688 251.633C5.625 251.185 5.44792 250.635 5.26562 249.984C5.15104 250.484 4.98698 251.034 4.77344 251.633L3.42969 255.172H7.125ZM15.6172 251.281C15.9974 251.281 16.3385 251.312 16.6406 251.375L16.4609 252.578C16.1068 252.5 15.7943 252.461 15.5234 252.461C14.8307 252.461 14.237 252.742 13.7422 253.305C13.2526 253.867 13.0078 254.568 13.0078 255.406V260H11.7109V251.438H12.7812L12.9297 253.023H12.9922C13.3099 252.466 13.6927 252.036 14.1406 251.734C14.5885 251.432 15.0807 251.281 15.6172 251.281ZM21.8594 260.156C20.5938 260.156 19.5938 259.771 18.8594 259C18.1302 258.229 17.7656 257.159 17.7656 255.789C17.7656 254.409 18.1042 253.312 18.7812 252.5C19.4635 251.688 20.3776 251.281 21.5234 251.281C22.5964 251.281 23.4453 251.635 24.0703 252.344C24.6953 253.047 25.0078 253.977 25.0078 255.133V255.953H19.1094C19.1354 256.958 19.388 257.721 19.8672 258.242C20.3516 258.763 21.0312 259.023 21.9062 259.023C22.8281 259.023 23.7396 258.831 24.6406 258.445V259.602C24.1823 259.799 23.7474 259.94 23.3359 260.023C22.9297 260.112 22.4375 260.156 21.8594 260.156ZM21.5078 252.367C20.8203 252.367 20.2708 252.591 19.8594 253.039C19.4531 253.487 19.2135 254.107 19.1406 254.898H23.6172C23.6172 254.081 23.4349 253.456 23.0703 253.023C22.7057 252.586 22.1849 252.367 21.5078 252.367ZM30.0234 251.438H31.4141L33.2891 256.32C33.7005 257.435 33.9557 258.24 34.0547 258.734H34.1172C34.1849 258.469 34.3255 258.016 34.5391 257.375C34.7578 256.729 35.4661 254.75 36.6641 251.438H38.0547L34.375 261.188C34.0104 262.151 33.5833 262.833 33.0938 263.234C32.6094 263.641 32.013 263.844 31.3047 263.844C30.9089 263.844 30.5182 263.799 30.1328 263.711V262.672C30.4193 262.734 30.7396 262.766 31.0938 262.766C31.9844 262.766 32.6198 262.266 33 261.266L33.4766 260.047L30.0234 251.438ZM46.8359 255.711C46.8359 257.107 46.4844 258.198 45.7812 258.984C45.0781 259.766 44.1068 260.156 42.8672 260.156C42.1016 260.156 41.4219 259.977 40.8281 259.617C40.2344 259.258 39.776 258.742 39.4531 258.07C39.1302 257.398 38.9688 256.612 38.9688 255.711C38.9688 254.315 39.3177 253.229 40.0156 252.453C40.7135 251.672 41.6823 251.281 42.9219 251.281C44.1198 251.281 45.0703 251.68 45.7734 252.477C46.4818 253.273 46.8359 254.352 46.8359 255.711ZM40.3125 255.711C40.3125 256.805 40.5312 257.638 40.9688 258.211C41.4062 258.784 42.0495 259.07 42.8984 259.07C43.7474 259.07 44.3906 258.786 44.8281 258.219C45.2708 257.646 45.4922 256.81 45.4922 255.711C45.4922 254.622 45.2708 253.797 44.8281 253.234C44.3906 252.667 43.7422 252.383 42.8828 252.383C42.0339 252.383 41.3932 252.661 40.9609 253.219C40.5286 253.776 40.3125 254.607 40.3125 255.711ZM50.3359 251.438V256.992C50.3359 257.69 50.4948 258.211 50.8125 258.555C51.1302 258.898 51.6276 259.07 52.3047 259.07C53.2005 259.07 53.8542 258.826 54.2656 258.336C54.6823 257.846 54.8906 257.047 54.8906 255.938V251.438H56.1875V260H55.1172L54.9297 258.852H54.8594C54.5938 259.273 54.224 259.596 53.75 259.82C53.2812 260.044 52.7448 260.156 52.1406 260.156C51.099 260.156 50.3177 259.909 49.7969 259.414C49.2812 258.919 49.0234 258.128 49.0234 257.039V251.438H50.3359ZM68.625 257.664C68.625 258.461 68.3281 259.076 67.7344 259.508C67.1406 259.94 66.3073 260.156 65.2344 260.156C64.099 260.156 63.2135 259.977 62.5781 259.617V258.414C62.9896 258.622 63.4297 258.786 63.8984 258.906C64.3724 259.026 64.8281 259.086 65.2656 259.086C65.9427 259.086 66.4635 258.979 66.8281 258.766C67.1927 258.547 67.375 258.216 67.375 257.773C67.375 257.44 67.2292 257.156 66.9375 256.922C66.651 256.682 66.0885 256.401 65.25 256.078C64.4531 255.781 63.8854 255.523 63.5469 255.305C63.2135 255.081 62.9635 254.828 62.7969 254.547C62.6354 254.266 62.5547 253.93 62.5547 253.539C62.5547 252.841 62.8385 252.292 63.4062 251.891C63.974 251.484 64.7526 251.281 65.7422 251.281C66.6641 251.281 67.5651 251.469 68.4453 251.844L67.9844 252.898C67.125 252.544 66.3464 252.367 65.6484 252.367C65.0339 252.367 64.5703 252.464 64.2578 252.656C63.9453 252.849 63.7891 253.115 63.7891 253.453C63.7891 253.682 63.8464 253.878 63.9609 254.039C64.0807 254.201 64.2708 254.354 64.5312 254.5C64.7917 254.646 65.2917 254.857 66.0312 255.133C67.0469 255.503 67.7318 255.875 68.0859 256.25C68.4453 256.625 68.625 257.096 68.625 257.664ZM71.9609 251.438V256.992C71.9609 257.69 72.1198 258.211 72.4375 258.555C72.7552 258.898 73.2526 259.07 73.9297 259.07C74.8255 259.07 75.4792 258.826 75.8906 258.336C76.3073 257.846 76.5156 257.047 76.5156 255.938V251.438H77.8125V260H76.7422L76.5547 258.852H76.4844C76.2188 259.273 75.849 259.596 75.375 259.82C74.9062 260.044 74.3698 260.156 73.7656 260.156C72.724 260.156 71.9427 259.909 71.4219 259.414C70.9062 258.919 70.6484 258.128 70.6484 257.039V251.438H71.9609ZM84.4766 251.281C84.8568 251.281 85.1979 251.312 85.5 251.375L85.3203 252.578C84.9661 252.5 84.6536 252.461 84.3828 252.461C83.6901 252.461 83.0964 252.742 82.6016 253.305C82.112 253.867 81.8672 254.568 81.8672 255.406V260H80.5703V251.438H81.6406L81.7891 253.023H81.8516C82.1693 252.466 82.5521 252.036 83 251.734C83.4479 251.432 83.9401 251.281 84.4766 251.281ZM90.7188 260.156C89.4531 260.156 88.4531 259.771 87.7188 259C86.9896 258.229 86.625 257.159 86.625 255.789C86.625 254.409 86.9635 253.312 87.6406 252.5C88.3229 251.688 89.237 251.281 90.3828 251.281C91.4557 251.281 92.3047 251.635 92.9297 252.344C93.5547 253.047 93.8672 253.977 93.8672 255.133V255.953H87.9688C87.9948 256.958 88.2474 257.721 88.7266 258.242C89.2109 258.763 89.8906 259.023 90.7656 259.023C91.6875 259.023 92.599 258.831 93.5 258.445V259.602C93.0417 259.799 92.6068 259.94 92.1953 260.023C91.7891 260.112 91.2969 260.156 90.7188 260.156ZM90.3672 252.367C89.6797 252.367 89.1302 252.591 88.7188 253.039C88.3125 253.487 88.0729 254.107 88 254.898H92.4766C92.4766 254.081 92.2943 253.456 91.9297 253.023C91.5651 252.586 91.0443 252.367 90.3672 252.367ZM98.8828 251.438H100.273L102.148 256.32C102.56 257.435 102.815 258.24 102.914 258.734H102.977C103.044 258.469 103.185 258.016 103.398 257.375C103.617 256.729 104.326 254.75 105.523 251.438H106.914L103.234 261.188C102.87 262.151 102.443 262.833 101.953 263.234C101.469 263.641 100.872 263.844 100.164 263.844C99.7682 263.844 99.3776 263.799 98.9922 263.711V262.672C99.2786 262.734 99.599 262.766 99.9531 262.766C100.844 262.766 101.479 262.266 101.859 261.266L102.336 260.047L98.8828 251.438ZM115.695 255.711C115.695 257.107 115.344 258.198 114.641 258.984C113.938 259.766 112.966 260.156 111.727 260.156C110.961 260.156 110.281 259.977 109.688 259.617C109.094 259.258 108.635 258.742 108.312 258.07C107.99 257.398 107.828 256.612 107.828 255.711C107.828 254.315 108.177 253.229 108.875 252.453C109.573 251.672 110.542 251.281 111.781 251.281C112.979 251.281 113.93 251.68 114.633 252.477C115.341 253.273 115.695 254.352 115.695 255.711ZM109.172 255.711C109.172 256.805 109.391 257.638 109.828 258.211C110.266 258.784 110.909 259.07 111.758 259.07C112.607 259.07 113.25 258.786 113.688 258.219C114.13 257.646 114.352 256.81 114.352 255.711C114.352 254.622 114.13 253.797 113.688 253.234C113.25 252.667 112.602 252.383 111.742 252.383C110.893 252.383 110.253 252.661 109.82 253.219C109.388 253.776 109.172 254.607 109.172 255.711ZM119.195 251.438V256.992C119.195 257.69 119.354 258.211 119.672 258.555C119.99 258.898 120.487 259.07 121.164 259.07C122.06 259.07 122.714 258.826 123.125 258.336C123.542 257.846 123.75 257.047 123.75 255.938V251.438H125.047V260H123.977L123.789 258.852H123.719C123.453 259.273 123.083 259.596 122.609 259.82C122.141 260.044 121.604 260.156 121 260.156C119.958 260.156 119.177 259.909 118.656 259.414C118.141 258.919 117.883 258.128 117.883 257.039V251.438H119.195ZM138.953 260L137.383 254.977C137.284 254.669 137.099 253.971 136.828 252.883H136.766C136.557 253.794 136.375 254.497 136.219 254.992L134.602 260H133.102L130.766 251.438H132.125C132.677 253.589 133.096 255.227 133.383 256.352C133.674 257.477 133.841 258.234 133.883 258.625H133.945C134.003 258.328 134.094 257.945 134.219 257.477C134.349 257.003 134.461 256.628 134.555 256.352L136.125 251.438H137.531L139.062 256.352C139.354 257.247 139.552 258 139.656 258.609H139.719C139.74 258.422 139.794 258.133 139.883 257.742C139.977 257.352 140.521 255.25 141.516 251.438H142.859L140.492 260H138.953ZM149.68 260L149.422 258.781H149.359C148.932 259.318 148.505 259.682 148.078 259.875C147.656 260.062 147.128 260.156 146.492 260.156C145.643 260.156 144.977 259.938 144.492 259.5C144.013 259.062 143.773 258.44 143.773 257.633C143.773 255.904 145.156 254.997 147.922 254.914L149.375 254.867V254.336C149.375 253.664 149.229 253.169 148.938 252.852C148.651 252.529 148.19 252.367 147.555 252.367C146.841 252.367 146.034 252.586 145.133 253.023L144.734 252.031C145.156 251.802 145.617 251.622 146.117 251.492C146.622 251.362 147.128 251.297 147.633 251.297C148.654 251.297 149.409 251.523 149.898 251.977C150.393 252.43 150.641 253.156 150.641 254.156V260H149.68ZM146.75 259.086C147.557 259.086 148.19 258.865 148.648 258.422C149.112 257.979 149.344 257.359 149.344 256.562V255.789L148.047 255.844C147.016 255.88 146.271 256.042 145.812 256.328C145.359 256.609 145.133 257.049 145.133 257.648C145.133 258.117 145.273 258.474 145.555 258.719C145.841 258.964 146.24 259.086 146.75 259.086ZM159.18 260V254.461C159.18 253.763 159.021 253.242 158.703 252.898C158.385 252.555 157.888 252.383 157.211 252.383C156.315 252.383 155.659 252.625 155.242 253.109C154.826 253.594 154.617 254.393 154.617 255.508V260H153.32V251.438H154.375L154.586 252.609H154.648C154.914 252.188 155.286 251.862 155.766 251.633C156.245 251.398 156.779 251.281 157.367 251.281C158.398 251.281 159.174 251.531 159.695 252.031C160.216 252.526 160.477 253.32 160.477 254.414V260H159.18ZM165.914 259.086C166.143 259.086 166.365 259.07 166.578 259.039C166.792 259.003 166.961 258.966 167.086 258.93V259.922C166.945 259.99 166.737 260.044 166.461 260.086C166.19 260.133 165.945 260.156 165.727 260.156C164.07 260.156 163.242 259.284 163.242 257.539V252.445H162.016V251.82L163.242 251.281L163.789 249.453H164.539V251.438H167.023V252.445H164.539V257.484C164.539 258 164.661 258.396 164.906 258.672C165.151 258.948 165.487 259.086 165.914 259.086ZM175.727 259.086C175.956 259.086 176.177 259.07 176.391 259.039C176.604 259.003 176.773 258.966 176.898 258.93V259.922C176.758 259.99 176.549 260.044 176.273 260.086C176.003 260.133 175.758 260.156 175.539 260.156C173.883 260.156 173.055 259.284 173.055 257.539V252.445H171.828V251.82L173.055 251.281L173.602 249.453H174.352V251.438H176.836V252.445H174.352V257.484C174.352 258 174.474 258.396 174.719 258.672C174.964 258.948 175.299 259.086 175.727 259.086ZM186.008 255.711C186.008 257.107 185.656 258.198 184.953 258.984C184.25 259.766 183.279 260.156 182.039 260.156C181.273 260.156 180.594 259.977 180 259.617C179.406 259.258 178.948 258.742 178.625 258.07C178.302 257.398 178.141 256.612 178.141 255.711C178.141 254.315 178.49 253.229 179.188 252.453C179.885 251.672 180.854 251.281 182.094 251.281C183.292 251.281 184.242 251.68 184.945 252.477C185.654 253.273 186.008 254.352 186.008 255.711ZM179.484 255.711C179.484 256.805 179.703 257.638 180.141 258.211C180.578 258.784 181.221 259.07 182.07 259.07C182.919 259.07 183.562 258.786 184 258.219C184.443 257.646 184.664 256.81 184.664 255.711C184.664 254.622 184.443 253.797 184 253.234C183.562 252.667 182.914 252.383 182.055 252.383C181.206 252.383 180.565 252.661 180.133 253.219C179.701 253.776 179.484 254.607 179.484 255.711ZM198.273 258.852H198.203C197.604 259.721 196.708 260.156 195.516 260.156C194.396 260.156 193.523 259.773 192.898 259.008C192.279 258.242 191.969 257.154 191.969 255.742C191.969 254.331 192.281 253.234 192.906 252.453C193.531 251.672 194.401 251.281 195.516 251.281C196.677 251.281 197.568 251.703 198.188 252.547H198.289L198.234 251.93L198.203 251.328V247.844H199.5V260H198.445L198.273 258.852ZM195.68 259.07C196.565 259.07 197.206 258.831 197.602 258.352C198.003 257.867 198.203 257.089 198.203 256.016V255.742C198.203 254.529 198 253.664 197.594 253.148C197.193 252.628 196.549 252.367 195.664 252.367C194.904 252.367 194.32 252.664 193.914 253.258C193.513 253.846 193.312 254.68 193.312 255.758C193.312 256.852 193.513 257.677 193.914 258.234C194.315 258.792 194.904 259.07 195.68 259.07ZM205.875 260.156C204.609 260.156 203.609 259.771 202.875 259C202.146 258.229 201.781 257.159 201.781 255.789C201.781 254.409 202.12 253.312 202.797 252.5C203.479 251.688 204.393 251.281 205.539 251.281C206.612 251.281 207.461 251.635 208.086 252.344C208.711 253.047 209.023 253.977 209.023 255.133V255.953H203.125C203.151 256.958 203.404 257.721 203.883 258.242C204.367 258.763 205.047 259.023 205.922 259.023C206.844 259.023 207.755 258.831 208.656 258.445V259.602C208.198 259.799 207.763 259.94 207.352 260.023C206.945 260.112 206.453 260.156 205.875 260.156ZM205.523 252.367C204.836 252.367 204.286 252.591 203.875 253.039C203.469 253.487 203.229 254.107 203.156 254.898H207.633C207.633 254.081 207.451 253.456 207.086 253.023C206.721 252.586 206.201 252.367 205.523 252.367ZM212.539 260H211.242V247.844H212.539V260ZM218.906 260.156C217.641 260.156 216.641 259.771 215.906 259C215.177 258.229 214.812 257.159 214.812 255.789C214.812 254.409 215.151 253.312 215.828 252.5C216.51 251.688 217.424 251.281 218.57 251.281C219.643 251.281 220.492 251.635 221.117 252.344C221.742 253.047 222.055 253.977 222.055 255.133V255.953H216.156C216.182 256.958 216.435 257.721 216.914 258.242C217.398 258.763 218.078 259.023 218.953 259.023C219.875 259.023 220.786 258.831 221.688 258.445V259.602C221.229 259.799 220.794 259.94 220.383 260.023C219.977 260.112 219.484 260.156 218.906 260.156ZM218.555 252.367C217.867 252.367 217.318 252.591 216.906 253.039C216.5 253.487 216.26 254.107 216.188 254.898H220.664C220.664 254.081 220.482 253.456 220.117 253.023C219.753 252.586 219.232 252.367 218.555 252.367ZM227.039 259.086C227.268 259.086 227.49 259.07 227.703 259.039C227.917 259.003 228.086 258.966 228.211 258.93V259.922C228.07 259.99 227.862 260.044 227.586 260.086C227.315 260.133 227.07 260.156 226.852 260.156C225.195 260.156 224.367 259.284 224.367 257.539V252.445H223.141V251.82L224.367 251.281L224.914 249.453H225.664V251.438H228.148V252.445H225.664V257.484C225.664 258 225.786 258.396 226.031 258.672C226.276 258.948 226.612 259.086 227.039 259.086ZM233.547 260.156C232.281 260.156 231.281 259.771 230.547 259C229.818 258.229 229.453 257.159 229.453 255.789C229.453 254.409 229.792 253.312 230.469 252.5C231.151 251.688 232.065 251.281 233.211 251.281C234.284 251.281 235.133 251.635 235.758 252.344C236.383 253.047 236.695 253.977 236.695 255.133V255.953H230.797C230.823 256.958 231.076 257.721 231.555 258.242C232.039 258.763 232.719 259.023 233.594 259.023C234.516 259.023 235.427 258.831 236.328 258.445V259.602C235.87 259.799 235.435 259.94 235.023 260.023C234.617 260.112 234.125 260.156 233.547 260.156ZM233.195 252.367C232.508 252.367 231.958 252.591 231.547 253.039C231.141 253.487 230.901 254.107 230.828 254.898H235.305C235.305 254.081 235.122 253.456 234.758 253.023C234.393 252.586 233.872 252.367 233.195 252.367ZM245.836 259.086C246.065 259.086 246.286 259.07 246.5 259.039C246.714 259.003 246.883 258.966 247.008 258.93V259.922C246.867 259.99 246.659 260.044 246.383 260.086C246.112 260.133 245.867 260.156 245.648 260.156C243.992 260.156 243.164 259.284 243.164 257.539V252.445H241.938V251.82L243.164 251.281L243.711 249.453H244.461V251.438H246.945V252.445H244.461V257.484C244.461 258 244.583 258.396 244.828 258.672C245.073 258.948 245.409 259.086 245.836 259.086ZM254.586 260V254.461C254.586 253.763 254.427 253.242 254.109 252.898C253.792 252.555 253.294 252.383 252.617 252.383C251.716 252.383 251.057 252.628 250.641 253.117C250.229 253.607 250.023 254.409 250.023 255.523V260H248.727V247.844H250.023V251.523C250.023 251.966 250.003 252.333 249.961 252.625H250.039C250.294 252.214 250.656 251.891 251.125 251.656C251.599 251.417 252.138 251.297 252.742 251.297C253.789 251.297 254.573 251.547 255.094 252.047C255.62 252.542 255.883 253.331 255.883 254.414V260H254.586ZM262.172 260.156C260.906 260.156 259.906 259.771 259.172 259C258.443 258.229 258.078 257.159 258.078 255.789C258.078 254.409 258.417 253.312 259.094 252.5C259.776 251.688 260.69 251.281 261.836 251.281C262.909 251.281 263.758 251.635 264.383 252.344C265.008 253.047 265.32 253.977 265.32 255.133V255.953H259.422C259.448 256.958 259.701 257.721 260.18 258.242C260.664 258.763 261.344 259.023 262.219 259.023C263.141 259.023 264.052 258.831 264.953 258.445V259.602C264.495 259.799 264.06 259.94 263.648 260.023C263.242 260.112 262.75 260.156 262.172 260.156ZM261.82 252.367C261.133 252.367 260.583 252.591 260.172 253.039C259.766 253.487 259.526 254.107 259.453 254.898H263.93C263.93 254.081 263.747 253.456 263.383 253.023C263.018 252.586 262.497 252.367 261.82 252.367ZM275.312 260.156C274.047 260.156 273.047 259.771 272.312 259C271.583 258.229 271.219 257.159 271.219 255.789C271.219 254.409 271.557 253.312 272.234 252.5C272.917 251.688 273.831 251.281 274.977 251.281C276.049 251.281 276.898 251.635 277.523 252.344C278.148 253.047 278.461 253.977 278.461 255.133V255.953H272.562C272.589 256.958 272.841 257.721 273.32 258.242C273.805 258.763 274.484 259.023 275.359 259.023C276.281 259.023 277.193 258.831 278.094 258.445V259.602C277.635 259.799 277.201 259.94 276.789 260.023C276.383 260.112 275.891 260.156 275.312 260.156ZM274.961 252.367C274.273 252.367 273.724 252.591 273.312 253.039C272.906 253.487 272.667 254.107 272.594 254.898H277.07C277.07 254.081 276.888 253.456 276.523 253.023C276.159 252.586 275.638 252.367 274.961 252.367ZM282.555 260L279.305 251.438H280.695L282.539 256.516C282.956 257.703 283.201 258.474 283.273 258.828H283.336C283.393 258.552 283.573 257.982 283.875 257.117C284.182 256.247 284.867 254.354 285.93 251.438H287.32L284.07 260H282.555ZM292.312 260.156C291.047 260.156 290.047 259.771 289.312 259C288.583 258.229 288.219 257.159 288.219 255.789C288.219 254.409 288.557 253.312 289.234 252.5C289.917 251.688 290.831 251.281 291.977 251.281C293.049 251.281 293.898 251.635 294.523 252.344C295.148 253.047 295.461 253.977 295.461 255.133V255.953H289.562C289.589 256.958 289.841 257.721 290.32 258.242C290.805 258.763 291.484 259.023 292.359 259.023C293.281 259.023 294.193 258.831 295.094 258.445V259.602C294.635 259.799 294.201 259.94 293.789 260.023C293.383 260.112 292.891 260.156 292.312 260.156ZM291.961 252.367C291.273 252.367 290.724 252.591 290.312 253.039C289.906 253.487 289.667 254.107 289.594 254.898H294.07C294.07 254.081 293.888 253.456 293.523 253.023C293.159 252.586 292.638 252.367 291.961 252.367ZM303.539 260V254.461C303.539 253.763 303.38 253.242 303.062 252.898C302.745 252.555 302.247 252.383 301.57 252.383C300.674 252.383 300.018 252.625 299.602 253.109C299.185 253.594 298.977 254.393 298.977 255.508V260H297.68V251.438H298.734L298.945 252.609H299.008C299.273 252.188 299.646 251.862 300.125 251.633C300.604 251.398 301.138 251.281 301.727 251.281C302.758 251.281 303.534 251.531 304.055 252.031C304.576 252.526 304.836 253.32 304.836 254.414V260H303.539ZM310.273 259.086C310.503 259.086 310.724 259.07 310.938 259.039C311.151 259.003 311.32 258.966 311.445 258.93V259.922C311.305 259.99 311.096 260.044 310.82 260.086C310.549 260.133 310.305 260.156 310.086 260.156C308.43 260.156 307.602 259.284 307.602 257.539V252.445H306.375V251.82L307.602 251.281L308.148 249.453H308.898V251.438H311.383V252.445H308.898V257.484C308.898 258 309.021 258.396 309.266 258.672C309.51 258.948 309.846 259.086 310.273 259.086ZM123.133 286.086C123.362 286.086 123.583 286.07 123.797 286.039C124.01 286.003 124.18 285.966 124.305 285.93V286.922C124.164 286.99 123.956 287.044 123.68 287.086C123.409 287.133 123.164 287.156 122.945 287.156C121.289 287.156 120.461 286.284 120.461 284.539V279.445H119.234V278.82L120.461 278.281L121.008 276.453H121.758V278.438H124.242V279.445H121.758V284.484C121.758 285 121.88 285.396 122.125 285.672C122.37 285.948 122.706 286.086 123.133 286.086ZM131.883 287V281.461C131.883 280.763 131.724 280.242 131.406 279.898C131.089 279.555 130.591 279.383 129.914 279.383C129.013 279.383 128.354 279.628 127.938 280.117C127.526 280.607 127.32 281.409 127.32 282.523V287H126.023V274.844H127.32V278.523C127.32 278.966 127.299 279.333 127.258 279.625H127.336C127.591 279.214 127.953 278.891 128.422 278.656C128.896 278.417 129.435 278.297 130.039 278.297C131.086 278.297 131.87 278.547 132.391 279.047C132.917 279.542 133.18 280.331 133.18 281.414V287H131.883ZM137.148 287H135.852V278.438H137.148V287ZM135.742 276.117C135.742 275.82 135.815 275.604 135.961 275.469C136.107 275.328 136.289 275.258 136.508 275.258C136.716 275.258 136.896 275.328 137.047 275.469C137.198 275.609 137.273 275.826 137.273 276.117C137.273 276.409 137.198 276.628 137.047 276.773C136.896 276.914 136.716 276.984 136.508 276.984C136.289 276.984 136.107 276.914 135.961 276.773C135.815 276.628 135.742 276.409 135.742 276.117ZM145.422 284.664C145.422 285.461 145.125 286.076 144.531 286.508C143.938 286.94 143.104 287.156 142.031 287.156C140.896 287.156 140.01 286.977 139.375 286.617V285.414C139.786 285.622 140.227 285.786 140.695 285.906C141.169 286.026 141.625 286.086 142.062 286.086C142.74 286.086 143.26 285.979 143.625 285.766C143.99 285.547 144.172 285.216 144.172 284.773C144.172 284.44 144.026 284.156 143.734 283.922C143.448 283.682 142.885 283.401 142.047 283.078C141.25 282.781 140.682 282.523 140.344 282.305C140.01 282.081 139.76 281.828 139.594 281.547C139.432 281.266 139.352 280.93 139.352 280.539C139.352 279.841 139.635 279.292 140.203 278.891C140.771 278.484 141.549 278.281 142.539 278.281C143.461 278.281 144.362 278.469 145.242 278.844L144.781 279.898C143.922 279.544 143.143 279.367 142.445 279.367C141.831 279.367 141.367 279.464 141.055 279.656C140.742 279.849 140.586 280.115 140.586 280.453C140.586 280.682 140.643 280.878 140.758 281.039C140.878 281.201 141.068 281.354 141.328 281.5C141.589 281.646 142.089 281.857 142.828 282.133C143.844 282.503 144.529 282.875 144.883 283.25C145.242 283.625 145.422 284.096 145.422 284.664ZM155.602 278.281C155.982 278.281 156.323 278.312 156.625 278.375L156.445 279.578C156.091 279.5 155.779 279.461 155.508 279.461C154.815 279.461 154.221 279.742 153.727 280.305C153.237 280.867 152.992 281.568 152.992 282.406V287H151.695V278.438H152.766L152.914 280.023H152.977C153.294 279.466 153.677 279.036 154.125 278.734C154.573 278.432 155.065 278.281 155.602 278.281ZM161.844 287.156C160.578 287.156 159.578 286.771 158.844 286C158.115 285.229 157.75 284.159 157.75 282.789C157.75 281.409 158.089 280.312 158.766 279.5C159.448 278.688 160.362 278.281 161.508 278.281C162.581 278.281 163.43 278.635 164.055 279.344C164.68 280.047 164.992 280.977 164.992 282.133V282.953H159.094C159.12 283.958 159.372 284.721 159.852 285.242C160.336 285.763 161.016 286.023 161.891 286.023C162.812 286.023 163.724 285.831 164.625 285.445V286.602C164.167 286.799 163.732 286.94 163.32 287.023C162.914 287.112 162.422 287.156 161.844 287.156ZM161.492 279.367C160.805 279.367 160.255 279.591 159.844 280.039C159.438 280.487 159.198 281.107 159.125 281.898H163.602C163.602 281.081 163.419 280.456 163.055 280.023C162.69 279.586 162.169 279.367 161.492 279.367ZM172.734 284.664C172.734 285.461 172.438 286.076 171.844 286.508C171.25 286.94 170.417 287.156 169.344 287.156C168.208 287.156 167.323 286.977 166.688 286.617V285.414C167.099 285.622 167.539 285.786 168.008 285.906C168.482 286.026 168.938 286.086 169.375 286.086C170.052 286.086 170.573 285.979 170.938 285.766C171.302 285.547 171.484 285.216 171.484 284.773C171.484 284.44 171.339 284.156 171.047 283.922C170.76 283.682 170.198 283.401 169.359 283.078C168.562 282.781 167.995 282.523 167.656 282.305C167.323 282.081 167.073 281.828 166.906 281.547C166.745 281.266 166.664 280.93 166.664 280.539C166.664 279.841 166.948 279.292 167.516 278.891C168.083 278.484 168.862 278.281 169.852 278.281C170.773 278.281 171.674 278.469 172.555 278.844L172.094 279.898C171.234 279.544 170.456 279.367 169.758 279.367C169.143 279.367 168.68 279.464 168.367 279.656C168.055 279.849 167.898 280.115 167.898 280.453C167.898 280.682 167.956 280.878 168.07 281.039C168.19 281.201 168.38 281.354 168.641 281.5C168.901 281.646 169.401 281.857 170.141 282.133C171.156 282.503 171.841 282.875 172.195 283.25C172.555 283.625 172.734 284.096 172.734 284.664ZM176.07 278.438V283.992C176.07 284.69 176.229 285.211 176.547 285.555C176.865 285.898 177.362 286.07 178.039 286.07C178.935 286.07 179.589 285.826 180 285.336C180.417 284.846 180.625 284.047 180.625 282.938V278.438H181.922V287H180.852L180.664 285.852H180.594C180.328 286.273 179.958 286.596 179.484 286.82C179.016 287.044 178.479 287.156 177.875 287.156C176.833 287.156 176.052 286.909 175.531 286.414C175.016 285.919 174.758 285.128 174.758 284.039V278.438H176.07ZM185.977 287H184.68V274.844H185.977V287ZM191.492 286.086C191.721 286.086 191.943 286.07 192.156 286.039C192.37 286.003 192.539 285.966 192.664 285.93V286.922C192.523 286.99 192.315 287.044 192.039 287.086C191.768 287.133 191.523 287.156 191.305 287.156C189.648 287.156 188.82 286.284 188.82 284.539V279.445H187.594V278.82L188.82 278.281L189.367 276.453H190.117V278.438H192.602V279.445H190.117V284.484C190.117 285 190.24 285.396 190.484 285.672C190.729 285.948 191.065 286.086 191.492 286.086Z" fill="#555555"/>
<defs>
<clipPath id="clip0_1034_1533">
<rect width="60.4649" height="60.4649" fill="white" transform="translate(126 52)"/>
</clipPath>
</defs>
</svg>
