<svg width="368" height="92" viewBox="0 0 368 92" fill="none" xmlns="http://www.w3.org/2000/svg">
<path d="M46.6667 40.168H56.6667L46.6667 30.168V40.168ZM33.6458 27.668H48.2292L59.1667 38.668V60.668C59.1667 62.693 57.5344 64.3346 55.5208 64.3346H33.6458C31.6224 64.3346 30 62.6846 30 60.668V31.3346C30 29.3096 31.6323 27.668 33.6458 27.668ZM42.9179 46.8346C43.7101 48.5788 44.715 50.0129 45.8744 51.0013L46.6667 51.6215C44.9855 51.9315 42.6667 52.4742 40.2126 53.4238L40 53.5013L40.9662 51.4858C41.8357 49.7997 42.4734 48.2687 42.9179 46.8346ZM54.4762 53.9079C54.8028 53.5813 54.9662 53.1639 54.9843 52.7103C55.0387 52.3474 54.948 52.0026 54.7665 51.7123C54.2403 50.8595 52.8793 50.4603 50.6291 50.4603L48.2882 50.5873L46.7095 49.5349C45.5662 48.5913 44.5319 46.9401 43.806 44.8897L43.8786 44.6357C44.4774 42.2224 45.04 39.301 43.8423 38.1034C43.552 37.8131 43.1527 37.668 42.7354 37.668H42.2999C41.6284 37.668 41.0296 38.3756 40.8663 39.0651C40.1948 41.4784 40.5941 42.803 41.2655 44.9986V45.0168C40.8118 46.6135 40.2311 48.4643 39.3057 50.3333L37.5636 53.5994L35.9486 54.4885C33.771 55.8494 32.7366 57.3736 32.537 58.3353C32.4644 58.6801 32.5007 58.9885 32.6277 59.3151L32.6822 59.4059L33.5532 59.9684L34.3517 60.168C35.8215 60.168 37.491 58.4442 39.7412 54.5974L40.0678 54.4704C41.9369 53.8716 44.2597 53.4543 47.3809 53.1095C49.25 54.0349 51.4457 54.4522 52.8249 54.4522C53.6233 54.4522 54.1677 54.2526 54.4762 53.9079ZM53.9977 52.418L54.1667 52.6013C54.1479 52.768 54.0916 52.7846 53.9977 52.818H53.9227L53.5661 52.8513C52.7027 52.8513 51.3701 52.5346 50 52.0013C50.1689 51.8346 50.244 51.8346 50.4317 51.8346C53.0593 51.8346 53.8101 52.2513 53.9977 52.418ZM37.5 55.168C36.2179 57.1513 35.0542 58.2513 34.1667 58.5013C34.2653 57.868 35.1529 56.768 36.5533 55.6846L37.5 55.168ZM42.8108 42.668C42.4275 40.9399 42.4108 39.5382 42.6942 38.7317L42.8108 38.5013L43.0608 38.5973C43.3442 39.0581 43.3775 39.6726 43.2108 40.7094L43.1608 41.0167L42.8942 42.5912L42.8108 42.668Z" fill="#F44336"/>
<path d="M72.7148 40H70.8633V28.5781H77.3086V30.1562H72.7148V33.7266H77.0195V35.3125H72.7148V40ZM81.0195 40H79.1836V31.3594H81.0195V40ZM79.0742 29.0703C79.0742 28.7422 79.1628 28.4896 79.3398 28.3125C79.5221 28.1354 79.7799 28.0469 80.1133 28.0469C80.4362 28.0469 80.6862 28.1354 80.8633 28.3125C81.0456 28.4896 81.1367 28.7422 81.1367 29.0703C81.1367 29.3828 81.0456 29.6302 80.8633 29.8125C80.6862 29.9896 80.4362 30.0781 80.1133 30.0781C79.7799 30.0781 79.5221 29.9896 79.3398 29.8125C79.1628 29.6302 79.0742 29.3828 79.0742 29.0703ZM88.0352 31.2031C88.4049 31.2031 88.7096 31.2292 88.9492 31.2812L88.7695 32.9922C88.5091 32.9297 88.2383 32.8984 87.957 32.8984C87.2227 32.8984 86.6263 33.138 86.168 33.6172C85.7148 34.0964 85.4883 34.7188 85.4883 35.4844V40H83.6523V31.3594H85.0898L85.332 32.8828H85.4258C85.7122 32.3672 86.0846 31.9583 86.543 31.6562C87.0065 31.3542 87.5039 31.2031 88.0352 31.2031ZM96.3633 37.5391C96.3633 38.3828 96.056 39.0312 95.4414 39.4844C94.8268 39.9323 93.9466 40.1562 92.8008 40.1562C91.6497 40.1562 90.7253 39.9818 90.0273 39.6328V38.0469C91.043 38.5156 91.9883 38.75 92.8633 38.75C93.9935 38.75 94.5586 38.4089 94.5586 37.7266C94.5586 37.5078 94.4961 37.3255 94.3711 37.1797C94.2461 37.0339 94.0404 36.8828 93.7539 36.7266C93.4674 36.5703 93.069 36.3932 92.5586 36.1953C91.5638 35.8099 90.8893 35.4245 90.5352 35.0391C90.1862 34.6536 90.0117 34.1536 90.0117 33.5391C90.0117 32.7995 90.3086 32.2266 90.9023 31.8203C91.5013 31.4089 92.3138 31.2031 93.3398 31.2031C94.3555 31.2031 95.3164 31.4089 96.2227 31.8203L95.6289 33.2031C94.6966 32.8177 93.9128 32.625 93.2773 32.625C92.3086 32.625 91.8242 32.901 91.8242 33.4531C91.8242 33.724 91.9492 33.9531 92.1992 34.1406C92.4544 34.3281 93.0065 34.5859 93.8555 34.9141C94.569 35.1901 95.0872 35.4427 95.4102 35.6719C95.7331 35.901 95.9727 36.1667 96.1289 36.4688C96.2852 36.7656 96.3633 37.1224 96.3633 37.5391ZM101.574 38.6719C102.022 38.6719 102.47 38.6016 102.918 38.4609V39.8438C102.715 39.9323 102.452 40.0052 102.129 40.0625C101.811 40.125 101.48 40.1562 101.137 40.1562C99.3971 40.1562 98.5273 39.2396 98.5273 37.4062V32.75H97.3477V31.9375L98.6133 31.2656L99.2383 29.4375H100.371V31.3594H102.832V32.75H100.371V37.375C100.371 37.8177 100.48 38.1458 100.699 38.3594C100.923 38.5677 101.215 38.6719 101.574 38.6719ZM112.949 40H111.082V30.1797H107.723V28.5781H116.309V30.1797H112.949V40ZM121.645 40.1562C120.301 40.1562 119.249 39.7656 118.488 38.9844C117.733 38.1979 117.355 37.1172 117.355 35.7422C117.355 34.3307 117.707 33.2214 118.41 32.4141C119.113 31.6068 120.079 31.2031 121.309 31.2031C122.449 31.2031 123.35 31.5495 124.012 32.2422C124.673 32.9349 125.004 33.888 125.004 35.1016V36.0938H119.246C119.272 36.9323 119.499 37.5781 119.926 38.0312C120.353 38.4792 120.954 38.7031 121.73 38.7031C122.241 38.7031 122.715 38.6562 123.152 38.5625C123.595 38.4635 124.069 38.3021 124.574 38.0781V39.5703C124.126 39.7839 123.673 39.9349 123.215 40.0234C122.757 40.112 122.233 40.1562 121.645 40.1562ZM121.309 32.5938C120.725 32.5938 120.257 32.7786 119.902 33.1484C119.553 33.5182 119.345 34.0573 119.277 34.7656H123.199C123.189 34.0521 123.017 33.513 122.684 33.1484C122.35 32.7786 121.892 32.5938 121.309 32.5938ZM131.473 31.2031C131.842 31.2031 132.147 31.2292 132.387 31.2812L132.207 32.9922C131.947 32.9297 131.676 32.8984 131.395 32.8984C130.66 32.8984 130.064 33.138 129.605 33.6172C129.152 34.0964 128.926 34.7188 128.926 35.4844V40H127.09V31.3594H128.527L128.77 32.8828H128.863C129.15 32.3672 129.522 31.9583 129.98 31.6562C130.444 31.3542 130.941 31.2031 131.473 31.2031ZM141.277 40H139.434V34.6719C139.434 34.0104 139.309 33.5182 139.059 33.1953C138.809 32.8672 138.418 32.7031 137.887 32.7031C137.178 32.7031 136.658 32.9349 136.324 33.3984C135.996 33.8568 135.832 34.6224 135.832 35.6953V40H133.996V31.3594H135.434L135.691 32.4922H135.785C136.025 32.0807 136.371 31.763 136.824 31.5391C137.283 31.3151 137.785 31.2031 138.332 31.2031C139.66 31.2031 140.54 31.6562 140.973 32.5625H141.098C141.353 32.1354 141.712 31.8021 142.176 31.5625C142.639 31.3229 143.171 31.2031 143.77 31.2031C144.801 31.2031 145.551 31.4635 146.02 31.9844C146.493 32.5052 146.73 33.2995 146.73 34.3672V40H144.895V34.6719C144.895 34.0104 144.767 33.5182 144.512 33.1953C144.262 32.8672 143.871 32.7031 143.34 32.7031C142.626 32.7031 142.103 32.9271 141.77 33.375C141.441 33.8177 141.277 34.5 141.277 35.4219V40Z" fill="#3D4080"/>
<path d="M75.0068 55.9014C73.9085 55.9014 73.0404 56.2682 72.4023 57.002C71.7689 57.7311 71.4521 58.7314 71.4521 60.0029C71.4521 61.3109 71.7575 62.3226 72.3682 63.0381C72.9834 63.749 73.8584 64.1045 74.9932 64.1045C75.6904 64.1045 76.4857 63.9792 77.3789 63.7285V64.7471C76.6862 65.0068 75.8317 65.1367 74.8154 65.1367C73.3434 65.1367 72.2064 64.6901 71.4043 63.7969C70.6068 62.9036 70.208 61.6344 70.208 59.9893C70.208 58.9593 70.3994 58.057 70.7822 57.2822C71.1696 56.5075 71.7256 55.9105 72.4502 55.4912C73.1794 55.0719 74.0361 54.8623 75.0205 54.8623C76.0687 54.8623 76.9847 55.0537 77.7686 55.4365L77.2764 56.4346C76.5199 56.0791 75.7633 55.9014 75.0068 55.9014ZM80.5234 65H79.3887V54.3633H80.5234V65ZM87.5371 65L87.3115 63.9336H87.2568C86.8831 64.403 86.5094 64.722 86.1357 64.8906C85.7666 65.0547 85.304 65.1367 84.748 65.1367C84.0052 65.1367 83.4219 64.9453 82.998 64.5625C82.5788 64.1797 82.3691 63.6351 82.3691 62.9287C82.3691 61.4157 83.5791 60.6227 85.999 60.5498L87.2705 60.5088V60.0439C87.2705 59.4561 87.1429 59.0231 86.8877 58.7451C86.637 58.4626 86.2337 58.3213 85.6777 58.3213C85.0534 58.3213 84.347 58.5127 83.5586 58.8955L83.21 58.0273C83.5791 57.8268 83.9824 57.6696 84.4199 57.5557C84.862 57.4417 85.304 57.3848 85.7461 57.3848C86.6393 57.3848 87.3001 57.583 87.7285 57.9795C88.1615 58.376 88.3779 59.0117 88.3779 59.8867V65H87.5371ZM84.9736 64.2002C85.68 64.2002 86.2337 64.0065 86.6348 63.6191C87.0404 63.2318 87.2432 62.6895 87.2432 61.9922V61.3154L86.1084 61.3633C85.2061 61.3952 84.5544 61.5365 84.1533 61.7871C83.7568 62.0332 83.5586 62.4183 83.5586 62.9424C83.5586 63.3525 83.6816 63.6647 83.9277 63.8789C84.1784 64.0931 84.527 64.2002 84.9736 64.2002ZM95.5557 62.9561C95.5557 63.6533 95.2959 64.1911 94.7764 64.5693C94.2568 64.9476 93.5277 65.1367 92.5889 65.1367C91.5954 65.1367 90.8206 64.9795 90.2646 64.665V63.6123C90.6247 63.7946 91.0098 63.9382 91.4199 64.043C91.8346 64.1478 92.2334 64.2002 92.6162 64.2002C93.2087 64.2002 93.6644 64.1068 93.9834 63.9199C94.3024 63.7285 94.4619 63.4391 94.4619 63.0518C94.4619 62.7601 94.3343 62.5117 94.0791 62.3066C93.8285 62.097 93.3363 61.8509 92.6025 61.5684C91.9053 61.3086 91.4085 61.083 91.1123 60.8916C90.8206 60.6956 90.6019 60.4746 90.4561 60.2285C90.3148 59.9824 90.2441 59.6885 90.2441 59.3467C90.2441 58.736 90.4925 58.2552 90.9893 57.9043C91.486 57.5488 92.1673 57.3711 93.0332 57.3711C93.8398 57.3711 94.6283 57.5352 95.3984 57.8633L94.9951 58.7861C94.2432 58.4762 93.5618 58.3213 92.9512 58.3213C92.4134 58.3213 92.0078 58.4056 91.7344 58.5742C91.4609 58.7428 91.3242 58.9753 91.3242 59.2715C91.3242 59.472 91.3743 59.6429 91.4746 59.7842C91.5794 59.9255 91.7458 60.0599 91.9736 60.1875C92.2015 60.3151 92.639 60.4997 93.2861 60.7412C94.1748 61.0648 94.7741 61.3906 95.084 61.7188C95.3984 62.0469 95.5557 62.4593 95.5557 62.9561ZM102.241 62.9561C102.241 63.6533 101.981 64.1911 101.462 64.5693C100.942 64.9476 100.213 65.1367 99.2744 65.1367C98.2809 65.1367 97.5062 64.9795 96.9502 64.665V63.6123C97.3102 63.7946 97.6953 63.9382 98.1055 64.043C98.5202 64.1478 98.9189 64.2002 99.3018 64.2002C99.8942 64.2002 100.35 64.1068 100.669 63.9199C100.988 63.7285 101.147 63.4391 101.147 63.0518C101.147 62.7601 101.02 62.5117 100.765 62.3066C100.514 62.097 100.022 61.8509 99.2881 61.5684C98.5908 61.3086 98.0941 61.083 97.7979 60.8916C97.5062 60.6956 97.2874 60.4746 97.1416 60.2285C97.0003 59.9824 96.9297 59.6885 96.9297 59.3467C96.9297 58.736 97.1781 58.2552 97.6748 57.9043C98.1715 57.5488 98.8529 57.3711 99.7188 57.3711C100.525 57.3711 101.314 57.5352 102.084 57.8633L101.681 58.7861C100.929 58.4762 100.247 58.3213 99.6367 58.3213C99.099 58.3213 98.6934 58.4056 98.4199 58.5742C98.1465 58.7428 98.0098 58.9753 98.0098 59.2715C98.0098 59.472 98.0599 59.6429 98.1602 59.7842C98.265 59.9255 98.4313 60.0599 98.6592 60.1875C98.887 60.3151 99.3245 60.4997 99.9717 60.7412C100.86 61.0648 101.46 61.3906 101.77 61.7188C102.084 62.0469 102.241 62.4593 102.241 62.9561ZM110.978 65H109.815V56.0381H106.65V55.0059H114.143V56.0381H110.978V65ZM118.647 65.1367C117.54 65.1367 116.665 64.7995 116.022 64.125C115.384 63.4505 115.065 62.514 115.065 61.3154C115.065 60.1077 115.362 59.1484 115.954 58.4375C116.551 57.7266 117.351 57.3711 118.354 57.3711C119.292 57.3711 120.035 57.681 120.582 58.3008C121.129 58.916 121.402 59.7295 121.402 60.7412V61.459H116.241C116.264 62.3385 116.485 63.0062 116.904 63.4619C117.328 63.9176 117.923 64.1455 118.688 64.1455C119.495 64.1455 120.293 63.9769 121.081 63.6396V64.6514C120.68 64.8245 120.299 64.9476 119.939 65.0205C119.584 65.098 119.153 65.1367 118.647 65.1367ZM118.34 58.3213C117.738 58.3213 117.257 58.5173 116.897 58.9092C116.542 59.3011 116.332 59.8434 116.269 60.5361H120.186C120.186 59.8206 120.026 59.2738 119.707 58.8955C119.388 58.5127 118.932 58.3213 118.34 58.3213ZM127.951 65L127.726 63.9336H127.671C127.297 64.403 126.924 64.722 126.55 64.8906C126.181 65.0547 125.718 65.1367 125.162 65.1367C124.419 65.1367 123.836 64.9453 123.412 64.5625C122.993 64.1797 122.783 63.6351 122.783 62.9287C122.783 61.4157 123.993 60.6227 126.413 60.5498L127.685 60.5088V60.0439C127.685 59.4561 127.557 59.0231 127.302 58.7451C127.051 58.4626 126.648 58.3213 126.092 58.3213C125.467 58.3213 124.761 58.5127 123.973 58.8955L123.624 58.0273C123.993 57.8268 124.396 57.6696 124.834 57.5557C125.276 57.4417 125.718 57.3848 126.16 57.3848C127.053 57.3848 127.714 57.583 128.143 57.9795C128.576 58.376 128.792 59.0117 128.792 59.8867V65H127.951ZM125.388 64.2002C126.094 64.2002 126.648 64.0065 127.049 63.6191C127.454 63.2318 127.657 62.6895 127.657 61.9922V61.3154L126.522 61.3633C125.62 61.3952 124.968 61.5365 124.567 61.7871C124.171 62.0332 123.973 62.4183 123.973 62.9424C123.973 63.3525 124.096 63.6647 124.342 63.8789C124.592 64.0931 124.941 64.2002 125.388 64.2002ZM134.131 65.1367C133.046 65.1367 132.205 64.804 131.608 64.1387C131.016 63.4688 130.72 62.5231 130.72 61.3018C130.72 60.0485 131.021 59.0801 131.622 58.3965C132.228 57.7129 133.09 57.3711 134.206 57.3711C134.566 57.3711 134.926 57.4098 135.286 57.4873C135.646 57.5648 135.929 57.6559 136.134 57.7607L135.785 58.7246C135.535 58.6243 135.261 58.5423 134.965 58.4785C134.669 58.4102 134.407 58.376 134.179 58.376C132.657 58.376 131.896 59.3467 131.896 61.2881C131.896 62.2087 132.08 62.915 132.449 63.4072C132.823 63.8994 133.374 64.1455 134.104 64.1455C134.728 64.1455 135.368 64.0111 136.024 63.7422V64.7471C135.523 65.0068 134.892 65.1367 134.131 65.1367ZM142.936 65V60.1533C142.936 59.5426 142.797 59.0869 142.519 58.7861C142.241 58.4854 141.805 58.335 141.213 58.335C140.424 58.335 139.848 58.5492 139.483 58.9775C139.123 59.4059 138.943 60.1077 138.943 61.083V65H137.809V54.3633H138.943V57.583C138.943 57.9704 138.925 58.2917 138.889 58.5469H138.957C139.18 58.1868 139.497 57.9043 139.907 57.6992C140.322 57.4896 140.794 57.3848 141.322 57.3848C142.238 57.3848 142.924 57.6035 143.38 58.041C143.84 58.474 144.07 59.1644 144.07 60.1123V65H142.936ZM149.573 65.1367C148.466 65.1367 147.591 64.7995 146.948 64.125C146.31 63.4505 145.991 62.514 145.991 61.3154C145.991 60.1077 146.287 59.1484 146.88 58.4375C147.477 57.7266 148.277 57.3711 149.279 57.3711C150.218 57.3711 150.961 57.681 151.508 58.3008C152.055 58.916 152.328 59.7295 152.328 60.7412V61.459H147.167C147.19 62.3385 147.411 63.0062 147.83 63.4619C148.254 63.9176 148.849 64.1455 149.614 64.1455C150.421 64.1455 151.218 63.9769 152.007 63.6396V64.6514C151.606 64.8245 151.225 64.9476 150.865 65.0205C150.51 65.098 150.079 65.1367 149.573 65.1367ZM149.266 58.3213C148.664 58.3213 148.183 58.5173 147.823 58.9092C147.468 59.3011 147.258 59.8434 147.194 60.5361H151.111C151.111 59.8206 150.952 59.2738 150.633 58.8955C150.314 58.5127 149.858 58.3213 149.266 58.3213ZM157.688 57.3711C158.02 57.3711 158.319 57.3984 158.583 57.4531L158.426 58.5059C158.116 58.4375 157.842 58.4033 157.605 58.4033C156.999 58.4033 156.48 58.6494 156.047 59.1416C155.618 59.6338 155.404 60.2467 155.404 60.9805V65H154.27V57.5078H155.206L155.336 58.8955H155.391C155.669 58.4079 156.004 58.0319 156.396 57.7676C156.787 57.5033 157.218 57.3711 157.688 57.3711ZM159.82 64.2754C159.82 63.9701 159.889 63.7399 160.025 63.585C160.167 63.4255 160.367 63.3457 160.627 63.3457C160.891 63.3457 161.096 63.4255 161.242 63.585C161.393 63.7399 161.468 63.9701 161.468 64.2754C161.468 64.5716 161.393 64.7995 161.242 64.959C161.092 65.1185 160.887 65.1982 160.627 65.1982C160.395 65.1982 160.201 65.1276 160.046 64.9863C159.896 64.8405 159.82 64.6035 159.82 64.2754ZM159.82 58.2393C159.82 57.624 160.089 57.3164 160.627 57.3164C161.188 57.3164 161.468 57.624 161.468 58.2393C161.468 58.5355 161.393 58.7633 161.242 58.9229C161.092 59.0824 160.887 59.1621 160.627 59.1621C160.395 59.1621 160.201 59.0915 160.046 58.9502C159.896 58.8044 159.82 58.5674 159.82 58.2393ZM171.947 65L168.557 56.1406H168.502C168.566 56.8424 168.598 57.6764 168.598 58.6426V65H167.524V55.0059H169.274L172.439 63.25H172.494L175.687 55.0059H177.423V65H176.261V58.5605C176.261 57.8223 176.293 57.0202 176.356 56.1543H176.302L172.884 65H171.947ZM183.418 57.3711C183.751 57.3711 184.049 57.3984 184.313 57.4531L184.156 58.5059C183.846 58.4375 183.573 58.4033 183.336 58.4033C182.73 58.4033 182.21 58.6494 181.777 59.1416C181.349 59.6338 181.135 60.2467 181.135 60.9805V65H180V57.5078H180.937L181.066 58.8955H181.121C181.399 58.4079 181.734 58.0319 182.126 57.7676C182.518 57.5033 182.949 57.3711 183.418 57.3711ZM190.548 62.9561C190.548 63.6533 190.288 64.1911 189.769 64.5693C189.249 64.9476 188.52 65.1367 187.581 65.1367C186.588 65.1367 185.813 64.9795 185.257 64.665V63.6123C185.617 63.7946 186.002 63.9382 186.412 64.043C186.827 64.1478 187.226 64.2002 187.608 64.2002C188.201 64.2002 188.657 64.1068 188.976 63.9199C189.295 63.7285 189.454 63.4391 189.454 63.0518C189.454 62.7601 189.326 62.5117 189.071 62.3066C188.821 62.097 188.328 61.8509 187.595 61.5684C186.897 61.3086 186.401 61.083 186.104 60.8916C185.813 60.6956 185.594 60.4746 185.448 60.2285C185.307 59.9824 185.236 59.6885 185.236 59.3467C185.236 58.736 185.485 58.2552 185.981 57.9043C186.478 57.5488 187.16 57.3711 188.025 57.3711C188.832 57.3711 189.62 57.5352 190.391 57.8633L189.987 58.7861C189.235 58.4762 188.554 58.3213 187.943 58.3213C187.406 58.3213 187 58.4056 186.727 58.5742C186.453 58.7428 186.316 58.9753 186.316 59.2715C186.316 59.472 186.367 59.6429 186.467 59.7842C186.572 59.9255 186.738 60.0599 186.966 60.1875C187.194 60.3151 187.631 60.4997 188.278 60.7412C189.167 61.0648 189.766 61.3906 190.076 61.7188C190.391 62.0469 190.548 62.4593 190.548 62.9561ZM192.236 64.2754C192.236 63.9701 192.305 63.7399 192.441 63.585C192.583 63.4255 192.783 63.3457 193.043 63.3457C193.307 63.3457 193.512 63.4255 193.658 63.585C193.809 63.7399 193.884 63.9701 193.884 64.2754C193.884 64.5716 193.809 64.7995 193.658 64.959C193.508 65.1185 193.303 65.1982 193.043 65.1982C192.811 65.1982 192.617 65.1276 192.462 64.9863C192.312 64.8405 192.236 64.6035 192.236 64.2754ZM199.94 55.0059H202.764C204.09 55.0059 205.049 55.2041 205.642 55.6006C206.234 55.9971 206.53 56.6237 206.53 57.4805C206.53 58.0729 206.364 58.5628 206.031 58.9502C205.703 59.333 205.222 59.5814 204.589 59.6953V59.7637C206.106 60.0234 206.865 60.821 206.865 62.1562C206.865 63.0495 206.562 63.7467 205.956 64.248C205.354 64.7493 204.511 65 203.427 65H199.94V55.0059ZM201.103 59.2852H203.017C203.837 59.2852 204.427 59.1576 204.787 58.9023C205.147 58.6426 205.327 58.2074 205.327 57.5967C205.327 57.0361 205.127 56.6328 204.726 56.3867C204.325 56.1361 203.687 56.0107 202.812 56.0107H201.103V59.2852ZM201.103 60.2695V64.0088H203.188C203.994 64.0088 204.6 63.8538 205.006 63.5439C205.416 63.2295 205.621 62.7396 205.621 62.0742C205.621 61.4544 205.411 60.9987 204.992 60.707C204.577 60.4154 203.944 60.2695 203.092 60.2695H201.103ZM209.982 65H208.848V57.5078H209.982V65ZM208.752 55.4775C208.752 55.2178 208.816 55.0286 208.943 54.9102C209.071 54.7871 209.23 54.7256 209.422 54.7256C209.604 54.7256 209.761 54.7871 209.894 54.9102C210.026 55.0332 210.092 55.2223 210.092 55.4775C210.092 55.7327 210.026 55.9242 209.894 56.0518C209.761 56.1748 209.604 56.2363 209.422 56.2363C209.23 56.2363 209.071 56.1748 208.943 56.0518C208.816 55.9242 208.752 55.7327 208.752 55.4775ZM218.855 61.2471C218.855 62.4684 218.548 63.4232 217.933 64.1113C217.317 64.7949 216.467 65.1367 215.383 65.1367C214.713 65.1367 214.118 64.9795 213.599 64.665C213.079 64.3506 212.678 63.8994 212.396 63.3115C212.113 62.7236 211.972 62.0355 211.972 61.2471C211.972 60.0257 212.277 59.0755 212.888 58.3965C213.498 57.7129 214.346 57.3711 215.431 57.3711C216.479 57.3711 217.311 57.7197 217.926 58.417C218.546 59.1143 218.855 60.0576 218.855 61.2471ZM213.147 61.2471C213.147 62.2041 213.339 62.9333 213.722 63.4346C214.104 63.9359 214.667 64.1865 215.41 64.1865C216.153 64.1865 216.716 63.9382 217.099 63.4414C217.486 62.9401 217.68 62.2087 217.68 61.2471C217.68 60.2946 217.486 59.5723 217.099 59.0801C216.716 58.5833 216.148 58.335 215.396 58.335C214.654 58.335 214.093 58.5788 213.715 59.0664C213.337 59.554 213.147 60.2809 213.147 61.2471ZM224.338 57.3848C225.322 57.3848 226.086 57.722 226.628 58.3965C227.175 59.0664 227.448 60.0166 227.448 61.2471C227.448 62.4775 227.173 63.4346 226.621 64.1182C226.074 64.7972 225.313 65.1367 224.338 65.1367C223.85 65.1367 223.404 65.0479 222.998 64.8701C222.597 64.6878 222.26 64.4098 221.986 64.0361H221.904L221.665 65H220.852V54.3633H221.986V56.9473C221.986 57.526 221.968 58.0456 221.932 58.5059H221.986C222.515 57.7585 223.299 57.3848 224.338 57.3848ZM224.174 58.335C223.399 58.335 222.841 58.5583 222.499 59.0049C222.157 59.4469 221.986 60.1943 221.986 61.2471C221.986 62.2998 222.162 63.054 222.513 63.5098C222.864 63.9609 223.426 64.1865 224.201 64.1865C224.898 64.1865 225.418 63.9336 225.76 63.4277C226.102 62.9173 226.272 62.1859 226.272 61.2334C226.272 60.2581 226.102 59.5312 225.76 59.0527C225.418 58.5742 224.889 58.335 224.174 58.335ZM234.045 65L233.819 63.9336H233.765C233.391 64.403 233.017 64.722 232.644 64.8906C232.274 65.0547 231.812 65.1367 231.256 65.1367C230.513 65.1367 229.93 64.9453 229.506 64.5625C229.087 64.1797 228.877 63.6351 228.877 62.9287C228.877 61.4157 230.087 60.6227 232.507 60.5498L233.778 60.5088V60.0439C233.778 59.4561 233.651 59.0231 233.396 58.7451C233.145 58.4626 232.742 58.3213 232.186 58.3213C231.561 58.3213 230.855 58.5127 230.066 58.8955L229.718 58.0273C230.087 57.8268 230.49 57.6696 230.928 57.5557C231.37 57.4417 231.812 57.3848 232.254 57.3848C233.147 57.3848 233.808 57.583 234.236 57.9795C234.669 58.376 234.886 59.0117 234.886 59.8867V65H234.045ZM231.481 64.2002C232.188 64.2002 232.742 64.0065 233.143 63.6191C233.548 63.2318 233.751 62.6895 233.751 61.9922V61.3154L232.616 61.3633C231.714 61.3952 231.062 61.5365 230.661 61.7871C230.265 62.0332 230.066 62.4183 230.066 62.9424C230.066 63.3525 230.189 63.6647 230.436 63.8789C230.686 64.0931 231.035 64.2002 231.481 64.2002ZM238.352 61.165C238.548 60.887 238.846 60.5225 239.247 60.0713L241.667 57.5078H243.014L239.979 60.7002L243.226 65H241.852L239.206 61.459L238.352 62.1973V65H237.23V54.3633H238.352V60.0029C238.352 60.2536 238.333 60.641 238.297 61.165H238.352ZM245.652 57.5078V62.3682C245.652 62.9788 245.791 63.4346 246.069 63.7354C246.347 64.0361 246.783 64.1865 247.375 64.1865C248.159 64.1865 248.731 63.9723 249.091 63.5439C249.455 63.1156 249.638 62.416 249.638 61.4453V57.5078H250.772V65H249.836L249.672 63.9951H249.61C249.378 64.3643 249.054 64.6468 248.64 64.8428C248.229 65.0387 247.76 65.1367 247.231 65.1367C246.32 65.1367 245.636 64.9202 245.181 64.4873C244.729 64.0544 244.504 63.3617 244.504 62.4092V57.5078H245.652Z" fill="#555555"/>
<path d="M335.929 44.2406C335.698 44.2406 335.469 44.2862 335.255 44.3747C335.041 44.4631 334.847 44.5928 334.684 44.7564C334.52 44.9199 334.39 45.114 334.302 45.3276C334.214 45.5412 334.168 45.7702 334.168 46.0014C334.168 46.2327 334.214 46.4616 334.302 46.6753C334.39 46.8889 334.52 47.083 334.684 47.2465C334.847 47.41 335.041 47.5397 335.255 47.6282C335.469 47.7167 335.698 47.7622 335.929 47.7622C336.396 47.7621 336.844 47.5765 337.174 47.2462C337.504 46.9159 337.689 46.468 337.689 46.001C337.689 45.534 337.503 45.0862 337.173 44.7561C336.843 44.4259 336.395 44.2405 335.928 44.2406H335.929ZM335.929 42.1606C336.16 42.1605 336.389 42.1149 336.602 42.0263C336.816 41.9378 337.01 41.8081 337.173 41.6446C337.336 41.4811 337.466 41.287 337.554 41.0734C337.643 40.8598 337.688 40.631 337.688 40.3998C337.688 40.1687 337.642 39.9399 337.554 39.7264C337.465 39.5129 337.335 39.3189 337.172 39.1556C337.008 38.9922 336.814 38.8626 336.601 38.7743C336.387 38.6859 336.158 38.6405 335.927 38.6406C335.46 38.6408 335.013 38.8265 334.683 39.1567C334.353 39.4869 334.168 39.9346 334.168 40.4014C334.168 40.8682 334.354 41.3158 334.684 41.6457C335.014 41.9756 335.462 42.1608 335.929 42.1606ZM335.929 49.8406C335.462 49.8406 335.014 50.0261 334.684 50.3564C334.353 50.6866 334.168 51.1344 334.168 51.6014C334.168 52.0684 334.353 52.5163 334.684 52.8465C335.014 53.1767 335.462 53.3622 335.929 53.3622C336.396 53.3622 336.844 53.1767 337.174 52.8465C337.504 52.5163 337.69 52.0684 337.69 51.6014C337.69 51.1344 337.504 50.6866 337.174 50.3564C336.844 50.0261 336.396 49.8406 335.929 49.8406Z" fill="#CCCCCC"/>
<rect x="0.5" y="0.5" width="367" height="91" rx="9.5" stroke="#DADADA"/>
</svg>
