<svg width="368" height="92" viewBox="0 0 368 92" fill="none" xmlns="http://www.w3.org/2000/svg">
<g clip-path="url(#clip0_1028_435)">
<path d="M42.4987 40.166H52.4987L42.4987 30.166V40.166ZM29.4779 27.666H44.0612L54.9987 38.666V60.666C54.9987 62.691 53.3664 64.3327 51.3529 64.3327H29.4779C27.4544 64.3327 25.832 62.6827 25.832 60.666V31.3327C25.832 29.3076 27.4643 27.666 29.4779 27.666ZM38.7499 46.8327C39.5422 48.5769 40.547 50.011 41.7064 50.9993L42.4987 51.6195C40.8175 51.9296 38.4987 52.4722 36.0446 53.4218L35.832 53.4993L36.7982 51.4838C37.6678 49.7978 38.3055 48.2668 38.7499 46.8327ZM50.3082 53.9059C50.6349 53.5793 50.7982 53.162 50.8163 52.7083C50.8708 52.3454 50.78 52.0007 50.5986 51.7104C50.0723 50.8575 48.7113 50.4583 46.4612 50.4583L44.1203 50.5854L42.5415 49.5329C41.3983 48.5894 40.3639 46.9382 39.638 44.8878L39.7106 44.6338C40.3095 42.2204 40.872 39.2991 39.6743 38.1015C39.384 37.8112 38.9848 37.666 38.5674 37.666H38.1319C37.4605 37.666 36.8616 38.3737 36.6983 39.0632C36.0269 41.4765 36.4261 42.8011 37.0975 44.9967V45.0148C36.6439 46.6116 36.0632 48.4624 35.1377 50.3313L33.3956 53.5975L31.7806 54.4866C29.603 55.8475 28.5686 57.3717 28.369 58.3333C28.2964 58.6781 28.3327 58.9866 28.4598 59.3132L28.5142 59.4039L29.3852 59.9664L30.1837 60.166C31.6536 60.166 33.323 58.4422 35.5732 54.5954L35.8999 54.4684C37.769 53.8696 40.0917 53.4523 43.2129 53.1075C45.082 54.0329 47.2778 54.4503 48.6569 54.4503C49.4553 54.4503 49.9997 54.2507 50.3082 53.9059ZM49.8298 52.416L49.9987 52.5993C49.9799 52.766 49.9236 52.7827 49.8298 52.816H49.7547L49.3981 52.8493C48.5347 52.8493 47.2021 52.5327 45.832 51.9993C46.0009 51.8327 46.076 51.8327 46.2637 51.8327C48.8913 51.8327 49.6421 52.2493 49.8298 52.416ZM33.332 55.166C32.05 57.1493 30.8863 58.2493 29.9987 58.4993C30.0973 57.866 30.9849 56.766 32.3853 55.6827L33.332 55.166ZM38.6429 42.666C38.2595 40.9379 38.2429 39.5362 38.5262 38.7298L38.6429 38.4993L38.8929 38.5954C39.1762 39.0562 39.2095 39.6706 39.0429 40.7075L38.9929 41.0147L38.7262 42.5892L38.6429 42.666Z" fill="#F44336"/>
<path d="M75.8516 40H73.9844V30.1797H70.625V28.5781H79.2109V30.1797H75.8516V40ZM88.375 40H86.5312V34.6875C86.5312 34.0208 86.3958 33.5234 86.125 33.1953C85.8594 32.8672 85.4349 32.7031 84.8516 32.7031C84.0807 32.7031 83.513 32.9349 83.1484 33.3984C82.7891 33.8568 82.6094 34.6276 82.6094 35.7109V40H80.7734V27.8438H82.6094V30.9297C82.6094 31.4245 82.5781 31.9531 82.5156 32.5156H82.6328C82.8828 32.099 83.2292 31.776 83.6719 31.5469C84.1198 31.3177 84.6406 31.2031 85.2344 31.2031C87.3281 31.2031 88.375 32.2578 88.375 34.3672V40ZM92.7656 40H90.9297V31.3594H92.7656V40ZM90.8203 29.0703C90.8203 28.7422 90.9089 28.4896 91.0859 28.3125C91.2682 28.1354 91.526 28.0469 91.8594 28.0469C92.1823 28.0469 92.4323 28.1354 92.6094 28.3125C92.7917 28.4896 92.8828 28.7422 92.8828 29.0703C92.8828 29.3828 92.7917 29.6302 92.6094 29.8125C92.4323 29.9896 92.1823 30.0781 91.8594 30.0781C91.526 30.0781 91.2682 29.9896 91.0859 29.8125C90.9089 29.6302 90.8203 29.3828 90.8203 29.0703ZM99.7812 31.2031C100.151 31.2031 100.456 31.2292 100.695 31.2812L100.516 32.9922C100.255 32.9297 99.9844 32.8984 99.7031 32.8984C98.9688 32.8984 98.3724 33.138 97.9141 33.6172C97.4609 34.0964 97.2344 34.7188 97.2344 35.4844V40H95.3984V31.3594H96.8359L97.0781 32.8828H97.1719C97.4583 32.3672 97.8307 31.9583 98.2891 31.6562C98.7526 31.3542 99.25 31.2031 99.7812 31.2031ZM105.219 40.1562C104.141 40.1562 103.299 39.7656 102.695 38.9844C102.091 38.2031 101.789 37.1068 101.789 35.6953C101.789 34.2786 102.094 33.1771 102.703 32.3906C103.318 31.599 104.167 31.2031 105.25 31.2031C106.385 31.2031 107.25 31.6224 107.844 32.4609H107.938C107.849 31.8411 107.805 31.3516 107.805 30.9922V27.8438H109.648V40H108.211L107.891 38.8672H107.805C107.216 39.7266 106.354 40.1562 105.219 40.1562ZM105.711 38.6719C106.466 38.6719 107.016 38.4609 107.359 38.0391C107.703 37.612 107.88 36.9219 107.891 35.9688V35.7109C107.891 34.6224 107.714 33.849 107.359 33.3906C107.005 32.9323 106.451 32.7031 105.695 32.7031C105.049 32.7031 104.552 32.9661 104.203 33.4922C103.854 34.013 103.68 34.7578 103.68 35.7266C103.68 36.6849 103.849 37.4167 104.188 37.9219C104.526 38.4219 105.034 38.6719 105.711 38.6719ZM120.57 40H118.703V30.1797H115.344V28.5781H123.93V30.1797H120.57V40ZM129.266 40.1562C127.922 40.1562 126.87 39.7656 126.109 38.9844C125.354 38.1979 124.977 37.1172 124.977 35.7422C124.977 34.3307 125.328 33.2214 126.031 32.4141C126.734 31.6068 127.701 31.2031 128.93 31.2031C130.07 31.2031 130.971 31.5495 131.633 32.2422C132.294 32.9349 132.625 33.888 132.625 35.1016V36.0938H126.867C126.893 36.9323 127.12 37.5781 127.547 38.0312C127.974 38.4792 128.576 38.7031 129.352 38.7031C129.862 38.7031 130.336 38.6562 130.773 38.5625C131.216 38.4635 131.69 38.3021 132.195 38.0781V39.5703C131.747 39.7839 131.294 39.9349 130.836 40.0234C130.378 40.112 129.854 40.1562 129.266 40.1562ZM128.93 32.5938C128.346 32.5938 127.878 32.7786 127.523 33.1484C127.174 33.5182 126.966 34.0573 126.898 34.7656H130.82C130.81 34.0521 130.638 33.513 130.305 33.1484C129.971 32.7786 129.513 32.5938 128.93 32.5938ZM139.094 31.2031C139.464 31.2031 139.768 31.2292 140.008 31.2812L139.828 32.9922C139.568 32.9297 139.297 32.8984 139.016 32.8984C138.281 32.8984 137.685 33.138 137.227 33.6172C136.773 34.0964 136.547 34.7188 136.547 35.4844V40H134.711V31.3594H136.148L136.391 32.8828H136.484C136.771 32.3672 137.143 31.9583 137.602 31.6562C138.065 31.3542 138.562 31.2031 139.094 31.2031ZM148.898 40H147.055V34.6719C147.055 34.0104 146.93 33.5182 146.68 33.1953C146.43 32.8672 146.039 32.7031 145.508 32.7031C144.799 32.7031 144.279 32.9349 143.945 33.3984C143.617 33.8568 143.453 34.6224 143.453 35.6953V40H141.617V31.3594H143.055L143.312 32.4922H143.406C143.646 32.0807 143.992 31.763 144.445 31.5391C144.904 31.3151 145.406 31.2031 145.953 31.2031C147.281 31.2031 148.161 31.6562 148.594 32.5625H148.719C148.974 32.1354 149.333 31.8021 149.797 31.5625C150.26 31.3229 150.792 31.2031 151.391 31.2031C152.422 31.2031 153.172 31.4635 153.641 31.9844C154.115 32.5052 154.352 33.2995 154.352 34.3672V40H152.516V34.6719C152.516 34.0104 152.388 33.5182 152.133 33.1953C151.883 32.8672 151.492 32.7031 150.961 32.7031C150.247 32.7031 149.724 32.9271 149.391 33.375C149.062 33.8177 148.898 34.5 148.898 35.4219V40Z" fill="#3D4080"/>
<path d="M75.8389 55.9014C74.7406 55.9014 73.8724 56.2682 73.2344 57.002C72.6009 57.7311 72.2842 58.7314 72.2842 60.0029C72.2842 61.3109 72.5895 62.3226 73.2002 63.0381C73.8154 63.749 74.6904 64.1045 75.8252 64.1045C76.5225 64.1045 77.3177 63.9792 78.2109 63.7285V64.7471C77.5182 65.0068 76.6637 65.1367 75.6475 65.1367C74.1755 65.1367 73.0384 64.6901 72.2363 63.7969C71.4388 62.9036 71.04 61.6344 71.04 59.9893C71.04 58.9593 71.2314 58.057 71.6143 57.2822C72.0016 56.5075 72.5576 55.9105 73.2822 55.4912C74.0114 55.0719 74.8682 54.8623 75.8525 54.8623C76.9007 54.8623 77.8167 55.0537 78.6006 55.4365L78.1084 56.4346C77.3519 56.0791 76.5954 55.9014 75.8389 55.9014ZM81.3555 65H80.2207V54.3633H81.3555V65ZM88.3691 65L88.1436 63.9336H88.0889C87.7152 64.403 87.3415 64.722 86.9678 64.8906C86.5986 65.0547 86.1361 65.1367 85.5801 65.1367C84.8372 65.1367 84.2539 64.9453 83.8301 64.5625C83.4108 64.1797 83.2012 63.6351 83.2012 62.9287C83.2012 61.4157 84.4111 60.6227 86.8311 60.5498L88.1025 60.5088V60.0439C88.1025 59.4561 87.9749 59.0231 87.7197 58.7451C87.4691 58.4626 87.0658 58.3213 86.5098 58.3213C85.8854 58.3213 85.179 58.5127 84.3906 58.8955L84.042 58.0273C84.4111 57.8268 84.8145 57.6696 85.252 57.5557C85.694 57.4417 86.1361 57.3848 86.5781 57.3848C87.4714 57.3848 88.1322 57.583 88.5605 57.9795C88.9935 58.376 89.21 59.0117 89.21 59.8867V65H88.3691ZM85.8057 64.2002C86.512 64.2002 87.0658 64.0065 87.4668 63.6191C87.8724 63.2318 88.0752 62.6895 88.0752 61.9922V61.3154L86.9404 61.3633C86.0381 61.3952 85.3864 61.5365 84.9854 61.7871C84.5889 62.0332 84.3906 62.4183 84.3906 62.9424C84.3906 63.3525 84.5137 63.6647 84.7598 63.8789C85.0104 64.0931 85.359 64.2002 85.8057 64.2002ZM96.3877 62.9561C96.3877 63.6533 96.1279 64.1911 95.6084 64.5693C95.0889 64.9476 94.3597 65.1367 93.4209 65.1367C92.4274 65.1367 91.6527 64.9795 91.0967 64.665V63.6123C91.4567 63.7946 91.8418 63.9382 92.252 64.043C92.6667 64.1478 93.0654 64.2002 93.4482 64.2002C94.0407 64.2002 94.4964 64.1068 94.8154 63.9199C95.1344 63.7285 95.2939 63.4391 95.2939 63.0518C95.2939 62.7601 95.1663 62.5117 94.9111 62.3066C94.6605 62.097 94.1683 61.8509 93.4346 61.5684C92.7373 61.3086 92.2406 61.083 91.9443 60.8916C91.6527 60.6956 91.4339 60.4746 91.2881 60.2285C91.1468 59.9824 91.0762 59.6885 91.0762 59.3467C91.0762 58.736 91.3245 58.2552 91.8213 57.9043C92.318 57.5488 92.9993 57.3711 93.8652 57.3711C94.6719 57.3711 95.4603 57.5352 96.2305 57.8633L95.8271 58.7861C95.0752 58.4762 94.3939 58.3213 93.7832 58.3213C93.2454 58.3213 92.8398 58.4056 92.5664 58.5742C92.293 58.7428 92.1562 58.9753 92.1562 59.2715C92.1562 59.472 92.2064 59.6429 92.3066 59.7842C92.4115 59.9255 92.5778 60.0599 92.8057 60.1875C93.0335 60.3151 93.471 60.4997 94.1182 60.7412C95.0068 61.0648 95.6061 61.3906 95.916 61.7188C96.2305 62.0469 96.3877 62.4593 96.3877 62.9561ZM103.073 62.9561C103.073 63.6533 102.813 64.1911 102.294 64.5693C101.774 64.9476 101.045 65.1367 100.106 65.1367C99.113 65.1367 98.3382 64.9795 97.7822 64.665V63.6123C98.1423 63.7946 98.5273 63.9382 98.9375 64.043C99.3522 64.1478 99.751 64.2002 100.134 64.2002C100.726 64.2002 101.182 64.1068 101.501 63.9199C101.82 63.7285 101.979 63.4391 101.979 63.0518C101.979 62.7601 101.852 62.5117 101.597 62.3066C101.346 62.097 100.854 61.8509 100.12 61.5684C99.4229 61.3086 98.9261 61.083 98.6299 60.8916C98.3382 60.6956 98.1195 60.4746 97.9736 60.2285C97.8324 59.9824 97.7617 59.6885 97.7617 59.3467C97.7617 58.736 98.0101 58.2552 98.5068 57.9043C99.0036 57.5488 99.6849 57.3711 100.551 57.3711C101.357 57.3711 102.146 57.5352 102.916 57.8633L102.513 58.7861C101.761 58.4762 101.079 58.3213 100.469 58.3213C99.931 58.3213 99.5254 58.4056 99.252 58.5742C98.9785 58.7428 98.8418 58.9753 98.8418 59.2715C98.8418 59.472 98.8919 59.6429 98.9922 59.7842C99.097 59.9255 99.2633 60.0599 99.4912 60.1875C99.7191 60.3151 100.157 60.4997 100.804 60.7412C101.692 61.0648 102.292 61.3906 102.602 61.7188C102.916 62.0469 103.073 62.4593 103.073 62.9561ZM111.81 65H110.647V56.0381H107.482V55.0059H114.975V56.0381H111.81V65ZM119.479 65.1367C118.372 65.1367 117.497 64.7995 116.854 64.125C116.216 63.4505 115.897 62.514 115.897 61.3154C115.897 60.1077 116.194 59.1484 116.786 58.4375C117.383 57.7266 118.183 57.3711 119.186 57.3711C120.124 57.3711 120.867 57.681 121.414 58.3008C121.961 58.916 122.234 59.7295 122.234 60.7412V61.459H117.073C117.096 62.3385 117.317 63.0062 117.736 63.4619C118.16 63.9176 118.755 64.1455 119.521 64.1455C120.327 64.1455 121.125 63.9769 121.913 63.6396V64.6514C121.512 64.8245 121.132 64.9476 120.771 65.0205C120.416 65.098 119.985 65.1367 119.479 65.1367ZM119.172 58.3213C118.57 58.3213 118.09 58.5173 117.729 58.9092C117.374 59.3011 117.164 59.8434 117.101 60.5361H121.018C121.018 59.8206 120.858 59.2738 120.539 58.8955C120.22 58.5127 119.764 58.3213 119.172 58.3213ZM128.783 65L128.558 63.9336H128.503C128.129 64.403 127.756 64.722 127.382 64.8906C127.013 65.0547 126.55 65.1367 125.994 65.1367C125.251 65.1367 124.668 64.9453 124.244 64.5625C123.825 64.1797 123.615 63.6351 123.615 62.9287C123.615 61.4157 124.825 60.6227 127.245 60.5498L128.517 60.5088V60.0439C128.517 59.4561 128.389 59.0231 128.134 58.7451C127.883 58.4626 127.48 58.3213 126.924 58.3213C126.299 58.3213 125.593 58.5127 124.805 58.8955L124.456 58.0273C124.825 57.8268 125.229 57.6696 125.666 57.5557C126.108 57.4417 126.55 57.3848 126.992 57.3848C127.885 57.3848 128.546 57.583 128.975 57.9795C129.408 58.376 129.624 59.0117 129.624 59.8867V65H128.783ZM126.22 64.2002C126.926 64.2002 127.48 64.0065 127.881 63.6191C128.286 63.2318 128.489 62.6895 128.489 61.9922V61.3154L127.354 61.3633C126.452 61.3952 125.8 61.5365 125.399 61.7871C125.003 62.0332 124.805 62.4183 124.805 62.9424C124.805 63.3525 124.928 63.6647 125.174 63.8789C125.424 64.0931 125.773 64.2002 126.22 64.2002ZM134.963 65.1367C133.878 65.1367 133.037 64.804 132.44 64.1387C131.848 63.4688 131.552 62.5231 131.552 61.3018C131.552 60.0485 131.853 59.0801 132.454 58.3965C133.06 57.7129 133.922 57.3711 135.038 57.3711C135.398 57.3711 135.758 57.4098 136.118 57.4873C136.478 57.5648 136.761 57.6559 136.966 57.7607L136.617 58.7246C136.367 58.6243 136.093 58.5423 135.797 58.4785C135.501 58.4102 135.239 58.376 135.011 58.376C133.489 58.376 132.728 59.3467 132.728 61.2881C132.728 62.2087 132.912 62.915 133.281 63.4072C133.655 63.8994 134.206 64.1455 134.936 64.1455C135.56 64.1455 136.2 64.0111 136.856 63.7422V64.7471C136.355 65.0068 135.724 65.1367 134.963 65.1367ZM143.768 65V60.1533C143.768 59.5426 143.629 59.0869 143.351 58.7861C143.073 58.4854 142.637 58.335 142.045 58.335C141.257 58.335 140.68 58.5492 140.315 58.9775C139.955 59.4059 139.775 60.1077 139.775 61.083V65H138.641V54.3633H139.775V57.583C139.775 57.9704 139.757 58.2917 139.721 58.5469H139.789C140.012 58.1868 140.329 57.9043 140.739 57.6992C141.154 57.4896 141.626 57.3848 142.154 57.3848C143.07 57.3848 143.756 57.6035 144.212 58.041C144.672 58.474 144.902 59.1644 144.902 60.1123V65H143.768ZM150.405 65.1367C149.298 65.1367 148.423 64.7995 147.78 64.125C147.142 63.4505 146.823 62.514 146.823 61.3154C146.823 60.1077 147.119 59.1484 147.712 58.4375C148.309 57.7266 149.109 57.3711 150.111 57.3711C151.05 57.3711 151.793 57.681 152.34 58.3008C152.887 58.916 153.16 59.7295 153.16 60.7412V61.459H147.999C148.022 62.3385 148.243 63.0062 148.662 63.4619C149.086 63.9176 149.681 64.1455 150.446 64.1455C151.253 64.1455 152.05 63.9769 152.839 63.6396V64.6514C152.438 64.8245 152.057 64.9476 151.697 65.0205C151.342 65.098 150.911 65.1367 150.405 65.1367ZM150.098 58.3213C149.496 58.3213 149.015 58.5173 148.655 58.9092C148.3 59.3011 148.09 59.8434 148.026 60.5361H151.943C151.943 59.8206 151.784 59.2738 151.465 58.8955C151.146 58.5127 150.69 58.3213 150.098 58.3213ZM158.52 57.3711C158.852 57.3711 159.151 57.3984 159.415 57.4531L159.258 58.5059C158.948 58.4375 158.674 58.4033 158.438 58.4033C157.831 58.4033 157.312 58.6494 156.879 59.1416C156.451 59.6338 156.236 60.2467 156.236 60.9805V65H155.102V57.5078H156.038L156.168 58.8955H156.223C156.501 58.4079 156.836 58.0319 157.228 57.7676C157.619 57.5033 158.05 57.3711 158.52 57.3711ZM160.652 64.2754C160.652 63.9701 160.721 63.7399 160.857 63.585C160.999 63.4255 161.199 63.3457 161.459 63.3457C161.723 63.3457 161.928 63.4255 162.074 63.585C162.225 63.7399 162.3 63.9701 162.3 64.2754C162.3 64.5716 162.225 64.7995 162.074 64.959C161.924 65.1185 161.719 65.1982 161.459 65.1982C161.227 65.1982 161.033 65.1276 160.878 64.9863C160.728 64.8405 160.652 64.6035 160.652 64.2754ZM160.652 58.2393C160.652 57.624 160.921 57.3164 161.459 57.3164C162.02 57.3164 162.3 57.624 162.3 58.2393C162.3 58.5355 162.225 58.7633 162.074 58.9229C161.924 59.0824 161.719 59.1621 161.459 59.1621C161.227 59.1621 161.033 59.0915 160.878 58.9502C160.728 58.8044 160.652 58.5674 160.652 58.2393ZM172.779 65L169.389 56.1406H169.334C169.398 56.8424 169.43 57.6764 169.43 58.6426V65H168.356V55.0059H170.106L173.271 63.25H173.326L176.519 55.0059H178.255V65H177.093V58.5605C177.093 57.8223 177.125 57.0202 177.188 56.1543H177.134L173.716 65H172.779ZM184.25 57.3711C184.583 57.3711 184.881 57.3984 185.146 57.4531L184.988 58.5059C184.678 58.4375 184.405 58.4033 184.168 58.4033C183.562 58.4033 183.042 58.6494 182.609 59.1416C182.181 59.6338 181.967 60.2467 181.967 60.9805V65H180.832V57.5078H181.769L181.898 58.8955H181.953C182.231 58.4079 182.566 58.0319 182.958 57.7676C183.35 57.5033 183.781 57.3711 184.25 57.3711ZM191.38 62.9561C191.38 63.6533 191.12 64.1911 190.601 64.5693C190.081 64.9476 189.352 65.1367 188.413 65.1367C187.42 65.1367 186.645 64.9795 186.089 64.665V63.6123C186.449 63.7946 186.834 63.9382 187.244 64.043C187.659 64.1478 188.058 64.2002 188.44 64.2002C189.033 64.2002 189.489 64.1068 189.808 63.9199C190.127 63.7285 190.286 63.4391 190.286 63.0518C190.286 62.7601 190.159 62.5117 189.903 62.3066C189.653 62.097 189.16 61.8509 188.427 61.5684C187.729 61.3086 187.233 61.083 186.937 60.8916C186.645 60.6956 186.426 60.4746 186.28 60.2285C186.139 59.9824 186.068 59.6885 186.068 59.3467C186.068 58.736 186.317 58.2552 186.813 57.9043C187.31 57.5488 187.992 57.3711 188.857 57.3711C189.664 57.3711 190.452 57.5352 191.223 57.8633L190.819 58.7861C190.067 58.4762 189.386 58.3213 188.775 58.3213C188.238 58.3213 187.832 58.4056 187.559 58.5742C187.285 58.7428 187.148 58.9753 187.148 59.2715C187.148 59.472 187.199 59.6429 187.299 59.7842C187.404 59.9255 187.57 60.0599 187.798 60.1875C188.026 60.3151 188.463 60.4997 189.11 60.7412C189.999 61.0648 190.598 61.3906 190.908 61.7188C191.223 62.0469 191.38 62.4593 191.38 62.9561ZM193.068 64.2754C193.068 63.9701 193.137 63.7399 193.273 63.585C193.415 63.4255 193.615 63.3457 193.875 63.3457C194.139 63.3457 194.344 63.4255 194.49 63.585C194.641 63.7399 194.716 63.9701 194.716 64.2754C194.716 64.5716 194.641 64.7995 194.49 64.959C194.34 65.1185 194.135 65.1982 193.875 65.1982C193.643 65.1982 193.449 65.1276 193.294 64.9863C193.144 64.8405 193.068 64.6035 193.068 64.2754ZM200.772 55.0059H203.596C204.922 55.0059 205.881 55.2041 206.474 55.6006C207.066 55.9971 207.362 56.6237 207.362 57.4805C207.362 58.0729 207.196 58.5628 206.863 58.9502C206.535 59.333 206.054 59.5814 205.421 59.6953V59.7637C206.938 60.0234 207.697 60.821 207.697 62.1562C207.697 63.0495 207.394 63.7467 206.788 64.248C206.187 64.7493 205.343 65 204.259 65H200.772V55.0059ZM201.935 59.2852H203.849C204.669 59.2852 205.259 59.1576 205.619 58.9023C205.979 58.6426 206.159 58.2074 206.159 57.5967C206.159 57.0361 205.959 56.6328 205.558 56.3867C205.157 56.1361 204.519 56.0107 203.644 56.0107H201.935V59.2852ZM201.935 60.2695V64.0088H204.02C204.826 64.0088 205.432 63.8538 205.838 63.5439C206.248 63.2295 206.453 62.7396 206.453 62.0742C206.453 61.4544 206.243 60.9987 205.824 60.707C205.41 60.4154 204.776 60.2695 203.924 60.2695H201.935ZM210.814 65H209.68V57.5078H210.814V65ZM209.584 55.4775C209.584 55.2178 209.648 55.0286 209.775 54.9102C209.903 54.7871 210.062 54.7256 210.254 54.7256C210.436 54.7256 210.593 54.7871 210.726 54.9102C210.858 55.0332 210.924 55.2223 210.924 55.4775C210.924 55.7327 210.858 55.9242 210.726 56.0518C210.593 56.1748 210.436 56.2363 210.254 56.2363C210.062 56.2363 209.903 56.1748 209.775 56.0518C209.648 55.9242 209.584 55.7327 209.584 55.4775ZM219.688 61.2471C219.688 62.4684 219.38 63.4232 218.765 64.1113C218.149 64.7949 217.299 65.1367 216.215 65.1367C215.545 65.1367 214.95 64.9795 214.431 64.665C213.911 64.3506 213.51 63.8994 213.228 63.3115C212.945 62.7236 212.804 62.0355 212.804 61.2471C212.804 60.0257 213.109 59.0755 213.72 58.3965C214.33 57.7129 215.178 57.3711 216.263 57.3711C217.311 57.3711 218.143 57.7197 218.758 58.417C219.378 59.1143 219.688 60.0576 219.688 61.2471ZM213.979 61.2471C213.979 62.2041 214.171 62.9333 214.554 63.4346C214.937 63.9359 215.499 64.1865 216.242 64.1865C216.985 64.1865 217.548 63.9382 217.931 63.4414C218.318 62.9401 218.512 62.2087 218.512 61.2471C218.512 60.2946 218.318 59.5723 217.931 59.0801C217.548 58.5833 216.98 58.335 216.229 58.335C215.486 58.335 214.925 58.5788 214.547 59.0664C214.169 59.554 213.979 60.2809 213.979 61.2471ZM225.17 57.3848C226.154 57.3848 226.918 57.722 227.46 58.3965C228.007 59.0664 228.28 60.0166 228.28 61.2471C228.28 62.4775 228.005 63.4346 227.453 64.1182C226.906 64.7972 226.145 65.1367 225.17 65.1367C224.682 65.1367 224.236 65.0479 223.83 64.8701C223.429 64.6878 223.092 64.4098 222.818 64.0361H222.736L222.497 65H221.684V54.3633H222.818V56.9473C222.818 57.526 222.8 58.0456 222.764 58.5059H222.818C223.347 57.7585 224.131 57.3848 225.17 57.3848ZM225.006 58.335C224.231 58.335 223.673 58.5583 223.331 59.0049C222.989 59.4469 222.818 60.1943 222.818 61.2471C222.818 62.2998 222.994 63.054 223.345 63.5098C223.696 63.9609 224.258 64.1865 225.033 64.1865C225.73 64.1865 226.25 63.9336 226.592 63.4277C226.934 62.9173 227.104 62.1859 227.104 61.2334C227.104 60.2581 226.934 59.5312 226.592 59.0527C226.25 58.5742 225.721 58.335 225.006 58.335ZM234.877 65L234.651 63.9336H234.597C234.223 64.403 233.849 64.722 233.476 64.8906C233.106 65.0547 232.644 65.1367 232.088 65.1367C231.345 65.1367 230.762 64.9453 230.338 64.5625C229.919 64.1797 229.709 63.6351 229.709 62.9287C229.709 61.4157 230.919 60.6227 233.339 60.5498L234.61 60.5088V60.0439C234.61 59.4561 234.483 59.0231 234.228 58.7451C233.977 58.4626 233.574 58.3213 233.018 58.3213C232.393 58.3213 231.687 58.5127 230.898 58.8955L230.55 58.0273C230.919 57.8268 231.322 57.6696 231.76 57.5557C232.202 57.4417 232.644 57.3848 233.086 57.3848C233.979 57.3848 234.64 57.583 235.068 57.9795C235.501 58.376 235.718 59.0117 235.718 59.8867V65H234.877ZM232.313 64.2002C233.02 64.2002 233.574 64.0065 233.975 63.6191C234.38 63.2318 234.583 62.6895 234.583 61.9922V61.3154L233.448 61.3633C232.546 61.3952 231.894 61.5365 231.493 61.7871C231.097 62.0332 230.898 62.4183 230.898 62.9424C230.898 63.3525 231.021 63.6647 231.268 63.8789C231.518 64.0931 231.867 64.2002 232.313 64.2002ZM239.184 61.165C239.38 60.887 239.678 60.5225 240.079 60.0713L242.499 57.5078H243.846L240.811 60.7002L244.058 65H242.684L240.038 61.459L239.184 62.1973V65H238.062V54.3633H239.184V60.0029C239.184 60.2536 239.165 60.641 239.129 61.165H239.184ZM246.484 57.5078V62.3682C246.484 62.9788 246.623 63.4346 246.901 63.7354C247.179 64.0361 247.615 64.1865 248.207 64.1865C248.991 64.1865 249.563 63.9723 249.923 63.5439C250.287 63.1156 250.47 62.416 250.47 61.4453V57.5078H251.604V65H250.668L250.504 63.9951H250.442C250.21 64.3643 249.886 64.6468 249.472 64.8428C249.062 65.0387 248.592 65.1367 248.063 65.1367C247.152 65.1367 246.468 64.9202 246.013 64.4873C245.562 64.0544 245.336 63.3617 245.336 62.4092V57.5078H246.484Z" fill="#555555"/>
</g>
<path d="M342.79 42.875H338.624V36.625H332.374V42.875H328.207L335.499 50.1667L342.79 42.875ZM328.207 52.25V54.3333H342.79V52.25H328.207Z" fill="#3D4080"/>
<rect x="0.5" y="0.5" width="367" height="91" rx="9.5" stroke="#DADADA"/>
<defs>
<clipPath id="clip0_1028_435">
<rect width="233" height="46" fill="white" transform="translate(20 23)"/>
</clipPath>
</defs>
</svg>
