<svg width="61" height="62" viewBox="0 0 61 62" fill="none" xmlns="http://www.w3.org/2000/svg">
<circle cx="30.1362" cy="31.0191" r="30.1362" fill="#E81B42"/>
<path d="M17.8825 28.4844H22.4901C22.5503 28.4844 22.61 28.4962 22.6657 28.5193C22.7213 28.5423 22.7719 28.5761 22.8145 28.6187C22.8571 28.6613 22.8909 28.7119 22.9139 28.7675C22.937 28.8232 22.9488 28.8829 22.9488 28.9431V29.5924C22.9488 29.6527 22.937 29.7123 22.9139 29.768C22.8909 29.8236 22.8571 29.8742 22.8145 29.9168C22.7719 29.9594 22.7213 29.9932 22.6657 30.0162C22.61 30.0393 22.5503 30.0512 22.4901 30.0512H17.8825C17.8223 30.0512 17.7627 30.0393 17.707 30.0162C17.6513 29.9932 17.6008 29.9594 17.5582 29.9168C17.5156 29.8742 17.4818 29.8236 17.4588 29.768C17.4357 29.7123 17.4238 29.6527 17.4238 29.5925V28.943C17.4238 28.8214 17.4722 28.7047 17.5582 28.6187C17.6442 28.5327 17.7608 28.4844 17.8825 28.4844ZM24.7063 28.4844H29.3139C29.3741 28.4844 29.4338 28.4962 29.4894 28.5193C29.5451 28.5423 29.5956 28.5761 29.6382 28.6187C29.6808 28.6613 29.7146 28.7119 29.7377 28.7675C29.7607 28.8232 29.7726 28.8829 29.7726 28.9431V29.5924C29.7726 29.7141 29.7243 29.8308 29.6382 29.9168C29.5522 30.0028 29.4355 30.0512 29.3138 30.0512H24.7064C24.5847 30.0512 24.468 30.0028 24.382 29.9168C24.2959 29.8308 24.2476 29.7141 24.2476 29.5924V28.943C24.2476 28.8214 24.2959 28.7047 24.3819 28.6187C24.468 28.5327 24.5846 28.4844 24.7063 28.4844ZM31.5301 28.4844H36.1376C36.2593 28.4844 36.376 28.5327 36.462 28.6187C36.5481 28.7048 36.5964 28.8215 36.5964 28.9431V29.5925C36.5964 29.7141 36.5481 29.8308 36.462 29.9168C36.376 30.0028 36.2593 30.0512 36.1377 30.0512H31.5301C31.4084 30.0512 31.2918 30.0028 31.2057 29.9168C31.1197 29.8308 31.0714 29.7141 31.0714 29.5925V28.9431C31.0714 28.8828 31.0833 28.8232 31.1063 28.7675C31.1294 28.7119 31.1631 28.6613 31.2057 28.6187C31.2483 28.5761 31.2989 28.5423 31.3545 28.5193C31.4102 28.4962 31.4698 28.4844 31.5301 28.4844ZM17.8825 32.7018H22.4901C22.5503 32.7018 22.61 32.7137 22.6657 32.7367C22.7213 32.7598 22.7719 32.7936 22.8145 32.8362C22.8571 32.8788 22.8909 32.9293 22.9139 32.985C22.937 33.0406 22.9488 33.1003 22.9488 33.1605V33.8098C22.9488 33.9315 22.9005 34.0482 22.8145 34.1342C22.7284 34.2203 22.6117 34.2686 22.4901 34.2686H17.8825C17.7609 34.2686 17.6442 34.2203 17.5582 34.1342C17.4722 34.0482 17.4238 33.9315 17.4238 33.8099V33.1605C17.4238 33.1002 17.4357 33.0406 17.4587 32.985C17.4818 32.9293 17.5156 32.8787 17.5582 32.8362C17.6008 32.7936 17.6513 32.7598 17.707 32.7367C17.7626 32.7137 17.8223 32.7018 17.8825 32.7018ZM24.7063 32.7018H29.3139C29.3741 32.7018 29.4338 32.7137 29.4894 32.7367C29.5451 32.7598 29.5956 32.7936 29.6382 32.8362C29.6808 32.8788 29.7146 32.9293 29.7377 32.985C29.7607 33.0406 29.7726 33.1003 29.7726 33.1605V33.8098C29.7726 33.9315 29.7243 34.0482 29.6382 34.1342C29.5522 34.2203 29.4355 34.2686 29.3138 34.2686H24.7064C24.5847 34.2686 24.468 34.2203 24.382 34.1342C24.2959 34.0482 24.2476 33.9315 24.2476 33.8098V33.1605C24.2476 33.0388 24.2959 32.9222 24.3819 32.8362C24.468 32.7501 24.5846 32.7018 24.7063 32.7018ZM36.5959 33.2914V33.161C36.5959 33.1008 36.5841 33.0411 36.561 32.9855C36.538 32.9298 36.5042 32.8792 36.4616 32.8366C36.419 32.794 36.3684 32.7602 36.3127 32.7372C36.2571 32.7141 36.1974 32.7023 36.1372 32.7023H31.5297C31.4694 32.7023 31.4098 32.7141 31.3541 32.7372C31.2984 32.7602 31.2479 32.794 31.2053 32.8366C31.1627 32.8792 31.1289 32.9298 31.1058 32.9855C31.0828 33.0411 31.071 33.1008 31.071 33.161V33.8102C31.071 33.8705 31.0828 33.9301 31.1058 33.9858C31.1289 34.0415 31.1627 34.0921 31.2053 34.1347C31.2479 34.1773 31.2985 34.211 31.3541 34.2341C31.4098 34.2571 31.4694 34.269 31.5297 34.2689H34.3625C35.0511 33.8281 35.8048 33.4982 36.5959 33.2914ZM17.8825 36.9193H22.4901C22.5503 36.9193 22.61 36.9311 22.6657 36.9542C22.7213 36.9772 22.7719 37.011 22.8145 37.0536C22.8571 37.0962 22.8909 37.1468 22.9139 37.2024C22.937 37.2581 22.9488 37.3177 22.9488 37.378V38.0273C22.9488 38.149 22.9005 38.2656 22.8145 38.3517C22.7284 38.4377 22.6117 38.486 22.4901 38.486H17.8826C17.7609 38.486 17.6442 38.4377 17.5582 38.3517C17.4722 38.2656 17.4238 38.149 17.4238 38.0273V37.3779C17.4238 37.2563 17.4722 37.1396 17.5582 37.0536C17.6442 36.9676 17.7609 36.9193 17.8825 36.9193ZM24.7063 36.9193H29.3139C29.3741 36.9193 29.4338 36.9311 29.4894 36.9542C29.5451 36.9772 29.5956 37.011 29.6382 37.0536C29.6808 37.0962 29.7146 37.1468 29.7377 37.2024C29.7607 37.2581 29.7726 37.3177 29.7726 37.378V38.0273C29.7726 38.149 29.7243 38.2656 29.6382 38.3517C29.5522 38.4377 29.4355 38.486 29.3138 38.486H24.7063C24.5846 38.486 24.468 38.4377 24.3819 38.3517C24.2959 38.2657 24.2476 38.149 24.2476 38.0274V37.3779C24.2476 37.2563 24.2959 37.1396 24.3819 37.0536C24.468 36.9676 24.5846 36.9193 24.7063 36.9193Z" fill="white"/>
<path d="M39.4702 34.1885C38.948 34.1219 38.4199 34.115 37.8962 34.168C36.9506 34.2655 36.0361 34.5608 35.2121 35.0347C34.388 35.5086 33.6728 36.1505 33.1129 36.9187C32.2645 38.0795 31.8077 39.4802 31.8086 40.918C31.8086 40.9444 31.8086 40.9722 31.8101 40.9986C31.8257 42.2997 32.215 43.5689 32.9318 44.655C33.6486 45.741 34.6625 46.598 35.8527 47.1239C37.0429 47.6498 38.3593 47.8223 39.6448 47.621C40.9304 47.4197 42.1309 46.853 43.1034 45.9884C44.0759 45.1238 44.7793 43.9979 45.1297 42.7447C45.4802 41.4916 45.4629 40.1641 45.08 38.9205C44.6971 37.6769 43.9647 36.5696 42.97 35.7306C41.9754 34.8916 40.7605 34.3563 39.4702 34.1885ZM38.8312 43.7581C38.3759 44.0922 37.8234 44.2673 37.2587 44.2564C36.4923 44.2564 35.9134 44.0439 35.5397 43.6262C35.2782 43.326 35.1048 42.9593 35.0385 42.5667C34.9981 42.3537 34.9784 42.1372 34.9799 41.9204V41.7841H36.0702L36.0731 41.916C36.0762 42.1388 36.1194 42.3592 36.2006 42.5667C36.2518 42.6965 36.328 42.815 36.4249 42.9155C36.5402 43.0301 36.6783 43.1194 36.8303 43.1774C36.9822 43.2355 37.1447 43.2611 37.3071 43.2525C37.4491 43.2616 37.5915 43.2421 37.7259 43.1953C37.8603 43.1485 37.984 43.0753 38.0897 42.98C38.2167 42.8593 38.3041 42.7029 38.3403 42.5315C38.3583 42.4542 38.3671 42.375 38.3666 42.2956C38.3703 42.16 38.3428 42.0253 38.2861 41.9021C38.2294 41.7789 38.1452 41.6703 38.0398 41.5848C37.7144 41.3647 37.3232 41.2633 36.9319 41.2976C36.863 41.2976 36.781 41.299 36.6872 41.302L36.5465 41.3064V40.2629H36.6828C36.9893 40.2727 37.296 40.2486 37.5972 40.1911C37.7083 40.165 37.811 40.1116 37.8962 40.0358C37.9287 40.0081 37.9577 39.9766 37.9827 39.942C38.0805 39.798 38.1293 39.6264 38.1219 39.4525C38.128 39.2246 38.0521 39.002 37.9079 38.8253C37.9035 38.8209 37.9006 38.8165 37.8962 38.8121C37.8201 38.7299 37.7264 38.666 37.6221 38.6251C37.5178 38.5842 37.4056 38.5675 37.2939 38.5762C37.1712 38.5641 37.0473 38.5815 36.9326 38.6269C36.8179 38.6722 36.7157 38.7443 36.6344 38.837C36.4713 39.0941 36.3895 39.3944 36.4 39.6987L36.3955 39.8306H35.2657V39.6943C35.2495 39.2779 35.334 38.8637 35.5119 38.4868C35.5939 38.3268 35.7058 38.184 35.8416 38.0662C36.0604 37.8781 36.3181 37.741 36.5963 37.6646C36.8015 37.6078 37.0136 37.5797 37.2265 37.5811C37.4516 37.5793 37.6762 37.6024 37.8962 37.65C38.2866 37.7259 38.6368 37.9391 38.8836 38.2509C39.1303 38.5627 39.2573 38.9526 39.2415 39.3499C39.2519 39.6973 39.1473 40.0383 38.944 40.3201C38.8327 40.4732 38.6988 40.6086 38.5469 40.7216C38.7375 40.7947 38.9113 40.9056 39.0579 41.0477C39.2045 41.1897 39.3208 41.36 39.3998 41.5482C39.5403 41.9307 39.5611 42.347 39.4595 42.7416C39.358 43.1363 39.1388 43.4908 38.8312 43.7581ZM42.2091 44.0248H41.1599V38.9161L40.156 39.4584L39.9318 38.5732L41.3533 37.8126H42.2091L42.2091 44.0248Z" fill="white"/>
<path d="M16.2077 40.9965V25.8229H37.8954V33.0639C38.1255 33.0419 38.3585 33.0316 38.5945 33.0316C38.8873 33.0314 39.1798 33.0476 39.4708 33.08L39.4782 25.1649H39.484V19.3865C39.4838 19.0049 39.3322 18.6389 39.0623 18.3691C38.7925 18.0992 38.4265 17.9476 38.0449 17.9474H35.92V15.0897C35.9194 14.8796 35.8356 14.6783 35.6868 14.5299C35.538 14.3815 35.3365 14.2982 35.1264 14.2982C34.9163 14.2982 34.7148 14.3815 34.566 14.5299C34.4172 14.6783 34.3334 14.8796 34.3328 15.0897V17.9474H27.8437V15.0897C27.8437 14.8794 27.7601 14.6778 27.6115 14.5291C27.4628 14.3804 27.2611 14.2969 27.0508 14.2969C26.8406 14.2969 26.6389 14.3804 26.4902 14.5291C26.3415 14.6778 26.258 14.8794 26.258 15.0897V17.9474H19.7674V15.0897C19.7674 14.8794 19.6839 14.6778 19.5352 14.5291C19.3865 14.3804 19.1848 14.2969 18.9746 14.2969C18.7643 14.2969 18.5626 14.3804 18.4139 14.5291C18.2653 14.6778 18.1817 14.8794 18.1817 15.0897V17.9474H16.0582C15.6766 17.9476 15.3107 18.0992 15.0408 18.3691C14.771 18.6389 14.6193 19.0049 14.6191 19.3865V25.1649H14.6235L14.6411 41.127C14.6412 41.508 14.7925 41.8734 15.0617 42.1429C15.331 42.4125 15.6963 42.5642 16.0773 42.5646H30.8831C30.7724 42.0491 30.7145 41.5237 30.7102 40.9965L16.2077 40.9965ZM36.7348 21.1363C36.7348 21.5046 36.6084 21.8618 36.3768 22.1482C36.1451 22.4346 35.8223 22.6328 35.4621 22.7098C35.1019 22.7868 34.7262 22.7379 34.3977 22.5713C34.0692 22.4047 33.8079 22.1304 33.6572 21.7943C33.4863 21.4128 33.4705 20.9797 33.6133 20.5867C33.7454 20.2274 34.0002 19.9263 34.3328 19.7367V21.4352C34.3328 21.5394 34.3533 21.6425 34.3931 21.7387C34.4329 21.8349 34.4913 21.9223 34.5649 21.996C34.6386 22.0696 34.726 22.128 34.8222 22.1678C34.9184 22.2077 35.0215 22.2281 35.1257 22.2281C35.335 22.2245 35.5347 22.1399 35.6829 21.992C35.8311 21.8441 35.916 21.6445 35.92 21.4352V19.7382C36.2558 19.9277 36.5118 20.2322 36.641 20.5955C36.7035 20.7689 36.7352 20.9519 36.7348 21.1363ZM25.537 20.5911C25.6672 20.2291 25.923 19.9259 26.258 19.7368V21.4352C26.258 21.6455 26.3415 21.8472 26.4902 21.9959C26.6389 22.1445 26.8406 22.2281 27.0508 22.2281C27.2611 22.2281 27.4628 22.1445 27.6115 21.9959C27.7601 21.8472 27.8437 21.6455 27.8437 21.4352V19.7368C28.1793 19.9276 28.4356 20.2322 28.5662 20.5955C28.6287 20.7689 28.6604 20.9519 28.6599 21.1363C28.66 21.371 28.6087 21.603 28.5096 21.8158C28.4105 22.0286 28.266 22.2171 28.0863 22.3682C27.9066 22.5193 27.696 22.6292 27.4694 22.6903C27.2427 22.7513 27.0054 22.762 26.7741 22.7217C26.5429 22.6813 26.3232 22.5908 26.1307 22.4566C25.9381 22.3223 25.7772 22.1476 25.6593 21.9445C25.5414 21.7415 25.4694 21.5152 25.4483 21.2814C25.4271 21.0476 25.4574 20.812 25.537 20.5911ZM17.4622 20.5867C17.5943 20.2274 17.8491 19.9263 18.1817 19.7368V21.4352C18.1817 21.5394 18.2022 21.6425 18.2421 21.7387C18.2819 21.8348 18.3403 21.9222 18.414 21.9959C18.4876 22.0695 18.575 22.1279 18.6712 22.1677C18.7674 22.2076 18.8705 22.2281 18.9746 22.2281C19.0787 22.2281 19.1818 22.2076 19.278 22.1677C19.3742 22.1279 19.4616 22.0695 19.5352 21.9959C19.6088 21.9222 19.6672 21.8348 19.707 21.7387C19.7469 21.6425 19.7674 21.5394 19.7674 21.4352V19.7368C20.103 19.9276 20.3593 20.2322 20.4899 20.5955C20.5524 20.7689 20.5841 20.9519 20.5837 21.1363C20.5837 21.5046 20.4573 21.8618 20.2257 22.1482C19.9941 22.4346 19.6712 22.6328 19.311 22.7098C18.9508 22.7868 18.5751 22.7379 18.2466 22.5713C17.9181 22.4047 17.6568 22.1304 17.5062 21.7943C17.3352 21.4128 17.3194 20.9797 17.4622 20.5867Z" fill="white"/>
</svg>
