<svg width="61" height="61" viewBox="0 0 61 61" fill="none" xmlns="http://www.w3.org/2000/svg">
<circle cx="30.273" cy="30.1362" r="30.1362" fill="#222222"/>
<path d="M39.7256 25.6851C37.5436 20.6076 34.0338 16.7451 32.2582 17.4656C29.2428 18.6929 34.0544 24.579 19.2449 30.5973C17.9652 31.1193 17.6415 33.198 18.1774 34.4432C18.7118 35.6857 20.4613 36.9241 21.741 36.4048C21.9627 36.3139 22.7755 36.0522 22.7755 36.0522C23.6888 37.2795 24.6447 36.5522 24.985 37.3305L26.5801 40.9946C26.8818 41.6861 27.565 42.3267 28.0609 42.138L30.8848 41.0649C31.5295 40.8197 31.6824 40.2439 31.4854 39.7921C31.2733 39.3031 30.4027 39.1598 30.1534 38.5895C29.9054 38.022 29.0941 36.1954 28.8613 35.6196C28.5444 34.8372 29.218 34.1994 30.1974 34.0989C36.9389 33.3936 38.1993 37.5591 40.4943 36.6252C42.2671 35.902 41.9062 30.7584 39.7256 25.6851ZM38.9666 33.917C38.5713 34.0754 35.9182 31.9858 34.2239 28.0392C32.5282 24.0955 32.7417 20.4905 33.1356 20.3294C33.5296 20.171 36.1179 22.6945 37.8123 26.6383C39.508 30.5821 39.3606 33.7559 38.9666 33.917Z" fill="white"/>
</svg>
