<svg width="32" height="31" viewBox="0 0 32 31" fill="none" xmlns="http://www.w3.org/2000/svg">
<circle cx="16" cy="15.5" r="15.5" fill="#F2994A" fill-opacity="0.1"/>
<path d="M12.5479 8.40429C12.333 8.4907 12.1275 8.59881 11.9345 8.72696L11.5671 8.42985C11.1337 8.06528 10.5897 7.85802 10.0236 7.84178C9.45752 7.82554 8.90256 8.00127 8.44897 8.34039C7.98439 8.6641 7.64288 9.13535 7.4799 9.67763C7.31693 10.2199 7.34207 10.8014 7.55123 11.3275L9.74926 17.1293L9.5991 18.5223C9.59151 18.5112 9.58508 18.4995 9.57993 18.4871L6.9538 11.5544C6.69127 10.8967 6.65921 10.1695 6.86285 9.49135C7.06648 8.81314 7.4938 8.2239 8.07518 7.81964C8.6416 7.3954 9.33514 7.17579 10.0425 7.19668C10.7499 7.21757 11.4293 7.47773 11.9697 7.93465L12.5479 8.40429Z" fill="#F2994A"/>
<path d="M10.6346 14.8125C11.6306 15.6568 12.8116 16.2544 14.0818 16.5568V24.1253H12.8422C12.439 24.1253 12.0403 24.0406 11.672 23.8765C11.3037 23.7124 10.974 23.4727 10.7044 23.1729C10.4347 22.8731 10.2311 22.52 10.1068 22.1364C9.98254 21.7529 9.9403 21.3474 9.98286 20.9465L10.6346 14.8125ZM17.0913 16.7038C17.152 16.6974 17.2159 16.6878 17.2766 16.6782V24.1253H14.7208V16.6782C14.7815 16.6878 14.8454 16.6974 14.9061 16.7038C14.9732 16.7166 15.0371 16.7229 15.1041 16.7293C15.1712 16.7357 15.2319 16.7421 15.2926 16.7453C15.3306 16.7517 15.3691 16.7549 15.4077 16.7549C15.4907 16.7613 15.5738 16.7677 15.6568 16.7709C15.7719 16.7741 15.8837 16.7773 15.9987 16.7773C16.1137 16.7773 16.2255 16.7741 16.3405 16.7709C16.4236 16.7677 16.5067 16.7613 16.5897 16.7549C16.6283 16.7549 16.6667 16.7517 16.7047 16.7453C16.7654 16.7421 16.8293 16.7357 16.8932 16.7293C16.9571 16.7229 17.0242 16.7166 17.0913 16.7038ZM17.9156 16.5568C19.1858 16.2544 20.3668 15.6568 21.3628 14.8125L22.0145 20.9465C22.0571 21.3474 22.0148 21.7529 21.8905 22.1364C21.7662 22.52 21.5627 22.8731 21.293 23.1729C21.0234 23.4727 20.6937 23.7124 20.3254 23.8765C19.9571 24.0406 19.5584 24.1253 19.1552 24.1253H17.9156V16.5568ZM17.9156 8.15126H17.2766C17.2766 7.81234 17.142 7.48729 16.9023 7.24763C16.6627 7.00798 16.3376 6.87334 15.9987 6.87334C15.6598 6.87334 15.3347 7.00798 15.0951 7.24763C14.8554 7.48729 14.7208 7.81234 14.7208 8.15126H14.0818C14.0818 7.64287 14.2838 7.1553 14.6432 6.79582C15.0027 6.43633 15.4903 6.23438 15.9987 6.23438C16.5071 6.23438 16.9947 6.43633 17.3541 6.79582C17.7136 7.1553 17.9156 7.64287 17.9156 8.15126ZM21.2765 14.0297C20.2371 15.0206 18.9393 15.6983 17.5322 15.9849C16.5201 16.1894 15.4773 16.1894 14.4652 15.9849C13.058 15.6983 11.7603 15.0206 10.7209 14.0297L11.002 11.3621C11.0761 10.6556 11.4094 10.0018 11.9376 9.52676C12.4657 9.05176 13.1511 8.78935 13.8614 8.79023H18.136C18.8463 8.78935 19.5317 9.05176 20.0598 9.52676C20.5879 10.0018 20.9213 10.6556 20.9954 11.3621L21.2765 14.0297Z" fill="#F2994A"/>
<path d="M25.0433 11.5544L22.4172 18.4871C22.4121 18.4995 22.4056 18.5112 22.398 18.5223L22.2479 17.1293L24.4459 11.3275C24.6455 10.8002 24.6656 10.2217 24.5033 9.68174C24.341 9.14175 24.0052 8.67031 23.548 8.34037C23.0907 8.01044 22.5375 7.8404 21.9738 7.85657C21.4102 7.87275 20.8676 8.07423 20.43 8.42985L20.0626 8.72696C19.8697 8.59881 19.6641 8.4907 19.4492 8.40429L20.0275 7.93465C20.5679 7.47773 21.2473 7.21757 21.9546 7.19668C22.662 7.17579 23.3555 7.3954 23.922 7.81964C24.5033 8.2239 24.9307 8.81314 25.1343 9.49135C25.3379 10.1695 25.3059 10.8967 25.0433 11.5544Z" fill="#F2994A"/>
</svg>
