<svg width="370" height="193" viewBox="0 0 370 193" fill="none" xmlns="http://www.w3.org/2000/svg">
<rect x="0.5" y="0.5" width="369" height="192" rx="10.5" fill="#F1F2F8" stroke="#3D4080" stroke-dasharray="3 3"/>
<path d="M200.235 35.9375H184.098C183.608 35.9391 183.129 35.795 182.721 35.5234L179.843 33.5991C178.89 32.9619 177.769 32.6228 176.623 32.625H168.767C167.23 32.6267 165.756 33.2379 164.67 34.3247C163.583 35.4115 162.972 36.885 162.97 38.4219V40.9063H206.032C206.032 37.7097 203.432 35.9375 200.235 35.9375ZM201.866 72.375H167.136C165.615 72.3733 164.156 71.7738 163.073 70.7058C161.99 69.6379 161.37 68.187 161.347 66.6661L159.676 49.613V49.584C159.621 48.9005 159.709 48.2131 159.933 47.565C160.156 46.9169 160.512 46.3221 160.977 45.8182C161.442 45.3142 162.006 44.912 162.634 44.6367C163.262 44.3614 163.94 44.2191 164.626 44.2188H204.386C205.072 44.2194 205.75 44.3619 206.378 44.6373C207.005 44.9127 207.569 45.315 208.034 45.8189C208.499 46.3229 208.854 46.9175 209.078 47.5655C209.302 48.2134 209.389 48.9007 209.335 49.584V49.613L207.655 66.6661C207.632 68.187 207.012 69.6379 205.929 70.7058C204.846 71.7738 203.387 72.3733 201.866 72.375Z" fill="#3D4080"/>
<path d="M131.373 97L128.906 89.8457H128.854C128.865 90.0059 128.879 90.2246 128.895 90.502C128.91 90.7793 128.924 91.0762 128.936 91.3926C128.947 91.709 128.953 92.0117 128.953 92.3008V97H127.676V88.4336H129.65L132.023 95.2715H132.059L134.514 88.4336H136.482V97H135.141V92.2305C135.141 91.9688 135.145 91.6855 135.152 91.3809C135.164 91.0762 135.176 90.7871 135.188 90.5137C135.203 90.2402 135.215 90.0215 135.223 89.8574H135.176L132.615 97H131.373ZM141.141 90.3906C141.961 90.3906 142.58 90.5723 142.998 90.9355C143.42 91.2988 143.631 91.8652 143.631 92.6348V97H142.652L142.389 96.0801H142.342C142.158 96.3145 141.969 96.5078 141.773 96.6602C141.578 96.8125 141.352 96.9258 141.094 97C140.84 97.0781 140.529 97.1172 140.162 97.1172C139.775 97.1172 139.43 97.0469 139.125 96.9062C138.82 96.7617 138.58 96.543 138.404 96.25C138.229 95.957 138.141 95.5859 138.141 95.1367C138.141 94.4688 138.389 93.9668 138.885 93.6309C139.385 93.2949 140.139 93.1094 141.146 93.0742L142.271 93.0332V92.6934C142.271 92.2441 142.166 91.9238 141.955 91.7324C141.748 91.541 141.455 91.4453 141.076 91.4453C140.752 91.4453 140.438 91.4922 140.133 91.5859C139.828 91.6797 139.531 91.7949 139.242 91.9316L138.797 90.959C139.113 90.791 139.473 90.6543 139.875 90.5488C140.281 90.4434 140.703 90.3906 141.141 90.3906ZM142.266 93.9004L141.428 93.9297C140.74 93.9531 140.258 94.0703 139.98 94.2812C139.703 94.4922 139.564 94.7812 139.564 95.1484C139.564 95.4688 139.66 95.7031 139.852 95.8516C140.043 95.9961 140.295 96.0684 140.607 96.0684C141.084 96.0684 141.479 95.9336 141.791 95.6641C142.107 95.3906 142.266 94.9902 142.266 94.4629V93.9004ZM146.994 93.6836L144.826 90.5137H146.396L147.879 92.793L149.367 90.5137H150.932L148.752 93.6836L151.043 97H149.467L147.879 94.5684L146.285 97H144.721L146.994 93.6836ZM151.969 96.2734C151.969 95.9531 152.051 95.7285 152.215 95.5996C152.383 95.4668 152.586 95.4004 152.824 95.4004C153.062 95.4004 153.266 95.4668 153.434 95.5996C153.605 95.7285 153.691 95.9531 153.691 96.2734C153.691 96.5859 153.605 96.8125 153.434 96.9531C153.266 97.0898 153.062 97.1582 152.824 97.1582C152.586 97.1582 152.383 97.0898 152.215 96.9531C152.051 96.8125 151.969 96.5859 151.969 96.2734ZM160.113 97H158.719V88.4336H163.559V89.6172H160.113V92.2891H163.336V93.4668H160.113V97ZM166.354 90.5137V97H164.977V90.5137H166.354ZM165.674 88.0293C165.885 88.0293 166.066 88.0859 166.219 88.1992C166.375 88.3125 166.453 88.5078 166.453 88.7852C166.453 89.0586 166.375 89.2539 166.219 89.3711C166.066 89.4844 165.885 89.541 165.674 89.541C165.455 89.541 165.27 89.4844 165.117 89.3711C164.969 89.2539 164.895 89.0586 164.895 88.7852C164.895 88.5078 164.969 88.3125 165.117 88.1992C165.27 88.0859 165.455 88.0293 165.674 88.0293ZM169.711 97H168.328V87.8828H169.711V97ZM174.264 90.3906C174.842 90.3906 175.338 90.5098 175.752 90.748C176.166 90.9863 176.484 91.3242 176.707 91.7617C176.93 92.1992 177.041 92.7227 177.041 93.332V94.0703H172.711C172.727 94.6992 172.895 95.1836 173.215 95.5234C173.539 95.8633 173.992 96.0332 174.574 96.0332C174.988 96.0332 175.359 95.9941 175.688 95.916C176.02 95.834 176.361 95.7148 176.713 95.5586V96.6777C176.389 96.8301 176.059 96.9414 175.723 97.0117C175.387 97.082 174.984 97.1172 174.516 97.1172C173.879 97.1172 173.318 96.9941 172.834 96.748C172.354 96.498 171.977 96.127 171.703 95.6348C171.434 95.1426 171.299 94.5312 171.299 93.8008C171.299 93.0742 171.422 92.457 171.668 91.9492C171.914 91.4414 172.26 91.0547 172.705 90.7891C173.15 90.5234 173.67 90.3906 174.264 90.3906ZM174.264 91.4277C173.83 91.4277 173.479 91.5684 173.209 91.8496C172.943 92.1309 172.787 92.543 172.74 93.0859H175.693C175.689 92.7617 175.635 92.4746 175.529 92.2246C175.428 91.9746 175.271 91.7793 175.061 91.6387C174.854 91.498 174.588 91.4277 174.264 91.4277ZM186.797 94.668C186.797 95.1758 186.672 95.6133 186.422 95.9805C186.176 96.3477 185.82 96.6289 185.355 96.8242C184.895 97.0195 184.344 97.1172 183.703 97.1172C183.391 97.1172 183.092 97.0996 182.807 97.0645C182.521 97.0293 182.252 96.9785 181.998 96.9121C181.748 96.8418 181.52 96.7578 181.312 96.6602V95.3359C181.66 95.4883 182.049 95.627 182.479 95.752C182.908 95.873 183.346 95.9336 183.791 95.9336C184.154 95.9336 184.455 95.8867 184.693 95.793C184.936 95.6953 185.115 95.5586 185.232 95.3828C185.35 95.2031 185.408 94.9941 185.408 94.7559C185.408 94.502 185.34 94.2871 185.203 94.1113C185.066 93.9355 184.859 93.7754 184.582 93.6309C184.309 93.4824 183.965 93.3242 183.551 93.1562C183.27 93.043 183 92.9141 182.742 92.7695C182.488 92.625 182.262 92.4551 182.062 92.2598C181.863 92.0645 181.705 91.834 181.588 91.5684C181.475 91.2988 181.418 90.9824 181.418 90.6191C181.418 90.1348 181.533 89.7207 181.764 89.377C181.998 89.0332 182.326 88.7695 182.748 88.5859C183.174 88.4023 183.67 88.3105 184.236 88.3105C184.686 88.3105 185.107 88.3574 185.502 88.4512C185.9 88.5449 186.291 88.6777 186.674 88.8496L186.229 89.9805C185.877 89.8359 185.535 89.7207 185.203 89.6348C184.875 89.5488 184.539 89.5059 184.195 89.5059C183.898 89.5059 183.646 89.5508 183.439 89.6406C183.232 89.7305 183.074 89.8574 182.965 90.0215C182.859 90.1816 182.807 90.373 182.807 90.5957C182.807 90.8457 182.867 91.0566 182.988 91.2285C183.113 91.3965 183.305 91.5508 183.562 91.6914C183.824 91.832 184.16 91.9883 184.57 92.1602C185.043 92.3555 185.443 92.5605 185.771 92.7754C186.104 92.9902 186.357 93.248 186.533 93.5488C186.709 93.8457 186.797 94.2188 186.797 94.668ZM189.686 90.5137V97H188.309V90.5137H189.686ZM189.006 88.0293C189.217 88.0293 189.398 88.0859 189.551 88.1992C189.707 88.3125 189.785 88.5078 189.785 88.7852C189.785 89.0586 189.707 89.2539 189.551 89.3711C189.398 89.4844 189.217 89.541 189.006 89.541C188.787 89.541 188.602 89.4844 188.449 89.3711C188.301 89.2539 188.227 89.0586 188.227 88.7852C188.227 88.5078 188.301 88.3125 188.449 88.1992C188.602 88.0859 188.787 88.0293 189.006 88.0293ZM196.002 97H191.074V96.1504L194.35 91.5742H191.273V90.5137H195.908V91.4512L192.697 95.9395H196.002V97ZM199.986 90.3906C200.564 90.3906 201.061 90.5098 201.475 90.748C201.889 90.9863 202.207 91.3242 202.43 91.7617C202.652 92.1992 202.764 92.7227 202.764 93.332V94.0703H198.434C198.449 94.6992 198.617 95.1836 198.938 95.5234C199.262 95.8633 199.715 96.0332 200.297 96.0332C200.711 96.0332 201.082 95.9941 201.41 95.916C201.742 95.834 202.084 95.7148 202.436 95.5586V96.6777C202.111 96.8301 201.781 96.9414 201.445 97.0117C201.109 97.082 200.707 97.1172 200.238 97.1172C199.602 97.1172 199.041 96.9941 198.557 96.748C198.076 96.498 197.699 96.127 197.426 95.6348C197.156 95.1426 197.021 94.5312 197.021 93.8008C197.021 93.0742 197.145 92.457 197.391 91.9492C197.637 91.4414 197.982 91.0547 198.428 90.7891C198.873 90.5234 199.393 90.3906 199.986 90.3906ZM199.986 91.4277C199.553 91.4277 199.201 91.5684 198.932 91.8496C198.666 92.1309 198.51 92.543 198.463 93.0859H201.416C201.412 92.7617 201.357 92.4746 201.252 92.2246C201.15 91.9746 200.994 91.7793 200.783 91.6387C200.576 91.498 200.311 91.4277 199.986 91.4277ZM204.117 96.2734C204.117 95.9531 204.199 95.7285 204.363 95.5996C204.531 95.4668 204.734 95.4004 204.973 95.4004C205.211 95.4004 205.414 95.4668 205.582 95.5996C205.754 95.7285 205.84 95.9531 205.84 96.2734C205.84 96.5859 205.754 96.8125 205.582 96.9531C205.414 97.0898 205.211 97.1582 204.973 97.1582C204.734 97.1582 204.531 97.0898 204.363 96.9531C204.199 96.8125 204.117 96.5859 204.117 96.2734ZM204.117 91.2578C204.117 90.9336 204.199 90.7051 204.363 90.5723C204.531 90.4395 204.734 90.373 204.973 90.373C205.211 90.373 205.414 90.4395 205.582 90.5723C205.754 90.7051 205.84 90.9336 205.84 91.2578C205.84 91.5664 205.754 91.791 205.582 91.9316C205.414 92.0684 205.211 92.1367 204.973 92.1367C204.734 92.1367 204.531 92.0684 204.363 91.9316C204.199 91.791 204.117 91.5664 204.117 91.2578ZM216.082 97H210.281V95.9629L212.502 93.7129C212.932 93.2754 213.285 92.8984 213.562 92.582C213.84 92.2617 214.045 91.959 214.178 91.6738C214.314 91.3887 214.383 91.0781 214.383 90.7422C214.383 90.3281 214.264 90.0156 214.025 89.8047C213.787 89.5898 213.473 89.4824 213.082 89.4824C212.711 89.4824 212.367 89.5566 212.051 89.7051C211.738 89.8496 211.414 90.0566 211.078 90.3262L210.322 89.418C210.561 89.2148 210.814 89.0293 211.084 88.8613C211.357 88.6934 211.662 88.5605 211.998 88.4629C212.334 88.3613 212.717 88.3105 213.146 88.3105C213.689 88.3105 214.158 88.4082 214.553 88.6035C214.947 88.7949 215.25 89.0625 215.461 89.4062C215.676 89.75 215.783 90.1504 215.783 90.6074C215.783 91.0684 215.691 91.4941 215.508 91.8848C215.324 92.2754 215.062 92.6621 214.723 93.0449C214.383 93.4238 213.979 93.8359 213.51 94.2812L212.027 95.7285V95.793H216.082V97ZM222.949 92.7109C222.949 93.4023 222.895 94.0215 222.785 94.5684C222.68 95.1113 222.512 95.5723 222.281 95.9512C222.051 96.3301 221.75 96.6191 221.379 96.8184C221.008 97.0176 220.559 97.1172 220.031 97.1172C219.371 97.1172 218.826 96.9434 218.396 96.5957C217.967 96.2441 217.648 95.7402 217.441 95.084C217.234 94.4238 217.131 93.6328 217.131 92.7109C217.131 91.7891 217.225 91 217.412 90.3438C217.604 89.6836 217.912 89.1777 218.338 88.8262C218.764 88.4746 219.328 88.2988 220.031 88.2988C220.695 88.2988 221.242 88.4746 221.672 88.8262C222.105 89.1738 222.426 89.6777 222.633 90.3379C222.844 90.9941 222.949 91.7852 222.949 92.7109ZM218.52 92.7109C218.52 93.4336 218.566 94.0371 218.66 94.5215C218.758 95.0059 218.918 95.3691 219.141 95.6113C219.363 95.8496 219.66 95.9688 220.031 95.9688C220.402 95.9688 220.699 95.8496 220.922 95.6113C221.145 95.373 221.305 95.0117 221.402 94.5273C221.504 94.043 221.555 93.4375 221.555 92.7109C221.555 91.9922 221.506 91.3906 221.408 90.9062C221.311 90.4219 221.15 90.0586 220.928 89.8164C220.705 89.5703 220.406 89.4473 220.031 89.4473C219.656 89.4473 219.357 89.5703 219.135 89.8164C218.916 90.0586 218.758 90.4219 218.66 90.9062C218.566 91.3906 218.52 91.9922 218.52 92.7109ZM228.299 97L225.832 89.8457H225.779C225.791 90.0059 225.805 90.2246 225.82 90.502C225.836 90.7793 225.85 91.0762 225.861 91.3926C225.873 91.709 225.879 92.0117 225.879 92.3008V97H224.602V88.4336H226.576L228.949 95.2715H228.984L231.439 88.4336H233.408V97H232.066V92.2305C232.066 91.9688 232.07 91.6855 232.078 91.3809C232.09 91.0762 232.102 90.7871 232.113 90.5137C232.129 90.2402 232.141 90.0215 232.148 89.8574H232.102L229.541 97H228.299ZM235.664 88.4336H238.213C239.318 88.4336 240.152 88.5938 240.715 88.9141C241.277 89.2344 241.559 89.7871 241.559 90.5723C241.559 90.9004 241.5 91.1973 241.383 91.4629C241.27 91.7246 241.104 91.9414 240.885 92.1133C240.666 92.2812 240.396 92.3945 240.076 92.4531V92.5117C240.408 92.5703 240.703 92.6738 240.961 92.8223C241.223 92.9707 241.428 93.1836 241.576 93.4609C241.729 93.7383 241.805 94.0977 241.805 94.5391C241.805 95.0625 241.68 95.5078 241.43 95.875C241.184 96.2422 240.83 96.5215 240.369 96.7129C239.912 96.9043 239.369 97 238.74 97H235.664V88.4336ZM237.07 91.9668H238.418C239.055 91.9668 239.496 91.8633 239.742 91.6562C239.988 91.4492 240.111 91.1465 240.111 90.748C240.111 90.3418 239.965 90.0488 239.672 89.8691C239.383 89.6895 238.922 89.5996 238.289 89.5996H237.07V91.9668ZM237.07 93.1035V95.8223H238.553C239.209 95.8223 239.67 95.6953 239.936 95.4414C240.201 95.1875 240.334 94.8438 240.334 94.4102C240.334 94.1445 240.273 93.9141 240.152 93.7188C240.035 93.5234 239.842 93.373 239.572 93.2676C239.303 93.1582 238.939 93.1035 238.482 93.1035H237.07Z" fill="#555555"/>
<path d="M121.261 120.006V126.473C121.261 127.612 120.917 128.507 120.229 129.159C119.54 129.811 118.595 130.137 117.392 130.137C116.188 130.137 115.257 129.809 114.596 129.152C113.939 128.496 113.611 127.594 113.611 126.445V120.006H114.773V126.527C114.773 127.361 115.001 128.002 115.457 128.448C115.913 128.895 116.583 129.118 117.467 129.118C118.31 129.118 118.959 128.895 119.415 128.448C119.871 127.997 120.099 127.352 120.099 126.514V120.006H121.261ZM127.229 130.137C126.741 130.137 126.294 130.048 125.889 129.87C125.488 129.688 125.15 129.41 124.877 129.036H124.795C124.85 129.474 124.877 129.888 124.877 130.28V133.363H123.742V122.508H124.665L124.822 123.533H124.877C125.169 123.123 125.508 122.827 125.896 122.645C126.283 122.462 126.727 122.371 127.229 122.371C128.222 122.371 128.988 122.711 129.525 123.39C130.068 124.069 130.339 125.021 130.339 126.247C130.339 127.478 130.063 128.435 129.512 129.118C128.965 129.797 128.204 130.137 127.229 130.137ZM127.064 123.335C126.299 123.335 125.745 123.547 125.403 123.971C125.062 124.395 124.886 125.069 124.877 125.994V126.247C124.877 127.3 125.052 128.054 125.403 128.51C125.754 128.961 126.317 129.187 127.092 129.187C127.739 129.187 128.245 128.924 128.609 128.4C128.979 127.876 129.163 127.154 129.163 126.233C129.163 125.299 128.979 124.584 128.609 124.087C128.245 123.586 127.73 123.335 127.064 123.335ZM133.463 130H132.328V119.363H133.463V130ZM142.336 126.247C142.336 127.468 142.028 128.423 141.413 129.111C140.798 129.795 139.948 130.137 138.863 130.137C138.193 130.137 137.599 129.979 137.079 129.665C136.56 129.351 136.159 128.899 135.876 128.312C135.593 127.724 135.452 127.035 135.452 126.247C135.452 125.026 135.757 124.076 136.368 123.396C136.979 122.713 137.826 122.371 138.911 122.371C139.959 122.371 140.791 122.72 141.406 123.417C142.026 124.114 142.336 125.058 142.336 126.247ZM136.628 126.247C136.628 127.204 136.819 127.933 137.202 128.435C137.585 128.936 138.148 129.187 138.891 129.187C139.633 129.187 140.196 128.938 140.579 128.441C140.966 127.94 141.16 127.209 141.16 126.247C141.16 125.295 140.966 124.572 140.579 124.08C140.196 123.583 139.629 123.335 138.877 123.335C138.134 123.335 137.574 123.579 137.195 124.066C136.817 124.554 136.628 125.281 136.628 126.247ZM148.939 130L148.714 128.934H148.659C148.285 129.403 147.912 129.722 147.538 129.891C147.169 130.055 146.706 130.137 146.15 130.137C145.408 130.137 144.824 129.945 144.4 129.562C143.981 129.18 143.771 128.635 143.771 127.929C143.771 126.416 144.981 125.623 147.401 125.55L148.673 125.509V125.044C148.673 124.456 148.545 124.023 148.29 123.745C148.039 123.463 147.636 123.321 147.08 123.321C146.456 123.321 145.749 123.513 144.961 123.896L144.612 123.027C144.981 122.827 145.385 122.67 145.822 122.556C146.264 122.442 146.706 122.385 147.148 122.385C148.042 122.385 148.702 122.583 149.131 122.979C149.564 123.376 149.78 124.012 149.78 124.887V130H148.939ZM146.376 129.2C147.082 129.2 147.636 129.007 148.037 128.619C148.443 128.232 148.646 127.689 148.646 126.992V126.315L147.511 126.363C146.608 126.395 145.957 126.536 145.556 126.787C145.159 127.033 144.961 127.418 144.961 127.942C144.961 128.353 145.084 128.665 145.33 128.879C145.581 129.093 145.929 129.2 146.376 129.2ZM157.225 128.995H157.163C156.639 129.756 155.855 130.137 154.812 130.137C153.832 130.137 153.068 129.802 152.521 129.132C151.979 128.462 151.708 127.509 151.708 126.274C151.708 125.039 151.981 124.08 152.528 123.396C153.075 122.713 153.836 122.371 154.812 122.371C155.828 122.371 156.607 122.74 157.149 123.479H157.238L157.19 122.938L157.163 122.412V119.363H158.298V130H157.375L157.225 128.995ZM154.955 129.187C155.73 129.187 156.29 128.977 156.637 128.558C156.988 128.134 157.163 127.452 157.163 126.514V126.274C157.163 125.213 156.985 124.456 156.63 124.005C156.279 123.549 155.716 123.321 154.941 123.321C154.276 123.321 153.766 123.581 153.41 124.101C153.059 124.616 152.884 125.345 152.884 126.288C152.884 127.245 153.059 127.967 153.41 128.455C153.761 128.943 154.276 129.187 154.955 129.187ZM163.158 122.508H164.375L166.016 126.78C166.376 127.756 166.599 128.46 166.686 128.893H166.74C166.799 128.66 166.923 128.264 167.109 127.703C167.301 127.138 167.921 125.406 168.969 122.508H170.186L166.966 131.039C166.647 131.882 166.273 132.479 165.845 132.83C165.421 133.186 164.899 133.363 164.279 133.363C163.933 133.363 163.591 133.325 163.254 133.247V132.338C163.505 132.393 163.785 132.42 164.095 132.42C164.874 132.42 165.43 131.982 165.763 131.107L166.18 130.041L163.158 122.508ZM177.869 126.247C177.869 127.468 177.562 128.423 176.946 129.111C176.331 129.795 175.481 130.137 174.396 130.137C173.727 130.137 173.132 129.979 172.612 129.665C172.093 129.351 171.692 128.899 171.409 128.312C171.127 127.724 170.985 127.035 170.985 126.247C170.985 125.026 171.291 124.076 171.901 123.396C172.512 122.713 173.36 122.371 174.444 122.371C175.493 122.371 176.324 122.72 176.939 123.417C177.559 124.114 177.869 125.058 177.869 126.247ZM172.161 126.247C172.161 127.204 172.353 127.933 172.735 128.435C173.118 128.936 173.681 129.187 174.424 129.187C175.167 129.187 175.729 128.938 176.112 128.441C176.5 127.94 176.693 127.209 176.693 126.247C176.693 125.295 176.5 124.572 176.112 124.08C175.729 123.583 175.162 123.335 174.41 123.335C173.667 123.335 173.107 123.579 172.729 124.066C172.35 124.554 172.161 125.281 172.161 126.247ZM180.932 122.508V127.368C180.932 127.979 181.071 128.435 181.349 128.735C181.627 129.036 182.062 129.187 182.654 129.187C183.438 129.187 184.01 128.972 184.37 128.544C184.735 128.116 184.917 127.416 184.917 126.445V122.508H186.052V130H185.115L184.951 128.995H184.89C184.657 129.364 184.334 129.647 183.919 129.843C183.509 130.039 183.039 130.137 182.511 130.137C181.599 130.137 180.916 129.92 180.46 129.487C180.009 129.054 179.783 128.362 179.783 127.409V122.508H180.932ZM191.883 122.371C192.215 122.371 192.514 122.398 192.778 122.453L192.621 123.506C192.311 123.438 192.038 123.403 191.801 123.403C191.195 123.403 190.675 123.649 190.242 124.142C189.814 124.634 189.6 125.247 189.6 125.98V130H188.465V122.508H189.401L189.531 123.896H189.586C189.864 123.408 190.199 123.032 190.591 122.768C190.983 122.503 191.413 122.371 191.883 122.371ZM201.193 123.39H199.286V130H198.151V123.39H196.812V122.877L198.151 122.467V122.05C198.151 120.209 198.956 119.288 200.564 119.288C200.961 119.288 201.426 119.368 201.959 119.527L201.665 120.437C201.228 120.295 200.854 120.225 200.544 120.225C200.116 120.225 199.799 120.368 199.594 120.655C199.389 120.938 199.286 121.394 199.286 122.022V122.508H201.193V123.39ZM203.695 130H202.561V122.508H203.695V130ZM202.465 120.478C202.465 120.218 202.529 120.029 202.656 119.91C202.784 119.787 202.943 119.726 203.135 119.726C203.317 119.726 203.474 119.787 203.606 119.91C203.739 120.033 203.805 120.222 203.805 120.478C203.805 120.733 203.739 120.924 203.606 121.052C203.474 121.175 203.317 121.236 203.135 121.236C202.943 121.236 202.784 121.175 202.656 121.052C202.529 120.924 202.465 120.733 202.465 120.478ZM207.236 130H206.102V119.363H207.236V130ZM212.808 130.137C211.7 130.137 210.825 129.799 210.183 129.125C209.545 128.451 209.226 127.514 209.226 126.315C209.226 125.108 209.522 124.148 210.114 123.438C210.711 122.727 211.511 122.371 212.514 122.371C213.452 122.371 214.195 122.681 214.742 123.301C215.289 123.916 215.562 124.729 215.562 125.741V126.459H210.401C210.424 127.339 210.645 128.006 211.064 128.462C211.488 128.918 212.083 129.146 212.849 129.146C213.655 129.146 214.453 128.977 215.241 128.64V129.651C214.84 129.825 214.46 129.948 214.1 130.021C213.744 130.098 213.313 130.137 212.808 130.137ZM212.5 123.321C211.898 123.321 211.418 123.517 211.058 123.909C210.702 124.301 210.493 124.843 210.429 125.536H214.346C214.346 124.821 214.186 124.274 213.867 123.896C213.548 123.513 213.092 123.321 212.5 123.321ZM222.337 127.956C222.337 128.653 222.077 129.191 221.558 129.569C221.038 129.948 220.309 130.137 219.37 130.137C218.377 130.137 217.602 129.979 217.046 129.665V128.612C217.406 128.795 217.791 128.938 218.201 129.043C218.616 129.148 219.015 129.2 219.397 129.2C219.99 129.2 220.446 129.107 220.765 128.92C221.084 128.729 221.243 128.439 221.243 128.052C221.243 127.76 221.116 127.512 220.86 127.307C220.61 127.097 220.118 126.851 219.384 126.568C218.687 126.309 218.19 126.083 217.894 125.892C217.602 125.696 217.383 125.475 217.237 125.229C217.096 124.982 217.025 124.688 217.025 124.347C217.025 123.736 217.274 123.255 217.771 122.904C218.267 122.549 218.949 122.371 219.814 122.371C220.621 122.371 221.41 122.535 222.18 122.863L221.776 123.786C221.024 123.476 220.343 123.321 219.732 123.321C219.195 123.321 218.789 123.406 218.516 123.574C218.242 123.743 218.105 123.975 218.105 124.271C218.105 124.472 218.156 124.643 218.256 124.784C218.361 124.925 218.527 125.06 218.755 125.188C218.983 125.315 219.42 125.5 220.067 125.741C220.956 126.065 221.555 126.391 221.865 126.719C222.18 127.047 222.337 127.459 222.337 127.956ZM232.953 130V125.153C232.953 124.543 232.814 124.087 232.536 123.786C232.258 123.485 231.823 123.335 231.23 123.335C230.442 123.335 229.866 123.549 229.501 123.978C229.141 124.406 228.961 125.108 228.961 126.083V130H227.826V119.363H228.961V122.583C228.961 122.97 228.943 123.292 228.906 123.547H228.975C229.198 123.187 229.515 122.904 229.925 122.699C230.34 122.49 230.811 122.385 231.34 122.385C232.256 122.385 232.942 122.604 233.397 123.041C233.858 123.474 234.088 124.164 234.088 125.112V130H232.953ZM239.591 130.137C238.483 130.137 237.608 129.799 236.966 129.125C236.328 128.451 236.009 127.514 236.009 126.315C236.009 125.108 236.305 124.148 236.897 123.438C237.494 122.727 238.294 122.371 239.297 122.371C240.236 122.371 240.979 122.681 241.525 123.301C242.072 123.916 242.346 124.729 242.346 125.741V126.459H237.185C237.207 127.339 237.428 128.006 237.848 128.462C238.271 128.918 238.866 129.146 239.632 129.146C240.438 129.146 241.236 128.977 242.024 128.64V129.651C241.623 129.825 241.243 129.948 240.883 130.021C240.527 130.098 240.097 130.137 239.591 130.137ZM239.283 123.321C238.682 123.321 238.201 123.517 237.841 123.909C237.485 124.301 237.276 124.843 237.212 125.536H241.129C241.129 124.821 240.969 124.274 240.65 123.896C240.331 123.513 239.876 123.321 239.283 123.321ZM247.705 122.371C248.038 122.371 248.336 122.398 248.601 122.453L248.443 123.506C248.133 123.438 247.86 123.403 247.623 123.403C247.017 123.403 246.497 123.649 246.064 124.142C245.636 124.634 245.422 125.247 245.422 125.98V130H244.287V122.508H245.224L245.354 123.896H245.408C245.686 123.408 246.021 123.032 246.413 122.768C246.805 122.503 247.236 122.371 247.705 122.371ZM253.167 130.137C252.06 130.137 251.185 129.799 250.542 129.125C249.904 128.451 249.585 127.514 249.585 126.315C249.585 125.108 249.881 124.148 250.474 123.438C251.071 122.727 251.87 122.371 252.873 122.371C253.812 122.371 254.555 122.681 255.102 123.301C255.648 123.916 255.922 124.729 255.922 125.741V126.459H250.761C250.784 127.339 251.005 128.006 251.424 128.462C251.848 128.918 252.442 129.146 253.208 129.146C254.015 129.146 254.812 128.977 255.601 128.64V129.651C255.2 129.825 254.819 129.948 254.459 130.021C254.104 130.098 253.673 130.137 253.167 130.137ZM252.859 123.321C252.258 123.321 251.777 123.517 251.417 123.909C251.062 124.301 250.852 124.843 250.788 125.536H254.705C254.705 124.821 254.546 124.274 254.227 123.896C253.908 123.513 253.452 123.321 252.859 123.321Z" fill="#555555"/>
<path d="M160.752 154.006H163.726C165.015 154.006 165.988 154.193 166.645 154.566C167.301 154.94 167.629 155.585 167.629 156.501C167.629 156.884 167.561 157.23 167.424 157.54C167.292 157.845 167.098 158.098 166.843 158.299C166.588 158.495 166.273 158.627 165.899 158.695V158.764C166.287 158.832 166.631 158.953 166.932 159.126C167.237 159.299 167.476 159.548 167.649 159.871C167.827 160.195 167.916 160.614 167.916 161.129C167.916 161.74 167.77 162.259 167.479 162.688C167.191 163.116 166.779 163.442 166.241 163.665C165.708 163.888 165.075 164 164.341 164H160.752V154.006ZM162.393 158.128H163.965C164.708 158.128 165.223 158.007 165.51 157.766C165.797 157.524 165.94 157.171 165.94 156.706C165.94 156.232 165.77 155.89 165.428 155.681C165.09 155.471 164.553 155.366 163.814 155.366H162.393V158.128ZM162.393 159.454V162.626H164.122C164.888 162.626 165.425 162.478 165.735 162.182C166.045 161.885 166.2 161.484 166.2 160.979C166.2 160.669 166.13 160.4 165.988 160.172C165.852 159.944 165.626 159.769 165.312 159.646C164.997 159.518 164.573 159.454 164.04 159.454H162.393ZM173.651 156.289C173.779 156.289 173.918 156.296 174.068 156.31C174.219 156.323 174.349 156.341 174.458 156.364L174.308 157.868C174.212 157.841 174.093 157.82 173.952 157.807C173.815 157.793 173.692 157.786 173.583 157.786C173.296 157.786 173.022 157.834 172.763 157.93C172.503 158.021 172.273 158.162 172.072 158.354C171.872 158.54 171.715 158.775 171.601 159.058C171.487 159.34 171.43 159.668 171.43 160.042V164H169.816V156.433H171.074L171.293 157.766H171.368C171.519 157.497 171.705 157.251 171.929 157.027C172.152 156.804 172.407 156.626 172.694 156.494C172.986 156.357 173.305 156.289 173.651 156.289ZM182.559 160.199C182.559 160.828 182.477 161.386 182.312 161.874C182.148 162.362 181.909 162.774 181.595 163.111C181.28 163.444 180.902 163.699 180.46 163.877C180.018 164.05 179.519 164.137 178.963 164.137C178.443 164.137 177.967 164.05 177.534 163.877C177.101 163.699 176.725 163.444 176.406 163.111C176.092 162.774 175.848 162.362 175.675 161.874C175.502 161.386 175.415 160.828 175.415 160.199C175.415 159.365 175.559 158.659 175.846 158.08C176.137 157.497 176.552 157.052 177.09 156.747C177.628 156.442 178.268 156.289 179.011 156.289C179.708 156.289 180.323 156.442 180.856 156.747C181.39 157.052 181.807 157.497 182.107 158.08C182.408 158.663 182.559 159.37 182.559 160.199ZM177.069 160.199C177.069 160.751 177.135 161.222 177.268 161.614C177.404 162.006 177.614 162.307 177.896 162.517C178.179 162.722 178.544 162.824 178.99 162.824C179.437 162.824 179.801 162.722 180.084 162.517C180.367 162.307 180.574 162.006 180.706 161.614C180.838 161.222 180.904 160.751 180.904 160.199C180.904 159.648 180.838 159.181 180.706 158.798C180.574 158.41 180.367 158.117 180.084 157.916C179.801 157.711 179.435 157.608 178.983 157.608C178.318 157.608 177.833 157.832 177.527 158.278C177.222 158.725 177.069 159.365 177.069 160.199ZM190.591 163.993L189.634 160.473C189.588 160.299 189.534 160.09 189.47 159.844C189.406 159.598 189.342 159.345 189.278 159.085C189.215 158.821 189.155 158.577 189.101 158.354C189.05 158.13 189.012 157.957 188.984 157.834H188.93C188.907 157.957 188.87 158.13 188.82 158.354C188.77 158.577 188.713 158.821 188.649 159.085C188.586 159.349 188.522 159.607 188.458 159.857C188.399 160.108 188.344 160.322 188.294 160.5L187.289 163.993H185.525L183.406 156.426H185.033L186.018 160.186C186.081 160.441 186.143 160.716 186.202 161.013C186.266 161.309 186.321 161.591 186.366 161.86C186.412 162.129 186.446 162.35 186.469 162.523H186.523C186.542 162.4 186.567 162.245 186.599 162.059C186.631 161.867 186.667 161.669 186.708 161.464C186.749 161.254 186.79 161.058 186.831 160.876C186.872 160.689 186.911 160.539 186.947 160.425L188.109 156.426H189.866L190.98 160.425C191.031 160.598 191.085 160.817 191.145 161.081C191.204 161.341 191.256 161.603 191.302 161.867C191.352 162.127 191.384 162.343 191.397 162.517H191.452C191.47 162.362 191.502 162.152 191.548 161.888C191.598 161.619 191.655 161.334 191.719 161.033C191.783 160.728 191.849 160.445 191.917 160.186L192.922 156.426H194.521L192.389 163.993H190.591ZM200.906 161.84C200.906 162.337 200.785 162.756 200.544 163.098C200.302 163.439 199.949 163.699 199.484 163.877C199.024 164.05 198.459 164.137 197.789 164.137C197.26 164.137 196.805 164.098 196.422 164.021C196.044 163.948 195.686 163.834 195.349 163.679V162.291C195.709 162.46 196.112 162.605 196.559 162.729C197.01 162.852 197.436 162.913 197.837 162.913C198.366 162.913 198.746 162.831 198.979 162.667C199.211 162.498 199.327 162.275 199.327 161.997C199.327 161.833 199.279 161.687 199.184 161.56C199.092 161.427 198.919 161.293 198.664 161.156C198.413 161.015 198.044 160.846 197.557 160.65C197.078 160.459 196.675 160.268 196.347 160.076C196.019 159.885 195.77 159.655 195.602 159.386C195.433 159.112 195.349 158.764 195.349 158.34C195.349 157.67 195.613 157.162 196.142 156.815C196.675 156.465 197.379 156.289 198.254 156.289C198.719 156.289 199.156 156.337 199.566 156.433C199.981 156.524 200.387 156.658 200.783 156.836L200.277 158.046C199.936 157.896 199.591 157.772 199.245 157.677C198.903 157.576 198.555 157.526 198.199 157.526C197.785 157.526 197.468 157.59 197.249 157.718C197.035 157.845 196.928 158.028 196.928 158.265C196.928 158.442 196.98 158.593 197.085 158.716C197.19 158.839 197.37 158.962 197.625 159.085C197.885 159.208 198.245 159.361 198.705 159.543C199.156 159.716 199.546 159.898 199.874 160.09C200.207 160.277 200.462 160.507 200.64 160.78C200.817 161.054 200.906 161.407 200.906 161.84ZM205.657 156.289C206.332 156.289 206.91 156.428 207.394 156.706C207.877 156.984 208.248 157.378 208.508 157.889C208.768 158.399 208.897 159.01 208.897 159.721V160.582H203.846C203.864 161.316 204.06 161.881 204.434 162.277C204.812 162.674 205.34 162.872 206.02 162.872C206.503 162.872 206.936 162.826 207.318 162.735C207.706 162.64 208.104 162.501 208.515 162.318V163.624C208.136 163.802 207.751 163.932 207.359 164.014C206.967 164.096 206.498 164.137 205.951 164.137C205.208 164.137 204.554 163.993 203.989 163.706C203.429 163.414 202.989 162.981 202.67 162.407C202.355 161.833 202.198 161.12 202.198 160.268C202.198 159.42 202.342 158.7 202.629 158.107C202.916 157.515 203.319 157.064 203.839 156.754C204.358 156.444 204.965 156.289 205.657 156.289ZM205.657 157.499C205.151 157.499 204.741 157.663 204.427 157.991C204.117 158.319 203.935 158.8 203.88 159.434H207.325C207.321 159.055 207.257 158.72 207.134 158.429C207.015 158.137 206.833 157.909 206.587 157.745C206.345 157.581 206.035 157.499 205.657 157.499Z" fill="#3D4080"/>
</svg>
