<svg width="368" height="90" viewBox="0 0 368 90" fill="none" xmlns="http://www.w3.org/2000/svg">
<rect x="0.5" y="0.5" width="367" height="89" rx="9.5" stroke="#DADADA"/>
<path d="M43 38H55L43 26V38ZM27.375 23H44.875L58 36.2V62.6C58 65.03 56.0412 67 53.625 67H27.375C24.9469 67 23 65.02 23 62.6V27.4C23 24.9699 24.9588 23 27.375 23ZM38.5014 46C39.4522 48.093 40.658 49.8139 42.0493 51L43 51.7442C40.9826 52.1163 38.2 52.7674 35.2551 53.907L35 54L36.1594 51.5814C37.2029 49.5581 37.9681 47.7209 38.5014 46ZM52.3714 54.4879C52.7634 54.096 52.9594 53.5952 52.9812 53.0508C53.0465 52.6153 52.9376 52.2016 52.7199 51.8532C52.0884 50.8298 50.4552 50.3508 47.755 50.3508L44.9459 50.5032L43.0514 49.2403C41.6795 48.1081 40.4383 46.1266 39.5672 43.6661L39.6543 43.3613C40.3729 40.4653 41.048 36.9597 39.6108 35.5226C39.2624 35.1742 38.7833 35 38.2824 35H37.7598C36.9541 35 36.2355 35.8492 36.0395 36.6766C35.2338 39.5726 35.7129 41.1621 36.5186 43.7968V43.8185C35.9742 45.7347 35.2774 47.9556 34.1668 50.1984L32.0763 54.1177L30.1383 55.1847C27.5252 56.8177 26.2839 58.6468 26.0444 59.8008C25.9573 60.2145 26.0008 60.5847 26.1533 60.9766L26.2186 61.0855L27.2638 61.7605L28.222 62C29.9858 62 31.9892 59.9314 34.6894 55.3153L35.0814 55.1629C37.3243 54.4443 40.1116 53.9435 43.8571 53.5298C46.1 54.6403 48.7349 55.1411 50.3898 55.1411C51.348 55.1411 52.0013 54.9016 52.3714 54.4879ZM51.7973 52.7L52 52.92C51.9775 53.12 51.9099 53.14 51.7973 53.18H51.7072L51.2793 53.22C50.2432 53.22 48.6441 52.84 47 52.2C47.2027 52 47.2928 52 47.518 52C50.6712 52 51.5721 52.5 51.7973 52.7ZM32 56C30.4615 58.38 29.0651 59.7 28 60C28.1183 59.24 29.1834 57.92 30.8639 56.62L32 56ZM38.373 41C37.913 38.9263 37.893 37.2442 38.233 36.2765L38.373 36L38.673 36.1152C39.013 36.6682 39.053 37.4055 38.853 38.6498L38.793 39.0184L38.473 40.9078L38.373 41Z" fill="#F44336"/>
<path d="M70.9453 29.0781H74.3438C75.8177 29.0781 76.9297 29.2917 77.6797 29.7188C78.4297 30.1458 78.8047 30.8828 78.8047 31.9297C78.8047 32.3672 78.7266 32.763 78.5703 33.1172C78.4193 33.4661 78.1979 33.7552 77.9062 33.9844C77.6146 34.2083 77.2552 34.3594 76.8281 34.4375V34.5156C77.2708 34.5938 77.6641 34.7318 78.0078 34.9297C78.3568 35.1276 78.6302 35.4115 78.8281 35.7812C79.0312 36.151 79.1328 36.6302 79.1328 37.2188C79.1328 37.9167 78.9661 38.5104 78.6328 39C78.3047 39.4896 77.8333 39.862 77.2188 40.1172C76.6094 40.3724 75.8854 40.5 75.0469 40.5H70.9453V29.0781ZM72.8203 33.7891H74.6172C75.4661 33.7891 76.0547 33.651 76.3828 33.375C76.7109 33.099 76.875 32.6953 76.875 32.1641C76.875 31.6224 76.6797 31.2318 76.2891 30.9922C75.9036 30.7526 75.2891 30.6328 74.4453 30.6328H72.8203V33.7891ZM72.8203 35.3047V38.9297H74.7969C75.6719 38.9297 76.2865 38.7604 76.6406 38.4219C76.9948 38.0833 77.1719 37.625 77.1719 37.0469C77.1719 36.6927 77.0911 36.3854 76.9297 36.125C76.7734 35.8646 76.5156 35.6641 76.1562 35.5234C75.7969 35.3776 75.3125 35.3047 74.7031 35.3047H72.8203ZM83.1406 31.8516V40.5H81.3047V31.8516H83.1406ZM82.2344 28.5391C82.5156 28.5391 82.7578 28.6146 82.9609 28.7656C83.1693 28.9167 83.2734 29.1771 83.2734 29.5469C83.2734 29.9115 83.1693 30.1719 82.9609 30.3281C82.7578 30.4792 82.5156 30.5547 82.2344 30.5547C81.9427 30.5547 81.6953 30.4792 81.4922 30.3281C81.2943 30.1719 81.1953 29.9115 81.1953 29.5469C81.1953 29.1771 81.2943 28.9167 81.4922 28.7656C81.6953 28.6146 81.9427 28.5391 82.2344 28.5391ZM93.4297 36.1562C93.4297 36.875 93.3359 37.513 93.1484 38.0703C92.9609 38.6276 92.6875 39.099 92.3281 39.4844C91.9688 39.8646 91.5365 40.1562 91.0312 40.3594C90.526 40.5573 89.9557 40.6562 89.3203 40.6562C88.7266 40.6562 88.1823 40.5573 87.6875 40.3594C87.1927 40.1562 86.763 39.8646 86.3984 39.4844C86.0391 39.099 85.7604 38.6276 85.5625 38.0703C85.3646 37.513 85.2656 36.875 85.2656 36.1562C85.2656 35.2031 85.4297 34.3958 85.7578 33.7344C86.0911 33.0677 86.5651 32.5599 87.1797 32.2109C87.7943 31.862 88.526 31.6875 89.375 31.6875C90.1719 31.6875 90.875 31.862 91.4844 32.2109C92.0938 32.5599 92.5703 33.0677 92.9141 33.7344C93.2578 34.401 93.4297 35.2083 93.4297 36.1562ZM87.1562 36.1562C87.1562 36.7865 87.2318 37.3255 87.3828 37.7734C87.5391 38.2214 87.7786 38.5651 88.1016 38.8047C88.4245 39.0391 88.8411 39.1562 89.3516 39.1562C89.862 39.1562 90.2786 39.0391 90.6016 38.8047C90.9245 38.5651 91.1615 38.2214 91.3125 37.7734C91.4635 37.3255 91.5391 36.7865 91.5391 36.1562C91.5391 35.526 91.4635 34.9922 91.3125 34.5547C91.1615 34.112 90.9245 33.776 90.6016 33.5469C90.2786 33.3125 89.8594 33.1953 89.3438 33.1953C88.5833 33.1953 88.0286 33.4505 87.6797 33.9609C87.3307 34.4714 87.1562 35.2031 87.1562 36.1562ZM97.3828 40.5H95.5391V28.3438H97.3828V40.5ZM107.664 36.1562C107.664 36.875 107.57 37.513 107.383 38.0703C107.195 38.6276 106.922 39.099 106.562 39.4844C106.203 39.8646 105.771 40.1562 105.266 40.3594C104.76 40.5573 104.19 40.6562 103.555 40.6562C102.961 40.6562 102.417 40.5573 101.922 40.3594C101.427 40.1562 100.997 39.8646 100.633 39.4844C100.273 39.099 99.9948 38.6276 99.7969 38.0703C99.599 37.513 99.5 36.875 99.5 36.1562C99.5 35.2031 99.6641 34.3958 99.9922 33.7344C100.326 33.0677 100.799 32.5599 101.414 32.2109C102.029 31.862 102.76 31.6875 103.609 31.6875C104.406 31.6875 105.109 31.862 105.719 32.2109C106.328 32.5599 106.805 33.0677 107.148 33.7344C107.492 34.401 107.664 35.2083 107.664 36.1562ZM101.391 36.1562C101.391 36.7865 101.466 37.3255 101.617 37.7734C101.773 38.2214 102.013 38.5651 102.336 38.8047C102.659 39.0391 103.076 39.1562 103.586 39.1562C104.096 39.1562 104.513 39.0391 104.836 38.8047C105.159 38.5651 105.396 38.2214 105.547 37.7734C105.698 37.3255 105.773 36.7865 105.773 36.1562C105.773 35.526 105.698 34.9922 105.547 34.5547C105.396 34.112 105.159 33.776 104.836 33.5469C104.513 33.3125 104.094 33.1953 103.578 33.1953C102.818 33.1953 102.263 33.4505 101.914 33.9609C101.565 34.4714 101.391 35.2031 101.391 36.1562ZM112.242 44.3438C111.07 44.3438 110.172 44.1328 109.547 43.7109C108.922 43.2891 108.609 42.6979 108.609 41.9375C108.609 41.4062 108.776 40.9557 109.109 40.5859C109.443 40.2214 109.919 39.9688 110.539 39.8281C110.305 39.724 110.102 39.5625 109.93 39.3438C109.763 39.1198 109.68 38.8724 109.68 38.6016C109.68 38.2786 109.771 38.0026 109.953 37.7734C110.135 37.5443 110.409 37.3229 110.773 37.1094C110.32 36.9167 109.956 36.6042 109.68 36.1719C109.409 35.7344 109.273 35.2214 109.273 34.6328C109.273 34.0078 109.406 33.4766 109.672 33.0391C109.938 32.5964 110.326 32.2604 110.836 32.0312C111.346 31.7969 111.964 31.6797 112.688 31.6797C112.844 31.6797 113.013 31.6901 113.195 31.7109C113.383 31.7266 113.555 31.7474 113.711 31.7734C113.872 31.7943 113.995 31.8177 114.078 31.8438H117.07V32.8672L115.602 33.1406C115.742 33.3385 115.854 33.5651 115.938 33.8203C116.021 34.0703 116.062 34.3438 116.062 34.6406C116.062 35.5365 115.753 36.2422 115.133 36.7578C114.518 37.2682 113.669 37.5234 112.586 37.5234C112.326 37.513 112.073 37.4922 111.828 37.4609C111.641 37.5755 111.497 37.7031 111.398 37.8438C111.299 37.9792 111.25 38.1328 111.25 38.3047C111.25 38.4453 111.299 38.5599 111.398 38.6484C111.497 38.7318 111.643 38.7943 111.836 38.8359C112.034 38.8776 112.273 38.8984 112.555 38.8984H114.047C114.995 38.8984 115.719 39.099 116.219 39.5C116.719 39.901 116.969 40.4896 116.969 41.2656C116.969 42.25 116.562 43.0078 115.75 43.5391C114.938 44.0755 113.768 44.3438 112.242 44.3438ZM112.312 43.0547C112.953 43.0547 113.492 42.9922 113.93 42.8672C114.367 42.7422 114.698 42.5625 114.922 42.3281C115.146 42.099 115.258 41.8255 115.258 41.5078C115.258 41.2266 115.188 41.0104 115.047 40.8594C114.906 40.7083 114.695 40.6042 114.414 40.5469C114.133 40.4896 113.784 40.4609 113.367 40.4609H112.008C111.669 40.4609 111.37 40.513 111.109 40.6172C110.849 40.7266 110.646 40.8828 110.5 41.0859C110.359 41.2891 110.289 41.5339 110.289 41.8203C110.289 42.2161 110.464 42.5208 110.812 42.7344C111.167 42.9479 111.667 43.0547 112.312 43.0547ZM112.672 36.3203C113.208 36.3203 113.607 36.1745 113.867 35.8828C114.128 35.5859 114.258 35.1693 114.258 34.6328C114.258 34.0495 114.122 33.612 113.852 33.3203C113.586 33.0286 113.19 32.8828 112.664 32.8828C112.148 32.8828 111.755 33.0312 111.484 33.3281C111.219 33.625 111.086 34.0651 111.086 34.6484C111.086 35.1745 111.219 35.5859 111.484 35.8828C111.755 36.1745 112.151 36.3203 112.672 36.3203ZM117.344 31.8516H119.344L121.117 36.7891C121.195 37.013 121.266 37.2344 121.328 37.4531C121.396 37.6667 121.453 37.8776 121.5 38.0859C121.552 38.2943 121.594 38.5026 121.625 38.7109H121.672C121.724 38.4401 121.797 38.138 121.891 37.8047C121.99 37.4661 122.099 37.1276 122.219 36.7891L123.922 31.8516H125.898L122.188 41.6875C121.974 42.25 121.711 42.7292 121.398 43.125C121.091 43.526 120.727 43.8281 120.305 44.0312C119.883 44.2396 119.401 44.3438 118.859 44.3438C118.599 44.3438 118.372 44.3281 118.18 44.2969C117.987 44.2708 117.823 44.2422 117.688 44.2109V42.7422C117.797 42.7682 117.935 42.7917 118.102 42.8125C118.268 42.8333 118.44 42.8438 118.617 42.8438C118.945 42.8438 119.229 42.7786 119.469 42.6484C119.708 42.5182 119.911 42.3333 120.078 42.0938C120.245 41.8594 120.383 41.5911 120.492 41.2891L120.797 40.4766L117.344 31.8516ZM134.758 31.6875C135.852 31.6875 136.677 31.9297 137.234 32.4141C137.797 32.8984 138.078 33.6536 138.078 34.6797V40.5H136.773L136.422 39.2734H136.359C136.115 39.5859 135.862 39.8438 135.602 40.0469C135.341 40.25 135.039 40.401 134.695 40.5C134.357 40.6042 133.943 40.6562 133.453 40.6562C132.938 40.6562 132.477 40.5625 132.07 40.375C131.664 40.1823 131.344 39.8906 131.109 39.5C130.875 39.1094 130.758 38.6146 130.758 38.0156C130.758 37.125 131.089 36.4557 131.75 36.0078C132.417 35.5599 133.422 35.3125 134.766 35.2656L136.266 35.2109V34.7578C136.266 34.1589 136.125 33.7318 135.844 33.4766C135.568 33.2214 135.177 33.0938 134.672 33.0938C134.24 33.0938 133.82 33.1562 133.414 33.2812C133.008 33.4062 132.612 33.5599 132.227 33.7422L131.633 32.4453C132.055 32.2214 132.534 32.0391 133.07 31.8984C133.612 31.7578 134.174 31.6875 134.758 31.6875ZM136.258 36.3672L135.141 36.4062C134.224 36.4375 133.581 36.5938 133.211 36.875C132.841 37.1562 132.656 37.5417 132.656 38.0312C132.656 38.4583 132.784 38.7708 133.039 38.9688C133.294 39.1615 133.63 39.2578 134.047 39.2578C134.682 39.2578 135.208 39.0781 135.625 38.7188C136.047 38.3542 136.258 37.8203 136.258 37.1172V36.3672ZM146.461 38.0312C146.461 38.599 146.323 39.0781 146.047 39.4688C145.771 39.8594 145.367 40.1562 144.836 40.3594C144.31 40.5573 143.664 40.6562 142.898 40.6562C142.294 40.6562 141.773 40.612 141.336 40.5234C140.904 40.4401 140.495 40.3099 140.109 40.1328V38.5469C140.521 38.7396 140.982 38.9062 141.492 39.0469C142.008 39.1875 142.495 39.2578 142.953 39.2578C143.557 39.2578 143.992 39.1641 144.258 38.9766C144.523 38.7839 144.656 38.5286 144.656 38.2109C144.656 38.0234 144.602 37.8568 144.492 37.7109C144.388 37.5599 144.19 37.4062 143.898 37.25C143.612 37.0885 143.19 36.8958 142.633 36.6719C142.086 36.4531 141.625 36.2344 141.25 36.0156C140.875 35.7969 140.591 35.5339 140.398 35.2266C140.206 34.9141 140.109 34.5156 140.109 34.0312C140.109 33.2656 140.411 32.6849 141.016 32.2891C141.625 31.888 142.43 31.6875 143.43 31.6875C143.961 31.6875 144.461 31.7422 144.93 31.8516C145.404 31.9557 145.867 32.1094 146.32 32.3125L145.742 33.6953C145.352 33.5234 144.958 33.3828 144.562 33.2734C144.172 33.1589 143.773 33.1016 143.367 33.1016C142.893 33.1016 142.531 33.1745 142.281 33.3203C142.036 33.4661 141.914 33.6745 141.914 33.9453C141.914 34.1484 141.974 34.3203 142.094 34.4609C142.214 34.6016 142.419 34.7422 142.711 34.8828C143.008 35.0234 143.419 35.1979 143.945 35.4062C144.461 35.6042 144.906 35.8125 145.281 36.0312C145.661 36.2448 145.953 36.5078 146.156 36.8203C146.359 37.1328 146.461 37.5365 146.461 38.0312ZM154.258 38.0312C154.258 38.599 154.12 39.0781 153.844 39.4688C153.568 39.8594 153.164 40.1562 152.633 40.3594C152.107 40.5573 151.461 40.6562 150.695 40.6562C150.091 40.6562 149.57 40.612 149.133 40.5234C148.701 40.4401 148.292 40.3099 147.906 40.1328V38.5469C148.318 38.7396 148.779 38.9062 149.289 39.0469C149.805 39.1875 150.292 39.2578 150.75 39.2578C151.354 39.2578 151.789 39.1641 152.055 38.9766C152.32 38.7839 152.453 38.5286 152.453 38.2109C152.453 38.0234 152.398 37.8568 152.289 37.7109C152.185 37.5599 151.987 37.4062 151.695 37.25C151.409 37.0885 150.987 36.8958 150.43 36.6719C149.883 36.4531 149.422 36.2344 149.047 36.0156C148.672 35.7969 148.388 35.5339 148.195 35.2266C148.003 34.9141 147.906 34.5156 147.906 34.0312C147.906 33.2656 148.208 32.6849 148.812 32.2891C149.422 31.888 150.227 31.6875 151.227 31.6875C151.758 31.6875 152.258 31.7422 152.727 31.8516C153.201 31.9557 153.664 32.1094 154.117 32.3125L153.539 33.6953C153.148 33.5234 152.755 33.3828 152.359 33.2734C151.969 33.1589 151.57 33.1016 151.164 33.1016C150.69 33.1016 150.328 33.1745 150.078 33.3203C149.833 33.4661 149.711 33.6745 149.711 33.9453C149.711 34.1484 149.771 34.3203 149.891 34.4609C150.01 34.6016 150.216 34.7422 150.508 34.8828C150.805 35.0234 151.216 35.1979 151.742 35.4062C152.258 35.6042 152.703 35.8125 153.078 36.0312C153.458 36.2448 153.75 36.5078 153.953 36.8203C154.156 37.1328 154.258 37.5365 154.258 38.0312ZM158.078 31.8516V40.5H156.242V31.8516H158.078ZM157.172 28.5391C157.453 28.5391 157.695 28.6146 157.898 28.7656C158.107 28.9167 158.211 29.1771 158.211 29.5469C158.211 29.9115 158.107 30.1719 157.898 30.3281C157.695 30.4792 157.453 30.5547 157.172 30.5547C156.88 30.5547 156.633 30.4792 156.43 30.3281C156.232 30.1719 156.133 29.9115 156.133 29.5469C156.133 29.1771 156.232 28.9167 156.43 28.7656C156.633 28.6146 156.88 28.5391 157.172 28.5391ZM163.18 44.3438C162.008 44.3438 161.109 44.1328 160.484 43.7109C159.859 43.2891 159.547 42.6979 159.547 41.9375C159.547 41.4062 159.714 40.9557 160.047 40.5859C160.38 40.2214 160.857 39.9688 161.477 39.8281C161.242 39.724 161.039 39.5625 160.867 39.3438C160.701 39.1198 160.617 38.8724 160.617 38.6016C160.617 38.2786 160.708 38.0026 160.891 37.7734C161.073 37.5443 161.346 37.3229 161.711 37.1094C161.258 36.9167 160.893 36.6042 160.617 36.1719C160.346 35.7344 160.211 35.2214 160.211 34.6328C160.211 34.0078 160.344 33.4766 160.609 33.0391C160.875 32.5964 161.263 32.2604 161.773 32.0312C162.284 31.7969 162.901 31.6797 163.625 31.6797C163.781 31.6797 163.951 31.6901 164.133 31.7109C164.32 31.7266 164.492 31.7474 164.648 31.7734C164.81 31.7943 164.932 31.8177 165.016 31.8438H168.008V32.8672L166.539 33.1406C166.68 33.3385 166.792 33.5651 166.875 33.8203C166.958 34.0703 167 34.3438 167 34.6406C167 35.5365 166.69 36.2422 166.07 36.7578C165.456 37.2682 164.607 37.5234 163.523 37.5234C163.263 37.513 163.01 37.4922 162.766 37.4609C162.578 37.5755 162.435 37.7031 162.336 37.8438C162.237 37.9792 162.188 38.1328 162.188 38.3047C162.188 38.4453 162.237 38.5599 162.336 38.6484C162.435 38.7318 162.581 38.7943 162.773 38.8359C162.971 38.8776 163.211 38.8984 163.492 38.8984H164.984C165.932 38.8984 166.656 39.099 167.156 39.5C167.656 39.901 167.906 40.4896 167.906 41.2656C167.906 42.25 167.5 43.0078 166.688 43.5391C165.875 44.0755 164.706 44.3438 163.18 44.3438ZM163.25 43.0547C163.891 43.0547 164.43 42.9922 164.867 42.8672C165.305 42.7422 165.635 42.5625 165.859 42.3281C166.083 42.099 166.195 41.8255 166.195 41.5078C166.195 41.2266 166.125 41.0104 165.984 40.8594C165.844 40.7083 165.633 40.6042 165.352 40.5469C165.07 40.4896 164.721 40.4609 164.305 40.4609H162.945C162.607 40.4609 162.307 40.513 162.047 40.6172C161.786 40.7266 161.583 40.8828 161.438 41.0859C161.297 41.2891 161.227 41.5339 161.227 41.8203C161.227 42.2161 161.401 42.5208 161.75 42.7344C162.104 42.9479 162.604 43.0547 163.25 43.0547ZM163.609 36.3203C164.146 36.3203 164.544 36.1745 164.805 35.8828C165.065 35.5859 165.195 35.1693 165.195 34.6328C165.195 34.0495 165.06 33.612 164.789 33.3203C164.523 33.0286 164.128 32.8828 163.602 32.8828C163.086 32.8828 162.693 33.0312 162.422 33.3281C162.156 33.625 162.023 34.0651 162.023 34.6484C162.023 35.1745 162.156 35.5859 162.422 35.8828C162.693 36.1745 163.089 36.3203 163.609 36.3203ZM174.094 31.6875C175.068 31.6875 175.826 31.9401 176.367 32.4453C176.914 32.9453 177.188 33.75 177.188 34.8594V40.5H175.352V35.2031C175.352 34.5312 175.214 34.0286 174.938 33.6953C174.661 33.3568 174.234 33.1875 173.656 33.1875C172.818 33.1875 172.234 33.4453 171.906 33.9609C171.583 34.4766 171.422 35.224 171.422 36.2031V40.5H169.586V31.8516H171.016L171.273 33.0234H171.375C171.562 32.7214 171.794 32.474 172.07 32.2812C172.352 32.0833 172.664 31.9349 173.008 31.8359C173.357 31.737 173.719 31.6875 174.094 31.6875ZM189.531 31.6875C190.5 31.6875 191.229 31.9375 191.719 32.4375C192.214 32.9375 192.461 33.7396 192.461 34.8438V40.5H190.625V35.1719C190.625 34.5156 190.497 34.0208 190.242 33.6875C189.987 33.3542 189.599 33.1875 189.078 33.1875C188.349 33.1875 187.823 33.4219 187.5 33.8906C187.182 34.3542 187.023 35.0286 187.023 35.9141V40.5H185.188V35.1719C185.188 34.7344 185.13 34.3698 185.016 34.0781C184.906 33.7812 184.737 33.5599 184.508 33.4141C184.279 33.263 183.99 33.1875 183.641 33.1875C183.135 33.1875 182.732 33.3021 182.43 33.5312C182.133 33.7604 181.919 34.099 181.789 34.5469C181.659 34.9896 181.594 35.5339 181.594 36.1797V40.5H179.758V31.8516H181.188L181.445 33.0156H181.547C181.724 32.7135 181.943 32.4661 182.203 32.2734C182.469 32.0755 182.763 31.9297 183.086 31.8359C183.409 31.737 183.745 31.6875 184.094 31.6875C184.74 31.6875 185.284 31.8021 185.727 32.0312C186.169 32.2552 186.5 32.599 186.719 33.0625H186.859C187.13 32.5938 187.508 32.2474 187.992 32.0234C188.477 31.7995 188.99 31.6875 189.531 31.6875ZM198.469 31.6875C199.24 31.6875 199.901 31.8464 200.453 32.1641C201.005 32.4818 201.43 32.9323 201.727 33.5156C202.023 34.099 202.172 34.7969 202.172 35.6094V36.5938H196.398C196.419 37.4323 196.643 38.0781 197.07 38.5312C197.503 38.9844 198.107 39.2109 198.883 39.2109C199.435 39.2109 199.93 39.1589 200.367 39.0547C200.81 38.9453 201.266 38.7865 201.734 38.5781V40.0703C201.302 40.2734 200.862 40.4219 200.414 40.5156C199.966 40.6094 199.43 40.6562 198.805 40.6562C197.956 40.6562 197.208 40.4922 196.562 40.1641C195.922 39.8307 195.419 39.3359 195.055 38.6797C194.695 38.0234 194.516 37.2083 194.516 36.2344C194.516 35.2656 194.68 34.4427 195.008 33.7656C195.336 33.0885 195.797 32.5729 196.391 32.2188C196.984 31.8646 197.677 31.6875 198.469 31.6875ZM198.469 33.0703C197.891 33.0703 197.422 33.2578 197.062 33.6328C196.708 34.0078 196.5 34.5573 196.438 35.2812H200.375C200.37 34.849 200.297 34.4661 200.156 34.1328C200.021 33.7995 199.812 33.5391 199.531 33.3516C199.255 33.1641 198.901 33.0703 198.469 33.0703ZM208.75 31.6875C209.724 31.6875 210.482 31.9401 211.023 32.4453C211.57 32.9453 211.844 33.75 211.844 34.8594V40.5H210.008V35.2031C210.008 34.5312 209.87 34.0286 209.594 33.6953C209.318 33.3568 208.891 33.1875 208.312 33.1875C207.474 33.1875 206.891 33.4453 206.562 33.9609C206.24 34.4766 206.078 35.224 206.078 36.2031V40.5H204.242V31.8516H205.672L205.93 33.0234H206.031C206.219 32.7214 206.451 32.474 206.727 32.2812C207.008 32.0833 207.32 31.9349 207.664 31.8359C208.013 31.737 208.375 31.6875 208.75 31.6875ZM217.633 39.1719C217.872 39.1719 218.109 39.151 218.344 39.1094C218.578 39.0625 218.792 39.0078 218.984 38.9453V40.3359C218.781 40.4245 218.518 40.5 218.195 40.5625C217.872 40.625 217.536 40.6562 217.188 40.6562C216.698 40.6562 216.258 40.5755 215.867 40.4141C215.477 40.2474 215.167 39.9635 214.938 39.5625C214.708 39.1615 214.594 38.6068 214.594 37.8984V33.25H213.414V32.4297L214.68 31.7812L215.281 29.9297H216.438V31.8516H218.914V33.25H216.438V37.875C216.438 38.3125 216.547 38.638 216.766 38.8516C216.984 39.0651 217.273 39.1719 217.633 39.1719ZM220.477 39.5312C220.477 39.1042 220.586 38.8047 220.805 38.6328C221.029 38.4557 221.299 38.3672 221.617 38.3672C221.935 38.3672 222.206 38.4557 222.43 38.6328C222.659 38.8047 222.773 39.1042 222.773 39.5312C222.773 39.9479 222.659 40.25 222.43 40.4375C222.206 40.6198 221.935 40.7109 221.617 40.7109C221.299 40.7109 221.029 40.6198 220.805 40.4375C220.586 40.25 220.477 39.9479 220.477 39.5312ZM229.57 31.6875C230.596 31.6875 231.419 32.0625 232.039 32.8125C232.664 33.5625 232.977 34.6771 232.977 36.1562C232.977 37.1354 232.831 37.9609 232.539 38.6328C232.253 39.2995 231.849 39.8047 231.328 40.1484C230.812 40.487 230.211 40.6562 229.523 40.6562C229.086 40.6562 228.706 40.599 228.383 40.4844C228.06 40.3698 227.784 40.2214 227.555 40.0391C227.326 39.8516 227.133 39.6484 226.977 39.4297H226.867C226.893 39.638 226.917 39.8698 226.938 40.125C226.964 40.375 226.977 40.6042 226.977 40.8125V44.3359H225.133V31.8516H226.633L226.891 33.0469H226.977C227.138 32.8021 227.333 32.5755 227.562 32.3672C227.797 32.1589 228.078 31.9948 228.406 31.875C228.74 31.75 229.128 31.6875 229.57 31.6875ZM229.078 33.1875C228.573 33.1875 228.167 33.2891 227.859 33.4922C227.557 33.6901 227.336 33.9896 227.195 34.3906C227.06 34.7917 226.987 35.2943 226.977 35.8984V36.1562C226.977 36.7969 227.042 37.3411 227.172 37.7891C227.307 38.2318 227.529 38.5703 227.836 38.8047C228.148 39.0339 228.57 39.1484 229.102 39.1484C229.549 39.1484 229.919 39.026 230.211 38.7812C230.508 38.5365 230.729 38.1875 230.875 37.7344C231.021 37.2812 231.094 36.7474 231.094 36.1328C231.094 35.2005 230.927 34.4766 230.594 33.9609C230.266 33.4453 229.76 33.1875 229.078 33.1875ZM238.008 40.6562C236.977 40.6562 236.148 40.2812 235.523 39.5312C234.904 38.776 234.594 37.6641 234.594 36.1953C234.594 34.7109 234.909 33.5885 235.539 32.8281C236.174 32.0677 237.01 31.6875 238.047 31.6875C238.484 31.6875 238.867 31.7474 239.195 31.8672C239.523 31.9818 239.805 32.138 240.039 32.3359C240.279 32.5339 240.482 32.7552 240.648 33H240.734C240.708 32.8385 240.677 32.6068 240.641 32.3047C240.609 31.9974 240.594 31.7135 240.594 31.4531V28.3438H242.438V40.5H241L240.672 39.3203H240.594C240.438 39.5703 240.24 39.7969 240 40C239.766 40.1979 239.484 40.3568 239.156 40.4766C238.833 40.5964 238.451 40.6562 238.008 40.6562ZM238.523 39.1641C239.31 39.1641 239.865 38.9375 240.188 38.4844C240.51 38.0312 240.677 37.3516 240.688 36.4453V36.2031C240.688 35.2344 240.531 34.4922 240.219 33.9766C239.906 33.4557 239.336 33.1953 238.508 33.1953C237.846 33.1953 237.341 33.4635 236.992 34C236.648 34.5312 236.477 35.2734 236.477 36.2266C236.477 37.1797 236.648 37.9089 236.992 38.4141C237.341 38.9141 237.852 39.1641 238.523 39.1641ZM249.391 33.25H247.289V40.5H245.453V33.25H244.039V32.3672L245.453 31.8281V31.2266C245.453 30.4922 245.568 29.9089 245.797 29.4766C246.031 29.0443 246.365 28.7344 246.797 28.5469C247.234 28.3542 247.755 28.2578 248.359 28.2578C248.755 28.2578 249.117 28.2917 249.445 28.3594C249.773 28.4219 250.049 28.4948 250.273 28.5781L249.797 29.9688C249.62 29.9115 249.422 29.8594 249.203 29.8125C248.984 29.7604 248.75 29.7344 248.5 29.7344C248.083 29.7344 247.776 29.8646 247.578 30.125C247.385 30.3854 247.289 30.7656 247.289 31.2656V31.8516H249.391V33.25Z" fill="#3D4080"/>
<path d="M76.0625 61.6191H74.9023V63.5H73.543V61.6191H69.6465V60.5762L73.5605 54.9102H74.9023V60.4766H76.0625V61.6191ZM73.543 60.4766V58.3496C73.543 58.1738 73.5449 57.9961 73.5488 57.8164C73.5566 57.6328 73.5645 57.457 73.5723 57.2891C73.5801 57.1211 73.5879 56.9668 73.5957 56.8262C73.6035 56.6816 73.6094 56.5625 73.6133 56.4688H73.5664C73.4922 56.625 73.4102 56.7852 73.3203 56.9492C73.2305 57.1094 73.1348 57.2656 73.0332 57.418L70.9238 60.4766H73.543ZM82.291 56.8906C82.291 57.2773 82.2129 57.6133 82.0566 57.8984C81.9004 58.1836 81.6855 58.418 81.4121 58.6016C81.1426 58.7812 80.8301 58.9102 80.4746 58.9883V59.0293C81.1582 59.1152 81.6738 59.3301 82.0215 59.6738C82.373 60.0176 82.5488 60.4727 82.5488 61.0391C82.5488 61.5352 82.4297 61.9785 82.1914 62.3691C81.9531 62.7559 81.5879 63.0605 81.0957 63.2832C80.6035 63.5059 79.9707 63.6172 79.1973 63.6172C78.7324 63.6172 78.3008 63.5801 77.9023 63.5059C77.5078 63.4316 77.1328 63.3125 76.7773 63.1484V61.9238C77.1406 62.1035 77.5273 62.2422 77.9375 62.3398C78.3477 62.4375 78.7363 62.4863 79.1035 62.4863C79.8184 62.4863 80.3281 62.3535 80.6328 62.0879C80.9375 61.8184 81.0898 61.4473 81.0898 60.9746C81.0898 60.6699 81.0098 60.4199 80.8496 60.2246C80.6934 60.0293 80.4492 59.8828 80.1172 59.7852C79.7891 59.6875 79.3652 59.6387 78.8457 59.6387H78.0898V58.5312H78.8516C79.3477 58.5312 79.7461 58.4727 80.0469 58.3555C80.3477 58.2344 80.5645 58.0684 80.6973 57.8574C80.834 57.6465 80.9023 57.4004 80.9023 57.1191C80.9023 56.752 80.7832 56.4668 80.5449 56.2637C80.3066 56.0566 79.9531 55.9531 79.4844 55.9531C79.1953 55.9531 78.9316 55.9863 78.6934 56.0527C78.459 56.1191 78.2422 56.2031 78.043 56.3047C77.8438 56.4062 77.6543 56.5156 77.4746 56.6328L76.8125 55.6777C77.1367 55.4355 77.5234 55.2305 77.9727 55.0625C78.4219 54.8945 78.9453 54.8105 79.543 54.8105C80.4219 54.8105 81.0996 55 81.5762 55.3789C82.0527 55.7539 82.291 56.2578 82.291 56.8906ZM89.1582 56.8906C89.1582 57.2773 89.0801 57.6133 88.9238 57.8984C88.7676 58.1836 88.5527 58.418 88.2793 58.6016C88.0098 58.7812 87.6973 58.9102 87.3418 58.9883V59.0293C88.0254 59.1152 88.541 59.3301 88.8887 59.6738C89.2402 60.0176 89.416 60.4727 89.416 61.0391C89.416 61.5352 89.2969 61.9785 89.0586 62.3691C88.8203 62.7559 88.4551 63.0605 87.9629 63.2832C87.4707 63.5059 86.8379 63.6172 86.0645 63.6172C85.5996 63.6172 85.168 63.5801 84.7695 63.5059C84.375 63.4316 84 63.3125 83.6445 63.1484V61.9238C84.0078 62.1035 84.3945 62.2422 84.8047 62.3398C85.2148 62.4375 85.6035 62.4863 85.9707 62.4863C86.6855 62.4863 87.1953 62.3535 87.5 62.0879C87.8047 61.8184 87.957 61.4473 87.957 60.9746C87.957 60.6699 87.877 60.4199 87.7168 60.2246C87.5605 60.0293 87.3164 59.8828 86.9844 59.7852C86.6562 59.6875 86.2324 59.6387 85.7129 59.6387H84.957V58.5312H85.7188C86.2148 58.5312 86.6133 58.4727 86.9141 58.3555C87.2148 58.2344 87.4316 58.0684 87.5645 57.8574C87.7012 57.6465 87.7695 57.4004 87.7695 57.1191C87.7695 56.752 87.6504 56.4668 87.4121 56.2637C87.1738 56.0566 86.8203 55.9531 86.3516 55.9531C86.0625 55.9531 85.7988 55.9863 85.5605 56.0527C85.3262 56.1191 85.1094 56.2031 84.9102 56.3047C84.7109 56.4062 84.5215 56.5156 84.3418 56.6328L83.6797 55.6777C84.0039 55.4355 84.3906 55.2305 84.8398 55.0625C85.2891 54.8945 85.8125 54.8105 86.4102 54.8105C87.2891 54.8105 87.9668 55 88.4434 55.3789C88.9199 55.7539 89.1582 56.2578 89.1582 56.8906ZM97.6719 63.5H96.0547L93.3887 59.6094L92.5449 60.2949V63.5H91.1387V54.9336H92.5449V59.0293C92.7168 58.8184 92.8906 58.6074 93.0664 58.3965C93.2422 58.1855 93.418 57.9746 93.5938 57.7637L96.0078 54.9336H97.5957L94.3965 58.6836L97.6719 63.5ZM98.8027 54.9336H101.352C102.457 54.9336 103.291 55.0938 103.854 55.4141C104.416 55.7344 104.697 56.2871 104.697 57.0723C104.697 57.4004 104.639 57.6973 104.521 57.9629C104.408 58.2246 104.242 58.4414 104.023 58.6133C103.805 58.7812 103.535 58.8945 103.215 58.9531V59.0117C103.547 59.0703 103.842 59.1738 104.1 59.3223C104.361 59.4707 104.566 59.6836 104.715 59.9609C104.867 60.2383 104.943 60.5977 104.943 61.0391C104.943 61.5625 104.818 62.0078 104.568 62.375C104.322 62.7422 103.969 63.0215 103.508 63.2129C103.051 63.4043 102.508 63.5 101.879 63.5H98.8027V54.9336ZM100.209 58.4668H101.557C102.193 58.4668 102.635 58.3633 102.881 58.1562C103.127 57.9492 103.25 57.6465 103.25 57.248C103.25 56.8418 103.104 56.5488 102.811 56.3691C102.521 56.1895 102.061 56.0996 101.428 56.0996H100.209V58.4668ZM100.209 59.6035V62.3223H101.691C102.348 62.3223 102.809 62.1953 103.074 61.9414C103.34 61.6875 103.473 61.3438 103.473 60.9102C103.473 60.6445 103.412 60.4141 103.291 60.2188C103.174 60.0234 102.98 59.873 102.711 59.7676C102.441 59.6582 102.078 59.6035 101.621 59.6035H100.209Z" fill="#555555"/>
<path d="M118 60C118.398 60 118.779 59.842 119.061 59.5607C119.342 59.2794 119.5 58.8978 119.5 58.5C119.5 58.1022 119.342 57.7206 119.061 57.4393C118.779 57.158 118.398 57 118 57C117.602 57 117.221 57.158 116.939 57.4393C116.658 57.7206 116.5 58.1022 116.5 58.5C116.5 58.8978 116.658 59.2794 116.939 59.5607C117.221 59.842 117.602 60 118 60Z" fill="#555555"/>
<path d="M136.607 63.5H130.807V62.4629L133.027 60.2129C133.457 59.7754 133.811 59.3984 134.088 59.082C134.365 58.7617 134.57 58.459 134.703 58.1738C134.84 57.8887 134.908 57.5781 134.908 57.2422C134.908 56.8281 134.789 56.5156 134.551 56.3047C134.312 56.0898 133.998 55.9824 133.607 55.9824C133.236 55.9824 132.893 56.0566 132.576 56.2051C132.264 56.3496 131.939 56.5566 131.604 56.8262L130.848 55.918C131.086 55.7148 131.34 55.5293 131.609 55.3613C131.883 55.1934 132.188 55.0605 132.523 54.9629C132.859 54.8613 133.242 54.8105 133.672 54.8105C134.215 54.8105 134.684 54.9082 135.078 55.1035C135.473 55.2949 135.775 55.5625 135.986 55.9062C136.201 56.25 136.309 56.6504 136.309 57.1074C136.309 57.5684 136.217 57.9941 136.033 58.3848C135.85 58.7754 135.588 59.1621 135.248 59.5449C134.908 59.9238 134.504 60.3359 134.035 60.7812L132.553 62.2285V62.293H136.607V63.5ZM145.596 61.6484C145.596 62.0742 145.492 62.4336 145.285 62.7266C145.078 63.0195 144.775 63.2422 144.377 63.3945C143.982 63.543 143.498 63.6172 142.924 63.6172C142.471 63.6172 142.08 63.584 141.752 63.5176C141.428 63.4551 141.121 63.3574 140.832 63.2246V62.0352C141.141 62.1797 141.486 62.3047 141.869 62.4102C142.256 62.5156 142.621 62.5684 142.965 62.5684C143.418 62.5684 143.744 62.498 143.943 62.3574C144.143 62.2129 144.242 62.0215 144.242 61.7832C144.242 61.6426 144.201 61.5176 144.119 61.4082C144.041 61.2949 143.893 61.1797 143.674 61.0625C143.459 60.9414 143.143 60.7969 142.725 60.6289C142.314 60.4648 141.969 60.3008 141.688 60.1367C141.406 59.9727 141.193 59.7754 141.049 59.5449C140.904 59.3105 140.832 59.0117 140.832 58.6484C140.832 58.0742 141.059 57.6387 141.512 57.3418C141.969 57.041 142.572 56.8906 143.322 56.8906C143.721 56.8906 144.096 56.9316 144.447 57.0137C144.803 57.0918 145.15 57.207 145.49 57.3594L145.057 58.3965C144.764 58.2676 144.469 58.1621 144.172 58.0801C143.879 57.9941 143.58 57.9512 143.275 57.9512C142.92 57.9512 142.648 58.0059 142.461 58.1152C142.277 58.2246 142.186 58.3809 142.186 58.584C142.186 58.7363 142.23 58.8652 142.32 58.9707C142.41 59.0762 142.564 59.1816 142.783 59.2871C143.006 59.3926 143.314 59.5234 143.709 59.6797C144.096 59.8281 144.43 59.9844 144.711 60.1484C144.996 60.3086 145.215 60.5059 145.367 60.7402C145.52 60.9746 145.596 61.2773 145.596 61.6484ZM149.668 56.8906C150.246 56.8906 150.742 57.0098 151.156 57.248C151.57 57.4863 151.889 57.8242 152.111 58.2617C152.334 58.6992 152.445 59.2227 152.445 59.832V60.5703H148.115C148.131 61.1992 148.299 61.6836 148.619 62.0234C148.943 62.3633 149.396 62.5332 149.979 62.5332C150.393 62.5332 150.764 62.4941 151.092 62.416C151.424 62.334 151.766 62.2148 152.117 62.0586V63.1777C151.793 63.3301 151.463 63.4414 151.127 63.5117C150.791 63.582 150.389 63.6172 149.92 63.6172C149.283 63.6172 148.723 63.4941 148.238 63.248C147.758 62.998 147.381 62.627 147.107 62.1348C146.838 61.6426 146.703 61.0312 146.703 60.3008C146.703 59.5742 146.826 58.957 147.072 58.4492C147.318 57.9414 147.664 57.5547 148.109 57.2891C148.555 57.0234 149.074 56.8906 149.668 56.8906ZM149.668 57.9277C149.234 57.9277 148.883 58.0684 148.613 58.3496C148.348 58.6309 148.191 59.043 148.145 59.5859H151.098C151.094 59.2617 151.039 58.9746 150.934 58.7246C150.832 58.4746 150.676 58.2793 150.465 58.1387C150.258 57.998 149.992 57.9277 149.668 57.9277ZM156.611 63.6172C155.998 63.6172 155.467 63.498 155.018 63.2598C154.568 63.0215 154.223 62.6562 153.98 62.1641C153.738 61.6719 153.617 61.0469 153.617 60.2891C153.617 59.5 153.75 58.8555 154.016 58.3555C154.281 57.8555 154.648 57.4863 155.117 57.248C155.59 57.0098 156.131 56.8906 156.74 56.8906C157.127 56.8906 157.477 56.9297 157.789 57.0078C158.105 57.082 158.373 57.1738 158.592 57.2832L158.182 58.3848C157.943 58.2871 157.699 58.2051 157.449 58.1387C157.199 58.0723 156.959 58.0391 156.729 58.0391C156.35 58.0391 156.033 58.123 155.779 58.291C155.529 58.459 155.342 58.709 155.217 59.041C155.096 59.373 155.035 59.7852 155.035 60.2773C155.035 60.7539 155.098 61.1562 155.223 61.4844C155.348 61.8086 155.533 62.0547 155.779 62.2227C156.025 62.3867 156.328 62.4688 156.688 62.4688C157.043 62.4688 157.361 62.4258 157.643 62.3398C157.924 62.2539 158.189 62.1426 158.439 62.0059V63.2012C158.193 63.3418 157.93 63.4453 157.648 63.5117C157.367 63.582 157.021 63.6172 156.611 63.6172ZM165.705 60.2422C165.705 60.7812 165.635 61.2598 165.494 61.6777C165.354 62.0957 165.148 62.4492 164.879 62.7383C164.609 63.0234 164.285 63.2422 163.906 63.3945C163.527 63.543 163.1 63.6172 162.623 63.6172C162.178 63.6172 161.77 63.543 161.398 63.3945C161.027 63.2422 160.705 63.0234 160.432 62.7383C160.162 62.4492 159.953 62.0957 159.805 61.6777C159.656 61.2598 159.582 60.7812 159.582 60.2422C159.582 59.5273 159.705 58.9219 159.951 58.4258C160.201 57.9258 160.557 57.5449 161.018 57.2832C161.479 57.0215 162.027 56.8906 162.664 56.8906C163.262 56.8906 163.789 57.0215 164.246 57.2832C164.703 57.5449 165.061 57.9258 165.318 58.4258C165.576 58.9258 165.705 59.5312 165.705 60.2422ZM161 60.2422C161 60.7148 161.057 61.1191 161.17 61.4551C161.287 61.791 161.467 62.0488 161.709 62.2285C161.951 62.4043 162.264 62.4922 162.646 62.4922C163.029 62.4922 163.342 62.4043 163.584 62.2285C163.826 62.0488 164.004 61.791 164.117 61.4551C164.23 61.1191 164.287 60.7148 164.287 60.2422C164.287 59.7695 164.23 59.3691 164.117 59.041C164.004 58.709 163.826 58.457 163.584 58.2852C163.342 58.1094 163.027 58.0215 162.641 58.0215C162.07 58.0215 161.654 58.2129 161.393 58.5957C161.131 58.9785 161 59.5273 161 60.2422ZM170.668 56.8906C171.398 56.8906 171.967 57.0801 172.373 57.459C172.783 57.834 172.988 58.4375 172.988 59.2695V63.5H171.611V59.5273C171.611 59.0234 171.508 58.6465 171.301 58.3965C171.094 58.1426 170.773 58.0156 170.34 58.0156C169.711 58.0156 169.273 58.209 169.027 58.5957C168.785 58.9824 168.664 59.543 168.664 60.2773V63.5H167.287V57.0137H168.359L168.553 57.8926H168.629C168.77 57.666 168.943 57.4805 169.15 57.3359C169.361 57.1875 169.596 57.0762 169.854 57.002C170.115 56.9277 170.387 56.8906 170.668 56.8906ZM177.096 63.6172C176.322 63.6172 175.701 63.3359 175.232 62.7734C174.768 62.207 174.535 61.373 174.535 60.2715C174.535 59.1582 174.771 58.3164 175.244 57.7461C175.721 57.1758 176.348 56.8906 177.125 56.8906C177.453 56.8906 177.74 56.9355 177.986 57.0254C178.232 57.1113 178.443 57.2285 178.619 57.377C178.799 57.5254 178.951 57.6914 179.076 57.875H179.141C179.121 57.7539 179.098 57.5801 179.07 57.3535C179.047 57.123 179.035 56.9102 179.035 56.7148V54.3828H180.418V63.5H179.34L179.094 62.6152H179.035C178.918 62.8027 178.77 62.9727 178.59 63.125C178.414 63.2734 178.203 63.3926 177.957 63.4824C177.715 63.5723 177.428 63.6172 177.096 63.6172ZM177.482 62.498C178.072 62.498 178.488 62.3281 178.73 61.9883C178.973 61.6484 179.098 61.1387 179.105 60.459V60.2773C179.105 59.5508 178.988 58.9941 178.754 58.6074C178.52 58.2168 178.092 58.0215 177.471 58.0215C176.975 58.0215 176.596 58.2227 176.334 58.625C176.076 59.0234 175.947 59.5801 175.947 60.2949C175.947 61.0098 176.076 61.5566 176.334 61.9355C176.596 62.3105 176.979 62.498 177.482 62.498ZM186.752 61.6484C186.752 62.0742 186.648 62.4336 186.441 62.7266C186.234 63.0195 185.932 63.2422 185.533 63.3945C185.139 63.543 184.654 63.6172 184.08 63.6172C183.627 63.6172 183.236 63.584 182.908 63.5176C182.584 63.4551 182.277 63.3574 181.988 63.2246V62.0352C182.297 62.1797 182.643 62.3047 183.025 62.4102C183.412 62.5156 183.777 62.5684 184.121 62.5684C184.574 62.5684 184.9 62.498 185.1 62.3574C185.299 62.2129 185.398 62.0215 185.398 61.7832C185.398 61.6426 185.357 61.5176 185.275 61.4082C185.197 61.2949 185.049 61.1797 184.83 61.0625C184.615 60.9414 184.299 60.7969 183.881 60.6289C183.471 60.4648 183.125 60.3008 182.844 60.1367C182.562 59.9727 182.35 59.7754 182.205 59.5449C182.061 59.3105 181.988 59.0117 181.988 58.6484C181.988 58.0742 182.215 57.6387 182.668 57.3418C183.125 57.041 183.729 56.8906 184.479 56.8906C184.877 56.8906 185.252 56.9316 185.604 57.0137C185.959 57.0918 186.307 57.207 186.646 57.3594L186.213 58.3965C185.92 58.2676 185.625 58.1621 185.328 58.0801C185.035 57.9941 184.736 57.9512 184.432 57.9512C184.076 57.9512 183.805 58.0059 183.617 58.1152C183.434 58.2246 183.342 58.3809 183.342 58.584C183.342 58.7363 183.387 58.8652 183.477 58.9707C183.566 59.0762 183.721 59.1816 183.939 59.2871C184.162 59.3926 184.471 59.5234 184.865 59.6797C185.252 59.8281 185.586 59.9844 185.867 60.1484C186.152 60.3086 186.371 60.5059 186.523 60.7402C186.676 60.9746 186.752 61.2773 186.752 61.6484ZM192.74 63.5H191.357V54.3828H192.74V63.5ZM197.293 56.8906C197.871 56.8906 198.367 57.0098 198.781 57.248C199.195 57.4863 199.514 57.8242 199.736 58.2617C199.959 58.6992 200.07 59.2227 200.07 59.832V60.5703H195.74C195.756 61.1992 195.924 61.6836 196.244 62.0234C196.568 62.3633 197.021 62.5332 197.604 62.5332C198.018 62.5332 198.389 62.4941 198.717 62.416C199.049 62.334 199.391 62.2148 199.742 62.0586V63.1777C199.418 63.3301 199.088 63.4414 198.752 63.5117C198.416 63.582 198.014 63.6172 197.545 63.6172C196.908 63.6172 196.348 63.4941 195.863 63.248C195.383 62.998 195.006 62.627 194.732 62.1348C194.463 61.6426 194.328 61.0312 194.328 60.3008C194.328 59.5742 194.451 58.957 194.697 58.4492C194.943 57.9414 195.289 57.5547 195.734 57.2891C196.18 57.0234 196.699 56.8906 197.293 56.8906ZM197.293 57.9277C196.859 57.9277 196.508 58.0684 196.238 58.3496C195.973 58.6309 195.816 59.043 195.77 59.5859H198.723C198.719 59.2617 198.664 58.9746 198.559 58.7246C198.457 58.4746 198.301 58.2793 198.09 58.1387C197.883 57.998 197.617 57.9277 197.293 57.9277ZM204.863 58.0625H203.287V63.5H201.91V58.0625H200.85V57.4004L201.91 56.9961V56.5449C201.91 55.9941 201.996 55.5566 202.168 55.2324C202.344 54.9082 202.594 54.6758 202.918 54.5352C203.246 54.3906 203.637 54.3184 204.09 54.3184C204.387 54.3184 204.658 54.3438 204.904 54.3945C205.15 54.4414 205.357 54.4961 205.525 54.5586L205.168 55.6016C205.035 55.5586 204.887 55.5195 204.723 55.4844C204.559 55.4453 204.383 55.4258 204.195 55.4258C203.883 55.4258 203.652 55.5234 203.504 55.7188C203.359 55.9141 203.287 56.1992 203.287 56.5742V57.0137H204.863V58.0625ZM208.385 62.5039C208.564 62.5039 208.742 62.4883 208.918 62.457C209.094 62.4219 209.254 62.3809 209.398 62.334V63.377C209.246 63.4434 209.049 63.5 208.807 63.5469C208.564 63.5938 208.312 63.6172 208.051 63.6172C207.684 63.6172 207.354 63.5566 207.061 63.4355C206.768 63.3105 206.535 63.0977 206.363 62.7969C206.191 62.4961 206.105 62.0801 206.105 61.5488V58.0625H205.221V57.4473L206.17 56.9609L206.621 55.5723H207.488V57.0137H209.346V58.0625H207.488V61.5312C207.488 61.8594 207.57 62.1035 207.734 62.2637C207.898 62.4238 208.115 62.5039 208.385 62.5039Z" fill="#555555"/>
<path d="M333.24 53.8555C332.84 53.8555 332.493 53.7079 332.198 53.4128C331.903 53.1176 331.755 52.7617 331.755 52.3451V38.1784H330.688V37.0065H335.141V36.2773H341.859V37.0065H346.312V38.1784H345.245V52.3451C345.245 52.7617 345.097 53.1176 344.802 53.4128C344.507 53.7079 344.16 53.8555 343.76 53.8555H333.24ZM335.922 50.4701H337.12V40.3659H335.922V50.4701ZM339.88 50.4701H341.078V40.3659H339.88V50.4701Z" fill="#555555"/>
</svg>
